<?xml version="1.0" encoding="UTF-8" standalone="no"?>
<!-- Created with Inkscape (http://www.inkscape.org/) -->

<svg
   xmlns:dc="http://purl.org/dc/elements/1.1/"
   xmlns:cc="http://creativecommons.org/ns#"
   xmlns:rdf="http://www.w3.org/1999/02/22-rdf-syntax-ns#"
   xmlns:svg="http://www.w3.org/2000/svg"
   xmlns="http://www.w3.org/2000/svg"
   xmlns:sodipodi="http://sodipodi.sourceforge.net/DTD/sodipodi-0.dtd"
   xmlns:inkscape="http://www.inkscape.org/namespaces/inkscape"
   width="150"
   height="150"
   id="svg3345"
   version="1.1"
   inkscape:version="0.48.4 r9939"
   sodipodi:docname="ghost1smiley.svg">
  <defs
     id="defs3347" />
  <sodipodi:namedview
     id="base"
     pagecolor="#ffffff"
     bordercolor="#666666"
     borderopacity="1.0"
     inkscape:pageopacity="0.0"
     inkscape:pageshadow="2"
     inkscape:zoom="5.5"
     inkscape:cx="32"
     inkscape:cy="133.81818"
     inkscape:current-layer="svg3345"
     showgrid="true"
     inkscape:document-units="px"
     inkscape:grid-bbox="true"
     inkscape:window-width="867"
     inkscape:window-height="730"
     inkscape:window-x="4"
     inkscape:window-y="22"
     inkscape:window-maximized="0" />
  <metadata
     id="metadata3350">
    <rdf:RDF>
      <cc:Work
         rdf:about="">
        <dc:format>image/svg+xml</dc:format>
        <dc:type
           rdf:resource="http://purl.org/dc/dcmitype/StillImage" />
        <dc:title></dc:title>
      </cc:Work>
    </rdf:RDF>
  </metadata>
  <path
     id="path104"
     d="m 67.032403,1.781253 c -24.37125,0 -42.85125,16.3875 -44.125,36.53125 -2.85125,45.10375 -1.4725,73.492497 -15.8124999,93.437497 -5.99,8.33 0,13.375 0,13.375 9.4974999,8.365 23.0887499,-2.4125 27.8437499,-7.25 9.19875,-9.355 17.395,-9.54875 21.5,-6.125 6.7,5.58875 10.5875,16.46875 23.21875,16.46875 10.7625,0 16.44125,-10.47625 20.437497,-15.375 5.3275,-6.53125 14.3425,3.2 17.71875,6.15625 6.48875,5.68125 12.065,8.0925 18.96875,6.6875 13.7125,-2.7875 8.2875,-15.55875 4.21875,-19.53125 C 110.4249,96.282503 111.8824,61.227503 111.1574,38.312503 110.5199,18.146253 91.402403,1.781253 67.032403,1.781253 z m -11.15625,29.531249 c 1.30553,0.0104 2.44258,0.3082 3.28125,0.75 5.70875,3 3.90125,9.0225 2.78125,11.5 -3.3775,7.470001 -10.78125,9.718751 -10.78125,9.718751 -8.33125,2.77625 -11.80375,-0.3525 -12.34375,-1.09375 -2.115,-2.91125 0.985,-5.570001 2.46875,-6.468751 2.895,-1.75125 4.5225,-6.10375 5.6875,-8.34375 2.43289,-4.670699 6.03408,-6.08535 8.90625,-6.0625 z m 26.375,0 c 2.8722,-0.0228 6.44211,1.3918 8.875,6.0625 1.16625,2.24 2.82375,6.5925 5.71875,8.34375 1.48375,0.89875 4.581247,3.557501 2.46875,6.468751 -0.53875,0.74125 -4.0125,3.87 -12.34375,1.09375 0,0 -7.40375,-2.24875 -10.78125,-9.718751 -1.11875,-2.4775 -2.9575,-8.5 2.75,-11.5 0.83906,-0.4418 2.00695,-0.73961 3.3125,-0.75 z m -38.5,39.718751 3.75,0 c 0,1.95 0.36,3.34625 1.0625,4.1875 0.7025,0.83875 2.04375,1.28125 4.03125,1.28125 l 7.90625,0 c 2.2625,0 4.015,0.306249 5.25,0.90625 1.2325,0.59875 2.19,1.43625 2.875,2.53125 0.68625,-1.095 1.64125,-1.9325 2.875,-2.53125 1.235,-0.600001 2.985,-0.90625 5.25,-0.90625 l 7.90625,0 c 1.98875,0 3.32875,-0.442501 4.03125,-1.28125 0.70125,-0.84125 1.0625,-2.2375 1.0625,-4.1875 l 3.75,0 0,0.21875 c 0,1.8525 -0.1875,3.405 -0.5625,4.65625 -0.37625,1.25 -0.935,2.243749 -1.6875,3 -0.7525,0.75125 -1.6875,1.285 -2.78125,1.59375 -1.0975,0.30875 -2.345,0.46875 -3.75,0.46875 l -9.25,0 c -0.6175,0 -1.21125,0.0925 -1.8125,0.28125 -0.59875,0.1875 -1.13125,0.48 -1.59375,0.875 -0.46125,0.3925 -0.865,0.88625 -1.15625,1.46875 -0.2925,0.5825 -0.4375,1.27125 -0.4375,2.09375 l -3.6875,0 c 0,-0.8225 -0.14375,-1.51125 -0.4375,-2.09375 -0.28875,-0.5825 -0.66,-1.07625 -1.125,-1.46875 -0.4625,-0.395 -0.99625,-0.6875 -1.59375,-0.875 -0.60125,-0.18875 -1.2275,-0.28125 -1.84375,-0.28125 l -9.25,0 c -1.40375,0 -2.6525,-0.16 -3.75,-0.46875 -1.09625,-0.30875 -2.01375,-0.8425 -2.75,-1.59375 -0.73875,-0.756251 -1.295,-1.75 -1.6875,-3 -0.39625,-1.25125 -0.59375,-2.80375 -0.59375,-4.65625 l 0,-0.21875 z"
     style="fill:#000000;fill-opacity:1;fill-rule:nonzero;stroke:none"
     inkscape:connector-curvature="0" />
</svg>
