<?xml version="1.0" standalone="no"?>
<!DOCTYPE svg PUBLIC "-//W3C//DTD SVG 1.1//EN" "http://www.w3.org/Graphics/SVG/1.1/DTD/svg11.dtd" >
<svg>
<metadata>
Created by FontForge 20090914 at Sun May  5 11:32:15 2013
 By www-data
Copyright (c) 2006-2008 by Envy Technologies Limited. All rights reserved.
</metadata>
<defs>
<font id="EnvyCodeR" horiz-adv-x="1100" >
  <font-face 
    font-family="Envy Code R"
    font-weight="400"
    font-stretch="normal"
    units-per-em="2048"
    panose-1="2 0 5 9 0 0 0 2 0 4"
    ascent="1638"
    descent="-410"
    x-height="1106"
    cap-height="1422"
    bbox="-4 -632.005 1106.35 2054"
    underline-thickness="102"
    underline-position="-154"
    unicode-range="U+0020-U+FB06"
  />
<missing-glyph 
 />
    <glyph glyph-name=".notdef" 
 />
    <glyph glyph-name="space" unicode=" " 
 />
    <glyph glyph-name="space" unicode="&#xa0;" 
 />
    <glyph glyph-name="exclam" unicode="!" 
d="M474 1422h158v-948h-158v948zM474 316h158v-316h-158v316z" />
    <glyph glyph-name="quotedbl" unicode="&#x22;" 
d="M158 1422h158v-474h-158v474zM632 1422h158v-474h-158v474z" />
    <glyph glyph-name="numbersign" unicode="#" 
d="M474 790v-158h158v158h-158zM158 790v158h158v316h158v-316h158v316h158v-316h158v-158h-158v-158h158v-158h-158v-316h-158v316h-158v-316h-158v316h-158v158h158v158h-158z" />
    <glyph glyph-name="dollar" unicode="$" 
d="M474 158h-316v158h316v316c-39.333 0 -78 9 -116 27s-71.833 41.833 -101.5 71.5s-53.5 63.5 -71.5 101.5s-27 76.667 -27 116s9 78 27 116s41.833 71.833 71.5 101.5s63.5 53.5 101.5 71.5s76.667 27 116 27v158h158v-158h316v-158h-316v-316
c39.333 0 78 -9.16699 116 -27.5s71.833 -42.333 101.5 -72s53.5 -63.5 71.5 -101.5s27 -76.333 27 -115c0 -40 -9 -79 -27 -117s-41.833 -71.667 -71.5 -101s-63.5 -53 -101.5 -71s-76.667 -27 -116 -27v-158h-158v158zM316 948c0 -20 4.5 -39.333 13.5 -58
s21 -35.5 36 -50.5s31.833 -27 50.5 -36s38 -13.5 58 -13.5v316c-20 0 -39.333 -4.5 -58 -13.5s-35.5 -21 -50.5 -36s-27 -31.833 -36 -50.5s-13.5 -38 -13.5 -58zM790 474c0 20 -4.5 39.333 -13.5 58s-21 35.5 -36 50.5s-31.833 27 -50.5 36s-38 13.5 -58 13.5v-316
c20 0 39.333 4.5 58 13.5s35.5 21 50.5 36s27 31.833 36 50.5s13.5 38 13.5 58z" />
    <glyph glyph-name="percent" unicode="%" 
d="M158 158h-158l790 1106h158zM474 395c0 32.667 6.16699 63.334 18.5 92.001s29.333 53.834 51 75.501s46.834 38.667 75.501 51s59.334 18.5 92.001 18.5s63.334 -6.16699 92.001 -18.5s53.834 -29.333 75.501 -51s38.667 -46.834 51 -75.501s18.5 -59.334 18.5 -92.001
s-6.16699 -63.334 -18.5 -92.001s-29.333 -53.834 -51 -75.501s-46.834 -38.667 -75.501 -51s-59.334 -18.5 -92.001 -18.5s-63.334 6.16699 -92.001 18.5s-53.834 29.333 -75.501 51s-38.667 46.834 -51 75.501s-18.5 59.334 -18.5 92.001zM0 1027
c0 32.667 6.16699 63.334 18.5 92.001s29.333 53.834 51 75.501s46.834 38.667 75.501 51s59.334 18.5 92.001 18.5s63.334 -6.16699 92.001 -18.5s53.834 -29.333 75.501 -51s38.667 -46.834 51 -75.501s18.5 -59.334 18.5 -92.001s-6.16699 -63.334 -18.5 -92.001
s-29.333 -53.834 -51 -75.501s-46.834 -38.667 -75.501 -51s-59.334 -18.5 -92.001 -18.5s-63.334 6.16699 -92.001 18.5s-53.834 29.333 -75.501 51s-38.667 46.834 -51 75.501s-18.5 59.334 -18.5 92.001zM158 1027c0 -22 7.66699 -40.667 23 -56s34 -23 56 -23
s40.667 7.66699 56 23s23 34 23 56s-7.66699 40.667 -23 56s-34 23 -56 23s-40.667 -7.66699 -56 -23s-23 -34 -23 -56zM632 395c0 -22 7.66699 -40.667 23 -56s34 -23 56 -23s40.667 7.66699 56 23s23 34 23 56s-7.66699 40.667 -23 56s-34 23 -56 23
s-40.667 -7.66699 -56 -23s-23 -34 -23 -56z" />
    <glyph glyph-name="ampersand" unicode="&#x26;" 
d="M695 107c-41.333 -34 -87.335 -60.333 -138.002 -79s-104.667 -28 -162 -28c-65.333 -0 -122.666 12.333 -171.999 37s-90.5 58.5 -123.5 101.5s-57.833 93.333 -74.5 151s-25 119.167 -25 184.5c0 44.667 5.83301 87.667 17.5 129s28.334 79.833 50.001 115.5
s47.5 68 77.5 97s63.333 53.5 100 73.5c-25.333 30 -46.166 63.167 -62.499 99.5s-24.5 75.5 -24.5 117.5c0 43.333 8.33301 84.166 25 122.499s39.334 71.833 68.001 100.5s62.167 51.334 100.5 68.001s79.166 25 122.499 25s84.333 -7.16699 123 -21.5
s72.5 -34.5 101.5 -60.5s51.667 -57.167 68 -93.5s24.166 -76.166 23.499 -119.499c-0.666992 -29.333 -7 -56.166 -19 -80.499s-27.667 -46.666 -47 -66.999s-40.666 -38.5 -63.999 -54.5s-46.333 -30.167 -69 -42.5s-44 -22.5 -64 -30.5l-48 -19l249 -448
c6 15.333 12.5 33.666 19.5 54.999s13.5 43.166 19.5 65.499s11.167 44.666 15.5 66.999s6.83301 42.166 7.5 59.499h158c-8.66699 -59.333 -18 -110 -28 -152s-20.333 -78.167 -31 -108.5s-21.334 -56.166 -32.001 -77.499s-20.667 -40.333 -30 -57l121 -237h-182z
M394.998 158c40.667 0 79.668 7.49902 117.001 22.499s75.666 38.5 114.999 70.5l-288 508c-25.333 -12 -49 -27.667 -71 -47s-41.167 -41.333 -57.5 -66s-29.166 -51.667 -38.499 -81s-14 -59.666 -14 -90.999c0 -43.333 4.16699 -84.166 12.5 -122.499
s21.833 -71.833 40.5 -100.5s43.167 -51.334 73.5 -68.001s67.166 -25 110.499 -25zM315.999 1106c0 -20 5.5 -41.499 16.5 -64.499s30.167 -54.167 57.5 -93.5c22 2.66699 47.333 10.5 76 23.5s55.834 28.333 81.501 46s47.167 36.667 64.5 57s25.666 39.166 24.999 56.499
c-0.666992 22 -5.33398 41.167 -14.001 57.5s-20.5 30.166 -35.5 41.499s-32.167 19.833 -51.5 25.5s-40 8.5 -62 8.5s-42.5 -4.16699 -61.5 -12.5s-35.667 -19.666 -50 -33.999s-25.666 -31 -33.999 -50s-12.5 -39.5 -12.5 -61.5z" />
    <glyph glyph-name="quotesingle" unicode="'" 
d="M474 1422h158v-474h-158v474z" />
    <glyph glyph-name="parenleft" unicode="(" 
d="M790 -316c-39.333 0 -78.5 14.333 -117.5 43s-76 67 -111 115s-67.5 103.833 -97.5 167.5s-56 130.667 -78 201s-39.167 141.666 -51.5 213.999s-18.5 141.5 -18.5 207.5s6.16699 135.167 18.5 207.5s29.5 143.666 51.5 213.999s48 137.333 78 201s62.5 119.5 97.5 167.5
s72 86.333 111 115s78.167 43 117.5 43v-158c-26.667 -13.333 -52.834 -34.666 -78.501 -63.999s-50.167 -64.5 -73.5 -105.5s-45 -86.5 -65 -136.5s-37.333 -102 -52 -156s-26.167 -109 -34.5 -165s-12.5 -110.333 -12.5 -163s4.16699 -107 12.5 -163
s19.833 -111 34.5 -165s32 -106 52 -156s41.667 -95.5 65 -136.5s47.833 -76.167 73.5 -105.5s51.834 -50.666 78.501 -63.999v-158z" />
    <glyph glyph-name="parenright" unicode=")" 
d="M316 -158c26.667 13.333 52.834 34.666 78.501 63.999s50.167 64.5 73.5 105.5s45 86.5 65 136.5s37.333 102 52 156s26.167 109 34.5 165s12.5 110.333 12.5 163s-4.16699 107 -12.5 163s-19.833 111 -34.5 165s-32 106 -52 156s-41.667 95.5 -65 136.5
s-47.833 76.167 -73.5 105.5s-51.834 50.666 -78.501 63.999v158c39.333 0 78.5 -14.333 117.5 -43s76 -67 111 -115s67.5 -103.833 97.5 -167.5s56 -130.667 78 -201s39.167 -141.666 51.5 -213.999s18.5 -141.5 18.5 -207.5s-6.16699 -135.167 -18.5 -207.5
s-29.5 -143.666 -51.5 -213.999s-48 -137.333 -78 -201s-62.5 -119.5 -97.5 -167.5s-72 -86.333 -111 -115s-78.167 -43 -117.5 -43v158z" />
    <glyph glyph-name="asterisk" unicode="*" 
d="M237 1185l237 -79v316h158v-316l237 79l79 -158l-237 -79l158 -237l-158 -79l-158 237l-158 -237l-158 79l158 237l-237 79z" />
    <glyph glyph-name="plus" unicode="+" 
d="M474 632h-316v158h316v316h158v-316h316v-158h-316v-316h-158v316z" />
    <glyph glyph-name="comma" unicode="," 
d="M395 -316c-22 0 -40.665 7.66797 -55.998 23.001s-23 34 -23 56s7.66699 40.667 23 56s34 23 56 23c20 0 35.333 3.5 46 10.5s18.5 17.167 23.5 30.5s7.83301 29.833 8.5 49.5s1 42.167 1 67.5c-22 0 -42.5 4.16699 -61.5 12.5s-35.667 19.666 -50 33.999
s-25.666 31 -33.999 50s-12.5 39.5 -12.5 61.5s4.16699 42.5 12.5 61.5s19.666 35.667 33.999 50s31 25.666 50 33.999s39.5 12.5 61.5 12.5s42.5 -4.16699 61.5 -12.5s35.667 -19.666 50 -33.999s25.666 -31 33.999 -50s12.5 -39.5 12.5 -61.5v-158
c0 -39.333 -5 -78 -15 -116s-24.833 -71.833 -44.5 -101.5s-44.334 -53.5 -74.001 -71.5s-64.167 -27 -103.5 -27z" />
    <glyph glyph-name="hyphen" unicode="-" 
d="M158 790h790v-158h-790v158z" />
    <glyph glyph-name="period" unicode="." 
d="M316 158c0 22 4.16699 42.5 12.5 61.5s19.666 35.667 33.999 50s31 25.666 50 33.999s39.5 12.5 61.5 12.5s42.5 -4.16699 61.5 -12.5s35.667 -19.666 50 -33.999s25.666 -31 33.999 -50s12.5 -39.5 12.5 -61.5s-4.16699 -42.5 -12.5 -61.5s-19.666 -35.667 -33.999 -50
s-31 -25.666 -50 -33.999s-39.5 -12.5 -61.5 -12.5s-42.5 4.16699 -61.5 12.5s-35.667 19.666 -50 33.999s-25.666 31 -33.999 50s-12.5 39.5 -12.5 61.5z" />
    <glyph glyph-name="slash" unicode="/" 
d="M790 1422h158l-632 -1580h-158z" />
    <glyph glyph-name="zero" unicode="0" 
d="M158 1027c0 54.667 10.333 106 31 154s48.834 89.833 84.501 125.5s77.5 63.834 125.5 84.501s99.333 31 154 31s106 -10.333 154 -31s89.833 -48.834 125.5 -84.501s63.834 -77.5 84.501 -125.5s31 -99.333 31 -154v-632c0 -54.667 -10.333 -106 -31 -154
s-48.834 -89.833 -84.501 -125.5s-77.5 -63.834 -125.5 -84.501s-99.333 -31 -154 -31s-106 10.333 -154 31s-89.833 48.834 -125.5 84.501s-63.834 77.5 -84.501 125.5s-31 99.333 -31 154v632zM553 158c32.667 0 63.3301 6.16699 91.9971 18.5s53.834 29.333 75.501 51
s38.667 46.834 51 75.501s18.5 59.334 18.5 92.001v415l-474 -375v-40c0 -32.667 6.16699 -63.334 18.5 -92.001s29.333 -53.834 51 -75.501s46.834 -38.667 75.501 -51s59.334 -18.5 92.001 -18.5zM552.996 1264c-32.667 0 -63.3301 -6.16699 -91.9971 -18.5
s-53.834 -29.333 -75.501 -51s-38.667 -46.834 -51 -75.501s-18.5 -59.334 -18.5 -92.001v-390l474 375v15c0 32.667 -6.16699 63.334 -18.5 92.001s-29.333 53.834 -51 75.501s-46.834 38.667 -75.501 51s-59.334 18.5 -92.001 18.5z" />
    <glyph glyph-name="one" unicode="1" 
d="M316 1264h39c16.667 0 32.167 3 46.5 9s26.833 14.333 37.5 25s19.167 23.167 25.5 37.5s9.5 29.833 9.5 46.5v40h158v-1264h158v-158h-474v158h158v948h-158v158z" />
    <glyph glyph-name="two" unicode="2" 
d="M632 1422c43.333 0 84.1641 -8.33496 122.497 -25.002s71.833 -39.334 100.5 -68.001s51.334 -62.167 68.001 -100.5s25 -79.166 25 -122.499v-158c0 -29.333 -9 -58.333 -27 -87s-41.833 -56.667 -71.5 -84s-63.5 -54.166 -101.5 -80.499l-116 -78.5l-116 -77
c-38 -25.333 -71.833 -50.5 -101.5 -75.5s-53.5 -50 -71.5 -75s-27 -49.833 -27 -74.5v-158h632v-158h-790v356c0 29.333 9 58.666 27 87.999s41.833 58.333 71.5 87s63.5 56.834 101.5 84.501l116 81.5l116 78c38 25.333 71.833 49.833 101.5 73.5s53.5 46.334 71.5 68.001
s27 42.5 27 62.5v127c0 22 -4.16699 42.5 -12.5 61.5s-19.666 35.667 -33.999 50s-31 25.666 -50 33.999s-39.5 12.5 -61.5 12.5h-158c-22 0 -42.5 -4.16699 -61.5 -12.5s-35.667 -19.666 -50 -33.999s-25.666 -31 -33.999 -50s-12.5 -39.5 -12.5 -61.5h-158
c0 43.333 8.33301 84.166 25 122.499s39.334 71.833 68.001 100.5s62.167 51.334 100.5 68.001s79.166 25 122.499 25h158z" />
    <glyph glyph-name="three" unicode="3" 
d="M158 158l395 -0.00585938c32.667 0 63.334 6.16699 92.001 18.5s53.834 29.333 75.501 51s38.667 46.834 51 75.501s18.5 59.334 18.5 92.001s-6.16699 63.334 -18.5 92.001s-29.333 53.834 -51 75.501s-46.834 38.667 -75.501 51s-59.334 18.5 -92.001 18.5h-237v158
h237c32.667 0 63.334 6.16699 92.001 18.5s53.834 29.333 75.501 51s38.667 46.834 51 75.501s18.5 59.334 18.5 92.001s-6.16699 63.334 -18.5 92.001s-29.333 53.834 -51 75.501s-46.834 38.667 -75.501 51s-59.334 18.5 -92.001 18.5h-395v158h395
c54.667 0 106 -10.333 154 -31s89.833 -48.834 125.5 -84.501s63.834 -77.5 84.501 -125.5s31 -99.333 31 -154c0 -65.333 -14.5 -125.333 -43.5 -180s-67.5 -100 -115.5 -136c48 -36 86.5 -81.5 115.5 -136.5s43.5 -114.833 43.5 -179.5c0 -54.667 -10.333 -106 -31 -154
s-48.834 -89.833 -84.501 -125.5s-77.5 -63.834 -125.5 -84.501s-99.333 -31 -154 -31h-395v158z" />
    <glyph glyph-name="four" unicode="4" 
d="M632 1422h158v-948h158v-158h-158v-316h-158v316h-474v158zM632 474v632l-316 -632h316z" />
    <glyph glyph-name="five" unicode="5" 
d="M158 158l395 -0.00195312c32.667 0 63.334 6.16699 92.001 18.5s53.834 29.333 75.501 51s38.667 46.834 51 75.501s18.5 59.334 18.5 92.001s-6.16699 63.334 -18.5 92.001s-29.333 53.834 -51 75.501s-46.834 38.667 -75.501 51s-59.334 18.5 -92.001 18.5h-395v790
h790v-158h-632v-474h237c54.667 0 106 -10.333 154 -31s89.833 -48.834 125.5 -84.501s63.834 -77.5 84.501 -125.5s31 -99.333 31 -154s-10.333 -106 -31 -154s-48.834 -89.833 -84.501 -125.5s-77.5 -63.834 -125.5 -84.501s-99.333 -31 -154 -31h-395v158z" />
    <glyph glyph-name="six" unicode="6" 
d="M553 0c-54.667 0 -106 10.333 -154 31s-89.833 48.834 -125.5 84.501s-63.834 77.5 -84.501 125.5s-31 99.333 -31 154c0 60.667 1.5 117.334 4.5 170.001s9.66699 103.834 20 153.501s25.833 99.5 46.5 149.5s48.5 102.833 83.5 158.5s78.5 115.667 130.5 180
s115 136.166 189 215.499h158l-319.5 -408c-74.333 -96.667 -119.833 -193.667 -136.5 -291c32 21.333 66.333 37.833 103 49.5s75.334 17.5 116.001 17.5c54.667 0 106 -10.333 154 -31s89.833 -48.834 125.5 -84.501s63.834 -77.5 84.501 -125.5s31 -99.333 31 -154
s-10.333 -106 -31 -154s-48.834 -89.833 -84.501 -125.5s-77.5 -63.834 -125.5 -84.501s-99.333 -31 -154 -31zM316 395c0 -32.667 6.16699 -63.334 18.5 -92.001s29.333 -53.834 51 -75.501s46.834 -38.667 75.501 -51s59.334 -18.5 92.001 -18.5
s63.334 6.16699 92.001 18.5s53.834 29.333 75.501 51s38.667 46.834 51 75.501s18.5 59.334 18.5 92.001s-6.16699 63.334 -18.5 92.001s-29.333 53.834 -51 75.501s-46.834 38.667 -75.501 51s-59.334 18.5 -92.001 18.5s-63.334 -6.16699 -92.001 -18.5
s-53.834 -29.333 -75.501 -51s-38.667 -46.834 -51 -75.501s-18.5 -59.334 -18.5 -92.001z" />
    <glyph glyph-name="seven" unicode="7" 
d="M948 1264l-474 -1264h-157l469 1264h-628v158h790v-158z" />
    <glyph glyph-name="eight" unicode="8" 
d="M158 395c0 32 4.16699 63.167 12.5 93.5s20 59 35 86s32.833 52 53.5 75s43 43.5 67 61.5c-24 18 -46.333 38.5 -67 61.5s-38.5 47.833 -53.5 74.5s-26.667 55.167 -35 85.5s-12.5 61.833 -12.5 94.5c0 54.667 10.333 106 31 154s48.834 89.833 84.501 125.5
s77.5 63.834 125.5 84.501s99.333 31 154 31s106 -10.333 154 -31s89.833 -48.834 125.5 -84.501s63.834 -77.5 84.501 -125.5s31 -99.333 31 -154c0 -32.667 -4.33301 -64.167 -13 -94.5s-20.5 -58.833 -35.5 -85.5s-32.833 -51.5 -53.5 -74.5s-43 -43.5 -67 -61.5
c24 -18 46.333 -38.5 67 -61.5s38.5 -48 53.5 -75s26.833 -55.667 35.5 -86s13 -61.5 13 -93.5c0 -54.667 -10.333 -106 -31 -154s-48.834 -89.833 -84.501 -125.5s-77.5 -63.834 -125.5 -84.501s-99.333 -31 -154 -31s-106 10.333 -154 31s-89.833 48.834 -125.5 84.501
s-63.834 77.5 -84.501 125.5s-31 99.333 -31 154zM316 395c0 -32.667 6.16504 -63.334 18.498 -92.001s29.333 -53.834 51 -75.501s46.834 -38.667 75.501 -51s59.334 -18.5 92.001 -18.5s63.334 6.16699 92.001 18.5s53.834 29.333 75.501 51s38.667 46.834 51 75.501
s18.5 59.334 18.5 92.001s-5 63.334 -15 92.001s-24.833 53.834 -44.5 75.501s-44.334 38.667 -74.001 51s-64.167 18.5 -103.5 18.5s-73.833 -6.16699 -103.5 -18.5s-54.334 -29.333 -74.001 -51s-34.5 -46.834 -44.5 -75.501s-15 -59.334 -15 -92.001zM315.998 1027
c0 -32.667 5.00195 -63.334 15.002 -92.001s24.833 -53.834 44.5 -75.501s44.334 -38.667 74.001 -51s64.167 -18.5 103.5 -18.5s73.833 6.16699 103.5 18.5s54.334 29.333 74.001 51s34.5 46.834 44.5 75.501s15 59.334 15 92.001s-6.16699 63.334 -18.5 92.001
s-29.333 53.834 -51 75.501s-46.834 38.667 -75.501 51s-59.334 18.5 -92.001 18.5s-63.334 -6.16699 -92.001 -18.5s-53.834 -29.333 -75.501 -51s-38.667 -46.834 -51 -75.501s-18.5 -59.334 -18.5 -92.001z" />
    <glyph glyph-name="nine" unicode="9" 
d="M553 1422c54.667 0 106 -10.333 154 -31s89.833 -48.834 125.5 -84.501s63.834 -77.5 84.501 -125.5s31 -99.333 31 -154c0 -60.667 -1.5 -117.334 -4.5 -170.001s-9.66699 -103.834 -20 -153.501s-25.833 -99.5 -46.5 -149.5s-48.5 -102.833 -83.5 -158.5
s-78.5 -115.667 -130.5 -180s-115 -136.166 -189 -215.499h-158l319.5 408c74.333 96.667 119.833 193.667 136.5 291c-32 -21.333 -66.333 -37.833 -103 -49.5s-75.334 -17.5 -116.001 -17.5c-54.667 0 -106 10.333 -154 31s-89.833 48.834 -125.5 84.501
s-63.834 77.5 -84.501 125.5s-31 99.333 -31 154s10.333 106 31 154s48.834 89.833 84.501 125.5s77.5 63.834 125.5 84.501s99.333 31 154 31zM790 1027c0 32.667 -6.16699 63.334 -18.5 92.001s-29.333 53.834 -51 75.501s-46.834 38.667 -75.501 51
s-59.334 18.5 -92.001 18.5s-63.334 -6.16699 -92.001 -18.5s-53.834 -29.333 -75.501 -51s-38.667 -46.834 -51 -75.501s-18.5 -59.334 -18.5 -92.001s6.16699 -63.334 18.5 -92.001s29.333 -53.834 51 -75.501s46.834 -38.667 75.501 -51s59.334 -18.5 92.001 -18.5
s63.334 6.16699 92.001 18.5s53.834 29.333 75.501 51s38.667 46.834 51 75.501s18.5 59.334 18.5 92.001z" />
    <glyph glyph-name="colon" unicode=":" 
d="M316 790c0 22 4.16699 42.5 12.5 61.5s19.666 35.667 33.999 50s31 25.666 50 33.999s39.5 12.5 61.5 12.5s42.5 -4.16699 61.5 -12.5s35.667 -19.666 50 -33.999s25.666 -31 33.999 -50s12.5 -39.5 12.5 -61.5s-4.16699 -42.5 -12.5 -61.5s-19.666 -35.667 -33.999 -50
s-31 -25.666 -50 -33.999s-39.5 -12.5 -61.5 -12.5s-42.5 4.16699 -61.5 12.5s-35.667 19.666 -50 33.999s-25.666 31 -33.999 50s-12.5 39.5 -12.5 61.5zM316 158c0 22 4.16699 42.5 12.5 61.5s19.666 35.667 33.999 50s31 25.666 50 33.999s39.5 12.5 61.5 12.5
s42.5 -4.16699 61.5 -12.5s35.667 -19.666 50 -33.999s25.666 -31 33.999 -50s12.5 -39.5 12.5 -61.5s-4.16699 -42.5 -12.5 -61.5s-19.666 -35.667 -33.999 -50s-31 -25.666 -50 -33.999s-39.5 -12.5 -61.5 -12.5s-42.5 4.16699 -61.5 12.5s-35.667 19.666 -50 33.999
s-25.666 31 -33.999 50s-12.5 39.5 -12.5 61.5z" />
    <glyph glyph-name="semicolon" unicode=";" 
d="M316 790c0 22 4.16699 42.5 12.5 61.5s19.666 35.667 33.999 50s31 25.666 50 33.999s39.5 12.5 61.5 12.5s42.5 -4.16699 61.5 -12.5s35.667 -19.666 50 -33.999s25.666 -31 33.999 -50s12.5 -39.5 12.5 -61.5s-4.16699 -42.5 -12.5 -61.5s-19.666 -35.667 -33.999 -50
s-31 -25.666 -50 -33.999s-39.5 -12.5 -61.5 -12.5s-42.5 4.16699 -61.5 12.5s-35.667 19.666 -50 33.999s-25.666 31 -33.999 50s-12.5 39.5 -12.5 61.5zM395 -316c-22 0 -40.665 7.66797 -55.998 23.001s-23 34 -23 56s7.66699 40.667 23 56s34 23 56 23
c20 0 35.333 3.5 46 10.5s18.5 17.167 23.5 30.5s7.83301 29.833 8.5 49.5s1 42.167 1 67.5c-22 0 -42.5 4.16699 -61.5 12.5s-35.667 19.666 -50 33.999s-25.666 31 -33.999 50s-12.5 39.5 -12.5 61.5s4.16699 42.5 12.5 61.5s19.666 35.667 33.999 50s31 25.666 50 33.999
s39.5 12.5 61.5 12.5s42.5 -4.16699 61.5 -12.5s35.667 -19.666 50 -33.999s25.666 -31 33.999 -50s12.5 -39.5 12.5 -61.5v-158c0 -39.333 -5 -78 -15 -116s-24.833 -71.833 -44.5 -101.5s-44.334 -53.5 -74.001 -71.5s-64.167 -27 -103.5 -27z" />
    <glyph glyph-name="less" unicode="&#x3c;" 
d="M768 1264v-114l-439 -439l439 -439v-114h-114l-496 496v114l496 496h114z" />
    <glyph glyph-name="equal" unicode="=" 
d="M0 474v158h948v-158h-948zM0 790v158h948v-158h-948z" />
    <glyph glyph-name="greater" unicode="&#x3e;" 
d="M272 1264l496 -496v-114l-496 -496h-114v114l439 439l-439 439v114h114z" />
    <glyph glyph-name="question" unicode="?" 
d="M158 1027c0 54.667 9.5 105.998 28.5 153.998s45.667 89.833 80 125.5s75.833 63.834 124.5 84.501s102.667 31 162 31s113.333 -9.5 162 -28.5s90.167 -45.667 124.5 -80s61 -75.833 80 -124.5s28.5 -102.667 28.5 -162c0 -52.667 -7.83301 -95.5 -23.5 -128.5
s-35.167 -61.167 -58.5 -84.5s-48.666 -44.333 -75.999 -63s-52.666 -39.667 -75.999 -63s-42.833 -51.666 -58.5 -84.999s-23.5 -76.333 -23.5 -129h-158c0 66 7.83301 120 23.5 162s35.167 76.833 58.5 104.5s48.666 50.834 75.999 69.501s52.666 37.5 75.999 56.5
s42.833 40.667 58.5 65s23.5 56.166 23.5 95.499c0 158 -79 237 -237 237s-237 -79 -237 -237v-79h-158v79zM474 315.998h158v-316h-158v316z" />
    <glyph glyph-name="at" unicode="@" 
d="M474 -316c-59.333 0 -117.333 13.499 -174 40.499s-107.334 62.833 -152.001 107.5s-80.5 95.334 -107.5 152.001s-40.5 114.667 -40.5 174v790c0 59.333 13.5 117.333 40.5 174s62.833 107.334 107.5 152.001s95.334 80.5 152.001 107.5s114.667 40.5 174 40.5
s117.333 -13.5 174 -40.5s107.334 -62.833 152.001 -107.5s80.5 -95.334 107.5 -152.001s40.5 -114.667 40.5 -174v-790h-316c-56 0 -103.833 11.667 -143.5 35s-72.334 53.833 -98.001 91.5s-44.5 80 -56.5 127s-18 94.167 -18 141.5c0 50.667 6.5 99.667 19.5 147
s32.5 89.333 58.5 126s58.833 66.167 98.5 88.5s86.167 33.5 139.5 33.5h158c0 39.333 -9 78 -27 116s-41.833 71.833 -71.5 101.5s-63.5 53.5 -101.5 71.5s-76.667 27 -116 27s-78 -9 -116 -27s-71.833 -41.833 -101.5 -71.5s-53.5 -63.5 -71.5 -101.5
s-27 -76.667 -27 -116v-790c0 -39.333 9 -78 27 -116s41.833 -71.833 71.5 -101.5s63.5 -53.5 101.5 -71.5s76.667 -27 116 -27h316v-158h-316zM790 315.999v474.002h-158c-20 0 -39.333 -5 -58 -15s-35.5 -24.833 -50.5 -44.5s-27 -44.334 -36 -74.001
s-13.5 -64.167 -13.5 -103.5s4.5 -73.833 13.5 -103.5s21 -54.334 36 -74.001s31.833 -34.5 50.5 -44.5s38 -15 58 -15h158z" />
    <glyph glyph-name="A" unicode="A" 
d="M158 1027c0 54.667 10.3311 106 30.998 154s48.834 89.833 84.501 125.5s77.5 63.834 125.5 84.501s99.333 31 154 31s106 -10.333 154 -31s89.833 -48.834 125.5 -84.501s63.834 -77.5 84.501 -125.5s31 -99.333 31 -154v-1027h-158v632h-474v-632h-158v1027z
M789.998 790l0.00390625 237c0 32.667 -6.16699 63.334 -18.5 92.001s-29.333 53.834 -51 75.501s-46.834 38.667 -75.501 51s-59.334 18.5 -92.001 18.5s-63.334 -6.16699 -92.001 -18.5s-53.834 -29.333 -75.501 -51s-38.667 -46.834 -51 -75.501
s-18.5 -59.334 -18.5 -92.001v-237h474z" />
    <glyph glyph-name="B" unicode="B" 
d="M158 1422l395 0.00195312c54.667 0 106 -10.333 154 -31s89.833 -48.834 125.5 -84.501s63.834 -77.5 84.501 -125.5s31 -99.333 31 -154c0 -65.333 -14.5 -125.333 -43.5 -180s-67.5 -100 -115.5 -136c48 -36 86.5 -81.5 115.5 -136.5s43.5 -114.833 43.5 -179.5
c0 -54.667 -10.333 -106 -31 -154s-48.834 -89.833 -84.501 -125.5s-77.5 -63.834 -125.5 -84.501s-99.333 -31 -154 -31h-395v1422zM553 790.002c32.667 0 63.334 6.16309 92.001 18.4961s53.834 29.333 75.501 51s38.667 46.834 51 75.501s18.5 59.334 18.5 92.001
s-6.16699 63.334 -18.5 92.001s-29.333 53.834 -51 75.501s-46.834 38.667 -75.501 51s-59.334 18.5 -92.001 18.5h-237v-474h237zM553 157.998c32.667 0 63.334 6.16309 92.001 18.4961s53.834 29.333 75.501 51s38.667 46.834 51 75.501s18.5 59.334 18.5 92.001
s-6.16699 63.334 -18.5 92.001s-29.333 53.834 -51 75.501s-46.834 38.667 -75.501 51s-59.334 18.5 -92.001 18.5h-237v-474h237z" />
    <glyph glyph-name="C" unicode="C" 
d="M556 1264c-34 0 -65.6689 -6.16309 -95.002 -18.4961s-54.666 -29.333 -75.999 -51s-38.166 -46.834 -50.499 -75.501s-18.5 -59.334 -18.5 -92.001v-632c0 -32.667 6.16699 -63.334 18.5 -92.001s29.166 -53.834 50.499 -75.501s46.666 -38.667 75.999 -51
s61 -18.5 95 -18.5c28 0 54.333 3.83301 79 11.5s47.167 18.5 67.5 32.5s38 30.667 53 50s26.5 40.666 34.5 63.999h158c-9.33301 -45.333 -25.666 -87.333 -48.999 -126s-52.166 -72 -86.499 -100s-73.166 -50 -116.499 -66s-90 -24 -140 -24
c-56 0 -108.167 10.333 -156.5 31s-90.5 48.834 -126.5 84.501s-64.167 77.5 -84.5 125.5s-30.5 99.333 -30.5 154v632c0 54.667 10.167 106 30.5 154s48.5 89.833 84.5 125.5s78.167 63.834 126.5 84.501s100.5 31 156.5 31c50 0 96.833 -8 140.5 -24
s82.5 -38.167 116.5 -66.5s62.667 -61.833 86 -100.5s39.666 -80.334 48.999 -125.001h-158c-8 22.667 -19.5 43.667 -34.5 63s-32.5 36 -52.5 50s-42.5 25 -67.5 33s-51.5 12 -79.5 12z" />
    <glyph glyph-name="D" unicode="D" 
d="M158 1422l395 0.00195312c54.667 0 106 -10.333 154 -31s89.833 -48.834 125.5 -84.501s63.834 -77.5 84.501 -125.5s31 -99.333 31 -154v-632c0 -54.667 -10.333 -106 -31 -154s-48.834 -89.833 -84.501 -125.5s-77.5 -63.834 -125.5 -84.501s-99.333 -31 -154 -31h-395
v1422zM553 158.002c32.667 0 63.334 6.16309 92.001 18.4961s53.834 29.333 75.501 51s38.667 46.834 51 75.501s18.5 59.334 18.5 92.001v632c0 32.667 -6.16699 63.334 -18.5 92.001s-29.333 53.834 -51 75.501s-46.834 38.667 -75.501 51s-59.334 18.5 -92.001 18.5h-237
v-1106h237z" />
    <glyph glyph-name="E" unicode="E" 
d="M158 1422h790v-158h-632v-474h474v-158h-474v-474h632v-158h-790v1422z" />
    <glyph glyph-name="F" unicode="F" 
d="M158 1422h790v-158h-632v-474h474v-158h-474v-632h-158v1422z" />
    <glyph glyph-name="G" unicode="G" 
d="M790 158c0 -20 -8.16992 -39.3301 -24.5029 -57.9971s-36.5 -35.5 -60.5 -50.5s-49.833 -27 -77.5 -36s-52.5 -13.5 -74.5 -13.5c-54.667 0 -106 10.333 -154 31s-89.833 48.834 -125.5 84.501s-63.834 77.5 -84.501 125.5s-31 99.333 -31 154v632
c0 54.667 10.333 106 31 154s48.834 89.833 84.501 125.5s77.5 63.834 125.5 84.501s99.333 31 154 31c48 0 93.333 -8 136 -24s81 -38.167 115 -66.5s62.833 -61.833 86.5 -100.5s40.167 -80.334 49.5 -125.001h-164c-8 22.667 -19.333 43.667 -34 63s-31.667 36 -51 50
s-40.666 25 -63.999 33s-48 12 -74 12c-32.667 0 -63.334 -6.16699 -92.001 -18.5s-53.834 -29.333 -75.501 -51s-38.667 -46.834 -51 -75.501s-18.5 -59.334 -18.5 -92.001v-632c0 -32.667 6.16699 -63.334 18.5 -92.001s29.333 -53.834 51 -75.501
s46.834 -38.667 75.501 -51s59.334 -18.5 92.001 -18.5c32 0 62.333 8.66699 91 26s53.834 38.333 75.501 63s38.834 50.5 51.501 77.5s19 50.5 19 70.5v237h-158v158h316v-790h-158v158z" />
    <glyph glyph-name="H" unicode="H" 
d="M158 1422h158v-632h474v632h158v-1422h-158v632h-474v-632h-158v1422z" />
    <glyph glyph-name="I" unicode="I" 
d="M158 158h316v1106h-316v158h790v-158h-316v-1106h316v-158h-790v158z" />
    <glyph glyph-name="J" unicode="J" 
d="M158 474h157.998v-79c0 -32.667 6.16699 -63.334 18.5 -92.001s29.333 -53.834 51 -75.501s46.834 -38.667 75.501 -51s59.334 -18.5 92.001 -18.5s63.334 6.16699 92.001 18.5s53.834 29.333 75.501 51s38.667 46.834 51 75.501s18.5 59.334 18.5 92.001v1027h158v-1027
c0 -54.667 -10.333 -106 -31 -154s-48.834 -89.833 -84.501 -125.5s-77.5 -63.834 -125.5 -84.501s-99.333 -31 -154 -31s-106 10.333 -154 31s-89.833 48.834 -125.5 84.501s-63.834 77.5 -84.501 125.5s-31 99.333 -31 154v79z" />
    <glyph glyph-name="K" unicode="K" 
d="M316 761l454 661h178l-474 -711l474 -711h-180l-452 666v-666h-158v1422h158v-661z" />
    <glyph glyph-name="L" unicode="L" 
d="M158 1422h158v-1264h632v-158h-790v1422z" />
    <glyph glyph-name="M" unicode="M" 
d="M790 1106l-237 -414l-237 414v-1106h-158v1422h158l237 -474l237 474h158v-1422h-158v1106z" />
    <glyph glyph-name="N" unicode="N" 
d="M158 0v1422h158l474 -1052v1052h158v-1422h-158l-474 1052v-1052h-158z" />
    <glyph glyph-name="O" unicode="O" 
d="M158 1027c0 54.667 10.333 106 31 154s48.834 89.833 84.501 125.5s77.5 63.834 125.5 84.501s99.333 31 154 31s106 -10.333 154 -31s89.833 -48.834 125.5 -84.501s63.834 -77.5 84.501 -125.5s31 -99.333 31 -154v-632c0 -54.667 -10.333 -106 -31 -154
s-48.834 -89.833 -84.501 -125.5s-77.5 -63.834 -125.5 -84.501s-99.333 -31 -154 -31s-106 10.333 -154 31s-89.833 48.834 -125.5 84.501s-63.834 77.5 -84.501 125.5s-31 99.333 -31 154v632zM553 1264c-32.667 0 -63.334 -6.16699 -92.001 -18.5
s-53.834 -29.333 -75.501 -51s-38.667 -46.834 -51 -75.501s-18.5 -59.334 -18.5 -92.001v-632c0 -32.667 6.16699 -63.334 18.5 -92.001s29.333 -53.834 51 -75.501s46.834 -38.667 75.501 -51s59.334 -18.5 92.001 -18.5s63.334 6.16699 92.001 18.5
s53.834 29.333 75.501 51s38.667 46.834 51 75.501s18.5 59.334 18.5 92.001v632c0 32.667 -6.16699 63.334 -18.5 92.001s-29.333 53.834 -51 75.501s-46.834 38.667 -75.501 51s-59.334 18.5 -92.001 18.5z" />
    <glyph glyph-name="P" unicode="P" 
d="M316 0l-158 0.00195312v1422h395c54.667 0 106 -10.333 154 -31s89.833 -48.834 125.5 -84.501s63.834 -77.5 84.501 -125.5s31 -99.333 31 -154s-10.333 -106 -31 -154s-48.834 -89.833 -84.501 -125.5s-77.5 -63.834 -125.5 -84.501s-99.333 -31 -154 -31h-237v-632z
M553 790.002c32.667 0 63.334 6.16309 92.001 18.4961s53.834 29.333 75.501 51s38.667 46.834 51 75.501s18.5 59.334 18.5 92.001s-6.16699 63.334 -18.5 92.001s-29.333 53.834 -51 75.501s-46.834 38.667 -75.501 51s-59.334 18.5 -92.001 18.5h-237v-474h237z" />
    <glyph glyph-name="Q" unicode="Q" 
d="M692 25c-44.667 -16.667 -91 -25.001 -139 -25.001c-54.667 0 -106 10.333 -154 31s-89.833 48.834 -125.5 84.501s-63.834 77.5 -84.501 125.5s-31 99.333 -31 154v632c0 54.667 10.333 106 31 154s48.834 89.833 84.501 125.5s77.5 63.834 125.5 84.501
s99.333 31 154 31s106 -10.333 154 -31s89.833 -48.834 125.5 -84.501s63.834 -77.5 84.501 -125.5s31 -99.333 31 -154v-632c0 -57.333 -11.333 -111 -34 -161s-53.334 -93 -92.001 -129l132 -263h-170zM553 1264c-32.667 0 -63.333 -6.16406 -92 -18.4971
s-53.834 -29.333 -75.501 -51s-38.667 -46.834 -51 -75.501s-18.5 -59.334 -18.5 -92.001v-632c0 -32.667 6.16699 -63.334 18.5 -92.001s29.333 -53.834 51 -75.501s46.834 -38.667 75.501 -51s59.334 -18.5 92.001 -18.5c24.667 0 47.334 3.33301 68.001 10l-153 306h170
l108 -217c13.333 19.333 24 40.666 32 63.999s12 48 12 74v632c0 32.667 -6.16699 63.334 -18.5 92.001s-29.333 53.834 -51 75.501s-46.834 38.667 -75.501 51s-59.334 18.5 -92.001 18.5z" />
    <glyph glyph-name="R" unicode="R" 
d="M643 642c208 -426 311.996 -639.999 311.996 -641.999h-181c-205.333 419.333 -308 630 -308 632h-150v-632h-158v1422h395c54.667 0 106 -10.333 154 -31s89.833 -48.834 125.5 -84.501s63.834 -77.5 84.501 -125.5s31 -99.333 31 -154c0 -46.667 -7.66699 -91 -23 -133
s-36.666 -80 -63.999 -114s-59.666 -63 -96.999 -87s-77.666 -41 -120.999 -51zM552.996 790.001c32.667 0 63.334 6.16309 92.001 18.4961s53.834 29.333 75.501 51s38.667 46.834 51 75.501s18.5 59.334 18.5 92.001s-6.16699 63.334 -18.5 92.001
s-29.333 53.834 -51 75.501s-46.834 38.667 -75.501 51s-59.334 18.5 -92.001 18.5h-237v-474h237z" />
    <glyph glyph-name="S" unicode="S" 
d="M316 1027c0 -32.667 6.16699 -63.334 18.5 -92.001s29.333 -53.834 51 -75.501s46.834 -38.667 75.501 -51s59.334 -18.5 92.001 -18.5c54.667 0 106 -10.333 154 -31s89.833 -48.834 125.5 -84.501s63.834 -77.5 84.501 -125.5s31 -99.333 31 -154
s-10.333 -106 -31 -154s-48.834 -89.833 -84.501 -125.5s-77.5 -63.834 -125.5 -84.501s-99.333 -31 -154 -31h-395v158h395c32.667 0 63.334 6.16699 92.001 18.5s53.834 29.333 75.501 51s38.667 46.834 51 75.501s18.5 59.334 18.5 92.001s-6.16699 63.334 -18.5 92.001
s-29.333 53.834 -51 75.501s-46.834 38.667 -75.501 51s-59.334 18.5 -92.001 18.5c-54.667 0 -106 10.333 -154 31s-89.833 48.834 -125.5 84.501s-63.834 77.5 -84.501 125.5s-31 99.333 -31 154s10.333 106 31 154s48.834 89.833 84.501 125.5s77.5 63.834 125.5 84.501
s99.333 31 154 31h395v-158h-395c-32.667 0 -63.334 -6.16699 -92.001 -18.5s-53.834 -29.333 -75.501 -51s-38.667 -46.834 -51 -75.501s-18.5 -59.334 -18.5 -92.001z" />
    <glyph glyph-name="T" unicode="T" 
d="M474 1264h-316v158h790v-158h-316v-1264h-158v1264z" />
    <glyph glyph-name="U" unicode="U" 
d="M158 1422h157.998v-1027c0 -32.667 6.16699 -63.334 18.5 -92.001s29.333 -53.834 51 -75.501s46.834 -38.667 75.501 -51s59.334 -18.5 92.001 -18.5s63.334 6.16699 92.001 18.5s53.834 29.333 75.501 51s38.667 46.834 51 75.501s18.5 59.334 18.5 92.001v1027h158
v-1027c0 -54.667 -10.333 -106 -31 -154s-48.834 -89.833 -84.501 -125.5s-77.5 -63.834 -125.5 -84.501s-99.333 -31 -154 -31s-106 10.333 -154 31s-89.833 48.834 -125.5 84.501s-63.834 77.5 -84.501 125.5s-31 99.333 -31 154v395v632z" />
    <glyph glyph-name="V" unicode="V" 
d="M316 1422l237 -1040l237 1040h158l-316 -1422h-158l-316 1422h158z" />
    <glyph glyph-name="W" unicode="W" 
d="M790 1422h158v-1422h-158l-237 474l-237 -474h-158v1422h158v-1106l237 414l237 -414v1106z" />
    <glyph glyph-name="X" unicode="X" 
d="M553 904l230 518h166l-310 -711l310 -711h-166l-230 517l-230 -517h-165l309 711l-310 711h166z" />
    <glyph glyph-name="Y" unicode="Y" 
d="M474 472l-316 950h158l237 -711l237 711h158l-316 -948v-474h-158v472z" />
    <glyph glyph-name="Z" unicode="Z" 
d="M158 158l609 1106h-609v158h790v-158l-597 -1106h597v-158h-790v158z" />
    <glyph glyph-name="bracketleft" unicode="[" 
d="M316 1580h474v-158h-316v-1580h316v-158h-474v1896z" />
    <glyph glyph-name="backslash" unicode="\" 
d="M948 -158h-158l-632 1580h158z" />
    <glyph glyph-name="bracketright" unicode="]" 
d="M790 -316h-474v158h316v1580h-316v158h474v-1896z" />
    <glyph glyph-name="asciicircum" unicode="^" 
d="M458 1422h190l307 -632h-181l-221 442l-221 -442h-182z" />
    <glyph glyph-name="underscore" unicode="_" 
d="M0 -316h1106v-158h-1106v158z" />
    <glyph glyph-name="grave" unicode="`" 
d="M158 1422v158l474 -237v-158z" />
    <glyph glyph-name="a" unicode="a" 
d="M474 0c-43.333 0 -84.165 8.33203 -122.498 24.999s-71.833 39.334 -100.5 68.001s-51.334 62.167 -68.001 100.5s-25 79.166 -25 122.499s8.33301 84.166 25 122.499s39.334 71.833 68.001 100.5s62.167 51.334 100.5 68.001s79.166 25 122.499 25h316v79
c0 32.667 -6.16699 63.334 -18.5 92.001s-29.333 53.834 -51 75.501s-46.834 38.667 -75.501 51s-59.334 18.5 -92.001 18.5h-237v158h237c54.667 0 106 -10.333 154 -31s89.833 -48.834 125.5 -84.501s63.834 -77.5 84.501 -125.5s31 -99.333 31 -154v-711h-474z
M474.001 473.999c-22 0 -42.5 -4.16895 -61.5 -12.502s-35.667 -19.666 -50 -33.999s-25.666 -31 -33.999 -50s-12.5 -39.5 -12.5 -61.5s4.16699 -42.5 12.5 -61.5s19.666 -35.667 33.999 -50s31 -25.666 50 -33.999s39.5 -12.5 61.5 -12.5h316v316h-316z" />
    <glyph glyph-name="b" unicode="b" 
d="M158 1422l158 0.000976562v-395c25.333 18.667 53 34.667 83 48c48 20.667 99.333 31 154 31s106 -10.333 154 -31s89.833 -48.834 125.5 -84.501s63.834 -77.5 84.501 -125.5s31 -99.333 31 -154v-316c0 -54.667 -10.333 -106 -31 -154s-48.834 -89.833 -84.501 -125.5
s-77.5 -63.834 -125.5 -84.501s-99.333 -31 -154 -31s-106 10.333 -154 31c-30 12.667 -57.667 28.334 -83 47.001v-78h-158v1422zM316 720.001l0.000976562 -325.001c0 -32.667 6.16699 -63.334 18.5 -92.001s29.333 -53.834 51 -75.501s46.834 -38.667 75.501 -51
s59.334 -18.5 92.001 -18.5s63.334 6.16699 92.001 18.5s53.834 29.333 75.501 51s38.667 46.834 51 75.501s18.5 59.334 18.5 92.001v316c0 32.667 -6.16699 63.334 -18.5 92.001s-29.333 53.834 -51 75.501s-46.834 38.667 -75.501 51s-59.334 18.5 -92.001 18.5
s-63.334 -6.16699 -92.001 -18.5s-53.834 -29.333 -75.501 -51s-38.834 -46.834 -51.501 -75.501z" />
    <glyph glyph-name="c" unicode="c" 
d="M316 395c0 -32.667 7 -63.332 21 -91.999s32.5 -53.834 55.5 -75.501s49.667 -38.667 80 -51s61.833 -18.5 94.5 -18.5c26 0 50.667 3.83301 74 11.5s44.666 18.5 63.999 32.5s36.333 30.667 51 50s26 40.666 34 63.999h158
c-9.33301 -45.333 -25.833 -87.166 -49.5 -125.499s-52.5 -71.666 -86.5 -99.999s-72.333 -50.5 -115 -66.5s-88 -24 -136 -24c-54.667 0 -106.334 10.333 -155.001 31s-91.334 48.834 -128.001 84.501s-65.834 77.5 -87.501 125.5s-32.5 99.333 -32.5 154v316
c0 54.667 10.833 106 32.5 154s50.834 89.833 87.501 125.5s79.334 63.834 128.001 84.501s100.334 31 155.001 31c48 0 93.333 -8 136 -24s81 -38.167 115 -66.5s62.833 -61.833 86.5 -100.5s40.167 -80.334 49.5 -125.001h-158c-8 22.667 -19.333 43.667 -34 63
s-31.667 36 -51 50s-40.666 25 -63.999 33s-48 12 -74 12c-32.667 0 -64.167 -6.16699 -94.5 -18.5s-57 -29.333 -80 -51s-41.5 -46.834 -55.5 -75.501s-21 -59.334 -21 -92.001v-316z" />
    <glyph glyph-name="d" unicode="d" 
d="M948 0l-158 -0.000976562v78c-25.333 -18.667 -53 -34.334 -83 -47.001c-48 -20.667 -99.333 -31 -154 -31s-106 10.333 -154 31s-89.833 48.834 -125.5 84.501s-63.834 77.5 -84.501 125.5s-31 99.333 -31 154v316c0 54.667 10.333 106 31 154
s48.834 89.833 84.501 125.5s77.5 63.834 125.5 84.501s99.333 31 154 31s106 -10.333 154 -31c30 -13.333 57.667 -29.333 83 -48v395h158v-1422zM772 802.999c-12.667 28.667 -29.833 53.835 -51.5 75.502s-46.834 38.667 -75.501 51s-59.334 18.5 -92.001 18.5
s-63.334 -6.16699 -92.001 -18.5s-53.834 -29.333 -75.501 -51s-38.667 -46.834 -51 -75.501s-18.5 -59.334 -18.5 -92.001v-316c0 -32.667 6.16699 -63.334 18.5 -92.001s29.333 -53.834 51 -75.501s46.834 -38.667 75.501 -51s59.334 -18.5 92.001 -18.5
s63.334 6.16699 92.001 18.5s53.834 29.333 75.501 51s38.667 46.834 51 75.501s18.5 59.334 18.5 92.001v325z" />
    <glyph glyph-name="e" unicode="e" 
d="M316 395c0 -32.667 6.16406 -63.333 18.4971 -92s29.333 -53.834 51 -75.501s46.834 -38.667 75.501 -51s59.334 -18.5 92.001 -18.5h395v-158h-395c-54.667 0 -106 10.333 -154 31s-89.833 48.834 -125.5 84.501s-63.834 77.5 -84.501 125.5s-31 99.333 -31 154v316
c0 54.667 10.333 106 31 154s48.834 89.833 84.501 125.5s77.5 63.834 125.5 84.501s99.333 31 154 31s106 -10.333 154 -31s89.833 -48.834 125.5 -84.501s63.834 -77.5 84.501 -125.5s31 -99.333 31 -154v-237h-632v-79zM315.997 632.001h474.004v79
c0 32.667 -6.16699 63.334 -18.5 92.001s-29.333 53.834 -51 75.501s-46.834 38.667 -75.501 51s-59.334 18.5 -92.001 18.5s-63.334 -6.16699 -92.001 -18.5s-53.834 -29.333 -75.501 -51s-38.667 -46.834 -51 -75.501s-18.5 -59.334 -18.5 -92.001v-79z" />
    <glyph glyph-name="f" unicode="f" 
d="M158 948l158.001 0.000976562v79c0 54.667 10.333 106 31 154s48.834 89.833 84.501 125.5s77.5 63.834 125.5 84.501s99.333 31 154 31h237v-158h-237c-32.667 0 -63.334 -6.16699 -92.001 -18.5s-53.834 -29.333 -75.501 -51s-38.667 -46.834 -51 -75.501
s-18.5 -59.334 -18.5 -92.001v-79h316v-158h-316v-790h-158v790h-158v158z" />
    <glyph glyph-name="g" unicode="g" 
d="M316 -316l236.999 -0.00292969c32.667 0 63.334 6.16699 92.001 18.5s53.834 29.333 75.501 51s38.667 46.834 51 75.501s18.5 59.334 18.5 92.001v158c-33.333 -24.667 -70 -44 -110 -58s-82.333 -21 -127 -21c-54.667 0 -106 10.333 -154 31
s-89.833 48.834 -125.5 84.501s-63.834 77.5 -84.501 125.5s-31 99.333 -31 154v316c0 54.667 10.333 106 31 154s48.834 89.833 84.501 125.5s77.5 63.834 125.5 84.501s99.333 31 154 31c44.667 0 87 -7 127 -21s76.667 -33.667 110 -59v80h158v-1185
c0 -54.667 -10.333 -106 -31 -154s-48.834 -89.833 -84.501 -125.5s-77.5 -63.834 -125.5 -84.501s-99.333 -31 -154 -31h-237v158zM315.999 394.997c0 -32.667 6.16699 -63.3311 18.5 -91.998s29.333 -53.834 51 -75.501s46.834 -38.667 75.501 -51
s59.334 -18.5 92.001 -18.5c32 0 62 5.83301 90 17.5s52.667 27.834 74 48.501s38.5 44.667 51.5 72s20.167 57 21.5 89v336c-1.33301 31.333 -8.5 60.833 -21.5 88.5s-30.167 51.667 -51.5 72s-46 36.5 -74 48.5s-58 18 -90 18c-32.667 0 -63.334 -6.16699 -92.001 -18.5
s-53.834 -29.333 -75.501 -51s-38.667 -46.834 -51 -75.501s-18.5 -59.334 -18.5 -92.001v-316z" />
    <glyph glyph-name="h" unicode="h" 
d="M790 711c0 32.667 -6.16699 63.333 -18.5 92s-29.333 53.834 -51 75.501s-46.834 38.667 -75.501 51s-59.334 18.5 -92.001 18.5c-32 0 -62.167 -6 -90.5 -18s-53.166 -28.167 -74.499 -48.5s-38.333 -44.333 -51 -72s-19.667 -57.167 -21 -88.5v-721h-158v1422h158v-396
c33.333 25.333 70 45 110 59s82.333 21 127 21c54.667 0 106 -10.333 154 -31s89.833 -48.834 125.5 -84.501s63.834 -77.5 84.501 -125.5s31 -99.333 31 -154v-711h-158v711z" />
    <glyph glyph-name="i" unicode="i" 
d="M474 948h-158v158h316v-1106h-158v948zM474 1422h158v-158h-158v158z" />
    <glyph glyph-name="j" unicode="j" 
d="M158 -158h237c158 0 237 79 237 237v869h-158v158h316v-1106c0 -39.333 -9 -78 -27 -116s-41.833 -71.833 -71.5 -101.5s-63.5 -53.5 -101.5 -71.5s-76.667 -27 -116 -27h-316v158zM632 1422h158v-158h-158v158z" />
    <glyph glyph-name="k" unicode="k" 
d="M316 632h38l400 474h194l-453 -553l453 -553h-194l-400 474h-38v-474h-158v1422h158v-790z" />
    <glyph glyph-name="l" unicode="l" 
d="M474 1264h-158v158h316v-1422h-158v1264z" />
    <glyph glyph-name="m" unicode="m" 
d="M474 869h-1.00098c0.666992 52.667 -25.333 79 -78 79s-78.667 -26.333 -78 -79h-1v-869h-158v1106h197c24 0 46.667 -4 68 -12s40.5 -19 57.5 -33s31.5 -30.667 43.5 -50s20.333 -40.333 25 -63h7c4.66699 22.667 12.834 43.667 24.501 63s26 36 43 50s36.333 25 58 33
s44.5 12 68.5 12c27.333 0 53 -5.16699 77 -15.5s45 -24.333 63 -42s32.167 -38.5 42.5 -62.5s15.5 -49.667 15.5 -77v-909h-158v869c0 52.667 -26.333 79 -79 79s-79 -26.333 -79 -79v-869h-158v869z" />
    <glyph glyph-name="n" unicode="n" 
d="M553 948c-32 0 -62.167 -6.00098 -90.5 -18.001s-53.166 -28.167 -74.499 -48.5s-38.333 -44.333 -51 -72s-19.667 -57.167 -21 -88.5v-721h-158v1106h158v-80c33.333 25.333 70 45 110 59s82.333 21 127 21c54.667 0 106 -10.333 154 -31s89.833 -48.834 125.5 -84.501
s63.834 -77.5 84.501 -125.5s31 -99.333 31 -154v-711h-158v711c0 32.667 -6.16699 63.334 -18.5 92.001s-29.333 53.834 -51 75.501s-46.834 38.667 -75.501 51s-59.334 18.5 -92.001 18.5z" />
    <glyph glyph-name="o" unicode="o" 
d="M158 711c0 54.667 10.333 106 31 154s48.834 89.833 84.501 125.5s77.5 63.834 125.5 84.501s99.333 31 154 31s106 -10.333 154 -31s89.833 -48.834 125.5 -84.501s63.834 -77.5 84.501 -125.5s31 -99.333 31 -154v-316c0 -54.667 -10.333 -106 -31 -154
s-48.834 -89.833 -84.501 -125.5s-77.5 -63.834 -125.5 -84.501s-99.333 -31 -154 -31s-106 10.333 -154 31s-89.833 48.834 -125.5 84.501s-63.834 77.5 -84.501 125.5s-31 99.333 -31 154v316zM316 395c0 -32.667 6.16699 -63.334 18.5 -92.001s29.333 -53.834 51 -75.501
s46.834 -38.667 75.501 -51s59.334 -18.5 92.001 -18.5s63.334 6.16699 92.001 18.5s53.834 29.333 75.501 51s38.667 46.834 51 75.501s18.5 59.334 18.5 92.001v316c0 32.667 -6.16699 63.334 -18.5 92.001s-29.333 53.834 -51 75.501s-46.834 38.667 -75.501 51
s-59.334 18.5 -92.001 18.5s-63.334 -6.16699 -92.001 -18.5s-53.834 -29.333 -75.501 -51s-38.667 -46.834 -51 -75.501s-18.5 -59.334 -18.5 -92.001v-316z" />
    <glyph glyph-name="p" unicode="p" 
d="M158 1106l158 0.00195312v-80c33.333 25.333 70 45 110 59s82.333 21 127 21c54.667 0 106 -10.333 154 -31s89.833 -48.834 125.5 -84.501s63.834 -77.5 84.501 -125.5s31 -99.333 31 -154v-316c0 -54.667 -10.333 -106 -31 -154s-48.834 -89.833 -84.501 -125.5
s-77.5 -63.834 -125.5 -84.501s-99.333 -31 -154 -31c-44.667 0 -87 7 -127 21s-76.667 33.333 -110 58v-553h-158v1580zM553 948.002c-32 0 -62.333 -5.00195 -91 -15.002s-53.834 -24.833 -75.501 -44.5s-38.834 -44.334 -51.501 -74.001s-19 -64.167 -19 -103.5v-316
c0 -39.333 6.33301 -73.833 19 -103.5s29.834 -54.334 51.501 -74.001s46.834 -34.5 75.501 -44.5s59 -15 91 -15c32.667 0 63.334 6.16699 92.001 18.5s53.834 29.333 75.501 51s38.667 46.834 51 75.501s18.5 59.334 18.5 92.001v316
c0 32.667 -6.16699 63.334 -18.5 92.001s-29.333 53.834 -51 75.501s-46.834 38.667 -75.501 51s-59.334 18.5 -92.001 18.5z" />
    <glyph glyph-name="q" unicode="q" 
d="M790 79c-33.333 -24.667 -70 -44.002 -110 -58.002s-82.333 -21 -127 -21c-54.667 0 -106 10.333 -154 31s-89.833 48.834 -125.5 84.501s-63.834 77.5 -84.501 125.5s-31 99.333 -31 154v316c0 54.667 10.333 106 31 154s48.834 89.833 84.501 125.5
s77.5 63.834 125.5 84.501s99.333 31 154 31c44.667 0 87 -7 127 -21s76.667 -33.667 110 -59v80h158v-1580h-158v553zM316 394.998c0 -32.667 6.16699 -63.332 18.5 -91.999s29.333 -53.834 51 -75.501s46.834 -38.667 75.501 -51s59.334 -18.5 92.001 -18.5
c32 0 62.333 5 91 15s53.834 24.833 75.501 44.5s38.834 44.334 51.501 74.001s19 64.167 19 103.5v316c0 39.333 -6.33301 73.833 -19 103.5s-29.834 54.334 -51.501 74.001s-46.834 34.5 -75.501 44.5s-59 15 -91 15c-32.667 0 -63.334 -6.16699 -92.001 -18.5
s-53.834 -29.333 -75.501 -51s-38.667 -46.834 -51 -75.501s-18.5 -59.334 -18.5 -92.001v-316z" />
    <glyph glyph-name="r" unicode="r" 
d="M158 0l0.000976562 1106h158v-160c11.333 20.667 30 40.5 56 59.5s54.5 36 85.5 51s62.333 27 94 36s58.5 13.5 80.5 13.5c48 0 89.167 -8 123.5 -24s63.666 -38.167 87.999 -66.5s44.166 -61.833 59.499 -100.5s27.666 -80.334 36.999 -125.001h-164l-21.5 63
c-6.33301 19.333 -14.333 36 -24 50s-22 25 -37 33s-35.5 12 -61.5 12c-21.333 0 -44 -4.16699 -68 -12.5s-47.667 -20 -71 -35s-45.666 -32.667 -66.999 -53s-40.166 -42.166 -56.499 -65.499s-29.333 -47.833 -39 -73.5s-14.5 -51.5 -14.5 -77.5v-631h-158z" />
    <glyph glyph-name="s" unicode="s" 
d="M948 1106v-158h-395c-39.333 0 -73.833 -4.5 -103.5 -13.5s-54.334 -21 -74.001 -36s-34.5 -31.833 -44.5 -50.5s-15 -38 -15 -58s5 -39.333 15 -58s24.833 -35.5 44.5 -50.5s44.334 -27 74.001 -36s64.167 -13.5 103.5 -13.5c26 0 54 -2.33301 84 -7s59.667 -12 89 -22
s57.333 -23.167 84 -39.5s50.167 -36.166 70.5 -59.499s36.666 -50.333 48.999 -81s18.5 -65.667 18.5 -105c0 -40 -9.5 -79 -28.5 -117s-45.667 -72 -80 -102s-75.833 -54 -124.5 -72s-102.667 -27 -162 -27h-395v158h395c39.333 0 73.833 4.5 103.5 13.5
s54.334 21 74.001 36s34.5 32.167 44.5 51.5s15 39 15 59c0 19.333 -5 38.333 -15 57s-24.833 35.334 -44.5 50.001s-44.334 26.5 -74.001 35.5s-64.167 13.5 -103.5 13.5c-26 0 -54 2.33301 -84 7s-59.667 12.167 -89 22.5s-57.333 23.666 -84 39.999
s-50.167 36.166 -70.5 59.499s-36.666 50.5 -48.999 81.5s-18.5 66.167 -18.5 105.5s9.5 78 28.5 116s45.667 71.833 80 101.5s75.833 53.5 124.5 71.5s102.667 27 162 27h395z" />
    <glyph glyph-name="t" unicode="t" 
d="M158 1106l157.999 0.000976562v316h158v-316h316v-158h-316v-553c0 -32.667 6.16699 -63.334 18.5 -92.001s29.333 -53.834 51 -75.501s46.834 -38.667 75.501 -51s59.334 -18.5 92.001 -18.5h237v-158h-237c-54.667 0 -106 10.333 -154 31s-89.833 48.834 -125.5 84.501
s-63.834 77.5 -84.501 125.5s-31 99.333 -31 154v553h-158v158z" />
    <glyph glyph-name="u" unicode="u" 
d="M316 395c0 -32.667 6.16406 -63.335 18.4971 -92.002s29.333 -53.834 51 -75.501s46.834 -38.667 75.501 -51s59.334 -18.5 92.001 -18.5c32 0 62.333 6.33301 91 19s53.834 29.834 75.501 51.501s38.834 46.834 51.501 75.501s19 59 19 91v711h158v-1106h-158v79
c-33.333 -24.667 -70 -44 -110 -58s-82.333 -21 -127 -21c-54.667 0 -106 10.333 -154 31s-89.833 48.834 -125.5 84.501s-63.834 77.5 -84.501 125.5s-31 99.333 -31 154v711h158v-711v0z" />
    <glyph glyph-name="v" unicode="v" 
d="M948 1106l-316 -1106h-158l-316 1106h158l237 -869l237 869h158z" />
    <glyph glyph-name="w" unicode="w" 
d="M632 237c0 -52.667 26.334 -79 79.001 -79s79 26.333 79 79v869h158v-909c0 -27.333 -5.16699 -53 -15.5 -77s-24.5 -44.833 -42.5 -62.5s-39 -31.667 -63 -42s-49.667 -15.5 -77 -15.5c-24 0 -46.833 4 -68.5 12s-41 19 -58 33s-31.333 30.667 -43 50
s-19.834 40.333 -24.501 63h-7c-4.66699 -22.667 -13 -43.667 -25 -63s-26.5 -36 -43.5 -50s-36.167 -25 -57.5 -33s-44 -12 -68 -12c-27.333 0 -53 5.16699 -77 15.5s-44.833 24.333 -62.5 42s-31.667 38.5 -42 62.5s-15.5 49.667 -15.5 77v909h158v-869h1
c-0.666992 -52.667 25.333 -79 78 -79s78.667 26.333 78 79h1v395h158v-395z" />
    <glyph glyph-name="x" unicode="x" 
d="M553 706l224 400h173l-311 -553l311 -553h-173l-224 398l-225 -398h-173l311 553l-311 553h173z" />
    <glyph glyph-name="y" unicode="y" 
d="M316 395c0 -32.667 6.16504 -63.335 18.498 -92.002s29.333 -53.834 51 -75.501s46.834 -38.667 75.501 -51s59.334 -18.5 92.001 -18.5c32 0 62 5.83301 90 17.5s52.667 27.834 74 48.501s38.5 44.667 51.5 72s20.167 60.333 21.5 99v711h158v-1185
c0 -54.667 -10.333 -106 -31 -154s-48.834 -89.833 -84.501 -125.5s-77.5 -63.834 -125.5 -84.501s-99.333 -31 -154 -31h-237v158h237c32.667 0 63.334 6.16699 92.001 18.5s53.834 29.333 75.501 51s38.667 46.834 51 75.501s18.5 59.334 18.5 92.001v158
c-33.333 -24.667 -70 -44 -110 -58s-82.333 -21 -127 -21c-54.667 0 -106 10.333 -154 31s-89.833 48.834 -125.5 84.501s-63.834 77.5 -84.501 125.5s-31 99.333 -31 154v711h158v-711v0z" />
    <glyph glyph-name="z" unicode="z" 
d="M760 948h-602v158h790v-158l-603 -790h603v-158h-790v158z" />
    <glyph glyph-name="braceleft" unicode="{" 
d="M516 732c0 -14 2.5 -26.999 7.5 -38.999s11.833 -22.5 20.5 -31.5s19 -16.167 31 -21.5s24.667 -8 38 -8c11.333 0 17.333 -11.167 18 -33.5s-2.66602 -51.5 -9.99902 -87.5s-17.166 -76.833 -29.499 -122.5s-25.666 -91.834 -39.999 -138.501l-42.5 -136
c-14 -44 -25.667 -82 -35 -114c0 -20 8.66699 -39.333 26 -58s38.333 -35.5 63 -50.5s50.5 -27 77.5 -36s50.5 -13.5 70.5 -13.5h237v-158h-237c-59.333 0 -113.333 9 -162 27s-90.167 41.833 -124.5 71.5s-61 63.5 -80 101.5s-28.5 76.667 -28.5 116
c13.333 78.667 28.166 149 44.499 211s31.833 116.5 46.5 163.5l37.5 119.5c10.333 32.667 16.166 59.167 17.499 79.5s-3 35.166 -13 44.499s-28 14 -54 14h-237v158h237c26 0 42.333 4.33301 49 13s7 21.834 1 39.501s-16 39.667 -30 66s-28.333 57 -43 92
s-27.667 74.5 -39 118.5s-17 92.333 -17 145c0 39.333 9.5 78 28.5 116s45.667 71.833 80 101.5s75.833 53.5 124.5 71.5s102.667 27 162 27h237v-158h-237c-39.333 0 -73.833 -4.5 -103.5 -13.5s-54.334 -21 -74.001 -36s-34.5 -31.833 -44.5 -50.5s-15 -38 -15 -58
c3.33301 -15.333 9.66602 -36.5 18.999 -63.5l31 -88.5l34.5 -98l31.5 -90c9.33301 -26.667 16.333 -48.667 21 -66s5.33398 -26 2.00098 -26c-13.333 0 -26 -2.66699 -38 -8s-22.333 -12.5 -31 -21.5s-15.5 -19.5 -20.5 -31.5s-7.5 -25 -7.5 -39z" />
    <glyph glyph-name="bar" unicode="|" 
d="M474 1580h158v-1896h-158v1896z" />
    <glyph glyph-name="braceright" unicode="}" 
d="M590 732c0 14 -2.49805 26.999 -7.49805 38.999s-11.833 22.5 -20.5 31.5s-19 16.167 -31 21.5s-24.667 8 -38 8c-3.33301 0 -2.66602 8.66699 2.00098 26s11.667 39.333 21 66l31.5 90l34.5 98l31 88.5c9.33301 27 15.666 48.167 18.999 63.5c0 20 -5 39.333 -15 58
s-24.833 35.5 -44.5 50.5s-44.334 27 -74.001 36s-64.167 13.5 -103.5 13.5h-237v158h237c59.333 0 113.333 -9 162 -27s90.167 -41.833 124.5 -71.5s61 -63.5 80 -101.5s28.5 -76.667 28.5 -116c0 -52.667 -5.66699 -101 -17 -145s-24.333 -83.5 -39 -118.5
s-29 -65.667 -43 -92s-24 -48.333 -30 -66s-5.83301 -30.834 0.5 -39.501s22.833 -13 49.5 -13h237v-158h-237c-26.667 0 -44.834 -4.66699 -54.501 -14s-13.834 -24.166 -12.501 -44.499s7.16602 -46.833 17.499 -79.5l37.5 -119.5c14.667 -47 30.167 -101.5 46.5 -163.5
s31.166 -132.333 44.499 -211c0 -39.333 -9.5 -78 -28.5 -116s-45.667 -71.833 -80 -101.5s-75.833 -53.5 -124.5 -71.5s-102.667 -27 -162 -27h-237v158h237c20 0 43.5 4.5 70.5 13.5s52.833 21 77.5 36s45.667 31.833 63 50.5s26 38 26 58l-35.5 114l-42 136
c-14.333 46.667 -27.666 92.834 -39.999 138.501s-22.166 86.5 -29.499 122.5s-10.666 65.167 -9.99902 87.5s6.66699 33.5 18 33.5c13.333 0 26 2.66699 38 8s22.333 12.5 31 21.5s15.5 19.5 20.5 31.5s7.5 25 7.5 39z" />
    <glyph glyph-name="asciitilde" unicode="~" 
d="M948 948c0 -26.667 -0.333984 -56.6709 -1.00098 -90.0039s-3.16699 -67.666 -7.5 -102.999s-11.333 -69.833 -21 -103.5s-23.334 -63.667 -41.001 -90s-40 -47.5 -67 -63.5s-60.167 -24 -99.5 -24c-26.667 0 -51 6.83301 -73 20.5s-42.5 31.167 -61.5 52.5
s-36.667 44.833 -53 70.5l-46.5 73.5c-14.667 23.333 -28.667 44 -42 62s-26.666 30.333 -39.999 37c-12 6 -22.167 4.16699 -30.5 -5.5s-15.5 -24 -21.5 -43s-10.667 -41.167 -14 -66.5s-6 -50.666 -8 -75.999s-3.33301 -49.166 -4 -71.499s-1 -40.166 -1 -53.499h-158
c0 26 0.333008 55.833 1 89.5s3.16699 68.167 7.5 103.5s11.333 69.833 21 103.5s23.334 63.667 41.001 90s40 47.5 67 63.5s60.167 24 99.5 24c26 0 50.167 -7 72.5 -21s43 -31.833 62 -53.5s36.667 -45.5 53 -71.5l46.5 -74c14.667 -23.333 28.667 -43.833 42 -61.5
s26.666 -29.167 39.999 -34.5c12 -5.33301 22.333 -2.83301 31 7.5s16 25 22 44s10.667 41 14 66s5.83301 50 7.5 75s2.83398 48.5 3.50098 70.5s1 39.667 1 53h158z" />
    <glyph glyph-name="exclamdown" unicode="&#xa1;" 
d="M474 948h158v-948h-158v948zM474 1422h158v-316h-158v316z" />
    <glyph glyph-name="cent" unicode="&#xa2;" 
d="M356 52c-29.333 16.667 -56.168 37.166 -80.501 61.499s-45.166 51.166 -62.499 80.499s-30.833 61 -40.5 95s-14.5 69.333 -14.5 106v316c0 54.667 10.333 106 31 154s48.834 89.833 84.501 125.5s77.5 63.834 125.5 84.501s99.333 31 154 31
c6 0 12.167 -0.166992 18.5 -0.5s12.5 -0.833008 18.5 -1.5l36 160h170l-47 -211c48 -28 89 -64.667 123 -110s56.667 -96.333 68 -153h-164c-6.66699 18.667 -15.5 36 -26.5 52s-23.5 30.667 -37.5 44l-162 -728h3c26 0 50.667 3.83301 74 11.5s44.666 18.5 63.999 32.5
s36.333 30.667 51 50s26 40.666 34 63.999h164c-9.33301 -45.333 -25.833 -87.166 -49.5 -125.499s-52.5 -71.666 -86.5 -99.999s-72.333 -50.5 -115 -66.5s-88 -24 -136 -24c-6.66699 0 -13 0.166992 -19 0.5s-12.333 0.833008 -19 1.5l-35 -160h-170zM315.998 394.999
c0 -36 7.00195 -68.8311 21.002 -98.498s32.667 -55.5 56 -77.5l162 729h-2c-32.667 0 -63.334 -6.16699 -92.001 -18.5s-53.834 -29.333 -75.501 -51s-38.667 -46.834 -51 -75.501s-18.5 -59.334 -18.5 -92.001v-316z" />
    <glyph glyph-name="sterling" unicode="&#xa3;" 
d="M632 1422c39.333 0 78 -9 116 -27s71.833 -41.833 101.5 -71.5s53.5 -63.5 71.5 -101.5s27 -76.667 27 -116h-158c0 20 -4.5 39.333 -13.5 58s-21 35.5 -36 50.5s-32 27 -51 36s-38.167 13.5 -57.5 13.5c-20 0 -39.333 -4.5 -58 -13.5s-35.5 -21 -50.5 -36
s-27 -31.833 -36 -50.5s-13.5 -38 -13.5 -58v-316h316v-158h-316v-474h474v-158h-790v158h158v474h-158v158h158v316c0 39.333 9 78 27 116s41.833 71.833 71.5 101.5s63.5 53.5 101.5 71.5s76.667 27 116 27z" />
    <glyph glyph-name="currency" unicode="&#xa4;" 
d="M1027 1066l-141 -141c19.333 -32 34.5 -65.5 45.5 -100.5s16.5 -72.5 16.5 -112.5s-5.5 -77.833 -16.5 -113.5s-26.167 -68.834 -45.5 -99.501l141 -141l-120 -120l-141 141c-32 -20 -65.5 -35.333 -100.5 -46s-72.5 -16 -112.5 -16s-77.833 5.33301 -113.5 16
s-68.834 26 -99.501 46l-141 -141l-120 120l141 141c-20 30.667 -35.333 63.834 -46 99.501s-16 73.5 -16 113.5s5.33301 77.5 16 112.5s26 68.5 46 100.5l-141 141l120 120l141 -141c30.667 19.333 63.834 34.5 99.501 45.5s73.5 16.5 113.5 16.5s77.5 -5.5 112.5 -16.5
s68.5 -26.167 100.5 -45.5l141 141zM316 712c0 -32.667 6.16699 -63.334 18.5 -92.001s29.333 -53.834 51 -75.501s46.834 -38.667 75.501 -51s59.334 -18.5 92.001 -18.5s63.334 6.16699 92.001 18.5s53.834 29.333 75.501 51s38.667 46.834 51 75.501
s18.5 59.334 18.5 92.001s-6.16699 63.334 -18.5 92.001s-29.333 53.834 -51 75.501s-46.834 38.667 -75.501 51s-59.334 18.5 -92.001 18.5s-63.334 -6.16699 -92.001 -18.5s-53.834 -29.333 -75.501 -51s-38.667 -46.834 -51 -75.501s-18.5 -59.334 -18.5 -92.001z" />
    <glyph glyph-name="yen" unicode="&#xa5;" 
d="M158 316h318v158h-318v158h289l-289 790h176l219 -625l218 625h177l-290 -790h290v-158h-318v-158h318v-158h-318v-158h-154v158h-318v158z" />
    <glyph glyph-name="brokenbar" unicode="&#xa6;" 
d="M474 474h158v-790h-158v790zM474 1580h158v-790h-158v790z" />
    <glyph glyph-name="section" unicode="&#xa7;" 
d="M948 1422l-0.00195312 -157.999h-395c-39.333 0 -73.833 -4.5 -103.5 -13.5s-54.334 -21 -74.001 -36s-34.5 -31.833 -44.5 -50.5s-15 -38 -15 -58s5 -39.333 15 -58s24.833 -35.5 44.5 -50.5s44.334 -27 74.001 -36s64.167 -13.5 103.5 -13.5c26 0 54 -2.33301 84 -7
s59.667 -12 89 -22s57.333 -23.167 84 -39.5s50.167 -36.166 70.5 -59.499s36.666 -50.333 48.999 -81s18.5 -65.667 18.5 -105c0 -44 -11.167 -86.5 -33.5 -127.5s-54.166 -76.833 -95.499 -107.5c18.667 -12.667 35.834 -27 51.501 -43s29.167 -33.833 40.5 -53.5
s20.333 -41.334 27 -65.001s10 -49.5 10 -77.5c0 -40 -9.5 -79 -28.5 -117s-45.667 -72 -80 -102s-75.833 -54 -124.5 -72s-102.667 -27 -162 -27h-395v158h395c39.333 0 73.833 4.5 103.5 13.5s54.334 21 74.001 36s34.5 32.167 44.5 51.5s15 39 15 59
c0 19.333 -5 38.333 -15 57s-24.833 35.334 -44.5 50.001s-44.334 26.5 -74.001 35.5s-64.167 13.5 -103.5 13.5c-26 0 -54 2.33301 -84 7s-59.667 12.167 -89 22.5s-57.333 23.666 -84 39.999s-50.167 36.166 -70.5 59.499s-36.666 50.5 -48.999 81.5
s-18.5 66.167 -18.5 105.5c0 43.333 11.167 85.5 33.5 126.5s53.833 76.5 94.5 106.5c-37.333 25.333 -68 57.5 -92 96.5s-36 87.167 -36 144.5c0 39.333 9.5 78 28.5 116s45.667 71.833 80 101.5s75.833 53.5 124.5 71.5s102.667 27 162 27h395zM315.998 632.001
c0 -20 4.99805 -39.3359 14.998 -58.0029s24.833 -35.5 44.5 -50.5s44.334 -27 74.001 -36s64.167 -13.5 103.5 -13.5s73.833 4.5 103.5 13.5s54.334 21 74.001 36s34.5 32.167 44.5 51.5s15 39 15 59c0 19.333 -5 38.333 -15 57s-24.833 35.334 -44.5 50.001
s-44.334 26.5 -74.001 35.5s-64.167 13.5 -103.5 13.5h-12c-37.333 -1.33301 -70.166 -6.66602 -98.499 -15.999s-51.833 -21.333 -70.5 -36s-32.667 -31.167 -42 -49.5s-14 -37.166 -14 -56.499z" />
    <glyph glyph-name="dieresis" unicode="&#xa8;" 
d="M316 1343c0 22 7.66699 40.667 23 56s34 23 56 23s40.667 -7.66699 56 -23s23 -34 23 -56s-7.66699 -40.667 -23 -56s-34 -23 -56 -23s-40.667 7.66699 -56 23s-23 34 -23 56zM632 1343c0 22 7.66699 40.667 23 56s34 23 56 23s40.667 -7.66699 56 -23s23 -34 23 -56
s-7.66699 -40.667 -23 -56s-34 -23 -56 -23s-40.667 7.66699 -56 23s-23 34 -23 56z" />
    <glyph glyph-name="copyright" unicode="&#xa9;" 
d="M0 711c0 98 13.5 190.167 40.5 276.5s64.833 161.666 113.5 225.999s106.834 115.166 174.501 152.499s142.5 56 224.5 56s156.833 -18.667 224.5 -56s125.834 -88.166 174.501 -152.499s86.5 -139.666 113.5 -225.999s40.5 -178.5 40.5 -276.5
s-13.5 -190.167 -40.5 -276.5s-64.833 -161.666 -113.5 -225.999s-106.834 -115.166 -174.501 -152.499s-142.5 -56 -224.5 -56s-156.833 18.667 -224.5 56s-125.834 88.166 -174.501 152.499s-86.5 139.666 -113.5 225.999s-40.5 178.5 -40.5 276.5zM158 711
c0 -76 9.33301 -147.667 28 -215s45.167 -126 79.5 -176s75.833 -89.5 124.5 -118.5s103 -43.5 163 -43.5s114.333 14.5 163 43.5s90.167 68.5 124.5 118.5s60.833 108.667 79.5 176s28 139 28 215s-9.33301 147.667 -28 215s-45.167 126 -79.5 176
s-75.833 89.5 -124.5 118.5s-103 43.5 -163 43.5s-114.333 -14.5 -163 -43.5s-90.167 -68.5 -124.5 -118.5s-60.833 -108.667 -79.5 -176s-28 -139 -28 -215zM474 711c0 -32.667 1 -63.332 3 -91.999s5.83301 -53.834 11.5 -75.501s13.667 -38.667 24 -51
s23.833 -18.5 40.5 -18.5c12.667 0 22.834 3.83301 30.501 11.5s14 18.5 19 32.5s9 30.667 12 50s6.5 40.666 10.5 63.999h159c-6 -45.333 -15.167 -87.166 -27.5 -125.499s-28 -71.666 -47 -99.999s-41.5 -50.5 -67.5 -66.5s-55.667 -24 -89 -24
c-38 0 -71.833 10.333 -101.5 31s-54.5 48.834 -74.5 84.501s-35.167 77.5 -45.5 125.5s-15.5 99.333 -15.5 154s5.16699 106 15.5 154s25.5 89.833 45.5 125.5s44.833 63.834 74.5 84.501s63.5 31 101.5 31c33.333 0 63 -8 89 -24s48.5 -38.167 67.5 -66.5
s34.667 -61.833 47 -100.5s21.5 -80.334 27.5 -125.001h-159c-4 22.667 -7.5 43.667 -10.5 63s-7 36 -12 50s-11.333 25 -19 33s-17.834 12 -30.501 12c-16.667 0 -30.167 -6.16699 -40.5 -18.5s-18.333 -29.333 -24 -51s-9.5 -46.834 -11.5 -75.501s-3 -59.334 -3 -92.001z
" />
    <glyph glyph-name="ordfeminine" unicode="&#xaa;" 
d="M237 1422l158.001 0.000976562c158 0 237 -79 237 -237v-553h-237c-158 0 -237 79 -237 237s79 237 237 237h79v79c0 10 -2.16699 19.667 -6.5 29s-10 17.666 -17 24.999s-15.333 13.333 -25 18s-19.834 7 -30.501 7h-158v158zM395.001 948.001
c-25.333 0 -44.833 -7.50098 -58.5 -22.501s-20.5 -34.167 -20.5 -57.5s7.66699 -42.166 23 -56.499s34 -21.5 56 -21.5h79v158h-79z" />
    <glyph glyph-name="guillemotleft" unicode="&#xab;" 
d="M474 948l79 -79l-237 -316l237 -316l-80 -79l-315 395zM869 948l79 -79l-237 -316l237 -316l-80 -79l-315 395z" />
    <glyph glyph-name="logicalnot" unicode="&#xac;" 
d="M790 790h-632v158h790v-474h-158v316z" />
    <glyph glyph-name="uni00AD" unicode="&#xad;" 
d="M158 790h790v-158h-790v158z" />
    <glyph glyph-name="registered" unicode="&#xae;" 
d="M0 711c0 98 13.5 190.167 40.5 276.5s64.833 161.666 113.5 225.999s106.834 115.166 174.501 152.499s142.5 56 224.5 56s156.833 -18.667 224.5 -56s125.834 -88.166 174.501 -152.499s86.5 -139.666 113.5 -225.999s40.5 -178.5 40.5 -276.5
s-13.5 -190.167 -40.5 -276.5s-64.833 -161.666 -113.5 -225.999s-106.834 -115.166 -174.501 -152.499s-142.5 -56 -224.5 -56s-156.833 18.667 -224.5 56s-125.834 88.166 -174.501 152.499s-86.5 139.666 -113.5 225.999s-40.5 178.5 -40.5 276.5zM158 711
c0 -76 9.33301 -147.667 28 -215s45.167 -126 79.5 -176s75.833 -89.5 124.5 -118.5s103 -43.5 163 -43.5s114.333 14.5 163 43.5s90.167 68.5 124.5 118.5s60.833 108.667 79.5 176s28 139 28 215s-9.33301 147.667 -28 215s-45.167 126 -79.5 176
s-75.833 89.5 -124.5 118.5s-103 43.5 -163 43.5s-114.333 -14.5 -163 -43.5s-90.167 -68.5 -124.5 -118.5s-60.833 -108.667 -79.5 -176s-28 -139 -28 -215zM474 632l-0.00195312 -315.998h-158v790h237c32.667 0 63.334 -6.16699 92.001 -18.5s53.834 -29.333 75.501 -51
s38.667 -46.834 51 -75.501s18.5 -59.334 18.5 -92.001c0 -30.667 -4.5 -60.167 -13.5 -88.5s-21 -53.5 -36 -75.5s-31.833 -39.667 -50.5 -53s-38 -20 -58 -20l158 -316h-158zM552.998 790.002c22 0 40.667 7.66699 56 23s23 34 23 56s-7.66699 40.667 -23 56
s-34 23 -56 23h-79v-158h79z" />
    <glyph glyph-name="macron" unicode="&#xaf;" 
d="M158 1422v158h790v-158h-790z" />
    <glyph glyph-name="degree" unicode="&#xb0;" 
d="M158 1106c0 43.333 8.33301 84.166 25 122.499s39.334 71.833 68.001 100.5s62.167 51.334 100.5 68.001s79.166 25 122.499 25s84.166 -8.33301 122.499 -25s71.833 -39.334 100.5 -68.001s51.334 -62.167 68.001 -100.5s25 -79.166 25 -122.499
s-8.33301 -84.166 -25 -122.499s-39.334 -71.833 -68.001 -100.5s-62.167 -51.334 -100.5 -68.001s-79.166 -25 -122.499 -25s-84.166 8.33301 -122.499 25s-71.833 39.334 -100.5 68.001s-51.334 62.167 -68.001 100.5s-25 79.166 -25 122.499zM316 1106
c0 -22 4.16699 -42.5 12.5 -61.5s19.666 -35.667 33.999 -50s31 -25.666 50 -33.999s39.5 -12.5 61.5 -12.5s42.5 4.16699 61.5 12.5s35.667 19.666 50 33.999s25.666 31 33.999 50s12.5 39.5 12.5 61.5s-4.16699 42.5 -12.5 61.5s-19.666 35.667 -33.999 50
s-31 25.666 -50 33.999s-39.5 12.5 -61.5 12.5s-42.5 -4.16699 -61.5 -12.5s-35.667 -19.666 -50 -33.999s-25.666 -31 -33.999 -50s-12.5 -39.5 -12.5 -61.5z" />
    <glyph glyph-name="plusminus" unicode="&#xb1;" 
d="M158 474h316v316h-316v158h316v316h158v-316h316v-158h-316v-316h316v-158h-790v158z" />
    <glyph glyph-name="twosuperior" unicode="&#xb2;" 
d="M158 948c0 13.333 7.83301 30.5 23.5 51.5s35.167 43.833 58.5 68.5l76 77.5l76 77.5c23.333 24.667 42.833 47.5 58.5 68.5s23.5 38.167 23.5 51.5c0 20 -4.5 35.333 -13.5 46s-21 18.5 -36 23.5s-32 7.83301 -51 8.5s-38.167 1 -57.5 1h-158v158h236
c158.667 0 238 -79 238 -237c0 -20 -9 -44.5 -27 -73.5s-41.833 -60.667 -71.5 -95s-63.5 -70.833 -101.5 -109.5l-116 -117h316v-158h-474v158z" />
    <glyph glyph-name="threesuperior" unicode="&#xb3;" 
d="M158 948l158 0.00390625c20 0 39.333 0.666992 58 2s35.5 4.66602 50.5 9.99902s27 13.333 36 24s13.5 25 13.5 43s-4.5 32.333 -13.5 43s-21 18.667 -36 24s-31.833 8.66602 -50.5 9.99902s-38 2 -58 2v158c20 0 39.5 0.666992 58.5 2s36 4.66602 51 9.99902
s27 13.333 36 24s13.5 25 13.5 43s-4.5 32.333 -13.5 43s-21 18.667 -36 24s-32 8.66602 -51 9.99902s-38.5 2 -58.5 2h-158v158h237c158 0 237 -79 237 -237c0 -39.333 -6.16699 -70.5 -18.5 -93.5s-32.833 -44.5 -61.5 -64.5c28.667 -20 49.167 -41.5 61.5 -64.5
s18.5 -54.167 18.5 -93.5c0 -158 -79 -237 -237 -237h-237v158z" />
    <glyph glyph-name="acute" unicode="&#xb4;" 
d="M395 1264l-79 79l395 237l79 -79z" />
    <glyph glyph-name="mu" unicode="&#xb5;" 
d="M790 1106h157.997v-711c0 -54.667 -10.333 -106 -31 -154s-48.834 -89.833 -84.501 -125.5s-77.5 -63.834 -125.5 -84.501s-99.333 -31 -154 -31c-44.667 0 -87 7 -127 21s-76.667 33.667 -110 59v-396h-158v1422h158v-711c0 -39.333 6.33301 -73.833 19 -103.5
s29.834 -54.334 51.501 -74.001s46.834 -34.5 75.501 -44.5s59 -15 91 -15c32.667 0 63.334 6.16699 92.001 18.5s53.834 29.333 75.501 51s38.667 46.834 51 75.501s18.5 59.334 18.5 92.001v711z" />
    <glyph glyph-name="paragraph" unicode="&#xb6;" 
d="M474 632c-39.333 0 -78 9 -116 27s-71.833 41.833 -101.5 71.5s-53.5 63.5 -71.5 101.5s-27 76.667 -27 116v158c0 39.333 9 78 27 116s41.833 71.833 71.5 101.5s63.5 53.5 101.5 71.5s76.667 27 116 27h474v-1737h-158v1579h-158v-1580h-158v948z" />
    <glyph glyph-name="periodcentered" unicode="&#xb7;" 
d="M316 790c0 22 4.16699 42.5 12.5 61.5s19.666 35.667 33.999 50s31 25.666 50 33.999s39.5 12.5 61.5 12.5s42.5 -4.16699 61.5 -12.5s35.667 -19.666 50 -33.999s25.666 -31 33.999 -50s12.5 -39.5 12.5 -61.5s-4.16699 -42.5 -12.5 -61.5s-19.666 -35.667 -33.999 -50
s-31 -25.666 -50 -33.999s-39.5 -12.5 -61.5 -12.5s-42.5 4.16699 -61.5 12.5s-35.667 19.666 -50 33.999s-25.666 31 -33.999 50s-12.5 39.5 -12.5 61.5z" />
    <glyph glyph-name="cedilla" unicode="&#xb8;" 
d="M632 0c0 -59.333 -9.83203 -112.832 -29.499 -160.499s-49.334 -86.334 -89.001 -116.001s-89.167 -48.667 -148.5 -57s-128.333 -2.5 -207 17.5v158c59.333 -20 109.166 -30.333 149.499 -31s72.833 6.33301 97.5 21s42.334 36.5 53.001 65.5s16 63.167 16 102.5h158z
" />
    <glyph glyph-name="onesuperior" unicode="&#xb9;" 
d="M316 948v474l-158 -158v158l158 158h158v-632h158v-158h-474v158h158z" />
    <glyph glyph-name="ordmasculine" unicode="&#xba;" 
d="M158 1027c0 54.667 10.333 106 31 154s48.834 89.833 84.501 125.5s77.5 63.834 125.5 84.501s99.333 31 154 31s106 -10.333 154 -31s89.833 -48.834 125.5 -84.501s63.834 -77.5 84.501 -125.5s31 -99.333 31 -154s-10.333 -106 -31 -154
s-48.834 -89.833 -84.501 -125.5s-77.5 -63.834 -125.5 -84.501s-99.333 -31 -154 -31s-106 10.333 -154 31s-89.833 48.834 -125.5 84.501s-63.834 77.5 -84.501 125.5s-31 99.333 -31 154zM316 1027c0 -32.667 6.16699 -63.334 18.5 -92.001s29.333 -53.834 51 -75.501
s46.834 -38.667 75.501 -51s59.334 -18.5 92.001 -18.5s63.334 6.16699 92.001 18.5s53.834 29.333 75.501 51s38.667 46.834 51 75.501s18.5 59.334 18.5 92.001s-6.16699 63.334 -18.5 92.001s-29.333 53.834 -51 75.501s-46.834 38.667 -75.501 51
s-59.334 18.5 -92.001 18.5s-63.334 -6.16699 -92.001 -18.5s-53.834 -29.333 -75.501 -51s-38.667 -46.834 -51 -75.501s-18.5 -59.334 -18.5 -92.001zM158 473h790v-157h-790v157z" />
    <glyph glyph-name="guillemotright" unicode="&#xbb;" 
d="M632.029 948l-78.9951 -79l236.985 -316l-236.985 -316l79.9951 -79l314.98 395zM237.053 948l-78.9951 -79l236.985 -316l-236.985 -316l79.9951 -79l314.981 395z" />
    <glyph glyph-name="onequarter" unicode="&#xbc;" 
d="M159 948v474l-158 -158v158l158 158h158v-632h158v-158h-474v158h158zM790 1580h158l-632 -1580h-158zM632 475l316 316h158v-790h-158v158h-316v316zM948 317v237l-158 -158v-79h158z" />
    <glyph glyph-name="onehalf" unicode="&#xbd;" 
d="M159 948v474l-158 -158v158l158 158h158v-632h158v-158h-474v158h158zM622.337 159c0 13.333 8 30.5 23.9971 51.5s35.9092 43.833 59.7354 68.5l77.6055 77.5l77.6045 77.5c23.8262 24.667 43.7383 47.5 59.7354 68.5s23.9961 38.167 23.9961 51.5
c0 20 -4.59473 35.333 -13.7852 46s-21.4434 18.5 -36.7598 23.5c-15.3174 5 -32.6768 7.83301 -52.0781 8.5s-38.9727 1 -58.7139 1h-161.337v158h240.983c162.018 0 243.026 -79 243.026 -237c0 -20 -9.19043 -44.5 -27.5703 -73.5s-42.7168 -60.667 -73.0098 -95
s-64.8408 -70.833 -103.644 -109.5l-118.449 -117h322.673v-158h-484.01v158zM790.001 1580h158l-632 -1580h-158z" />
    <glyph glyph-name="threequarters" unicode="&#xbe;" 
d="M790 1580h158l-632 -1580h-158zM632 475l316 316h158v-790h-158v158h-316v316zM948 317v237l-158 -158v-79h158zM1 948l158 0.00390625c20 0 39.333 0.666992 58 2s35.5 4.66602 50.5 9.99902s27 13.333 36 24s13.5 25 13.5 43s-4.5 32.333 -13.5 43s-21 18.667 -36 24
s-31.833 8.66602 -50.5 9.99902s-38 2 -58 2v158c20 0 39.5 0.666992 58.5 2s36 4.66602 51 9.99902s27 13.333 36 24s13.5 25 13.5 43s-4.5 32.333 -13.5 43s-21 18.667 -36 24s-32 8.66602 -51 9.99902s-38.5 2 -58.5 2h-158v158h237c158 0 237 -79 237 -237
c0 -39.333 -6.16699 -70.5 -18.5 -93.5s-32.833 -44.5 -61.5 -64.5c28.667 -20 49.167 -41.5 61.5 -64.5s18.5 -54.167 18.5 -93.5c0 -158 -79 -237 -237 -237h-237v158z" />
    <glyph glyph-name="questiondown" unicode="&#xbf;" 
d="M948 395c0 -54.667 -9.5 -105.999 -28.5 -153.999s-45.667 -89.833 -80 -125.5s-75.833 -63.834 -124.5 -84.501s-102.667 -31 -162 -31s-113.333 9.5 -162 28.5s-90.167 45.667 -124.5 80s-61 75.833 -80 124.5s-28.5 102.667 -28.5 162
c0 52.667 7.83301 97.334 23.5 134.001s35.167 69 58.5 97s48.666 53 75.999 75s52.666 44.833 75.999 68.5s42.833 49.5 58.5 77.5s23.5 61.667 23.5 101h158c0 -52.667 -7.83301 -97.334 -23.5 -134.001s-35.167 -69 -58.5 -97s-48.666 -53 -75.999 -75
s-52.666 -44.833 -75.999 -68.5s-42.833 -49.5 -58.5 -77.5s-23.5 -61.667 -23.5 -101c0 -158 79 -237 237 -237s237 79 237 237v79h158v-79zM632 1106h-158v316h158v-316z" />
    <glyph glyph-name="Agrave" unicode="&#xc0;" 
d="M158 1027c0 54.667 10.3311 106 30.998 154s48.834 89.833 84.501 125.5s77.5 63.834 125.5 84.501s99.333 31 154 31s106 -10.333 154 -31s89.833 -48.834 125.5 -84.501s63.834 -77.5 84.501 -125.5s31 -99.333 31 -154v-1027h-158v632h-474v-632h-158v1027z
M789.998 790l0.00390625 237c0 32.667 -6.16699 63.334 -18.5 92.001s-29.333 53.834 -51 75.501s-46.834 38.667 -75.501 51s-59.334 18.5 -92.001 18.5s-63.334 -6.16699 -92.001 -18.5s-53.834 -29.333 -75.501 -51s-38.667 -46.834 -51 -75.501
s-18.5 -59.334 -18.5 -92.001v-237h474zM316.002 1738v158l474 -237v-158z" />
    <glyph glyph-name="Aacute" unicode="&#xc1;" 
d="M158 1027c0 54.667 10.3311 106 30.998 154s48.834 89.833 84.501 125.5s77.5 63.834 125.5 84.501s99.333 31 154 31s106 -10.333 154 -31s89.833 -48.834 125.5 -84.501s63.834 -77.5 84.501 -125.5s31 -99.333 31 -154v-1027h-158v632h-474v-632h-158v1027z
M789.998 790l0.00390625 237c0 32.667 -6.16699 63.334 -18.5 92.001s-29.333 53.834 -51 75.501s-46.834 38.667 -75.501 51s-59.334 18.5 -92.001 18.5s-63.334 -6.16699 -92.001 -18.5s-53.834 -29.333 -75.501 -51s-38.667 -46.834 -51 -75.501
s-18.5 -59.334 -18.5 -92.001v-237h474zM395.002 1580l-79 79l395 237l79 -79z" />
    <glyph glyph-name="Acircumflex" unicode="&#xc2;" 
d="M158 1027c0 54.667 10.3311 106 30.998 154s48.834 89.833 84.501 125.5s77.5 63.834 125.5 84.501s99.333 31 154 31s106 -10.333 154 -31s89.833 -48.834 125.5 -84.501s63.834 -77.5 84.501 -125.5s31 -99.333 31 -154v-1027h-158v632h-474v-632h-158v1027z
M789.998 790l0.00390625 237c0 32.667 -6.16699 63.334 -18.5 92.001s-29.333 53.834 -51 75.501s-46.834 38.667 -75.501 51s-59.334 18.5 -92.001 18.5s-63.334 -6.16699 -92.001 -18.5s-53.834 -29.333 -75.501 -51s-38.667 -46.834 -51 -75.501
s-18.5 -59.334 -18.5 -92.001v-237h474zM551.002 1896l237 -237l-79 -79l-158 158l-158 -158l-79 79z" />
    <glyph glyph-name="Atilde" unicode="&#xc3;" 
d="M158 1027c0 54.667 10.3311 106 30.998 154s48.834 89.833 84.501 125.5s77.5 63.834 125.5 84.501s99.333 31 154 31s106 -10.333 154 -31s89.833 -48.834 125.5 -84.501s63.834 -77.5 84.501 -125.5s31 -99.333 31 -154v-1027h-158v632h-474v-632h-158v1027z
M789.998 790l0.00390625 237c0 32.667 -6.16699 63.334 -18.5 92.001s-29.333 53.834 -51 75.501s-46.834 38.667 -75.501 51s-59.334 18.5 -92.001 18.5s-63.334 -6.16699 -92.001 -18.5s-53.834 -29.333 -75.501 -51s-38.667 -46.834 -51 -75.501
s-18.5 -59.334 -18.5 -92.001v-237h474zM948.002 1817c-79.333 -158 -158.334 -237 -237.001 -237c-39.333 0 -70.833 3.83301 -94.5 11.5s-42.834 17.5 -57.501 29.5s-26.5 24.667 -35.5 38s-18.667 26 -29 38s-23 21.833 -38 29.5s-35.5 11.5 -61.5 11.5
c-20 0 -39.333 -4.5 -58 -13.5s-35.5 -21 -50.5 -36s-27 -31.833 -36 -50.5s-13.5 -38 -13.5 -58l-79 79c78.667 158 157.667 237 237 237c39.333 0 70.833 -3.83301 94.5 -11.5s42.834 -17.5 57.501 -29.5s26.5 -24.667 35.5 -38s18.667 -26 29 -38
s22.833 -21.833 37.5 -29.5s35.334 -11.5 62.001 -11.5c20 0 39.333 4.5 58 13.5s35.5 21 50.5 36s27 31.833 36 50.5s13.5 38 13.5 58z" />
    <glyph glyph-name="Adieresis" unicode="&#xc4;" 
d="M158 1027c0 54.667 10.3311 106 30.998 154s48.834 89.833 84.501 125.5s77.5 63.834 125.5 84.501s99.333 31 154 31s106 -10.333 154 -31s89.833 -48.834 125.5 -84.501s63.834 -77.5 84.501 -125.5s31 -99.333 31 -154v-1027h-158v632h-474v-632h-158v1027z
M789.998 790l0.00390625 237c0 32.667 -6.16699 63.334 -18.5 92.001s-29.333 53.834 -51 75.501s-46.834 38.667 -75.501 51s-59.334 18.5 -92.001 18.5s-63.334 -6.16699 -92.001 -18.5s-53.834 -29.333 -75.501 -51s-38.667 -46.834 -51 -75.501
s-18.5 -59.334 -18.5 -92.001v-237h474zM316.002 1659c0 22 7.66699 40.667 23 56s34 23 56 23s40.667 -7.66699 56 -23s23 -34 23 -56s-7.66699 -40.667 -23 -56s-34 -23 -56 -23s-40.667 7.66699 -56 23s-23 34 -23 56zM632.002 1659c0 22 7.66699 40.667 23 56
s34 23 56 23s40.667 -7.66699 56 -23s23 -34 23 -56s-7.66699 -40.667 -23 -56s-34 -23 -56 -23s-40.667 7.66699 -56 23s-23 34 -23 56z" />
    <glyph glyph-name="Aring" unicode="&#xc5;" 
d="M158 1027c0 54.667 10.1719 105.835 30.5049 153.502s48.5 89.5 84.5 125.5c25.333 25.333 52.666 46.333 81.999 63c-16 26.667 -26.5 54.167 -31.5 82.5s-5.5 56.166 -1.5 83.499s12.5 53.333 25.5 78s29.5 46.167 49.5 64.5s43.167 33 69.5 44
s55.166 16.5 86.499 16.5c30.667 0 59.334 -5.66699 86.001 -17s50.167 -26.5 70.5 -45.5s37.166 -41 50.499 -66s22.166 -51.167 26.499 -78.5s3.66602 -55 -2.00098 -83s-17.167 -54.333 -34.5 -79c29.333 -16.667 56.666 -37.667 81.999 -63
c36 -36 64.333 -77.833 85 -125.5s31 -98.834 31 -153.501v-1027h-158v632h-474v-632h-158v1027zM790.005 790.001l0.00390625 237c0 32.667 -6.16699 63.334 -18.5 92.001s-29.333 53.834 -51 75.501s-46.834 38.667 -75.501 51s-59.334 18.5 -92.001 18.5
s-63.334 -6.16699 -92.001 -18.5s-53.834 -29.333 -75.501 -51s-38.667 -46.834 -51 -75.501s-18.5 -59.334 -18.5 -92.001v-237h474zM632.009 1501c0 22 -7.66699 40.666 -23 55.999s-34 23 -56 23s-40.667 -7.66699 -56 -23s-23 -34 -23 -56c0 -20.667 7 -38.667 21 -54
s31 -23.666 51 -24.999h7c22 0 40.667 7.66699 56 23s23 34 23 56z" />
    <glyph glyph-name="AE" unicode="&#xc6;" 
d="M158 1106c0 39.333 9 78 27 116s41.833 71.833 71.5 101.5s63.5 53.5 101.5 71.5s76.667 27 116 27h474v-158h-316v-474h158v-158h-158v-474h316v-158h-474v632h-158v-632h-158v1106zM474 790l-0.000976562 474c-30 0 -55 -6.16699 -75 -18.5s-36.167 -27 -48.5 -44
s-21.166 -34.5 -26.499 -52.5s-8 -32.333 -8 -43v-316h158z" />
    <glyph glyph-name="Ccedilla" unicode="&#xc7;" 
d="M560.701 1264c-34.3486 0 -66.3398 -6.16309 -95.9736 -18.4961s-55.2266 -29.333 -76.7783 -51s-38.5576 -46.834 -51.0176 -75.501s-18.6895 -59.334 -18.6895 -92.001v-632c0 -32.667 6.22949 -63.334 18.6895 -92.001s29.4658 -53.834 51.0176 -75.501
s47.1445 -38.667 76.7783 -51s61.625 -18.5 95.9736 -18.5c28.2871 0 54.8906 3.83301 79.8105 11.5c24.9189 7.66699 47.6494 18.5 68.1914 32.5s38.3896 30.667 53.5439 50c15.1533 19.333 26.7715 40.666 34.8535 63.999h159.62
c-9.42871 -45.333 -25.9297 -87.333 -49.502 -126c-23.5732 -38.667 -52.7021 -72 -87.3877 -100s-73.917 -50 -117.694 -66s-90.9229 -24 -141.436 -24c-56.5742 0 -109.275 10.333 -158.104 31s-91.4287 48.834 -127.799 84.501
c-36.3682 35.667 -64.8232 77.5 -85.3652 125.5s-30.8125 99.333 -30.8125 154v632c0 54.667 10.2705 106 30.8125 154s48.9971 89.833 85.3652 125.5c36.3701 35.667 78.9697 63.834 127.799 84.501s101.53 31 158.104 31c50.5127 0 97.8262 -8 141.94 -24
s83.3457 -38.167 117.694 -66.5s63.3096 -61.833 86.8828 -100.5c23.5723 -38.667 40.0732 -80.334 49.502 -125.001h-159.62c-8.08203 22.667 -19.7002 43.667 -34.8535 63c-15.1543 19.333 -32.834 36 -53.0381 50c-20.2061 14 -42.9365 25 -68.1924 33
c-25.2568 8 -52.0283 12 -80.3154 12zM630 0.00390625c0 -59.333 -9.83203 -112.832 -29.499 -160.499s-49.334 -86.334 -89.001 -116.001s-89.167 -48.667 -148.5 -57s-128.333 -2.5 -207 17.5v158c59.333 -20 109.166 -30.333 149.499 -31s72.833 6.33301 97.5 21
s42.334 36.5 53.001 65.5s16 63.167 16 102.5h158z" />
    <glyph glyph-name="Egrave" unicode="&#xc8;" 
d="M158 1422h790v-158h-632v-474h474v-158h-474v-474h632v-158h-790v1422zM316 1738v158l474 -237v-158z" />
    <glyph glyph-name="Eacute" unicode="&#xc9;" 
d="M158 1422h790v-158h-632v-474h474v-158h-474v-474h632v-158h-790v1422zM395 1580l-79 79l395 237l79 -79z" />
    <glyph glyph-name="Ecircumflex" unicode="&#xca;" 
d="M158 1422h790v-158h-632v-474h474v-158h-474v-474h632v-158h-790v1422zM553 1896l237 -237l-79 -79l-158 158l-158 -158l-79 79z" />
    <glyph glyph-name="Edieresis" unicode="&#xcb;" 
d="M158 1422h790v-158h-632v-474h474v-158h-474v-474h632v-158h-790v1422zM316 1659c0 22 7.66699 40.667 23 56s34 23 56 23s40.667 -7.66699 56 -23s23 -34 23 -56s-7.66699 -40.667 -23 -56s-34 -23 -56 -23s-40.667 7.66699 -56 23s-23 34 -23 56zM632 1659
c0 22 7.66699 40.667 23 56s34 23 56 23s40.667 -7.66699 56 -23s23 -34 23 -56s-7.66699 -40.667 -23 -56s-34 -23 -56 -23s-40.667 7.66699 -56 23s-23 34 -23 56z" />
    <glyph glyph-name="Igrave" unicode="&#xcc;" 
d="M158 158h316v1106h-316v158h790v-158h-316v-1106h316v-158h-790v158zM316 1738v158l474 -237v-158z" />
    <glyph glyph-name="Iacute" unicode="&#xcd;" 
d="M158 158h316v1106h-316v158h790v-158h-316v-1106h316v-158h-790v158zM395 1580l-79 79l395 237l79 -79z" />
    <glyph glyph-name="Icircumflex" unicode="&#xce;" 
d="M158 158h316v1106h-316v158h790v-158h-316v-1106h316v-158h-790v158zM553 1896l237 -237l-79 -79l-158 158l-158 -158l-79 79z" />
    <glyph glyph-name="Idieresis" unicode="&#xcf;" 
d="M158 158h316v1106h-316v158h790v-158h-316v-1106h316v-158h-790v158zM316 1659c0 22 7.66699 40.667 23 56s34 23 56 23s40.667 -7.66699 56 -23s23 -34 23 -56s-7.66699 -40.667 -23 -56s-34 -23 -56 -23s-40.667 7.66699 -56 23s-23 34 -23 56zM632 1659
c0 22 7.66699 40.667 23 56s34 23 56 23s40.667 -7.66699 56 -23s23 -34 23 -56s-7.66699 -40.667 -23 -56s-34 -23 -56 -23s-40.667 7.66699 -56 23s-23 34 -23 56z" />
    <glyph glyph-name="Eth" unicode="&#xd0;" 
d="M0 790l158 0.00195312v632h395c54.667 0 106 -10.333 154 -31s89.833 -48.834 125.5 -84.501s63.834 -77.5 84.501 -125.5s31 -99.333 31 -154v-632c0 -54.667 -10.333 -106 -31 -154s-48.834 -89.833 -84.501 -125.5s-77.5 -63.834 -125.5 -84.501s-99.333 -31 -154 -31
h-395v632h-158v158zM553 158.002c32.667 0 63.334 6.16309 92.001 18.4961s53.834 29.333 75.501 51s38.667 46.834 51 75.501s18.5 59.334 18.5 92.001v632c0 32.667 -6.16699 63.334 -18.5 92.001s-29.333 53.834 -51 75.501s-46.834 38.667 -75.501 51
s-59.334 18.5 -92.001 18.5h-237v-474h158v-158h-158v-474h237z" />
    <glyph glyph-name="Ntilde" unicode="&#xd1;" 
d="M158 0v1422h158l474 -1052v1052h158v-1422h-158l-474 1052v-1052h-158zM948 1817c-79.333 -158 -158.334 -237 -237.001 -237c-39.333 0 -70.833 3.83301 -94.5 11.5s-42.834 17.5 -57.501 29.5s-26.5 24.667 -35.5 38s-18.667 26 -29 38s-23 21.833 -38 29.5
s-35.5 11.5 -61.5 11.5c-20 0 -39.333 -4.5 -58 -13.5s-35.5 -21 -50.5 -36s-27 -31.833 -36 -50.5s-13.5 -38 -13.5 -58l-79 79c78.667 158 157.667 237 237 237c39.333 0 70.833 -3.83301 94.5 -11.5s42.834 -17.5 57.501 -29.5s26.5 -24.667 35.5 -38s18.667 -26 29 -38
s22.833 -21.833 37.5 -29.5s35.334 -11.5 62.001 -11.5c20 0 39.333 4.5 58 13.5s35.5 21 50.5 36s27 31.833 36 50.5s13.5 38 13.5 58z" />
    <glyph glyph-name="Ograve" unicode="&#xd2;" 
d="M158 1027c0 54.667 10.333 106 31 154s48.834 89.833 84.501 125.5s77.5 63.834 125.5 84.501s99.333 31 154 31s106 -10.333 154 -31s89.833 -48.834 125.5 -84.501s63.834 -77.5 84.501 -125.5s31 -99.333 31 -154v-632c0 -54.667 -10.333 -106 -31 -154
s-48.834 -89.833 -84.501 -125.5s-77.5 -63.834 -125.5 -84.501s-99.333 -31 -154 -31s-106 10.333 -154 31s-89.833 48.834 -125.5 84.501s-63.834 77.5 -84.501 125.5s-31 99.333 -31 154v632zM553 1264c-32.667 0 -63.334 -6.16699 -92.001 -18.5
s-53.834 -29.333 -75.501 -51s-38.667 -46.834 -51 -75.501s-18.5 -59.334 -18.5 -92.001v-632c0 -32.667 6.16699 -63.334 18.5 -92.001s29.333 -53.834 51 -75.501s46.834 -38.667 75.501 -51s59.334 -18.5 92.001 -18.5s63.334 6.16699 92.001 18.5
s53.834 29.333 75.501 51s38.667 46.834 51 75.501s18.5 59.334 18.5 92.001v632c0 32.667 -6.16699 63.334 -18.5 92.001s-29.333 53.834 -51 75.501s-46.834 38.667 -75.501 51s-59.334 18.5 -92.001 18.5zM316 1738v158l474 -237v-158z" />
    <glyph glyph-name="Oacute" unicode="&#xd3;" 
d="M158 1027c0 54.667 10.333 106 31 154s48.834 89.833 84.501 125.5s77.5 63.834 125.5 84.501s99.333 31 154 31s106 -10.333 154 -31s89.833 -48.834 125.5 -84.501s63.834 -77.5 84.501 -125.5s31 -99.333 31 -154v-632c0 -54.667 -10.333 -106 -31 -154
s-48.834 -89.833 -84.501 -125.5s-77.5 -63.834 -125.5 -84.501s-99.333 -31 -154 -31s-106 10.333 -154 31s-89.833 48.834 -125.5 84.501s-63.834 77.5 -84.501 125.5s-31 99.333 -31 154v632zM553 1264c-32.667 0 -63.334 -6.16699 -92.001 -18.5
s-53.834 -29.333 -75.501 -51s-38.667 -46.834 -51 -75.501s-18.5 -59.334 -18.5 -92.001v-632c0 -32.667 6.16699 -63.334 18.5 -92.001s29.333 -53.834 51 -75.501s46.834 -38.667 75.501 -51s59.334 -18.5 92.001 -18.5s63.334 6.16699 92.001 18.5
s53.834 29.333 75.501 51s38.667 46.834 51 75.501s18.5 59.334 18.5 92.001v632c0 32.667 -6.16699 63.334 -18.5 92.001s-29.333 53.834 -51 75.501s-46.834 38.667 -75.501 51s-59.334 18.5 -92.001 18.5zM395 1580l-79 79l395 237l79 -79z" />
    <glyph glyph-name="Ocircumflex" unicode="&#xd4;" 
d="M158 1027c0 54.667 10.333 106 31 154s48.834 89.833 84.501 125.5s77.5 63.834 125.5 84.501s99.333 31 154 31s106 -10.333 154 -31s89.833 -48.834 125.5 -84.501s63.834 -77.5 84.501 -125.5s31 -99.333 31 -154v-632c0 -54.667 -10.333 -106 -31 -154
s-48.834 -89.833 -84.501 -125.5s-77.5 -63.834 -125.5 -84.501s-99.333 -31 -154 -31s-106 10.333 -154 31s-89.833 48.834 -125.5 84.501s-63.834 77.5 -84.501 125.5s-31 99.333 -31 154v632zM553 1264c-32.667 0 -63.334 -6.16699 -92.001 -18.5
s-53.834 -29.333 -75.501 -51s-38.667 -46.834 -51 -75.501s-18.5 -59.334 -18.5 -92.001v-632c0 -32.667 6.16699 -63.334 18.5 -92.001s29.333 -53.834 51 -75.501s46.834 -38.667 75.501 -51s59.334 -18.5 92.001 -18.5s63.334 6.16699 92.001 18.5
s53.834 29.333 75.501 51s38.667 46.834 51 75.501s18.5 59.334 18.5 92.001v632c0 32.667 -6.16699 63.334 -18.5 92.001s-29.333 53.834 -51 75.501s-46.834 38.667 -75.501 51s-59.334 18.5 -92.001 18.5zM553 1896l237 -237l-79 -79l-158 158l-158 -158l-79 79z" />
    <glyph glyph-name="Otilde" unicode="&#xd5;" 
d="M158 1027c0 54.667 10.333 106 31 154s48.834 89.833 84.501 125.5s77.5 63.834 125.5 84.501s99.333 31 154 31s106 -10.333 154 -31s89.833 -48.834 125.5 -84.501s63.834 -77.5 84.501 -125.5s31 -99.333 31 -154v-632c0 -54.667 -10.333 -106 -31 -154
s-48.834 -89.833 -84.501 -125.5s-77.5 -63.834 -125.5 -84.501s-99.333 -31 -154 -31s-106 10.333 -154 31s-89.833 48.834 -125.5 84.501s-63.834 77.5 -84.501 125.5s-31 99.333 -31 154v632zM553 1264c-32.667 0 -63.334 -6.16699 -92.001 -18.5
s-53.834 -29.333 -75.501 -51s-38.667 -46.834 -51 -75.501s-18.5 -59.334 -18.5 -92.001v-632c0 -32.667 6.16699 -63.334 18.5 -92.001s29.333 -53.834 51 -75.501s46.834 -38.667 75.501 -51s59.334 -18.5 92.001 -18.5s63.334 6.16699 92.001 18.5
s53.834 29.333 75.501 51s38.667 46.834 51 75.501s18.5 59.334 18.5 92.001v632c0 32.667 -6.16699 63.334 -18.5 92.001s-29.333 53.834 -51 75.501s-46.834 38.667 -75.501 51s-59.334 18.5 -92.001 18.5zM948 1817c-79.333 -158 -158.334 -237 -237.001 -237
c-39.333 0 -70.833 3.83301 -94.5 11.5s-42.834 17.5 -57.501 29.5s-26.5 24.667 -35.5 38s-18.667 26 -29 38s-23 21.833 -38 29.5s-35.5 11.5 -61.5 11.5c-20 0 -39.333 -4.5 -58 -13.5s-35.5 -21 -50.5 -36s-27 -31.833 -36 -50.5s-13.5 -38 -13.5 -58l-79 79
c78.667 158 157.667 237 237 237c39.333 0 70.833 -3.83301 94.5 -11.5s42.834 -17.5 57.501 -29.5s26.5 -24.667 35.5 -38s18.667 -26 29 -38s22.833 -21.833 37.5 -29.5s35.334 -11.5 62.001 -11.5c20 0 39.333 4.5 58 13.5s35.5 21 50.5 36s27 31.833 36 50.5
s13.5 38 13.5 58z" />
    <glyph glyph-name="Odieresis" unicode="&#xd6;" 
d="M158 1027c0 54.667 10.333 106 31 154s48.834 89.833 84.501 125.5s77.5 63.834 125.5 84.501s99.333 31 154 31s106 -10.333 154 -31s89.833 -48.834 125.5 -84.501s63.834 -77.5 84.501 -125.5s31 -99.333 31 -154v-632c0 -54.667 -10.333 -106 -31 -154
s-48.834 -89.833 -84.501 -125.5s-77.5 -63.834 -125.5 -84.501s-99.333 -31 -154 -31s-106 10.333 -154 31s-89.833 48.834 -125.5 84.501s-63.834 77.5 -84.501 125.5s-31 99.333 -31 154v632zM553 1264c-32.667 0 -63.334 -6.16699 -92.001 -18.5
s-53.834 -29.333 -75.501 -51s-38.667 -46.834 -51 -75.501s-18.5 -59.334 -18.5 -92.001v-632c0 -32.667 6.16699 -63.334 18.5 -92.001s29.333 -53.834 51 -75.501s46.834 -38.667 75.501 -51s59.334 -18.5 92.001 -18.5s63.334 6.16699 92.001 18.5
s53.834 29.333 75.501 51s38.667 46.834 51 75.501s18.5 59.334 18.5 92.001v632c0 32.667 -6.16699 63.334 -18.5 92.001s-29.333 53.834 -51 75.501s-46.834 38.667 -75.501 51s-59.334 18.5 -92.001 18.5zM314 1659c0 22 7.66699 40.667 23 56s34 23 56 23
s40.667 -7.66699 56 -23s23 -34 23 -56s-7.66699 -40.667 -23 -56s-34 -23 -56 -23s-40.667 7.66699 -56 23s-23 34 -23 56zM630 1659c0 22 7.66699 40.667 23 56s34 23 56 23s40.667 -7.66699 56 -23s23 -34 23 -56s-7.66699 -40.667 -23 -56s-34 -23 -56 -23
s-40.667 7.66699 -56 23s-23 34 -23 56z" />
    <glyph glyph-name="multiply" unicode="&#xd7;" 
d="M929 809l-256 -256l256 -256l-120 -120l-256 256l-256 -256l-120 120l256 256l-256 256l120 120l256 -256l256 256z" />
    <glyph glyph-name="Oslash" unicode="&#xd8;" 
d="M323 0h-165l69 172c-22 32 -39 66.667 -51 104s-18 77 -18 119v632c0 54.667 10.333 106 31 154s48.834 89.833 84.501 125.5s77.5 63.834 125.5 84.501s99.333 31 154 31c38 0 74 -5 108 -15s66 -24 96 -42l33 57h158c0 -2.66699 -0.5 -6 -1.5 -10
s-3.66699 -11.667 -8 -23s-11.166 -27.833 -20.499 -49.5l-39 -89.5c21.333 -32 38.166 -66.667 50.499 -104s18.5 -77 18.5 -119v-632c0 -54.667 -10.333 -106 -31 -154s-48.834 -89.833 -84.501 -125.5s-77.5 -63.834 -125.5 -84.501s-99.333 -31 -154 -31
c-38 0 -74.167 5 -108.5 15s-66.5 24 -96.5 42zM790 395c0 110.667 -0.168945 219.167 -0.501953 325.5s-0.5 215.166 -0.5 326.499l-376 -844c19.333 -14.667 41 -25.834 65 -33.501s49 -11.5 75 -11.5c32.667 0 63.334 6.16699 92.001 18.5s53.834 29.333 75.501 51
s38.667 46.834 51 75.501s18.5 59.334 18.5 92.001zM552.998 1264c-32.667 0 -63.332 -6.16504 -91.999 -18.498s-53.834 -29.333 -75.501 -51s-38.667 -46.834 -51 -75.501s-18.5 -59.334 -18.5 -92.001v-665l376 857c-19.333 14 -40.833 25 -64.5 33s-48.5 12 -74.5 12z
" />
    <glyph glyph-name="Ugrave" unicode="&#xd9;" 
d="M158 1422h157.998v-1027c0 -32.667 6.16699 -63.334 18.5 -92.001s29.333 -53.834 51 -75.501s46.834 -38.667 75.501 -51s59.334 -18.5 92.001 -18.5s63.334 6.16699 92.001 18.5s53.834 29.333 75.501 51s38.667 46.834 51 75.501s18.5 59.334 18.5 92.001v1027h158
v-1027c0 -54.667 -10.333 -106 -31 -154s-48.834 -89.833 -84.501 -125.5s-77.5 -63.834 -125.5 -84.501s-99.333 -31 -154 -31s-106 10.333 -154 31s-89.833 48.834 -125.5 84.501s-63.834 77.5 -84.501 125.5s-31 99.333 -31 154v395v632zM315.998 1738v158l474 -237v-158
z" />
    <glyph glyph-name="Uacute" unicode="&#xda;" 
d="M158 1422h157.998v-1027c0 -32.667 6.16699 -63.334 18.5 -92.001s29.333 -53.834 51 -75.501s46.834 -38.667 75.501 -51s59.334 -18.5 92.001 -18.5s63.334 6.16699 92.001 18.5s53.834 29.333 75.501 51s38.667 46.834 51 75.501s18.5 59.334 18.5 92.001v1027h158
v-1027c0 -54.667 -10.333 -106 -31 -154s-48.834 -89.833 -84.501 -125.5s-77.5 -63.834 -125.5 -84.501s-99.333 -31 -154 -31s-106 10.333 -154 31s-89.833 48.834 -125.5 84.501s-63.834 77.5 -84.501 125.5s-31 99.333 -31 154v395v632zM394.998 1580l-79 79l395 237
l79 -79z" />
    <glyph glyph-name="Ucircumflex" unicode="&#xdb;" 
d="M158 1422h157.998v-1027c0 -32.667 6.16699 -63.334 18.5 -92.001s29.333 -53.834 51 -75.501s46.834 -38.667 75.501 -51s59.334 -18.5 92.001 -18.5s63.334 6.16699 92.001 18.5s53.834 29.333 75.501 51s38.667 46.834 51 75.501s18.5 59.334 18.5 92.001v1027h158
v-1027c0 -54.667 -10.333 -106 -31 -154s-48.834 -89.833 -84.501 -125.5s-77.5 -63.834 -125.5 -84.501s-99.333 -31 -154 -31s-106 10.333 -154 31s-89.833 48.834 -125.5 84.501s-63.834 77.5 -84.501 125.5s-31 99.333 -31 154v395v632zM550.998 1896l237 -237l-79 -79
l-158 158l-158 -158l-79 79z" />
    <glyph glyph-name="Udieresis" unicode="&#xdc;" 
d="M158 1422h157.998v-1027c0 -32.667 6.16699 -63.334 18.5 -92.001s29.333 -53.834 51 -75.501s46.834 -38.667 75.501 -51s59.334 -18.5 92.001 -18.5s63.334 6.16699 92.001 18.5s53.834 29.333 75.501 51s38.667 46.834 51 75.501s18.5 59.334 18.5 92.001v1027h158
v-1027c0 -54.667 -10.333 -106 -31 -154s-48.834 -89.833 -84.501 -125.5s-77.5 -63.834 -125.5 -84.501s-99.333 -31 -154 -31s-106 10.333 -154 31s-89.833 48.834 -125.5 84.501s-63.834 77.5 -84.501 125.5s-31 99.333 -31 154v395v632zM313.998 1659
c0 22 7.66699 40.667 23 56s34 23 56 23s40.667 -7.66699 56 -23s23 -34 23 -56s-7.66699 -40.667 -23 -56s-34 -23 -56 -23s-40.667 7.66699 -56 23s-23 34 -23 56zM629.998 1659c0 22 7.66699 40.667 23 56s34 23 56 23s40.667 -7.66699 56 -23s23 -34 23 -56
s-7.66699 -40.667 -23 -56s-34 -23 -56 -23s-40.667 7.66699 -56 23s-23 34 -23 56z" />
    <glyph glyph-name="Yacute" unicode="&#xdd;" 
d="M474 472l-316 950h158l237 -711l237 711h158l-316 -948v-474h-158v472zM395 1580l-79 79l395 237l79 -79z" />
    <glyph glyph-name="Thorn" unicode="&#xde;" 
d="M632 1106c39.333 0 78 -9 116 -27s71.833 -41.833 101.5 -71.5s53.5 -63.5 71.5 -101.5s27 -76.667 27 -116v-158c0 -39.333 -9 -78 -27 -116s-41.833 -71.833 -71.5 -101.5s-63.5 -53.5 -101.5 -71.5s-76.667 -27 -116 -27h-316v-316h-158v1422h158v-316h316zM790 790
c0 20 -4.5 39.333 -13.5 58s-21 35.5 -36 50.5s-31.833 27 -50.5 36s-38 13.5 -58 13.5h-316v-474h316c20 0 39.333 4.5 58 13.5s35.5 21 50.5 36s27 31.833 36 50.5s13.5 38 13.5 58v158z" />
    <glyph glyph-name="germandbls" unicode="&#xdf;" 
d="M158 1027c0 68 11.499 126.828 34.499 176.495s53.167 90.667 90.5 123s79.5 56.333 126.5 72s94.833 23.5 143.5 23.5c54.667 0 106 -10.333 154 -31s89.833 -48.834 125.5 -84.501s63.834 -77.5 84.501 -125.5s31 -99.333 31 -154c0 -65.333 -14.5 -125.333 -43.5 -180
s-67.5 -100 -115.5 -136c48 -36 86.5 -81.5 115.5 -136.5s43.5 -114.833 43.5 -179.5c0 -54.667 -10.333 -106 -31 -154s-48.834 -89.833 -84.501 -125.5s-77.5 -63.834 -125.5 -84.501s-99.333 -31 -154 -31h-79v158h79c32.667 0 63.334 6.16699 92.001 18.5
s53.834 29.333 75.501 51s38.667 46.834 51 75.501s18.5 59.334 18.5 92.001s-6.16699 63.334 -18.5 92.001s-29.333 53.834 -51 75.501s-46.834 38.667 -75.501 51s-59.334 18.5 -92.001 18.5h-79v158h79c32.667 0 63.334 6.16699 92.001 18.5s53.834 29.333 75.501 51
s38.667 46.834 51 75.501s18.5 59.334 18.5 92.001s-6.16699 63.334 -18.5 92.001s-29.333 53.834 -51 75.501s-46.834 38.667 -75.501 51s-59.334 18.5 -92.001 18.5c-28.667 0 -57.167 -5 -85.5 -15s-53.666 -24.833 -75.999 -44.5s-40.5 -44.334 -54.5 -74.001
s-21 -64.167 -21 -103.5v-1027h-158v1027z" />
    <glyph glyph-name="agrave" unicode="&#xe0;" 
d="M474 0c-43.333 0 -84.165 8.33203 -122.498 24.999s-71.833 39.334 -100.5 68.001s-51.334 62.167 -68.001 100.5s-25 79.166 -25 122.499s8.33301 84.166 25 122.499s39.334 71.833 68.001 100.5s62.167 51.334 100.5 68.001s79.166 25 122.499 25h316v79
c0 32.667 -6.16699 63.334 -18.5 92.001s-29.333 53.834 -51 75.501s-46.834 38.667 -75.501 51s-59.334 18.5 -92.001 18.5h-237v158h237c54.667 0 106 -10.333 154 -31s89.833 -48.834 125.5 -84.501s63.834 -77.5 84.501 -125.5s31 -99.333 31 -154v-711h-474z
M474.001 473.999c-22 0 -42.5 -4.16895 -61.5 -12.502s-35.667 -19.666 -50 -33.999s-25.666 -31 -33.999 -50s-12.5 -39.5 -12.5 -61.5s4.16699 -42.5 12.5 -61.5s19.666 -35.667 33.999 -50s31 -25.666 50 -33.999s39.5 -12.5 61.5 -12.5h316v316h-316zM316.001 1422v158
l474 -237v-158z" />
    <glyph glyph-name="aacute" unicode="&#xe1;" 
d="M474 0c-43.333 0 -84.165 8.33203 -122.498 24.999s-71.833 39.334 -100.5 68.001s-51.334 62.167 -68.001 100.5s-25 79.166 -25 122.499s8.33301 84.166 25 122.499s39.334 71.833 68.001 100.5s62.167 51.334 100.5 68.001s79.166 25 122.499 25h316v79
c0 32.667 -6.16699 63.334 -18.5 92.001s-29.333 53.834 -51 75.501s-46.834 38.667 -75.501 51s-59.334 18.5 -92.001 18.5h-237v158h237c54.667 0 106 -10.333 154 -31s89.833 -48.834 125.5 -84.501s63.834 -77.5 84.501 -125.5s31 -99.333 31 -154v-711h-474z
M474.001 473.999c-22 0 -42.5 -4.16895 -61.5 -12.502s-35.667 -19.666 -50 -33.999s-25.666 -31 -33.999 -50s-12.5 -39.5 -12.5 -61.5s4.16699 -42.5 12.5 -61.5s19.666 -35.667 33.999 -50s31 -25.666 50 -33.999s39.5 -12.5 61.5 -12.5h316v316h-316zM395.001 1264
l-79 79l395 237l79 -79z" />
    <glyph glyph-name="acircumflex" unicode="&#xe2;" 
d="M474 0c-43.333 0 -84.165 8.33203 -122.498 24.999s-71.833 39.334 -100.5 68.001s-51.334 62.167 -68.001 100.5s-25 79.166 -25 122.499s8.33301 84.166 25 122.499s39.334 71.833 68.001 100.5s62.167 51.334 100.5 68.001s79.166 25 122.499 25h316v79
c0 32.667 -6.16699 63.334 -18.5 92.001s-29.333 53.834 -51 75.501s-46.834 38.667 -75.501 51s-59.334 18.5 -92.001 18.5h-237v158h237c54.667 0 106 -10.333 154 -31s89.833 -48.834 125.5 -84.501s63.834 -77.5 84.501 -125.5s31 -99.333 31 -154v-711h-474z
M474.001 473.999c-22 0 -42.5 -4.16895 -61.5 -12.502s-35.667 -19.666 -50 -33.999s-25.666 -31 -33.999 -50s-12.5 -39.5 -12.5 -61.5s4.16699 -42.5 12.5 -61.5s19.666 -35.667 33.999 -50s31 -25.666 50 -33.999s39.5 -12.5 61.5 -12.5h316v316h-316zM551.001 1580
l237 -237l-79 -79l-158 158l-158 -158l-79 79z" />
    <glyph glyph-name="atilde" unicode="&#xe3;" 
d="M474 0c-43.333 0 -84.165 8.33203 -122.498 24.999s-71.833 39.334 -100.5 68.001s-51.334 62.167 -68.001 100.5s-25 79.166 -25 122.499s8.33301 84.166 25 122.499s39.334 71.833 68.001 100.5s62.167 51.334 100.5 68.001s79.166 25 122.499 25h316v79
c0 32.667 -6.16699 63.334 -18.5 92.001s-29.333 53.834 -51 75.501s-46.834 38.667 -75.501 51s-59.334 18.5 -92.001 18.5h-237v158h237c54.667 0 106 -10.333 154 -31s89.833 -48.834 125.5 -84.501s63.834 -77.5 84.501 -125.5s31 -99.333 31 -154v-711h-474z
M474.001 473.999c-22 0 -42.5 -4.16895 -61.5 -12.502s-35.667 -19.666 -50 -33.999s-25.666 -31 -33.999 -50s-12.5 -39.5 -12.5 -61.5s4.16699 -42.5 12.5 -61.5s19.666 -35.667 33.999 -50s31 -25.666 50 -33.999s39.5 -12.5 61.5 -12.5h316v316h-316zM946.001 1501
c-79.333 -158 -158.334 -237 -237.001 -237c-39.333 0 -70.833 3.83301 -94.5 11.5s-42.834 17.5 -57.501 29.5s-26.5 24.667 -35.5 38s-18.667 26 -29 38s-23 21.833 -38 29.5s-35.5 11.5 -61.5 11.5c-20 0 -39.333 -4.5 -58 -13.5s-35.5 -21 -50.5 -36
s-27 -31.833 -36 -50.5s-13.5 -38 -13.5 -58l-79 79c78.667 158 157.667 237 237 237c39.333 0 70.833 -3.83301 94.5 -11.5s42.834 -17.5 57.501 -29.5s26.5 -24.667 35.5 -38s18.667 -26 29 -38s22.833 -21.833 37.5 -29.5s35.334 -11.5 62.001 -11.5
c20 0 39.333 4.5 58 13.5s35.5 21 50.5 36s27 31.833 36 50.5s13.5 38 13.5 58z" />
    <glyph glyph-name="adieresis" unicode="&#xe4;" 
d="M474 0c-43.333 0 -84.165 8.33203 -122.498 24.999s-71.833 39.334 -100.5 68.001s-51.334 62.167 -68.001 100.5s-25 79.166 -25 122.499s8.33301 84.166 25 122.499s39.334 71.833 68.001 100.5s62.167 51.334 100.5 68.001s79.166 25 122.499 25h316v79
c0 32.667 -6.16699 63.334 -18.5 92.001s-29.333 53.834 -51 75.501s-46.834 38.667 -75.501 51s-59.334 18.5 -92.001 18.5h-237v158h237c54.667 0 106 -10.333 154 -31s89.833 -48.834 125.5 -84.501s63.834 -77.5 84.501 -125.5s31 -99.333 31 -154v-711h-474z
M474.001 473.999c-22 0 -42.5 -4.16895 -61.5 -12.502s-35.667 -19.666 -50 -33.999s-25.666 -31 -33.999 -50s-12.5 -39.5 -12.5 -61.5s4.16699 -42.5 12.5 -61.5s19.666 -35.667 33.999 -50s31 -25.666 50 -33.999s39.5 -12.5 61.5 -12.5h316v316h-316zM314.001 1343
c0 22 7.66699 40.667 23 56s34 23 56 23s40.667 -7.66699 56 -23s23 -34 23 -56s-7.66699 -40.667 -23 -56s-34 -23 -56 -23s-40.667 7.66699 -56 23s-23 34 -23 56zM630.001 1343c0 22 7.66699 40.667 23 56s34 23 56 23s40.667 -7.66699 56 -23s23 -34 23 -56
s-7.66699 -40.667 -23 -56s-34 -23 -56 -23s-40.667 7.66699 -56 23s-23 34 -23 56z" />
    <glyph glyph-name="aring" unicode="&#xe5;" 
d="M474 0c-43.333 0 -84.165 8.33203 -122.498 24.999s-71.833 39.334 -100.5 68.001s-51.334 62.167 -68.001 100.5s-25 79.166 -25 122.499s8.33301 84.166 25 122.499s39.334 71.833 68.001 100.5s62.167 51.334 100.5 68.001s79.166 25 122.499 25h316v79
c0 32.667 -6.16699 63.334 -18.5 92.001s-29.333 53.834 -51 75.501s-46.834 38.667 -75.501 51s-59.334 18.5 -92.001 18.5h-237v158h237c54.667 0 106 -10.333 154 -31s89.833 -48.834 125.5 -84.501s63.834 -77.5 84.501 -125.5s31 -99.333 31 -154v-711h-474z
M474.001 473.999c-22 0 -42.5 -4.16895 -61.5 -12.502s-35.667 -19.666 -50 -33.999s-25.666 -31 -33.999 -50s-12.5 -39.5 -12.5 -61.5s4.16699 -42.5 12.5 -61.5s19.666 -35.667 33.999 -50s31 -25.666 50 -33.999s39.5 -12.5 61.5 -12.5h316v316h-316zM314.001 1501
c0 32.667 6.16699 63.334 18.5 92.001s29.333 53.834 51 75.501s46.834 38.667 75.501 51s59.334 18.5 92.001 18.5s63.334 -6.16699 92.001 -18.5s53.834 -29.333 75.501 -51s38.667 -46.834 51 -75.501s18.5 -59.334 18.5 -92.001s-6.16699 -63.334 -18.5 -92.001
s-29.333 -53.834 -51 -75.501s-46.834 -38.667 -75.501 -51s-59.334 -18.5 -92.001 -18.5s-63.334 6.16699 -92.001 18.5s-53.834 29.333 -75.501 51s-38.667 46.834 -51 75.501s-18.5 59.334 -18.5 92.001zM472.001 1501c0 -22 7.66699 -40.667 23 -56s34 -23 56 -23
s40.667 7.66699 56 23s23 34 23 56s-7.66699 40.667 -23 56s-34 23 -56 23s-40.667 -7.66699 -56 -23s-23 -34 -23 -56z" />
    <glyph glyph-name="ae" unicode="&#xe6;" 
d="M395 0c-39.333 0 -73.832 9.00098 -103.499 27.001s-54.334 41.833 -74.001 71.5s-34.5 63.5 -44.5 101.5s-15 76.667 -15 116s5 78 15 116s24.833 71.833 44.5 101.5s44.334 53.5 74.001 71.5s64.167 27 103.5 27h79c0 78.667 -4.5 139.5 -13.5 182.5s-21 74.333 -36 94
s-31.833 31.167 -50.5 34.5s-38 5 -58 5v158c10.667 0 24 -0.333008 40 -1s33.167 -2.5 51.5 -5.5s37.5 -8 57.5 -15s39 -16.833 57 -29.5c15.333 15.333 32.5 27.666 51.5 36.999s38.5 14 58.5 14h79c39.333 0 73.833 -9 103.5 -27s54.334 -41.833 74.001 -71.5
s34.5 -63.5 44.5 -101.5s15 -76.667 15 -116s-5 -78 -15 -116s-24.833 -71.833 -44.5 -101.5s-44.334 -53.5 -74.001 -71.5s-64.167 -27 -103.5 -27h-79c0 -52.667 1 -97 3 -133s4.83301 -65.667 8.5 -89s8 -41.5 13 -54.5s10.5 -22.333 16.5 -28s12.167 -9 18.5 -10
s12.833 -1.5 19.5 -1.5c12 0 22.833 4.5 32.5 13.5s18 21 25 36s12.333 31.833 16 50.5s5.5 38 5.5 58h158c0 -59.333 -5 -109.166 -15 -149.499s-24.833 -72.833 -44.5 -97.5s-44.334 -42.334 -74.001 -53.001s-64.167 -16 -103.5 -16h-316zM395.001 474.001
c-11.333 0 -21.833 -4.5 -31.5 -13.5s-18 -21 -25 -36s-12.5 -31.833 -16.5 -50.5s-6 -38 -6 -58s2 -39.333 6 -58s9.5 -35.5 16.5 -50.5s15.333 -27 25 -36s20.167 -13.5 31.5 -13.5h79v316h-79zM711.001 632.001c11.333 0 21.833 4.5 31.5 13.5s18 21 25 36
s12.5 31.833 16.5 50.5s6 38 6 58s-2 39.333 -6 58s-9.5 35.5 -16.5 50.5s-15.333 27 -25 36s-20.167 13.5 -31.5 13.5h-79v-316h79z" />
    <glyph glyph-name="ccedilla" unicode="&#xe7;" 
d="M316 395c0 -32.667 7 -63.332 21 -91.999s32.5 -53.834 55.5 -75.501s49.667 -38.667 80 -51s61.833 -18.5 94.5 -18.5c26 0 50.667 3.83301 74 11.5s44.666 18.5 63.999 32.5s36.333 30.667 51 50s26 40.666 34 63.999h158
c-9.33301 -45.333 -25.833 -87.166 -49.5 -125.499s-52.5 -71.666 -86.5 -99.999s-72.333 -50.5 -115 -66.5s-88 -24 -136 -24c-54.667 0 -106.334 10.333 -155.001 31s-91.334 48.834 -128.001 84.501s-65.834 77.5 -87.501 125.5s-32.5 99.333 -32.5 154v316
c0 54.667 10.833 106 32.5 154s50.834 89.833 87.501 125.5s79.334 63.834 128.001 84.501s100.334 31 155.001 31c48 0 93.333 -8 136 -24s81 -38.167 115 -66.5s62.833 -61.833 86.5 -100.5s40.167 -80.334 49.5 -125.001h-158c-8 22.667 -19.333 43.667 -34 63
s-31.667 36 -51 50s-40.666 25 -63.999 33s-48 12 -74 12c-32.667 0 -64.167 -6.16699 -94.5 -18.5s-57 -29.333 -80 -51s-41.5 -46.834 -55.5 -75.501s-21 -59.334 -21 -92.001v-316zM632 0.00195312c0 -59.333 -9.83203 -112.832 -29.499 -160.499
s-49.334 -86.334 -89.001 -116.001s-89.167 -48.667 -148.5 -57s-128.333 -2.5 -207 17.5v158c59.333 -20 109.166 -30.333 149.499 -31s72.833 6.33301 97.5 21s42.334 36.5 53.001 65.5s16 63.167 16 102.5h158z" />
    <glyph glyph-name="egrave" unicode="&#xe8;" 
d="M316 395c0 -32.667 6.16406 -63.333 18.4971 -92s29.333 -53.834 51 -75.501s46.834 -38.667 75.501 -51s59.334 -18.5 92.001 -18.5h395v-158h-395c-54.667 0 -106 10.333 -154 31s-89.833 48.834 -125.5 84.501s-63.834 77.5 -84.501 125.5s-31 99.333 -31 154v316
c0 54.667 10.333 106 31 154s48.834 89.833 84.501 125.5s77.5 63.834 125.5 84.501s99.333 31 154 31s106 -10.333 154 -31s89.833 -48.834 125.5 -84.501s63.834 -77.5 84.501 -125.5s31 -99.333 31 -154v-237h-632v-79zM315.997 632.001h474.004v79
c0 32.667 -6.16699 63.334 -18.5 92.001s-29.333 53.834 -51 75.501s-46.834 38.667 -75.501 51s-59.334 18.5 -92.001 18.5s-63.334 -6.16699 -92.001 -18.5s-53.834 -29.333 -75.501 -51s-38.667 -46.834 -51 -75.501s-18.5 -59.334 -18.5 -92.001v-79zM316.001 1422v158
l474 -237v-158z" />
    <glyph glyph-name="eacute" unicode="&#xe9;" 
d="M316 395c0 -32.667 6.16406 -63.333 18.4971 -92s29.333 -53.834 51 -75.501s46.834 -38.667 75.501 -51s59.334 -18.5 92.001 -18.5h395v-158h-395c-54.667 0 -106 10.333 -154 31s-89.833 48.834 -125.5 84.501s-63.834 77.5 -84.501 125.5s-31 99.333 -31 154v316
c0 54.667 10.333 106 31 154s48.834 89.833 84.501 125.5s77.5 63.834 125.5 84.501s99.333 31 154 31s106 -10.333 154 -31s89.833 -48.834 125.5 -84.501s63.834 -77.5 84.501 -125.5s31 -99.333 31 -154v-237h-632v-79zM315.997 632.001h474.004v79
c0 32.667 -6.16699 63.334 -18.5 92.001s-29.333 53.834 -51 75.501s-46.834 38.667 -75.501 51s-59.334 18.5 -92.001 18.5s-63.334 -6.16699 -92.001 -18.5s-53.834 -29.333 -75.501 -51s-38.667 -46.834 -51 -75.501s-18.5 -59.334 -18.5 -92.001v-79zM395.001 1264
l-79 79l395 237l79 -79z" />
    <glyph glyph-name="ecircumflex" unicode="&#xea;" 
d="M316 395c0 -32.667 6.16406 -63.333 18.4971 -92s29.333 -53.834 51 -75.501s46.834 -38.667 75.501 -51s59.334 -18.5 92.001 -18.5h395v-158h-395c-54.667 0 -106 10.333 -154 31s-89.833 48.834 -125.5 84.501s-63.834 77.5 -84.501 125.5s-31 99.333 -31 154v316
c0 54.667 10.333 106 31 154s48.834 89.833 84.501 125.5s77.5 63.834 125.5 84.501s99.333 31 154 31s106 -10.333 154 -31s89.833 -48.834 125.5 -84.501s63.834 -77.5 84.501 -125.5s31 -99.333 31 -154v-237h-632v-79zM315.997 632.001h474.004v79
c0 32.667 -6.16699 63.334 -18.5 92.001s-29.333 53.834 -51 75.501s-46.834 38.667 -75.501 51s-59.334 18.5 -92.001 18.5s-63.334 -6.16699 -92.001 -18.5s-53.834 -29.333 -75.501 -51s-38.667 -46.834 -51 -75.501s-18.5 -59.334 -18.5 -92.001v-79zM551.001 1580
l237 -237l-79 -79l-158 158l-158 -158l-79 79z" />
    <glyph glyph-name="edieresis" unicode="&#xeb;" 
d="M316 395c0 -32.667 6.16406 -63.333 18.4971 -92s29.333 -53.834 51 -75.501s46.834 -38.667 75.501 -51s59.334 -18.5 92.001 -18.5h395v-158h-395c-54.667 0 -106 10.333 -154 31s-89.833 48.834 -125.5 84.501s-63.834 77.5 -84.501 125.5s-31 99.333 -31 154v316
c0 54.667 10.333 106 31 154s48.834 89.833 84.501 125.5s77.5 63.834 125.5 84.501s99.333 31 154 31s106 -10.333 154 -31s89.833 -48.834 125.5 -84.501s63.834 -77.5 84.501 -125.5s31 -99.333 31 -154v-237h-632v-79zM315.997 632.001h474.004v79
c0 32.667 -6.16699 63.334 -18.5 92.001s-29.333 53.834 -51 75.501s-46.834 38.667 -75.501 51s-59.334 18.5 -92.001 18.5s-63.334 -6.16699 -92.001 -18.5s-53.834 -29.333 -75.501 -51s-38.667 -46.834 -51 -75.501s-18.5 -59.334 -18.5 -92.001v-79zM314.001 1343
c0 22 7.66699 40.667 23 56s34 23 56 23s40.667 -7.66699 56 -23s23 -34 23 -56s-7.66699 -40.667 -23 -56s-34 -23 -56 -23s-40.667 7.66699 -56 23s-23 34 -23 56zM630.001 1343c0 22 7.66699 40.667 23 56s34 23 56 23s40.667 -7.66699 56 -23s23 -34 23 -56
s-7.66699 -40.667 -23 -56s-34 -23 -56 -23s-40.667 7.66699 -56 23s-23 34 -23 56z" />
    <glyph glyph-name="igrave" unicode="&#xec;" 
d="M474 948h-158v158h316v-1106h-158v948zM316 1501l79 79l237 -237l-79 -79z" />
    <glyph glyph-name="iacute" unicode="&#xed;" 
d="M474 948h-158v158h316v-1106h-158v948zM395 1264l-79 79l237 237l79 -79z" />
    <glyph glyph-name="icircumflex" unicode="&#xee;" 
d="M474 948h-158v158h316v-1106h-158v948zM550 1580l237 -237l-79 -79l-158 158l-158 -158l-79 79z" />
    <glyph glyph-name="idieresis" unicode="&#xef;" 
d="M474 948h-158v158h316v-1106h-158v948zM316 1422h158v-158h-158v158zM632 1422h158v-158h-158v158z" />
    <glyph glyph-name="eth" unicode="&#xf0;" 
d="M711 1422l0.000976562 -158l-51 -51c48.667 -50 95.667 -112 141 -186l147 -237v-474c0 -39.333 -9 -78 -27 -116s-41.833 -71.833 -71.5 -101.5s-63.5 -53.5 -101.5 -71.5s-76.667 -27 -116 -27h-158c-39.333 0 -78 9 -116 27s-71.833 41.833 -101.5 71.5
s-53.5 63.5 -71.5 101.5s-27 76.667 -27 116v158c0 39.333 9 78 27 116s41.833 71.833 71.5 101.5s63.5 53.5 101.5 71.5s76.667 27 116 27h316l-158 237c-22.667 33.333 -45.334 63.333 -68.001 90l-169 -169v158l90 90c-56.667 45.333 -113 68 -169 68v158l169 -79
c31.333 -14 62 -32.333 92 -55zM553.001 158c158 0 237 79 237 237v237h-237c-158 0 -237 -79 -237 -237s79 -237 237 -237z" />
    <glyph glyph-name="ntilde" unicode="&#xf1;" 
d="M553 948c-32 0 -62.167 -6.00098 -90.5 -18.001s-53.166 -28.167 -74.499 -48.5s-38.333 -44.333 -51 -72s-19.667 -57.167 -21 -88.5v-721h-158v1106h158v-80c33.333 25.333 70 45 110 59s82.333 21 127 21c54.667 0 106 -10.333 154 -31s89.833 -48.834 125.5 -84.501
s63.834 -77.5 84.501 -125.5s31 -99.333 31 -154v-711h-158v711c0 32.667 -6.16699 63.334 -18.5 92.001s-29.333 53.834 -51 75.501s-46.834 38.667 -75.501 51s-59.334 18.5 -92.001 18.5zM946 1501c-79.333 -158 -158.334 -237 -237.001 -237
c-39.333 0 -70.833 3.83301 -94.5 11.5s-42.834 17.5 -57.501 29.5s-26.5 24.667 -35.5 38s-18.667 26 -29 38s-23 21.833 -38 29.5s-35.5 11.5 -61.5 11.5c-20 0 -39.333 -4.5 -58 -13.5s-35.5 -21 -50.5 -36s-27 -31.833 -36 -50.5s-13.5 -38 -13.5 -58l-79 79
c78.667 158 157.667 237 237 237c39.333 0 70.833 -3.83301 94.5 -11.5s42.834 -17.5 57.501 -29.5s26.5 -24.667 35.5 -38s18.667 -26 29 -38s22.833 -21.833 37.5 -29.5s35.334 -11.5 62.001 -11.5c20 0 39.333 4.5 58 13.5s35.5 21 50.5 36s27 31.833 36 50.5
s13.5 38 13.5 58z" />
    <glyph glyph-name="ograve" unicode="&#xf2;" 
d="M158 711c0 54.667 10.333 106 31 154s48.834 89.833 84.501 125.5s77.5 63.834 125.5 84.501s99.333 31 154 31s106 -10.333 154 -31s89.833 -48.834 125.5 -84.501s63.834 -77.5 84.501 -125.5s31 -99.333 31 -154v-316c0 -54.667 -10.333 -106 -31 -154
s-48.834 -89.833 -84.501 -125.5s-77.5 -63.834 -125.5 -84.501s-99.333 -31 -154 -31s-106 10.333 -154 31s-89.833 48.834 -125.5 84.501s-63.834 77.5 -84.501 125.5s-31 99.333 -31 154v316zM316 395c0 -32.667 6.16699 -63.334 18.5 -92.001s29.333 -53.834 51 -75.501
s46.834 -38.667 75.501 -51s59.334 -18.5 92.001 -18.5s63.334 6.16699 92.001 18.5s53.834 29.333 75.501 51s38.667 46.834 51 75.501s18.5 59.334 18.5 92.001v316c0 32.667 -6.16699 63.334 -18.5 92.001s-29.333 53.834 -51 75.501s-46.834 38.667 -75.501 51
s-59.334 18.5 -92.001 18.5s-63.334 -6.16699 -92.001 -18.5s-53.834 -29.333 -75.501 -51s-38.667 -46.834 -51 -75.501s-18.5 -59.334 -18.5 -92.001v-316zM316 1422v158l474 -237v-158z" />
    <glyph glyph-name="oacute" unicode="&#xf3;" 
d="M158 711c0 54.667 10.333 106 31 154s48.834 89.833 84.501 125.5s77.5 63.834 125.5 84.501s99.333 31 154 31s106 -10.333 154 -31s89.833 -48.834 125.5 -84.501s63.834 -77.5 84.501 -125.5s31 -99.333 31 -154v-316c0 -54.667 -10.333 -106 -31 -154
s-48.834 -89.833 -84.501 -125.5s-77.5 -63.834 -125.5 -84.501s-99.333 -31 -154 -31s-106 10.333 -154 31s-89.833 48.834 -125.5 84.501s-63.834 77.5 -84.501 125.5s-31 99.333 -31 154v316zM316 395c0 -32.667 6.16699 -63.334 18.5 -92.001s29.333 -53.834 51 -75.501
s46.834 -38.667 75.501 -51s59.334 -18.5 92.001 -18.5s63.334 6.16699 92.001 18.5s53.834 29.333 75.501 51s38.667 46.834 51 75.501s18.5 59.334 18.5 92.001v316c0 32.667 -6.16699 63.334 -18.5 92.001s-29.333 53.834 -51 75.501s-46.834 38.667 -75.501 51
s-59.334 18.5 -92.001 18.5s-63.334 -6.16699 -92.001 -18.5s-53.834 -29.333 -75.501 -51s-38.667 -46.834 -51 -75.501s-18.5 -59.334 -18.5 -92.001v-316zM394.844 1264l-79.1689 79l395.844 237l79.1689 -79z" />
    <glyph glyph-name="ocircumflex" unicode="&#xf4;" 
d="M158 711c0 54.667 10.333 106 31 154s48.834 89.833 84.501 125.5s77.5 63.834 125.5 84.501s99.333 31 154 31s106 -10.333 154 -31s89.833 -48.834 125.5 -84.501s63.834 -77.5 84.501 -125.5s31 -99.333 31 -154v-316c0 -54.667 -10.333 -106 -31 -154
s-48.834 -89.833 -84.501 -125.5s-77.5 -63.834 -125.5 -84.501s-99.333 -31 -154 -31s-106 10.333 -154 31s-89.833 48.834 -125.5 84.501s-63.834 77.5 -84.501 125.5s-31 99.333 -31 154v316zM316 395c0 -32.667 6.16699 -63.334 18.5 -92.001s29.333 -53.834 51 -75.501
s46.834 -38.667 75.501 -51s59.334 -18.5 92.001 -18.5s63.334 6.16699 92.001 18.5s53.834 29.333 75.501 51s38.667 46.834 51 75.501s18.5 59.334 18.5 92.001v316c0 32.667 -6.16699 63.334 -18.5 92.001s-29.333 53.834 -51 75.501s-46.834 38.667 -75.501 51
s-59.334 18.5 -92.001 18.5s-63.334 -6.16699 -92.001 -18.5s-53.834 -29.333 -75.501 -51s-38.667 -46.834 -51 -75.501s-18.5 -59.334 -18.5 -92.001v-316zM551 1580l237 -237l-79 -79l-158 158l-158 -158l-79 79z" />
    <glyph glyph-name="otilde" unicode="&#xf5;" 
d="M158 711c0 54.667 10.333 106 31 154s48.834 89.833 84.501 125.5s77.5 63.834 125.5 84.501s99.333 31 154 31s106 -10.333 154 -31s89.833 -48.834 125.5 -84.501s63.834 -77.5 84.501 -125.5s31 -99.333 31 -154v-316c0 -54.667 -10.333 -106 -31 -154
s-48.834 -89.833 -84.501 -125.5s-77.5 -63.834 -125.5 -84.501s-99.333 -31 -154 -31s-106 10.333 -154 31s-89.833 48.834 -125.5 84.501s-63.834 77.5 -84.501 125.5s-31 99.333 -31 154v316zM316 395c0 -32.667 6.16699 -63.334 18.5 -92.001s29.333 -53.834 51 -75.501
s46.834 -38.667 75.501 -51s59.334 -18.5 92.001 -18.5s63.334 6.16699 92.001 18.5s53.834 29.333 75.501 51s38.667 46.834 51 75.501s18.5 59.334 18.5 92.001v316c0 32.667 -6.16699 63.334 -18.5 92.001s-29.333 53.834 -51 75.501s-46.834 38.667 -75.501 51
s-59.334 18.5 -92.001 18.5s-63.334 -6.16699 -92.001 -18.5s-53.834 -29.333 -75.501 -51s-38.667 -46.834 -51 -75.501s-18.5 -59.334 -18.5 -92.001v-316zM946 1501c-79.333 -158 -158.334 -237 -237.001 -237c-39.333 0 -70.833 3.83301 -94.5 11.5
s-42.834 17.5 -57.501 29.5s-26.5 24.667 -35.5 38s-18.667 26 -29 38s-23 21.833 -38 29.5s-35.5 11.5 -61.5 11.5c-20 0 -39.333 -4.5 -58 -13.5s-35.5 -21 -50.5 -36s-27 -31.833 -36 -50.5s-13.5 -38 -13.5 -58l-79 79c78.667 158 157.667 237 237 237
c39.333 0 70.833 -3.83301 94.5 -11.5s42.834 -17.5 57.501 -29.5s26.5 -24.667 35.5 -38s18.667 -26 29 -38s22.833 -21.833 37.5 -29.5s35.334 -11.5 62.001 -11.5c20 0 39.333 4.5 58 13.5s35.5 21 50.5 36s27 31.833 36 50.5s13.5 38 13.5 58z" />
    <glyph glyph-name="odieresis" unicode="&#xf6;" 
d="M158 711c0 54.667 10.333 106 31 154s48.834 89.833 84.501 125.5s77.5 63.834 125.5 84.501s99.333 31 154 31s106 -10.333 154 -31s89.833 -48.834 125.5 -84.501s63.834 -77.5 84.501 -125.5s31 -99.333 31 -154v-316c0 -54.667 -10.333 -106 -31 -154
s-48.834 -89.833 -84.501 -125.5s-77.5 -63.834 -125.5 -84.501s-99.333 -31 -154 -31s-106 10.333 -154 31s-89.833 48.834 -125.5 84.501s-63.834 77.5 -84.501 125.5s-31 99.333 -31 154v316zM316 395c0 -32.667 6.16699 -63.334 18.5 -92.001s29.333 -53.834 51 -75.501
s46.834 -38.667 75.501 -51s59.334 -18.5 92.001 -18.5s63.334 6.16699 92.001 18.5s53.834 29.333 75.501 51s38.667 46.834 51 75.501s18.5 59.334 18.5 92.001v316c0 32.667 -6.16699 63.334 -18.5 92.001s-29.333 53.834 -51 75.501s-46.834 38.667 -75.501 51
s-59.334 18.5 -92.001 18.5s-63.334 -6.16699 -92.001 -18.5s-53.834 -29.333 -75.501 -51s-38.667 -46.834 -51 -75.501s-18.5 -59.334 -18.5 -92.001v-316zM314 1343c0 22 7.66699 40.667 23 56s34 23 56 23s40.667 -7.66699 56 -23s23 -34 23 -56
s-7.66699 -40.667 -23 -56s-34 -23 -56 -23s-40.667 7.66699 -56 23s-23 34 -23 56zM630 1343c0 22 7.66699 40.667 23 56s34 23 56 23s40.667 -7.66699 56 -23s23 -34 23 -56s-7.66699 -40.667 -23 -56s-34 -23 -56 -23s-40.667 7.66699 -56 23s-23 34 -23 56z" />
    <glyph glyph-name="divide" unicode="&#xf7;" 
d="M0 790h948v-158h-948v158zM316 1106c0 22 4.16699 42.5 12.5 61.5s19.666 35.667 33.999 50s31 25.666 50 33.999s39.5 12.5 61.5 12.5s42.5 -4.16699 61.5 -12.5s35.667 -19.666 50 -33.999s25.666 -31 33.999 -50s12.5 -39.5 12.5 -61.5s-4.16699 -42.5 -12.5 -61.5
s-19.666 -35.667 -33.999 -50s-31 -25.666 -50 -33.999s-39.5 -12.5 -61.5 -12.5s-42.5 4.16699 -61.5 12.5s-35.667 19.666 -50 33.999s-25.666 31 -33.999 50s-12.5 39.5 -12.5 61.5zM316 316c0 22 4.16699 42.5 12.5 61.5s19.666 35.667 33.999 50s31 25.666 50 33.999
s39.5 12.5 61.5 12.5s42.5 -4.16699 61.5 -12.5s35.667 -19.666 50 -33.999s25.666 -31 33.999 -50s12.5 -39.5 12.5 -61.5s-4.16699 -42.5 -12.5 -61.5s-19.666 -35.667 -33.999 -50s-31 -25.666 -50 -33.999s-39.5 -12.5 -61.5 -12.5s-42.5 4.16699 -61.5 12.5
s-35.667 19.666 -50 33.999s-25.666 31 -33.999 50s-12.5 39.5 -12.5 61.5z" />
    <glyph glyph-name="oslash" unicode="&#xf8;" 
d="M335 0h-185.001c0 3.33301 0.666992 7.33301 2 12s4.66602 12.5 9.99902 23.5s13.5 26.667 24.5 47s26.5 47.5 46.5 81.5c-23.333 32.667 -41.666 68.5 -54.999 107.5s-20 80.167 -20 123.5v316c0 54.667 10.333 106 31 154s48.834 89.833 84.501 125.5
s77.5 63.834 125.5 84.501s99.333 31 154 31c34.667 0 67.834 -4.33301 99.501 -13s61.834 -20.667 90.501 -36l28 49h185c0 -3.33301 -0.666992 -7.5 -2 -12.5s-4.83301 -13 -10.5 -24l-25 -46.5l-45.5 -81c23.333 -32.667 41.666 -68.5 54.999 -107.5
s20 -80.167 20 -123.5v-316c0 -54.667 -10.333 -106 -31 -154s-48.834 -89.833 -84.501 -125.5s-77.5 -63.834 -125.5 -84.501s-99.333 -31 -154 -31c-34.667 -0 -68 4.33301 -100 13s-62 20.667 -90 36zM789.999 711c0 11.333 -0.834961 22.665 -2.50195 33.998
s-4.16699 22.333 -7.5 33l-339 -592c34 -18.667 71.333 -28 112 -28c32.667 0 63.334 6.16699 92.001 18.5s53.834 29.333 75.501 51s38.667 46.834 51 75.501s18.5 59.334 18.5 92.001v316zM315.997 394.999c0 -25.333 3.33594 -47.998 10.0029 -67.998l338 593
c-16.667 8.66699 -34.334 15.5 -53.001 20.5s-38 7.5 -58 7.5c-32.667 0 -63.334 -6.16699 -92.001 -18.5s-53.834 -29.333 -75.501 -51s-38.667 -46.834 -51 -75.501s-18.5 -59.334 -18.5 -92.001v-316z" />
    <glyph glyph-name="ugrave" unicode="&#xf9;" 
d="M316 395c0 -32.667 6.16406 -63.335 18.4971 -92.002s29.333 -53.834 51 -75.501s46.834 -38.667 75.501 -51s59.334 -18.5 92.001 -18.5c32 0 62.333 6.33301 91 19s53.834 29.834 75.501 51.501s38.834 46.834 51.501 75.501s19 59 19 91v711h158v-1106h-158v79
c-33.333 -24.667 -70 -44 -110 -58s-82.333 -21 -127 -21c-54.667 0 -106 10.333 -154 31s-89.833 48.834 -125.5 84.501s-63.834 77.5 -84.501 125.5s-31 99.333 -31 154v711h158v-711v0zM315.997 1422v158l474 -237v-158z" />
    <glyph glyph-name="uacute" unicode="&#xfa;" 
d="M316 395c0 -32.667 6.16406 -63.335 18.4971 -92.002s29.333 -53.834 51 -75.501s46.834 -38.667 75.501 -51s59.334 -18.5 92.001 -18.5c32 0 62.333 6.33301 91 19s53.834 29.834 75.501 51.501s38.834 46.834 51.501 75.501s19 59 19 91v711h158v-1106h-158v79
c-33.333 -24.667 -70 -44 -110 -58s-82.333 -21 -127 -21c-54.667 0 -106 10.333 -154 31s-89.833 48.834 -125.5 84.501s-63.834 77.5 -84.501 125.5s-31 99.333 -31 154v711h158v-711v0zM394.997 1264l-79 79l395 237l79 -79z" />
    <glyph glyph-name="ucircumflex" unicode="&#xfb;" 
d="M316 395c0 -32.667 6.16406 -63.335 18.4971 -92.002s29.333 -53.834 51 -75.501s46.834 -38.667 75.501 -51s59.334 -18.5 92.001 -18.5c32 0 62.333 6.33301 91 19s53.834 29.834 75.501 51.501s38.834 46.834 51.501 75.501s19 59 19 91v711h158v-1106h-158v79
c-33.333 -24.667 -70 -44 -110 -58s-82.333 -21 -127 -21c-54.667 0 -106 10.333 -154 31s-89.833 48.834 -125.5 84.501s-63.834 77.5 -84.501 125.5s-31 99.333 -31 154v711h158v-711v0zM550.997 1580l237 -237l-79 -79l-158 158l-158 -158l-79 79z" />
    <glyph glyph-name="udieresis" unicode="&#xfc;" 
d="M316 395c0 -32.667 6.16406 -63.335 18.4971 -92.002s29.333 -53.834 51 -75.501s46.834 -38.667 75.501 -51s59.334 -18.5 92.001 -18.5c32 0 62.333 6.33301 91 19s53.834 29.834 75.501 51.501s38.834 46.834 51.501 75.501s19 59 19 91v711h158v-1106h-158v79
c-33.333 -24.667 -70 -44 -110 -58s-82.333 -21 -127 -21c-54.667 0 -106 10.333 -154 31s-89.833 48.834 -125.5 84.501s-63.834 77.5 -84.501 125.5s-31 99.333 -31 154v711h158v-711v0zM313.997 1343c0 22 7.66699 40.667 23 56s34 23 56 23s40.667 -7.66699 56 -23
s23 -34 23 -56s-7.66699 -40.667 -23 -56s-34 -23 -56 -23s-40.667 7.66699 -56 23s-23 34 -23 56zM629.997 1343c0 22 7.66699 40.667 23 56s34 23 56 23s40.667 -7.66699 56 -23s23 -34 23 -56s-7.66699 -40.667 -23 -56s-34 -23 -56 -23s-40.667 7.66699 -56 23
s-23 34 -23 56z" />
    <glyph glyph-name="yacute" unicode="&#xfd;" 
d="M316 395c0 -32.667 6.16504 -63.335 18.498 -92.002s29.333 -53.834 51 -75.501s46.834 -38.667 75.501 -51s59.334 -18.5 92.001 -18.5c32 0 62 5.83301 90 17.5s52.667 27.834 74 48.501s38.5 44.667 51.5 72s20.167 60.333 21.5 99v711h158v-1185
c0 -54.667 -10.333 -106 -31 -154s-48.834 -89.833 -84.501 -125.5s-77.5 -63.834 -125.5 -84.501s-99.333 -31 -154 -31h-237v158h237c32.667 0 63.334 6.16699 92.001 18.5s53.834 29.333 75.501 51s38.667 46.834 51 75.501s18.5 59.334 18.5 92.001v158
c-33.333 -24.667 -70 -44 -110 -58s-82.333 -21 -127 -21c-54.667 0 -106 10.333 -154 31s-89.833 48.834 -125.5 84.501s-63.834 77.5 -84.501 125.5s-31 99.333 -31 154v711h158v-711v0zM394.998 1264l-79 79l395 237l79 -79z" />
    <glyph glyph-name="thorn" unicode="&#xfe;" 
d="M948 474c0 -79.333 -14 -148.498 -42 -207.498s-66.667 -108.333 -116 -148s-107.833 -69.334 -175.5 -89.001s-140.834 -29.5 -219.501 -29.5h-80v-473h-157v1895h158v-474h79c78.667 0 151.834 -9.83301 219.501 -29.5s126.167 -49.334 175.5 -89.001
s88 -89.167 116 -148.5s42 -128.333 42 -207zM315 158.002l159 0.00390625c13.333 0 30.333 2.33301 51 7s42.667 12.167 66 22.5s46.833 23.666 70.5 39.999s45 36.166 64 59.499s34.5 50.5 46.5 81.5s18 66.167 18 105.5s-6 74.5 -18 105.5s-27.5 58.167 -46.5 81.5
s-40.333 43.166 -64 59.499s-47.167 29.666 -70.5 39.999s-45.333 17.833 -66 22.5s-37.667 7 -51 7h-158z" />
    <glyph glyph-name="ydieresis" unicode="&#xff;" 
d="M316 395c0 -32.667 6.16504 -63.335 18.498 -92.002s29.333 -53.834 51 -75.501s46.834 -38.667 75.501 -51s59.334 -18.5 92.001 -18.5c32 0 62 5.83301 90 17.5s52.667 27.834 74 48.501s38.5 44.667 51.5 72s20.167 60.333 21.5 99v711h158v-1185
c0 -54.667 -10.333 -106 -31 -154s-48.834 -89.833 -84.501 -125.5s-77.5 -63.834 -125.5 -84.501s-99.333 -31 -154 -31h-237v158h237c32.667 0 63.334 6.16699 92.001 18.5s53.834 29.333 75.501 51s38.667 46.834 51 75.501s18.5 59.334 18.5 92.001v158
c-33.333 -24.667 -70 -44 -110 -58s-82.333 -21 -127 -21c-54.667 0 -106 10.333 -154 31s-89.833 48.834 -125.5 84.501s-63.834 77.5 -84.501 125.5s-31 99.333 -31 154v711h158v-711v0zM313.998 1343c0 22 7.66699 40.667 23 56s34 23 56 23s40.667 -7.66699 56 -23
s23 -34 23 -56s-7.66699 -40.667 -23 -56s-34 -23 -56 -23s-40.667 7.66699 -56 23s-23 34 -23 56zM629.998 1343c0 22 7.66699 40.667 23 56s34 23 56 23s40.667 -7.66699 56 -23s23 -34 23 -56s-7.66699 -40.667 -23 -56s-34 -23 -56 -23s-40.667 7.66699 -56 23
s-23 34 -23 56z" />
    <glyph glyph-name="Amacron" unicode="&#x100;" 
d="M158 1027c0 54.667 10.3311 106 30.998 154s48.834 89.833 84.501 125.5s77.5 63.834 125.5 84.501s99.333 31 154 31s106 -10.333 154 -31s89.833 -48.834 125.5 -84.501s63.834 -77.5 84.501 -125.5s31 -99.333 31 -154v-1027h-158v632h-474v-632h-158v1027z
M789.998 790l0.00390625 237c0 32.667 -6.16699 63.334 -18.5 92.001s-29.333 53.834 -51 75.501s-46.834 38.667 -75.501 51s-59.334 18.5 -92.001 18.5s-63.334 -6.16699 -92.001 -18.5s-53.834 -29.333 -75.501 -51s-38.667 -46.834 -51 -75.501
s-18.5 -59.334 -18.5 -92.001v-237h474zM158.002 1580v158h790v-158h-790z" />
    <glyph glyph-name="amacron" unicode="&#x101;" 
d="M474 0c-43.333 0 -84.165 8.33203 -122.498 24.999s-71.833 39.334 -100.5 68.001s-51.334 62.167 -68.001 100.5s-25 79.166 -25 122.499s8.33301 84.166 25 122.499s39.334 71.833 68.001 100.5s62.167 51.334 100.5 68.001s79.166 25 122.499 25h316v79
c0 32.667 -6.16699 63.334 -18.5 92.001s-29.333 53.834 -51 75.501s-46.834 38.667 -75.501 51s-59.334 18.5 -92.001 18.5h-237v158h237c54.667 0 106 -10.333 154 -31s89.833 -48.834 125.5 -84.501s63.834 -77.5 84.501 -125.5s31 -99.333 31 -154v-711h-474z
M474.001 473.999c-22 0 -42.5 -4.16895 -61.5 -12.502s-35.667 -19.666 -50 -33.999s-25.666 -31 -33.999 -50s-12.5 -39.5 -12.5 -61.5s4.16699 -42.5 12.5 -61.5s19.666 -35.667 33.999 -50s31 -25.666 50 -33.999s39.5 -12.5 61.5 -12.5h316v316h-316zM158.001 1265v158
h790v-158h-790z" />
    <glyph glyph-name="Abreve" unicode="&#x102;" 
d="M158 1027c0 54.667 10.3311 106 30.998 154s48.834 89.833 84.501 125.5s77.5 63.834 125.5 84.501s99.333 31 154 31s106 -10.333 154 -31s89.833 -48.834 125.5 -84.501s63.834 -77.5 84.501 -125.5s31 -99.333 31 -154v-1027h-158v632h-474v-632h-158v1027z
M789.998 790l0.00390625 237c0 32.667 -6.16699 63.334 -18.5 92.001s-29.333 53.834 -51 75.501s-46.834 38.667 -75.501 51s-59.334 18.5 -92.001 18.5s-63.334 -6.16699 -92.001 -18.5s-53.834 -29.333 -75.501 -51s-38.667 -46.834 -51 -75.501
s-18.5 -59.334 -18.5 -92.001v-237h474zM551.002 1580c-39.333 0 -73.8311 9 -103.498 27s-54.334 41.833 -74.001 71.5s-34.5 63.5 -44.5 101.5s-15 76.667 -15 116h158c0 -20 0.333008 -39.333 1 -58s3.5 -35.5 8.5 -50.5s12.833 -27 23.5 -36s26 -13.5 46 -13.5
s35.333 4.5 46 13.5s18.5 21 23.5 36s7.83301 31.833 8.5 50.5s1 38 1 58h158c0 -39.333 -5 -78 -15 -116s-24.833 -71.833 -44.5 -101.5s-44.334 -53.5 -74.001 -71.5s-64.167 -27 -103.5 -27z" />
    <glyph glyph-name="abreve" unicode="&#x103;" 
d="M474 0c-43.333 0 -84.165 8.33203 -122.498 24.999s-71.833 39.334 -100.5 68.001s-51.334 62.167 -68.001 100.5s-25 79.166 -25 122.499s8.33301 84.166 25 122.499s39.334 71.833 68.001 100.5s62.167 51.334 100.5 68.001s79.166 25 122.499 25h316v79
c0 32.667 -6.16699 63.334 -18.5 92.001s-29.333 53.834 -51 75.501s-46.834 38.667 -75.501 51s-59.334 18.5 -92.001 18.5h-237v158h237c54.667 0 106 -10.333 154 -31s89.833 -48.834 125.5 -84.501s63.834 -77.5 84.501 -125.5s31 -99.333 31 -154v-711h-474z
M474.001 473.999c-22 0 -42.5 -4.16895 -61.5 -12.502s-35.667 -19.666 -50 -33.999s-25.666 -31 -33.999 -50s-12.5 -39.5 -12.5 -61.5s4.16699 -42.5 12.5 -61.5s19.666 -35.667 33.999 -50s31 -25.666 50 -33.999s39.5 -12.5 61.5 -12.5h316v316h-316zM551.001 1264
c-39.333 0 -73.8311 9 -103.498 27s-54.334 41.833 -74.001 71.5s-34.5 63.5 -44.5 101.5s-15 76.667 -15 116h158c0 -20 0.333008 -39.333 1 -58s3.5 -35.5 8.5 -50.5s12.833 -27 23.5 -36s26 -13.5 46 -13.5s35.333 4.5 46 13.5s18.5 21 23.5 36s7.83301 31.833 8.5 50.5
s1 38 1 58h158c0 -39.333 -5 -78 -15 -116s-24.833 -71.833 -44.5 -101.5s-44.334 -53.5 -74.001 -71.5s-64.167 -27 -103.5 -27z" />
    <glyph glyph-name="Aogonek" unicode="&#x104;" 
d="M1 1027c0 54.667 10.3311 106 30.998 154s48.834 89.833 84.501 125.5s77.5 63.834 125.5 84.501s99.333 31 154 31s106 -10.333 154 -31s89.833 -48.834 125.5 -84.501s63.834 -77.5 84.501 -125.5s31 -99.333 31 -154v-1027h-158v632h-474v-632h-158v1027zM632.998 790
l0.00390625 237c0 32.667 -6.16699 63.334 -18.5 92.001s-29.333 53.834 -51 75.501s-46.834 38.667 -75.501 51s-59.334 18.5 -92.001 18.5s-63.334 -6.16699 -92.001 -18.5s-53.834 -29.333 -75.501 -51s-38.667 -46.834 -51 -75.501s-18.5 -59.334 -18.5 -92.001v-237
h474zM788.998 0c0 -39.333 5.35547 -73.501 16.0674 -102.501s28.4531 -50.833 53.2236 -65.5s57.4072 -21.667 97.9102 -21s90.5459 11 150.129 31v-158c-78.998 -20 -148.289 -25.833 -207.872 -17.5s-109.291 27.333 -149.124 57
c-39.834 29.667 -69.626 68.334 -89.375 116.001s-29.624 101.167 -29.624 160.5h158.665z" />
    <glyph glyph-name="aogonek" unicode="&#x105;" 
d="M474 0c-43.333 0 -84.165 8.33203 -122.498 24.999s-71.833 39.334 -100.5 68.001s-51.334 62.167 -68.001 100.5s-25 79.166 -25 122.499s8.33301 84.166 25 122.499s39.334 71.833 68.001 100.5s62.167 51.334 100.5 68.001s79.166 25 122.499 25h316v79
c0 32.667 -6.16699 63.334 -18.5 92.001s-29.333 53.834 -51 75.501s-46.834 38.667 -75.501 51s-59.334 18.5 -92.001 18.5h-237v158h237c54.667 0 106 -10.333 154 -31s89.833 -48.834 125.5 -84.501s63.834 -77.5 84.501 -125.5s31 -99.333 31 -154v-711h-474z
M474.001 473.999c-22 0 -42.5 -4.16895 -61.5 -12.502s-35.667 -19.666 -50 -33.999s-25.666 -31 -33.999 -50s-12.5 -39.5 -12.5 -61.5s4.16699 -42.5 12.5 -61.5s19.666 -35.667 33.999 -50s31 -25.666 50 -33.999s39.5 -12.5 61.5 -12.5h316v316h-316z
M632.001 -0.00292969c0 -39.333 5.33398 -73.501 16.001 -102.501s28.334 -50.833 53.001 -65.5s57.167 -21.667 97.5 -21s90.166 11 149.499 31v-158c-78.667 -20 -147.667 -25.833 -207 -17.5s-108.833 27.333 -148.5 57s-69.334 68.334 -89.001 116.001
s-29.5 101.167 -29.5 160.5h158z" />
    <glyph glyph-name="Cacute" unicode="&#x106;" 
d="M560.701 1264c-34.3486 0 -66.3398 -6.16309 -95.9736 -18.4961s-55.2266 -29.333 -76.7783 -51s-38.5576 -46.834 -51.0176 -75.501s-18.6895 -59.334 -18.6895 -92.001v-632c0 -32.667 6.22949 -63.334 18.6895 -92.001s29.4658 -53.834 51.0176 -75.501
s47.1445 -38.667 76.7783 -51s61.625 -18.5 95.9736 -18.5c28.2871 0 54.8906 3.83301 79.8105 11.5c24.9189 7.66699 47.6494 18.5 68.1914 32.5s38.3896 30.667 53.5439 50c15.1533 19.333 26.7715 40.666 34.8535 63.999h159.62
c-9.42871 -45.333 -25.9297 -87.333 -49.502 -126c-23.5732 -38.667 -52.7021 -72 -87.3877 -100s-73.917 -50 -117.694 -66s-90.9229 -24 -141.436 -24c-56.5742 0 -109.275 10.333 -158.104 31s-91.4287 48.834 -127.799 84.501
c-36.3682 35.667 -64.8232 77.5 -85.3652 125.5s-30.8125 99.333 -30.8125 154v632c0 54.667 10.2705 106 30.8125 154s48.9971 89.833 85.3652 125.5c36.3701 35.667 78.9697 63.834 127.799 84.501s101.53 31 158.104 31c50.5127 0 97.8262 -8 141.94 -24
s83.3457 -38.167 117.694 -66.5s63.3096 -61.833 86.8828 -100.5c23.5723 -38.667 40.0732 -80.334 49.502 -125.001h-159.62c-8.08203 22.667 -19.7002 43.667 -34.8535 63c-15.1543 19.333 -32.834 36 -53.0381 50c-20.2061 14 -42.9365 25 -68.1924 33
c-25.2568 8 -52.0283 12 -80.3154 12zM395 1580l-79 79l395 237l79 -79z" />
    <glyph glyph-name="cacute" unicode="&#x107;" 
d="M316 395c0 -32.667 7 -63.332 21 -91.999s32.5 -53.834 55.5 -75.501s49.667 -38.667 80 -51s61.833 -18.5 94.5 -18.5c26 0 50.667 3.83301 74 11.5s44.666 18.5 63.999 32.5s36.333 30.667 51 50s26 40.666 34 63.999h158
c-9.33301 -45.333 -25.833 -87.166 -49.5 -125.499s-52.5 -71.666 -86.5 -99.999s-72.333 -50.5 -115 -66.5s-88 -24 -136 -24c-54.667 0 -106.334 10.333 -155.001 31s-91.334 48.834 -128.001 84.501s-65.834 77.5 -87.501 125.5s-32.5 99.333 -32.5 154v316
c0 54.667 10.833 106 32.5 154s50.834 89.833 87.501 125.5s79.334 63.834 128.001 84.501s100.334 31 155.001 31c48 0 93.333 -8 136 -24s81 -38.167 115 -66.5s62.833 -61.833 86.5 -100.5s40.167 -80.334 49.5 -125.001h-158c-8 22.667 -19.333 43.667 -34 63
s-31.667 36 -51 50s-40.666 25 -63.999 33s-48 12 -74 12c-32.667 0 -64.167 -6.16699 -94.5 -18.5s-57 -29.333 -80 -51s-41.5 -46.834 -55.5 -75.501s-21 -59.334 -21 -92.001v-316zM395 1264l-79 79l395 237l79 -79z" />
    <glyph glyph-name="Ccircumflex" unicode="&#x108;" 
d="M560.701 1264c-34.3486 0 -66.3398 -6.16309 -95.9736 -18.4961s-55.2266 -29.333 -76.7783 -51s-38.5576 -46.834 -51.0176 -75.501s-18.6895 -59.334 -18.6895 -92.001v-632c0 -32.667 6.22949 -63.334 18.6895 -92.001s29.4658 -53.834 51.0176 -75.501
s47.1445 -38.667 76.7783 -51s61.625 -18.5 95.9736 -18.5c28.2871 0 54.8906 3.83301 79.8105 11.5c24.9189 7.66699 47.6494 18.5 68.1914 32.5s38.3896 30.667 53.5439 50c15.1533 19.333 26.7715 40.666 34.8535 63.999h159.62
c-9.42871 -45.333 -25.9297 -87.333 -49.502 -126c-23.5732 -38.667 -52.7021 -72 -87.3877 -100s-73.917 -50 -117.694 -66s-90.9229 -24 -141.436 -24c-56.5742 0 -109.275 10.333 -158.104 31s-91.4287 48.834 -127.799 84.501
c-36.3682 35.667 -64.8232 77.5 -85.3652 125.5s-30.8125 99.333 -30.8125 154v632c0 54.667 10.2705 106 30.8125 154s48.9971 89.833 85.3652 125.5c36.3701 35.667 78.9697 63.834 127.799 84.501s101.53 31 158.104 31c50.5127 0 97.8262 -8 141.94 -24
s83.3457 -38.167 117.694 -66.5s63.3096 -61.833 86.8828 -100.5c23.5723 -38.667 40.0732 -80.334 49.502 -125.001h-159.62c-8.08203 22.667 -19.7002 43.667 -34.8535 63c-15.1543 19.333 -32.834 36 -53.0381 50c-20.2061 14 -42.9365 25 -68.1924 33
c-25.2568 8 -52.0283 12 -80.3154 12zM553 1896l237 -237l-79 -79l-158 158l-158 -158l-79 79z" />
    <glyph glyph-name="ccircumflex" unicode="&#x109;" 
d="M316 395c0 -32.667 7 -63.332 21 -91.999s32.5 -53.834 55.5 -75.501s49.667 -38.667 80 -51s61.833 -18.5 94.5 -18.5c26 0 50.667 3.83301 74 11.5s44.666 18.5 63.999 32.5s36.333 30.667 51 50s26 40.666 34 63.999h158
c-9.33301 -45.333 -25.833 -87.166 -49.5 -125.499s-52.5 -71.666 -86.5 -99.999s-72.333 -50.5 -115 -66.5s-88 -24 -136 -24c-54.667 0 -106.334 10.333 -155.001 31s-91.334 48.834 -128.001 84.501s-65.834 77.5 -87.501 125.5s-32.5 99.333 -32.5 154v316
c0 54.667 10.833 106 32.5 154s50.834 89.833 87.501 125.5s79.334 63.834 128.001 84.501s100.334 31 155.001 31c48 0 93.333 -8 136 -24s81 -38.167 115 -66.5s62.833 -61.833 86.5 -100.5s40.167 -80.334 49.5 -125.001h-158c-8 22.667 -19.333 43.667 -34 63
s-31.667 36 -51 50s-40.666 25 -63.999 33s-48 12 -74 12c-32.667 0 -64.167 -6.16699 -94.5 -18.5s-57 -29.333 -80 -51s-41.5 -46.834 -55.5 -75.501s-21 -59.334 -21 -92.001v-316zM551 1580l237 -237l-79 -79l-158 158l-158 -158l-79 79z" />
    <glyph glyph-name="Cdotaccent" unicode="&#x10a;" 
d="M560.701 1264c-34.3486 0 -66.3398 -6.16309 -95.9736 -18.4961s-55.2266 -29.333 -76.7783 -51s-38.5576 -46.834 -51.0176 -75.501s-18.6895 -59.334 -18.6895 -92.001v-632c0 -32.667 6.22949 -63.334 18.6895 -92.001s29.4658 -53.834 51.0176 -75.501
s47.1445 -38.667 76.7783 -51s61.625 -18.5 95.9736 -18.5c28.2871 0 54.8906 3.83301 79.8105 11.5c24.9189 7.66699 47.6494 18.5 68.1914 32.5s38.3896 30.667 53.5439 50c15.1533 19.333 26.7715 40.666 34.8535 63.999h159.62
c-9.42871 -45.333 -25.9297 -87.333 -49.502 -126c-23.5732 -38.667 -52.7021 -72 -87.3877 -100s-73.917 -50 -117.694 -66s-90.9229 -24 -141.436 -24c-56.5742 0 -109.275 10.333 -158.104 31s-91.4287 48.834 -127.799 84.501
c-36.3682 35.667 -64.8232 77.5 -85.3652 125.5s-30.8125 99.333 -30.8125 154v632c0 54.667 10.2705 106 30.8125 154s48.9971 89.833 85.3652 125.5c36.3701 35.667 78.9697 63.834 127.799 84.501s101.53 31 158.104 31c50.5127 0 97.8262 -8 141.94 -24
s83.3457 -38.167 117.694 -66.5s63.3096 -61.833 86.8828 -100.5c23.5723 -38.667 40.0732 -80.334 49.502 -125.001h-159.62c-8.08203 22.667 -19.7002 43.667 -34.8535 63c-15.1543 19.333 -32.834 36 -53.0381 50c-20.2061 14 -42.9365 25 -68.1924 33
c-25.2568 8 -52.0283 12 -80.3154 12zM474 1659c0 22 7.66699 40.667 23 56s34 23 56 23s40.667 -7.66699 56 -23s23 -34 23 -56s-7.66699 -40.667 -23 -56s-34 -23 -56 -23s-40.667 7.66699 -56 23s-23 34 -23 56z" />
    <glyph glyph-name="cdotaccent" unicode="&#x10b;" 
d="M316 395c0 -32.667 7 -63.332 21 -91.999s32.5 -53.834 55.5 -75.501s49.667 -38.667 80 -51s61.833 -18.5 94.5 -18.5c26 0 50.667 3.83301 74 11.5s44.666 18.5 63.999 32.5s36.333 30.667 51 50s26 40.666 34 63.999h158
c-9.33301 -45.333 -25.833 -87.166 -49.5 -125.499s-52.5 -71.666 -86.5 -99.999s-72.333 -50.5 -115 -66.5s-88 -24 -136 -24c-54.667 0 -106.334 10.333 -155.001 31s-91.334 48.834 -128.001 84.501s-65.834 77.5 -87.501 125.5s-32.5 99.333 -32.5 154v316
c0 54.667 10.833 106 32.5 154s50.834 89.833 87.501 125.5s79.334 63.834 128.001 84.501s100.334 31 155.001 31c48 0 93.333 -8 136 -24s81 -38.167 115 -66.5s62.833 -61.833 86.5 -100.5s40.167 -80.334 49.5 -125.001h-158c-8 22.667 -19.333 43.667 -34 63
s-31.667 36 -51 50s-40.666 25 -63.999 33s-48 12 -74 12c-32.667 0 -64.167 -6.16699 -94.5 -18.5s-57 -29.333 -80 -51s-41.5 -46.834 -55.5 -75.501s-21 -59.334 -21 -92.001v-316zM471 1343c0 22 7.66699 40.667 23 56s34 23 56 23s40.667 -7.66699 56 -23
s23 -34 23 -56s-7.66699 -40.667 -23 -56s-34 -23 -56 -23s-40.667 7.66699 -56 23s-23 34 -23 56z" />
    <glyph glyph-name="Ccaron" unicode="&#x10c;" 
d="M560.701 1264c-34.3486 0 -66.3398 -6.16309 -95.9736 -18.4961s-55.2266 -29.333 -76.7783 -51s-38.5576 -46.834 -51.0176 -75.501s-18.6895 -59.334 -18.6895 -92.001v-632c0 -32.667 6.22949 -63.334 18.6895 -92.001s29.4658 -53.834 51.0176 -75.501
s47.1445 -38.667 76.7783 -51s61.625 -18.5 95.9736 -18.5c28.2871 0 54.8906 3.83301 79.8105 11.5c24.9189 7.66699 47.6494 18.5 68.1914 32.5s38.3896 30.667 53.5439 50c15.1533 19.333 26.7715 40.666 34.8535 63.999h159.62
c-9.42871 -45.333 -25.9297 -87.333 -49.502 -126c-23.5732 -38.667 -52.7021 -72 -87.3877 -100s-73.917 -50 -117.694 -66s-90.9229 -24 -141.436 -24c-56.5742 0 -109.275 10.333 -158.104 31s-91.4287 48.834 -127.799 84.501
c-36.3682 35.667 -64.8232 77.5 -85.3652 125.5s-30.8125 99.333 -30.8125 154v632c0 54.667 10.2705 106 30.8125 154s48.9971 89.833 85.3652 125.5c36.3701 35.667 78.9697 63.834 127.799 84.501s101.53 31 158.104 31c50.5127 0 97.8262 -8 141.94 -24
s83.3457 -38.167 117.694 -66.5s63.3096 -61.833 86.8828 -100.5c23.5723 -38.667 40.0732 -80.334 49.502 -125.001h-159.62c-8.08203 22.667 -19.7002 43.667 -34.8535 63c-15.1543 19.333 -32.834 36 -53.0381 50c-20.2061 14 -42.9365 25 -68.1924 33
c-25.2568 8 -52.0283 12 -80.3154 12zM316 1817l79 79l158 -158l158 158l79 -79l-237 -237z" />
    <glyph glyph-name="ccaron" unicode="&#x10d;" 
d="M316 395c0 -32.667 7 -63.332 21 -91.999s32.5 -53.834 55.5 -75.501s49.667 -38.667 80 -51s61.833 -18.5 94.5 -18.5c26 0 50.667 3.83301 74 11.5s44.666 18.5 63.999 32.5s36.333 30.667 51 50s26 40.666 34 63.999h158
c-9.33301 -45.333 -25.833 -87.166 -49.5 -125.499s-52.5 -71.666 -86.5 -99.999s-72.333 -50.5 -115 -66.5s-88 -24 -136 -24c-54.667 0 -106.334 10.333 -155.001 31s-91.334 48.834 -128.001 84.501s-65.834 77.5 -87.501 125.5s-32.5 99.333 -32.5 154v316
c0 54.667 10.833 106 32.5 154s50.834 89.833 87.501 125.5s79.334 63.834 128.001 84.501s100.334 31 155.001 31c48 0 93.333 -8 136 -24s81 -38.167 115 -66.5s62.833 -61.833 86.5 -100.5s40.167 -80.334 49.5 -125.001h-158c-8 22.667 -19.333 43.667 -34 63
s-31.667 36 -51 50s-40.666 25 -63.999 33s-48 12 -74 12c-32.667 0 -64.167 -6.16699 -94.5 -18.5s-57 -29.333 -80 -51s-41.5 -46.834 -55.5 -75.501s-21 -59.334 -21 -92.001v-316zM314 1501l79 79l158 -158l158 158l79 -79l-237 -237z" />
    <glyph glyph-name="Dcaron" unicode="&#x10e;" 
d="M158 1422l395 0.00195312c54.667 0 106 -10.333 154 -31s89.833 -48.834 125.5 -84.501s63.834 -77.5 84.501 -125.5s31 -99.333 31 -154v-632c0 -54.667 -10.333 -106 -31 -154s-48.834 -89.833 -84.501 -125.5s-77.5 -63.834 -125.5 -84.501s-99.333 -31 -154 -31h-395
v1422zM553 158.002c32.667 0 63.334 6.16309 92.001 18.4961s53.834 29.333 75.501 51s38.667 46.834 51 75.501s18.5 59.334 18.5 92.001v632c0 32.667 -6.16699 63.334 -18.5 92.001s-29.333 53.834 -51 75.501s-46.834 38.667 -75.501 51s-59.334 18.5 -92.001 18.5h-237
v-1106h237zM316 1817l79 79l158 -158l158 158l79 -79l-237 -237z" />
    <glyph glyph-name="dcaron" unicode="&#x10f;" 
d="M791 0l-158 -0.000976562v78c-25.333 -18.667 -53 -34.334 -83 -47.001c-48 -20.667 -99.333 -31 -154 -31s-106 10.333 -154 31s-89.833 48.834 -125.5 84.501s-63.834 77.5 -84.501 125.5s-31 99.333 -31 154v316c0 54.667 10.333 106 31 154
s48.834 89.833 84.501 125.5s77.5 63.834 125.5 84.501s99.333 31 154 31s106 -10.333 154 -31c30 -13.333 57.667 -29.333 83 -48v395h158v-1422zM615 802.999c-12.667 28.667 -29.833 53.835 -51.5 75.502s-46.834 38.667 -75.501 51s-59.334 18.5 -92.001 18.5
s-63.334 -6.16699 -92.001 -18.5s-53.834 -29.333 -75.501 -51s-38.667 -46.834 -51 -75.501s-18.5 -59.334 -18.5 -92.001v-316c0 -32.667 6.16699 -63.334 18.5 -92.001s29.333 -53.834 51 -75.501s46.834 -38.667 75.501 -51s59.334 -18.5 92.001 -18.5
s63.334 6.16699 92.001 18.5s53.834 29.333 75.501 51s38.667 46.834 51 75.501s18.5 59.334 18.5 92.001v325zM474.001 1659l79 79l158 -158l158 158l79 -79l-237 -237z" />
    <glyph glyph-name="Dcroat" unicode="&#x110;" 
d="M0 948h474v-158h-474v158zM158 1422l395 0.00195312c54.667 0 106 -10.333 154 -31s89.833 -48.834 125.5 -84.501s63.834 -77.5 84.501 -125.5s31 -99.333 31 -154v-632c0 -54.667 -10.333 -106 -31 -154s-48.834 -89.833 -84.501 -125.5s-77.5 -63.834 -125.5 -84.501
s-99.333 -31 -154 -31h-395v1422zM553 158.002c32.667 0 63.334 6.16309 92.001 18.4961s53.834 29.333 75.501 51s38.667 46.834 51 75.501s18.5 59.334 18.5 92.001v632c0 32.667 -6.16699 63.334 -18.5 92.001s-29.333 53.834 -51 75.501s-46.834 38.667 -75.501 51
s-59.334 18.5 -92.001 18.5h-237v-1106h237z" />
    <glyph glyph-name="dcroat" unicode="&#x111;" 
d="M948 0l-158 -0.000976562v78c-25.333 -18.667 -53 -34.334 -83 -47.001c-48 -20.667 -99.333 -31 -154 -31s-106 10.333 -154 31s-89.833 48.834 -125.5 84.501s-63.834 77.5 -84.501 125.5s-31 99.333 -31 154v316c0 54.667 10.333 106 31 154
s48.834 89.833 84.501 125.5s77.5 63.834 125.5 84.501s99.333 31 154 31s106 -10.333 154 -31c30 -13.333 57.667 -29.333 83 -48v395h158v-1422zM772 802.999c-12.667 28.667 -29.833 53.835 -51.5 75.502s-46.834 38.667 -75.501 51s-59.334 18.5 -92.001 18.5
s-63.334 -6.16699 -92.001 -18.5s-53.834 -29.333 -75.501 -51s-38.667 -46.834 -51 -75.501s-18.5 -59.334 -18.5 -92.001v-316c0 -32.667 6.16699 -63.334 18.5 -92.001s29.333 -53.834 51 -75.501s46.834 -38.667 75.501 -51s59.334 -18.5 92.001 -18.5
s63.334 6.16699 92.001 18.5s53.834 29.333 75.501 51s38.667 46.834 51 75.501s18.5 59.334 18.5 92.001v325zM631.797 1264h473.981v-158h-473.981v158z" />
    <glyph glyph-name="Emacron" unicode="&#x112;" 
d="M158 1422h790v-158h-632v-474h474v-158h-474v-474h632v-158h-790v1422zM158 1580v158h790v-158h-790z" />
    <glyph glyph-name="emacron" unicode="&#x113;" 
d="M316 395c0 -32.667 6.16406 -63.333 18.4971 -92s29.333 -53.834 51 -75.501s46.834 -38.667 75.501 -51s59.334 -18.5 92.001 -18.5h395v-158h-395c-54.667 0 -106 10.333 -154 31s-89.833 48.834 -125.5 84.501s-63.834 77.5 -84.501 125.5s-31 99.333 -31 154v316
c0 54.667 10.333 106 31 154s48.834 89.833 84.501 125.5s77.5 63.834 125.5 84.501s99.333 31 154 31s106 -10.333 154 -31s89.833 -48.834 125.5 -84.501s63.834 -77.5 84.501 -125.5s31 -99.333 31 -154v-237h-632v-79zM315.997 632.001h474.004v79
c0 32.667 -6.16699 63.334 -18.5 92.001s-29.333 53.834 -51 75.501s-46.834 38.667 -75.501 51s-59.334 18.5 -92.001 18.5s-63.334 -6.16699 -92.001 -18.5s-53.834 -29.333 -75.501 -51s-38.667 -46.834 -51 -75.501s-18.5 -59.334 -18.5 -92.001v-79zM158.001 1265v158
h790v-158h-790z" />
    <glyph glyph-name="Ebreve" unicode="&#x114;" 
d="M158 1422h790v-158h-632v-474h474v-158h-474v-474h632v-158h-790v1422zM553 1580c-39.333 0 -73.8311 9 -103.498 27s-54.334 41.833 -74.001 71.5s-34.5 63.5 -44.5 101.5s-15 76.667 -15 116h158c0 -20 0.333008 -39.333 1 -58s3.5 -35.5 8.5 -50.5
s12.833 -27 23.5 -36s26 -13.5 46 -13.5s35.333 4.5 46 13.5s18.5 21 23.5 36s7.83301 31.833 8.5 50.5s1 38 1 58h158c0 -39.333 -5 -78 -15 -116s-24.833 -71.833 -44.5 -101.5s-44.334 -53.5 -74.001 -71.5s-64.167 -27 -103.5 -27z" />
    <glyph glyph-name="ebreve" unicode="&#x115;" 
d="M316 395c0 -32.667 6.16406 -63.333 18.4971 -92s29.333 -53.834 51 -75.501s46.834 -38.667 75.501 -51s59.334 -18.5 92.001 -18.5h395v-158h-395c-54.667 0 -106 10.333 -154 31s-89.833 48.834 -125.5 84.501s-63.834 77.5 -84.501 125.5s-31 99.333 -31 154v316
c0 54.667 10.333 106 31 154s48.834 89.833 84.501 125.5s77.5 63.834 125.5 84.501s99.333 31 154 31s106 -10.333 154 -31s89.833 -48.834 125.5 -84.501s63.834 -77.5 84.501 -125.5s31 -99.333 31 -154v-237h-632v-79zM315.997 632.001h474.004v79
c0 32.667 -6.16699 63.334 -18.5 92.001s-29.333 53.834 -51 75.501s-46.834 38.667 -75.501 51s-59.334 18.5 -92.001 18.5s-63.334 -6.16699 -92.001 -18.5s-53.834 -29.333 -75.501 -51s-38.667 -46.834 -51 -75.501s-18.5 -59.334 -18.5 -92.001v-79zM551.001 1264
c-39.333 0 -73.8311 9 -103.498 27s-54.334 41.833 -74.001 71.5s-34.5 63.5 -44.5 101.5s-15 76.667 -15 116h158c0 -20 0.333008 -39.333 1 -58s3.5 -35.5 8.5 -50.5s12.833 -27 23.5 -36s26 -13.5 46 -13.5s35.333 4.5 46 13.5s18.5 21 23.5 36s7.83301 31.833 8.5 50.5
s1 38 1 58h158c0 -39.333 -5 -78 -15 -116s-24.833 -71.833 -44.5 -101.5s-44.334 -53.5 -74.001 -71.5s-64.167 -27 -103.5 -27z" />
    <glyph glyph-name="Edotaccent" unicode="&#x116;" 
d="M158 1422h790v-158h-632v-474h474v-158h-474v-474h632v-158h-790v1422zM471 1659c0 22 7.66699 40.667 23 56s34 23 56 23s40.667 -7.66699 56 -23s23 -34 23 -56s-7.66699 -40.667 -23 -56s-34 -23 -56 -23s-40.667 7.66699 -56 23s-23 34 -23 56z" />
    <glyph glyph-name="edotaccent" unicode="&#x117;" 
d="M316 395c0 -32.667 6.16406 -63.333 18.4971 -92s29.333 -53.834 51 -75.501s46.834 -38.667 75.501 -51s59.334 -18.5 92.001 -18.5h395v-158h-395c-54.667 0 -106 10.333 -154 31s-89.833 48.834 -125.5 84.501s-63.834 77.5 -84.501 125.5s-31 99.333 -31 154v316
c0 54.667 10.333 106 31 154s48.834 89.833 84.501 125.5s77.5 63.834 125.5 84.501s99.333 31 154 31s106 -10.333 154 -31s89.833 -48.834 125.5 -84.501s63.834 -77.5 84.501 -125.5s31 -99.333 31 -154v-237h-632v-79zM315.997 632.001h474.004v79
c0 32.667 -6.16699 63.334 -18.5 92.001s-29.333 53.834 -51 75.501s-46.834 38.667 -75.501 51s-59.334 18.5 -92.001 18.5s-63.334 -6.16699 -92.001 -18.5s-53.834 -29.333 -75.501 -51s-38.667 -46.834 -51 -75.501s-18.5 -59.334 -18.5 -92.001v-79zM471.001 1343
c0 22 7.66699 40.667 23 56s34 23 56 23s40.667 -7.66699 56 -23s23 -34 23 -56s-7.66699 -40.667 -23 -56s-34 -23 -56 -23s-40.667 7.66699 -56 23s-23 34 -23 56z" />
    <glyph glyph-name="Eogonek" unicode="&#x118;" 
d="M158 1422h790v-158h-632v-474h474v-158h-474v-474h632v-158h-790v1422zM632 0c0 -39.333 5.33398 -73.501 16.001 -102.501s28.334 -50.833 53.001 -65.5s57.167 -21.667 97.5 -21s90.166 11 149.499 31v-158c-78.667 -20 -147.667 -25.833 -207 -17.5
s-108.833 27.333 -148.5 57s-69.334 68.334 -89.001 116.001s-29.5 101.167 -29.5 160.5h158z" />
    <glyph glyph-name="eogonek" unicode="&#x119;" 
d="M316 395c0 -32.667 6.16406 -63.333 18.4971 -92s29.333 -53.834 51 -75.501s46.834 -38.667 75.501 -51s59.334 -18.5 92.001 -18.5h395v-158h-395c-54.667 0 -106 10.333 -154 31s-89.833 48.834 -125.5 84.501s-63.834 77.5 -84.501 125.5s-31 99.333 -31 154v316
c0 54.667 10.333 106 31 154s48.834 89.833 84.501 125.5s77.5 63.834 125.5 84.501s99.333 31 154 31s106 -10.333 154 -31s89.833 -48.834 125.5 -84.501s63.834 -77.5 84.501 -125.5s31 -99.333 31 -154v-237h-632v-79zM315.997 632.001h474.004v79
c0 32.667 -6.16699 63.334 -18.5 92.001s-29.333 53.834 -51 75.501s-46.834 38.667 -75.501 51s-59.334 18.5 -92.001 18.5s-63.334 -6.16699 -92.001 -18.5s-53.834 -29.333 -75.501 -51s-38.667 -46.834 -51 -75.501s-18.5 -59.334 -18.5 -92.001v-79z
M632.001 0.000976562c0 -39.333 5.33398 -73.501 16.001 -102.501s28.334 -50.833 53.001 -65.5s57.167 -21.667 97.5 -21s90.166 11 149.499 31v-158c-78.667 -20 -147.667 -25.833 -207 -17.5s-108.833 27.333 -148.5 57s-69.334 68.334 -89.001 116.001
s-29.5 101.167 -29.5 160.5h158z" />
    <glyph glyph-name="Ecaron" unicode="&#x11a;" 
d="M158 1422h790v-158h-632v-474h474v-158h-474v-474h632v-158h-790v1422zM316 1817l79 79l158 -158l158 158l79 -79l-237 -237z" />
    <glyph glyph-name="ecaron" unicode="&#x11b;" 
d="M316 395c0 -32.667 6.16406 -63.333 18.4971 -92s29.333 -53.834 51 -75.501s46.834 -38.667 75.501 -51s59.334 -18.5 92.001 -18.5h395v-158h-395c-54.667 0 -106 10.333 -154 31s-89.833 48.834 -125.5 84.501s-63.834 77.5 -84.501 125.5s-31 99.333 -31 154v316
c0 54.667 10.333 106 31 154s48.834 89.833 84.501 125.5s77.5 63.834 125.5 84.501s99.333 31 154 31s106 -10.333 154 -31s89.833 -48.834 125.5 -84.501s63.834 -77.5 84.501 -125.5s31 -99.333 31 -154v-237h-632v-79zM315.997 632.001h474.004v79
c0 32.667 -6.16699 63.334 -18.5 92.001s-29.333 53.834 -51 75.501s-46.834 38.667 -75.501 51s-59.334 18.5 -92.001 18.5s-63.334 -6.16699 -92.001 -18.5s-53.834 -29.333 -75.501 -51s-38.667 -46.834 -51 -75.501s-18.5 -59.334 -18.5 -92.001v-79zM314.001 1501
l79 79l158 -158l158 158l79 -79l-237 -237z" />
    <glyph glyph-name="Gcircumflex" unicode="&#x11c;" 
d="M790 158c0 -20 -8.16992 -39.3301 -24.5029 -57.9971s-36.5 -35.5 -60.5 -50.5s-49.833 -27 -77.5 -36s-52.5 -13.5 -74.5 -13.5c-54.667 0 -106 10.333 -154 31s-89.833 48.834 -125.5 84.501s-63.834 77.5 -84.501 125.5s-31 99.333 -31 154v632
c0 54.667 10.333 106 31 154s48.834 89.833 84.501 125.5s77.5 63.834 125.5 84.501s99.333 31 154 31c48 0 93.333 -8 136 -24s81 -38.167 115 -66.5s62.833 -61.833 86.5 -100.5s40.167 -80.334 49.5 -125.001h-164c-8 22.667 -19.333 43.667 -34 63s-31.667 36 -51 50
s-40.666 25 -63.999 33s-48 12 -74 12c-32.667 0 -63.334 -6.16699 -92.001 -18.5s-53.834 -29.333 -75.501 -51s-38.667 -46.834 -51 -75.501s-18.5 -59.334 -18.5 -92.001v-632c0 -32.667 6.16699 -63.334 18.5 -92.001s29.333 -53.834 51 -75.501
s46.834 -38.667 75.501 -51s59.334 -18.5 92.001 -18.5c32 0 62.333 8.66699 91 26s53.834 38.333 75.501 63s38.834 50.5 51.501 77.5s19 50.5 19 70.5v237h-158v158h316v-790h-158v158zM552.997 1896l237 -237l-79 -79l-158 158l-158 -158l-79 79z" />
    <glyph glyph-name="gcircumflex" unicode="&#x11d;" 
d="M316 -316l236.999 -0.00292969c32.667 0 63.334 6.16699 92.001 18.5s53.834 29.333 75.501 51s38.667 46.834 51 75.501s18.5 59.334 18.5 92.001v158c-33.333 -24.667 -70 -44 -110 -58s-82.333 -21 -127 -21c-54.667 0 -106 10.333 -154 31
s-89.833 48.834 -125.5 84.501s-63.834 77.5 -84.501 125.5s-31 99.333 -31 154v316c0 54.667 10.333 106 31 154s48.834 89.833 84.501 125.5s77.5 63.834 125.5 84.501s99.333 31 154 31c44.667 0 87 -7 127 -21s76.667 -33.667 110 -59v80h158v-1185
c0 -54.667 -10.333 -106 -31 -154s-48.834 -89.833 -84.501 -125.5s-77.5 -63.834 -125.5 -84.501s-99.333 -31 -154 -31h-237v158zM315.999 394.997c0 -32.667 6.16699 -63.3311 18.5 -91.998s29.333 -53.834 51 -75.501s46.834 -38.667 75.501 -51
s59.334 -18.5 92.001 -18.5c32 0 62 5.83301 90 17.5s52.667 27.834 74 48.501s38.5 44.667 51.5 72s20.167 57 21.5 89v336c-1.33301 31.333 -8.5 60.833 -21.5 88.5s-30.167 51.667 -51.5 72s-46 36.5 -74 48.5s-58 18 -90 18c-32.667 0 -63.334 -6.16699 -92.001 -18.5
s-53.834 -29.333 -75.501 -51s-38.667 -46.834 -51 -75.501s-18.5 -59.334 -18.5 -92.001v-316zM550.999 1580l237 -237l-79 -79l-158 158l-158 -158l-79 79z" />
    <glyph glyph-name="Gbreve" unicode="&#x11e;" 
d="M790 158c0 -20 -8.16992 -39.3301 -24.5029 -57.9971s-36.5 -35.5 -60.5 -50.5s-49.833 -27 -77.5 -36s-52.5 -13.5 -74.5 -13.5c-54.667 0 -106 10.333 -154 31s-89.833 48.834 -125.5 84.501s-63.834 77.5 -84.501 125.5s-31 99.333 -31 154v632
c0 54.667 10.333 106 31 154s48.834 89.833 84.501 125.5s77.5 63.834 125.5 84.501s99.333 31 154 31c48 0 93.333 -8 136 -24s81 -38.167 115 -66.5s62.833 -61.833 86.5 -100.5s40.167 -80.334 49.5 -125.001h-164c-8 22.667 -19.333 43.667 -34 63s-31.667 36 -51 50
s-40.666 25 -63.999 33s-48 12 -74 12c-32.667 0 -63.334 -6.16699 -92.001 -18.5s-53.834 -29.333 -75.501 -51s-38.667 -46.834 -51 -75.501s-18.5 -59.334 -18.5 -92.001v-632c0 -32.667 6.16699 -63.334 18.5 -92.001s29.333 -53.834 51 -75.501
s46.834 -38.667 75.501 -51s59.334 -18.5 92.001 -18.5c32 0 62.333 8.66699 91 26s53.834 38.333 75.501 63s38.834 50.5 51.501 77.5s19 50.5 19 70.5v237h-158v158h316v-790h-158v158zM550.997 1580c-39.333 0 -73.8311 9 -103.498 27s-54.334 41.833 -74.001 71.5
s-34.5 63.5 -44.5 101.5s-15 76.667 -15 116h158c0 -20 0.333008 -39.333 1 -58s3.5 -35.5 8.5 -50.5s12.833 -27 23.5 -36s26 -13.5 46 -13.5s35.333 4.5 46 13.5s18.5 21 23.5 36s7.83301 31.833 8.5 50.5s1 38 1 58h158c0 -39.333 -5 -78 -15 -116
s-24.833 -71.833 -44.5 -101.5s-44.334 -53.5 -74.001 -71.5s-64.167 -27 -103.5 -27z" />
    <glyph glyph-name="gbreve" unicode="&#x11f;" 
d="M316 -316l236.999 -0.00292969c32.667 0 63.334 6.16699 92.001 18.5s53.834 29.333 75.501 51s38.667 46.834 51 75.501s18.5 59.334 18.5 92.001v158c-33.333 -24.667 -70 -44 -110 -58s-82.333 -21 -127 -21c-54.667 0 -106 10.333 -154 31
s-89.833 48.834 -125.5 84.501s-63.834 77.5 -84.501 125.5s-31 99.333 -31 154v316c0 54.667 10.333 106 31 154s48.834 89.833 84.501 125.5s77.5 63.834 125.5 84.501s99.333 31 154 31c44.667 0 87 -7 127 -21s76.667 -33.667 110 -59v80h158v-1185
c0 -54.667 -10.333 -106 -31 -154s-48.834 -89.833 -84.501 -125.5s-77.5 -63.834 -125.5 -84.501s-99.333 -31 -154 -31h-237v158zM315.999 394.997c0 -32.667 6.16699 -63.3311 18.5 -91.998s29.333 -53.834 51 -75.501s46.834 -38.667 75.501 -51
s59.334 -18.5 92.001 -18.5c32 0 62 5.83301 90 17.5s52.667 27.834 74 48.501s38.5 44.667 51.5 72s20.167 57 21.5 89v336c-1.33301 31.333 -8.5 60.833 -21.5 88.5s-30.167 51.667 -51.5 72s-46 36.5 -74 48.5s-58 18 -90 18c-32.667 0 -63.334 -6.16699 -92.001 -18.5
s-53.834 -29.333 -75.501 -51s-38.667 -46.834 -51 -75.501s-18.5 -59.334 -18.5 -92.001v-316zM550.999 1264c-39.333 0 -73.8311 9 -103.498 27s-54.334 41.833 -74.001 71.5s-34.5 63.5 -44.5 101.5s-15 76.667 -15 116h158c0 -20 0.333008 -39.333 1 -58
s3.5 -35.5 8.5 -50.5s12.833 -27 23.5 -36s26 -13.5 46 -13.5s35.333 4.5 46 13.5s18.5 21 23.5 36s7.83301 31.833 8.5 50.5s1 38 1 58h158c0 -39.333 -5 -78 -15 -116s-24.833 -71.833 -44.5 -101.5s-44.334 -53.5 -74.001 -71.5s-64.167 -27 -103.5 -27z" />
    <glyph glyph-name="Gdotaccent" unicode="&#x120;" 
d="M790 158c0 -20 -8.16992 -39.3301 -24.5029 -57.9971s-36.5 -35.5 -60.5 -50.5s-49.833 -27 -77.5 -36s-52.5 -13.5 -74.5 -13.5c-54.667 0 -106 10.333 -154 31s-89.833 48.834 -125.5 84.501s-63.834 77.5 -84.501 125.5s-31 99.333 -31 154v632
c0 54.667 10.333 106 31 154s48.834 89.833 84.501 125.5s77.5 63.834 125.5 84.501s99.333 31 154 31c48 0 93.333 -8 136 -24s81 -38.167 115 -66.5s62.833 -61.833 86.5 -100.5s40.167 -80.334 49.5 -125.001h-164c-8 22.667 -19.333 43.667 -34 63s-31.667 36 -51 50
s-40.666 25 -63.999 33s-48 12 -74 12c-32.667 0 -63.334 -6.16699 -92.001 -18.5s-53.834 -29.333 -75.501 -51s-38.667 -46.834 -51 -75.501s-18.5 -59.334 -18.5 -92.001v-632c0 -32.667 6.16699 -63.334 18.5 -92.001s29.333 -53.834 51 -75.501
s46.834 -38.667 75.501 -51s59.334 -18.5 92.001 -18.5c32 0 62.333 8.66699 91 26s53.834 38.333 75.501 63s38.834 50.5 51.501 77.5s19 50.5 19 70.5v237h-158v158h316v-790h-158v158zM470.997 1659c0 22 7.66699 40.667 23 56s34 23 56 23s40.667 -7.66699 56 -23
s23 -34 23 -56s-7.66699 -40.667 -23 -56s-34 -23 -56 -23s-40.667 7.66699 -56 23s-23 34 -23 56z" />
    <glyph glyph-name="gdotaccent" unicode="&#x121;" 
d="M316 -316l236.999 -0.00292969c32.667 0 63.334 6.16699 92.001 18.5s53.834 29.333 75.501 51s38.667 46.834 51 75.501s18.5 59.334 18.5 92.001v158c-33.333 -24.667 -70 -44 -110 -58s-82.333 -21 -127 -21c-54.667 0 -106 10.333 -154 31
s-89.833 48.834 -125.5 84.501s-63.834 77.5 -84.501 125.5s-31 99.333 -31 154v316c0 54.667 10.333 106 31 154s48.834 89.833 84.501 125.5s77.5 63.834 125.5 84.501s99.333 31 154 31c44.667 0 87 -7 127 -21s76.667 -33.667 110 -59v80h158v-1185
c0 -54.667 -10.333 -106 -31 -154s-48.834 -89.833 -84.501 -125.5s-77.5 -63.834 -125.5 -84.501s-99.333 -31 -154 -31h-237v158zM315.999 394.997c0 -32.667 6.16699 -63.3311 18.5 -91.998s29.333 -53.834 51 -75.501s46.834 -38.667 75.501 -51
s59.334 -18.5 92.001 -18.5c32 0 62 5.83301 90 17.5s52.667 27.834 74 48.501s38.5 44.667 51.5 72s20.167 57 21.5 89v336c-1.33301 31.333 -8.5 60.833 -21.5 88.5s-30.167 51.667 -51.5 72s-46 36.5 -74 48.5s-58 18 -90 18c-32.667 0 -63.334 -6.16699 -92.001 -18.5
s-53.834 -29.333 -75.501 -51s-38.667 -46.834 -51 -75.501s-18.5 -59.334 -18.5 -92.001v-316zM470.999 1343c0 22 7.66699 40.667 23 56s34 23 56 23s40.667 -7.66699 56 -23s23 -34 23 -56s-7.66699 -40.667 -23 -56s-34 -23 -56 -23s-40.667 7.66699 -56 23
s-23 34 -23 56z" />
    <glyph glyph-name="Gcommaaccent" unicode="&#x122;" 
d="M790 158c0 -20 -8.16992 -39.3301 -24.5029 -57.9971s-36.5 -35.5 -60.5 -50.5s-49.833 -27 -77.5 -36s-52.5 -13.5 -74.5 -13.5c-54.667 0 -106 10.333 -154 31s-89.833 48.834 -125.5 84.501s-63.834 77.5 -84.501 125.5s-31 99.333 -31 154v632
c0 54.667 10.333 106 31 154s48.834 89.833 84.501 125.5s77.5 63.834 125.5 84.501s99.333 31 154 31c48 0 93.333 -8 136 -24s81 -38.167 115 -66.5s62.833 -61.833 86.5 -100.5s40.167 -80.334 49.5 -125.001h-164c-8 22.667 -19.333 43.667 -34 63s-31.667 36 -51 50
s-40.666 25 -63.999 33s-48 12 -74 12c-32.667 0 -63.334 -6.16699 -92.001 -18.5s-53.834 -29.333 -75.501 -51s-38.667 -46.834 -51 -75.501s-18.5 -59.334 -18.5 -92.001v-632c0 -32.667 6.16699 -63.334 18.5 -92.001s29.333 -53.834 51 -75.501
s46.834 -38.667 75.501 -51s59.334 -18.5 92.001 -18.5c32 0 62.333 8.66699 91 26s53.834 38.333 75.501 63s38.834 50.5 51.501 77.5s19 50.5 19 70.5v237h-158v158h316v-790h-158v158zM394.997 -630.997c-22 0 -40.665 7.66797 -55.998 23.001s-23 34 -23 56
s7.66699 40.667 23 56s34 23 56 23c20 0 35.333 3.5 46 10.5s18.5 17.167 23.5 30.5s7.83301 29.833 8.5 49.5s1 42.167 1 67.5c-22 0 -42.5 4.16699 -61.5 12.5s-35.667 19.666 -50 33.999s-25.666 31 -33.999 50s-12.5 39.5 -12.5 61.5s4.16699 42.5 12.5 61.5
s19.666 35.667 33.999 50s31 25.666 50 33.999s39.5 12.5 61.5 12.5s42.5 -4.16699 61.5 -12.5s35.667 -19.666 50 -33.999s25.666 -31 33.999 -50s12.5 -39.5 12.5 -61.5v-158c0 -39.333 -5 -78 -15 -116s-24.833 -71.833 -44.5 -101.5s-44.334 -53.5 -74.001 -71.5
s-64.167 -27 -103.5 -27z" />
    <glyph glyph-name="gcommaaccent" unicode="&#x123;" 
d="M316 -316l236.999 -0.00292969c32.667 0 63.334 6.16699 92.001 18.5s53.834 29.333 75.501 51s38.667 46.834 51 75.501s18.5 59.334 18.5 92.001v158c-33.333 -24.667 -70 -44 -110 -58s-82.333 -21 -127 -21c-54.667 0 -106 10.333 -154 31
s-89.833 48.834 -125.5 84.501s-63.834 77.5 -84.501 125.5s-31 99.333 -31 154v316c0 54.667 10.333 106 31 154s48.834 89.833 84.501 125.5s77.5 63.834 125.5 84.501s99.333 31 154 31c44.667 0 87 -7 127 -21s76.667 -33.667 110 -59v80h158v-1185
c0 -54.667 -10.333 -106 -31 -154s-48.834 -89.833 -84.501 -125.5s-77.5 -63.834 -125.5 -84.501s-99.333 -31 -154 -31h-237v158zM315.999 394.997c0 -32.667 6.16699 -63.3311 18.5 -91.998s29.333 -53.834 51 -75.501s46.834 -38.667 75.501 -51
s59.334 -18.5 92.001 -18.5c32 0 62 5.83301 90 17.5s52.667 27.834 74 48.501s38.5 44.667 51.5 72s20.167 57 21.5 89v336c-1.33301 31.333 -8.5 60.833 -21.5 88.5s-30.167 51.667 -51.5 72s-46 36.5 -74 48.5s-58 18 -90 18c-32.667 0 -63.334 -6.16699 -92.001 -18.5
s-53.834 -29.333 -75.501 -51s-38.667 -46.834 -51 -75.501s-18.5 -59.334 -18.5 -92.001v-316zM628.999 1896c22 0 40.665 -7.66797 55.998 -23.001s23 -34 23 -56s-7.66699 -40.667 -23 -56s-34 -23 -56 -23c-20 0 -35.333 -3.5 -46 -10.5s-18.5 -17.167 -23.5 -30.5
s-7.83301 -29.833 -8.5 -49.5s-1 -42.167 -1 -67.5c22 0 42.5 -4.16699 61.5 -12.5s35.667 -19.666 50 -33.999s25.666 -31 33.999 -50s12.5 -39.5 12.5 -61.5s-4.16699 -42.5 -12.5 -61.5s-19.666 -35.667 -33.999 -50s-31 -25.666 -50 -33.999s-39.5 -12.5 -61.5 -12.5
s-42.5 4.16699 -61.5 12.5s-35.667 19.666 -50 33.999s-25.666 31 -33.999 50s-12.5 39.5 -12.5 61.5v158c0 39.333 5 78 15 116s24.833 71.833 44.5 101.5s44.334 53.5 74.001 71.5s64.167 27 103.5 27z" />
    <glyph glyph-name="Hcircumflex" unicode="&#x124;" 
d="M158 1422h158v-632h474v632h158v-1422h-158v632h-474v-632h-158v1422zM553 1896l237 -237l-79 -79l-158 158l-158 -158l-79 79z" />
    <glyph glyph-name="hcircumflex" unicode="&#x125;" 
d="M790 711c0 32.667 -6.16699 63.333 -18.5 92s-29.333 53.834 -51 75.501s-46.834 38.667 -75.501 51s-59.334 18.5 -92.001 18.5c-32 0 -62.167 -6 -90.5 -18s-53.166 -28.167 -74.499 -48.5s-38.333 -44.333 -51 -72s-19.667 -57.167 -21 -88.5v-721h-158v1422h158v-396
c33.333 25.333 70 45 110 59s82.333 21 127 21c54.667 0 106 -10.333 154 -31s89.833 -48.834 125.5 -84.501s63.834 -77.5 84.501 -125.5s31 -99.333 31 -154v-711h-158v711zM551 1580l237 -237l-79 -79l-158 158l-158 -158l-79 79z" />
    <glyph glyph-name="Hbar" unicode="&#x126;" 
d="M158 1422h158v-632h474v632h158v-1422h-158v632h-474v-632h-158v1422zM158 969.967v136.996h790v-136.996h-790z" />
    <glyph glyph-name="hbar" unicode="&#x127;" 
d="M0 1264l158 -0.000976562v158h158v-158h158v-158h-158v-80c33.333 25.333 70 45 110 59s82.333 21 127 21c54.667 0 106 -10.333 154 -31s89.833 -48.834 125.5 -84.501s63.834 -77.5 84.501 -125.5s31 -99.333 31 -154v-711h-158v711
c0 32.667 -6.16699 63.334 -18.5 92.001s-29.333 53.834 -51 75.501s-46.834 38.667 -75.501 51s-59.334 18.5 -92.001 18.5c-32 0 -62.167 -6 -90.5 -18s-53.166 -28.167 -74.499 -48.5s-38.333 -44.333 -51 -72s-19.667 -57.167 -21 -88.5v-721h-158v1106h-158v158z" />
    <glyph glyph-name="Itilde" unicode="&#x128;" 
d="M158 158h316v1106h-316v158h790v-158h-316v-1106h316v-158h-790v158zM948 1817c-79.333 -158 -158.334 -237 -237.001 -237c-39.333 0 -70.833 3.83301 -94.5 11.5s-42.834 17.5 -57.501 29.5s-26.5 24.667 -35.5 38s-18.667 26 -29 38s-23 21.833 -38 29.5
s-35.5 11.5 -61.5 11.5c-20 0 -39.333 -4.5 -58 -13.5s-35.5 -21 -50.5 -36s-27 -31.833 -36 -50.5s-13.5 -38 -13.5 -58l-79 79c78.667 158 157.667 237 237 237c39.333 0 70.833 -3.83301 94.5 -11.5s42.834 -17.5 57.501 -29.5s26.5 -24.667 35.5 -38s18.667 -26 29 -38
s22.833 -21.833 37.5 -29.5s35.334 -11.5 62.001 -11.5c20 0 39.333 4.5 58 13.5s35.5 21 50.5 36s27 31.833 36 50.5s13.5 38 13.5 58z" />
    <glyph glyph-name="itilde" unicode="&#x129;" 
d="M946 1501c-79.333 -158 -158.334 -237 -237.001 -237c-39.333 0 -70.833 3.83301 -94.5 11.5s-42.834 17.5 -57.501 29.5s-26.5 24.667 -35.5 38s-18.667 26 -29 38s-23 21.833 -38 29.5s-35.5 11.5 -61.5 11.5c-20 0 -39.333 -4.5 -58 -13.5s-35.5 -21 -50.5 -36
s-27 -31.833 -36 -50.5s-13.5 -38 -13.5 -58l-79 79c78.667 158 157.667 237 237 237c39.333 0 70.833 -3.83301 94.5 -11.5s42.834 -17.5 57.501 -29.5s26.5 -24.667 35.5 -38s18.667 -26 29 -38s22.833 -21.833 37.5 -29.5s35.334 -11.5 62.001 -11.5
c20 0 39.333 4.5 58 13.5s35.5 21 50.5 36s27 31.833 36 50.5s13.5 38 13.5 58zM473.999 948h-158v158h316v-1106h-158v948z" />
    <glyph glyph-name="Imacron" unicode="&#x12a;" 
d="M158 158h316v1106h-316v158h790v-158h-316v-1106h316v-158h-790v158zM158 1580v158h790v-158h-790z" />
    <glyph glyph-name="imacron" unicode="&#x12b;" 
d="M158.798 1265v158h788.987v-158h-788.987zM474 948h-158v158h316v-1106h-158v948z" />
    <glyph glyph-name="Ibreve" unicode="&#x12c;" 
d="M158 158h316v1106h-316v158h790v-158h-316v-1106h316v-158h-790v158zM553 1580c-39.333 0 -73.8311 9 -103.498 27s-54.334 41.833 -74.001 71.5s-34.5 63.5 -44.5 101.5s-15 76.667 -15 116h158c0 -20 0.333008 -39.333 1 -58s3.5 -35.5 8.5 -50.5s12.833 -27 23.5 -36
s26 -13.5 46 -13.5s35.333 4.5 46 13.5s18.5 21 23.5 36s7.83301 31.833 8.5 50.5s1 38 1 58h158c0 -39.333 -5 -78 -15 -116s-24.833 -71.833 -44.5 -101.5s-44.334 -53.5 -74.001 -71.5s-64.167 -27 -103.5 -27z" />
    <glyph glyph-name="ibreve" unicode="&#x12d;" 
d="M551 1264c-39.333 0 -73.8311 9 -103.498 27s-54.334 41.833 -74.001 71.5s-34.5 63.5 -44.5 101.5s-15 76.667 -15 116h158c0 -20 0.333008 -39.333 1 -58s3.5 -35.5 8.5 -50.5s12.833 -27 23.5 -36s26 -13.5 46 -13.5s35.333 4.5 46 13.5s18.5 21 23.5 36
s7.83301 31.833 8.5 50.5s1 38 1 58h158c0 -39.333 -5 -78 -15 -116s-24.833 -71.833 -44.5 -101.5s-44.334 -53.5 -74.001 -71.5s-64.167 -27 -103.5 -27zM474.002 948h-158v158h316v-1106h-158v948z" />
    <glyph glyph-name="Iogonek" unicode="&#x12e;" 
d="M158 158h316v1106h-316v158h790v-158h-316v-1106h316v-158h-790v158zM632 0c0 -39.333 5.33398 -73.501 16.001 -102.501s28.334 -50.833 53.001 -65.5s57.167 -21.667 97.5 -21s90.166 11 149.499 31v-158c-78.667 -20 -147.667 -25.833 -207 -17.5
s-108.833 27.333 -148.5 57s-69.334 68.334 -89.001 116.001s-29.5 101.167 -29.5 160.5h158z" />
    <glyph glyph-name="iogonek" unicode="&#x12f;" 
d="M474 948h-158v158h316v-1106h-158v948zM474 1422h158v-158h-158v158zM631 0c0 -39.333 5.33398 -73.501 16.001 -102.501s28.334 -50.833 53.001 -65.5s57.167 -21.667 97.5 -21s90.166 11 149.499 31v-158c-78.667 -20 -147.667 -25.833 -207 -17.5
s-108.833 27.333 -148.5 57s-69.334 68.334 -89.001 116.001s-29.5 101.167 -29.5 160.5h158z" />
    <glyph glyph-name="Idotaccent" unicode="&#x130;" 
d="M158 158h316v1106h-316v158h790v-158h-316v-1106h316v-158h-790v158zM474 1659c0 22 7.66699 40.667 23 56s34 23 56 23s40.667 -7.66699 56 -23s23 -34 23 -56s-7.66699 -40.667 -23 -56s-34 -23 -56 -23s-40.667 7.66699 -56 23s-23 34 -23 56z" />
    <glyph glyph-name="dotlessi" unicode="&#x131;" 
d="M474 948h-158v158h316v-1106h-158v948z" />
    <glyph glyph-name="IJ" unicode="&#x132;" 
d="M0 158h158v1106h-158v158h474v-158h-158v-1106h158v-158h-474v158zM711 0c-39.333 0 -73.8301 5.33301 -103.497 16s-54.334 28.334 -74.001 53.001s-34.5 57.167 -44.5 97.5s-15 90.166 -15 149.499h163c-1.33301 -20 -1.83301 -39.333 -1.5 -58
s2.66602 -35.5 6.99902 -50.5s11.833 -27 22.5 -36s26 -13.5 46 -13.5s35.333 4.5 46 13.5s18.5 21 23.5 36s7.83301 31.833 8.5 50.5s1 38 1 58v1106h158v-1106c0 -59.333 -5 -109.166 -15 -149.499s-24.833 -72.833 -44.5 -97.5s-44.334 -42.334 -74.001 -53.001
s-64.167 -16 -103.5 -16z" />
    <glyph glyph-name="ij" unicode="&#x133;" 
d="M317 948h-158v158h316v-1106h-158v948zM317 1422h158v-158h-158v158zM316 -158h237c158 0 237 79 237 237v869h-158v158h316v-1106c0 -39.333 -9 -78 -27 -116s-41.833 -71.833 -71.5 -101.5s-63.5 -53.5 -101.5 -71.5s-76.667 -27 -116 -27h-316v158zM790 1422h158v-158
h-158v158z" />
    <glyph glyph-name="Jcircumflex" unicode="&#x134;" 
d="M158 474h157.998v-79c0 -32.667 6.16699 -63.334 18.5 -92.001s29.333 -53.834 51 -75.501s46.834 -38.667 75.501 -51s59.334 -18.5 92.001 -18.5s63.334 6.16699 92.001 18.5s53.834 29.333 75.501 51s38.667 46.834 51 75.501s18.5 59.334 18.5 92.001v1027h158v-1027
c0 -54.667 -10.333 -106 -31 -154s-48.834 -89.833 -84.501 -125.5s-77.5 -63.834 -125.5 -84.501s-99.333 -31 -154 -31s-106 10.333 -154 31s-89.833 48.834 -125.5 84.501s-63.834 77.5 -84.501 125.5s-31 99.333 -31 154v79zM552.998 1896l237 -237l-79 -79l-158 158
l-158 -158l-79 79z" />
    <glyph glyph-name="jcircumflex" unicode="&#x135;" 
d="M158 -158h237c158 0 237 79 237 237v869h-158v158h316v-1106c0 -39.333 -9 -78 -27 -116s-41.833 -71.833 -71.5 -101.5s-63.5 -53.5 -101.5 -71.5s-76.667 -27 -116 -27h-316v158zM550 1580l237 -237l-79 -79l-158 158l-158 -158l-79 79z" />
    <glyph glyph-name="Kcommaaccent" unicode="&#x136;" 
d="M316 761l454 661h178l-474 -711l474 -711h-180l-452 666v-666h-158v1422h158v-661zM395 -631c-22 0 -40.665 7.66797 -55.998 23.001s-23 34 -23 56s7.66699 40.667 23 56s34 23 56 23c20 0 35.333 3.5 46 10.5s18.5 17.167 23.5 30.5s7.83301 29.833 8.5 49.5
s1 42.167 1 67.5c-22 0 -42.5 4.16699 -61.5 12.5s-35.667 19.666 -50 33.999s-25.666 31 -33.999 50s-12.5 39.5 -12.5 61.5s4.16699 42.5 12.5 61.5s19.666 35.667 33.999 50s31 25.666 50 33.999s39.5 12.5 61.5 12.5s42.5 -4.16699 61.5 -12.5
s35.667 -19.666 50 -33.999s25.666 -31 33.999 -50s12.5 -39.5 12.5 -61.5v-158c0 -39.333 -5 -78 -15 -116s-24.833 -71.833 -44.5 -101.5s-44.334 -53.5 -74.001 -71.5s-64.167 -27 -103.5 -27z" />
    <glyph glyph-name="kcommaaccent" unicode="&#x137;" 
d="M316 632h38l400 474h194l-453 -553l453 -553h-194l-400 474h-38v-474h-158v1422h158v-790zM395 -631c-22 0 -40.665 7.66797 -55.998 23.001s-23 34 -23 56s7.66699 40.667 23 56s34 23 56 23c20 0 35.333 3.5 46 10.5s18.5 17.167 23.5 30.5s7.83301 29.833 8.5 49.5
s1 42.167 1 67.5c-22 0 -42.5 4.16699 -61.5 12.5s-35.667 19.666 -50 33.999s-25.666 31 -33.999 50s-12.5 39.5 -12.5 61.5s4.16699 42.5 12.5 61.5s19.666 35.667 33.999 50s31 25.666 50 33.999s39.5 12.5 61.5 12.5s42.5 -4.16699 61.5 -12.5
s35.667 -19.666 50 -33.999s25.666 -31 33.999 -50s12.5 -39.5 12.5 -61.5v-158c0 -39.333 -5 -78 -15 -116s-24.833 -71.833 -44.5 -101.5s-44.334 -53.5 -74.001 -71.5s-64.167 -27 -103.5 -27z" />
    <glyph glyph-name="kgreenlandic" unicode="&#x138;" 
d="M316 600l439 506h193l-474 -553l474 -553h-195l-437 509v-509h-158v1106h158v-506z" />
    <glyph glyph-name="Lacute" unicode="&#x139;" 
d="M158 1422h158v-1264h632v-158h-790v1422zM395 1580l-79 79l395 237l79 -79z" />
    <glyph glyph-name="lacute" unicode="&#x13a;" 
d="M474 1264h-158v158h316v-1422h-158v1264zM395 1580l-79 79l395 237l79 -79z" />
    <glyph glyph-name="Lcommaaccent" unicode="&#x13b;" 
d="M158 1422h158v-1264h632v-158h-790v1422zM394.746 -627.496c-21.9297 0 -40.5391 7.62695 -55.8242 22.8877c-15.2842 15.2607 -22.9268 33.8389 -22.9268 55.7344s7.64258 40.4736 22.9268 55.7344c15.2852 15.2607 33.8926 22.8906 55.8223 22.8906
c19.9365 0 35.2217 3.4834 45.8545 10.4502s18.4414 17.085 23.4248 30.3545c4.98438 13.2705 7.80859 29.6924 8.47363 49.2656s0.99707 41.9658 0.99707 67.1787c-21.9307 0 -42.3662 4.14648 -61.3066 12.4404c-18.9395 8.29395 -35.5527 19.5732 -49.8408 33.8379
s-25.5859 30.8525 -33.8936 49.7627c-8.30664 18.9092 -12.46 39.3115 -12.46 61.207s4.15332 42.2979 12.46 61.207c8.30762 18.9092 19.6055 35.4961 33.8936 49.7607s30.9014 25.5439 49.8408 33.8379c18.9404 8.29395 39.376 12.4414 61.3066 12.4414
c21.9297 0 42.3643 -4.14746 61.3047 -12.4414c18.9395 -8.29395 35.5527 -19.5732 49.8408 -33.8379s25.5859 -30.8516 33.8936 -49.7607c8.30664 -18.9092 12.46 -39.3115 12.46 -61.207v-157.248c0 -39.1455 -4.98438 -77.6279 -14.9521 -115.447
s-24.7539 -71.4922 -44.3584 -101.018s-44.1924 -53.2451 -73.7646 -71.1592c-29.5732 -17.915 -63.9639 -26.8721 -103.172 -26.8721z" />
    <glyph glyph-name="lcommaaccent" unicode="&#x13c;" 
d="M474 1264h-158v158h316v-1422h-158v1264zM395 -631c-22 0 -40.665 7.66797 -55.998 23.001s-23 34 -23 56s7.66699 40.667 23 56s34 23 56 23c20 0 35.333 3.5 46 10.5s18.5 17.167 23.5 30.5s7.83301 29.833 8.5 49.5s1 42.167 1 67.5c-22 0 -42.5 4.16699 -61.5 12.5
s-35.667 19.666 -50 33.999s-25.666 31 -33.999 50s-12.5 39.5 -12.5 61.5s4.16699 42.5 12.5 61.5s19.666 35.667 33.999 50s31 25.666 50 33.999s39.5 12.5 61.5 12.5s42.5 -4.16699 61.5 -12.5s35.667 -19.666 50 -33.999s25.666 -31 33.999 -50s12.5 -39.5 12.5 -61.5
v-158c0 -39.333 -5 -78 -15 -116s-24.833 -71.833 -44.5 -101.5s-44.334 -53.5 -74.001 -71.5s-64.167 -27 -103.5 -27z" />
    <glyph glyph-name="Lcaron" unicode="&#x13d;" 
d="M158 1422h158v-1264h632v-158h-790v1422zM471 1262c-22 0 -40.665 7.66797 -55.998 23.001s-23 34 -23 56s7.66699 40.667 23 56s34 23 56 23c20 0 35.333 3.5 46 10.5s18.5 17.167 23.5 30.5s7.83301 29.833 8.5 49.5s1 42.167 1 67.5c-22 0 -42.5 4.16699 -61.5 12.5
s-35.667 19.666 -50 33.999s-25.666 31 -33.999 50s-12.5 39.5 -12.5 61.5s4.16699 42.5 12.5 61.5s19.666 35.667 33.999 50s31 25.666 50 33.999s39.5 12.5 61.5 12.5s42.5 -4.16699 61.5 -12.5s35.667 -19.666 50 -33.999s25.666 -31 33.999 -50s12.5 -39.5 12.5 -61.5
v-158c0 -39.333 -5 -78 -15 -116s-24.833 -71.833 -44.5 -101.5s-44.334 -53.5 -74.001 -71.5s-64.167 -27 -103.5 -27z" />
    <glyph glyph-name="lcaron" unicode="&#x13e;" 
d="M316 1264h-158v158h316v-1422h-158v1264zM711 1264c-22 0 -40.665 7.66797 -55.998 23.001s-23 34 -23 56s7.66699 40.667 23 56s34 23 56 23c20 0 35.333 3.5 46 10.5s18.5 17.167 23.5 30.5s7.83301 29.833 8.5 49.5s1 42.167 1 67.5c-22 0 -42.5 4.16699 -61.5 12.5
s-35.667 19.666 -50 33.999s-25.666 31 -33.999 50s-12.5 39.5 -12.5 61.5s4.16699 42.5 12.5 61.5s19.666 35.667 33.999 50s31 25.666 50 33.999s39.5 12.5 61.5 12.5s42.5 -4.16699 61.5 -12.5s35.667 -19.666 50 -33.999s25.666 -31 33.999 -50s12.5 -39.5 12.5 -61.5
v-158c0 -39.333 -5 -78 -15 -116s-24.833 -71.833 -44.5 -101.5s-44.334 -53.5 -74.001 -71.5s-64.167 -27 -103.5 -27z" />
    <glyph glyph-name="Ldot" unicode="&#x13f;" 
d="M158 1422h158v-1264h632v-158h-790v1422zM632 790c0 22 4.16699 42.5 12.5 61.5s19.666 35.667 33.999 50s31 25.666 50 33.999s39.5 12.5 61.5 12.5s42.5 -4.16699 61.5 -12.5s35.667 -19.666 50 -33.999s25.666 -31 33.999 -50s12.5 -39.5 12.5 -61.5
s-4.16699 -42.5 -12.5 -61.5s-19.666 -35.667 -33.999 -50s-31 -25.666 -50 -33.999s-39.5 -12.5 -61.5 -12.5s-42.5 4.16699 -61.5 12.5s-35.667 19.666 -50 33.999s-25.666 31 -33.999 50s-12.5 39.5 -12.5 61.5z" />
    <glyph glyph-name="ldot" unicode="&#x140;" 
d="M316 1264h-158v158h316v-1422h-158v1264zM632 790c0 22 4.16699 42.5 12.5 61.5s19.666 35.667 33.999 50s31 25.666 50 33.999s39.5 12.5 61.5 12.5s42.5 -4.16699 61.5 -12.5s35.667 -19.666 50 -33.999s25.666 -31 33.999 -50s12.5 -39.5 12.5 -61.5
s-4.16699 -42.5 -12.5 -61.5s-19.666 -35.667 -33.999 -50s-31 -25.666 -50 -33.999s-39.5 -12.5 -61.5 -12.5s-42.5 4.16699 -61.5 12.5s-35.667 19.666 -50 33.999s-25.666 31 -33.999 50s-12.5 39.5 -12.5 61.5z" />
    <glyph glyph-name="Lslash" unicode="&#x141;" 
d="M19 455l553 553l120 -120l-553 -553zM158 1422h158v-1264h632v-158h-790v1422z" />
    <glyph glyph-name="lslash" unicode="&#x142;" 
d="M269 466l205 136v662h-158v158h316v-714l111 74l94 -142l-205 -137v-503h-158v398l-111 -74z" />
    <glyph glyph-name="Nacute" unicode="&#x143;" 
d="M158 0v1422h158l474 -1052v1052h158v-1422h-158l-474 1052v-1052h-158zM395 1580l-79 79l395 237l79 -79z" />
    <glyph glyph-name="nacute" unicode="&#x144;" 
d="M553 948c-32 0 -62.167 -6.00098 -90.5 -18.001s-53.166 -28.167 -74.499 -48.5s-38.333 -44.333 -51 -72s-19.667 -57.167 -21 -88.5v-721h-158v1106h158v-80c33.333 25.333 70 45 110 59s82.333 21 127 21c54.667 0 106 -10.333 154 -31s89.833 -48.834 125.5 -84.501
s63.834 -77.5 84.501 -125.5s31 -99.333 31 -154v-711h-158v711c0 32.667 -6.16699 63.334 -18.5 92.001s-29.333 53.834 -51 75.501s-46.834 38.667 -75.501 51s-59.334 18.5 -92.001 18.5zM395 1265.02l-79 79.502l395 238.504l79 -79.502z" />
    <glyph glyph-name="Ncommaaccent" unicode="&#x145;" 
d="M158 0v1422h158l474 -1052v1052h158v-1422h-158l-474 1052v-1052h-158zM395 -631c-22 0 -40.665 7.66797 -55.998 23.001s-23 34 -23 56s7.66699 40.667 23 56s34 23 56 23c20 0 35.333 3.5 46 10.5s18.5 17.167 23.5 30.5s7.83301 29.833 8.5 49.5s1 42.167 1 67.5
c-22 0 -42.5 4.16699 -61.5 12.5s-35.667 19.666 -50 33.999s-25.666 31 -33.999 50s-12.5 39.5 -12.5 61.5s4.16699 42.5 12.5 61.5s19.666 35.667 33.999 50s31 25.666 50 33.999s39.5 12.5 61.5 12.5s42.5 -4.16699 61.5 -12.5s35.667 -19.666 50 -33.999
s25.666 -31 33.999 -50s12.5 -39.5 12.5 -61.5v-158c0 -39.333 -5 -78 -15 -116s-24.833 -71.833 -44.5 -101.5s-44.334 -53.5 -74.001 -71.5s-64.167 -27 -103.5 -27z" />
    <glyph glyph-name="ncommaaccent" unicode="&#x146;" 
d="M553 948c-32 0 -62.167 -6.00098 -90.5 -18.001s-53.166 -28.167 -74.499 -48.5s-38.333 -44.333 -51 -72s-19.667 -57.167 -21 -88.5v-721h-158v1106h158v-80c33.333 25.333 70 45 110 59s82.333 21 127 21c54.667 0 106 -10.333 154 -31s89.833 -48.834 125.5 -84.501
s63.834 -77.5 84.501 -125.5s31 -99.333 31 -154v-711h-158v711c0 32.667 -6.16699 63.334 -18.5 92.001s-29.333 53.834 -51 75.501s-46.834 38.667 -75.501 51s-59.334 18.5 -92.001 18.5zM395 -631.001c-22 0 -40.665 7.66797 -55.998 23.001s-23 34 -23 56
s7.66699 40.667 23 56s34 23 56 23c20 0 35.333 3.5 46 10.5s18.5 17.167 23.5 30.5s7.83301 29.833 8.5 49.5s1 42.167 1 67.5c-22 0 -42.5 4.16699 -61.5 12.5s-35.667 19.666 -50 33.999s-25.666 31 -33.999 50s-12.5 39.5 -12.5 61.5s4.16699 42.5 12.5 61.5
s19.666 35.667 33.999 50s31 25.666 50 33.999s39.5 12.5 61.5 12.5s42.5 -4.16699 61.5 -12.5s35.667 -19.666 50 -33.999s25.666 -31 33.999 -50s12.5 -39.5 12.5 -61.5v-158c0 -39.333 -5 -78 -15 -116s-24.833 -71.833 -44.5 -101.5s-44.334 -53.5 -74.001 -71.5
s-64.167 -27 -103.5 -27z" />
    <glyph glyph-name="Ncaron" unicode="&#x147;" 
d="M158 0v1422h158l474 -1052v1052h158v-1422h-158l-474 1052v-1052h-158zM316 1817l79 79l158 -158l158 158l79 -79l-237 -237z" />
    <glyph glyph-name="ncaron" unicode="&#x148;" 
d="M553 948c-32 0 -62.167 -6.00098 -90.5 -18.001s-53.166 -28.167 -74.499 -48.5s-38.333 -44.333 -51 -72s-19.667 -57.167 -21 -88.5v-721h-158v1106h158v-80c33.333 25.333 70 45 110 59s82.333 21 127 21c54.667 0 106 -10.333 154 -31s89.833 -48.834 125.5 -84.501
s63.834 -77.5 84.501 -125.5s31 -99.333 31 -154v-711h-158v711c0 32.667 -6.16699 63.334 -18.5 92.001s-29.333 53.834 -51 75.501s-46.834 38.667 -75.501 51s-59.334 18.5 -92.001 18.5zM314 1501l79 79l158 -158l158 158l79 -79l-237 -237z" />
    <glyph glyph-name="napostrophe" unicode="&#x149;" 
d="M553 948c-32 0 -62.167 -6.00098 -90.5 -18.001s-53.166 -28.167 -74.499 -48.5s-38.333 -44.333 -51 -72s-19.667 -57.167 -21 -88.5v-721h-158v1106h158v-80c33.333 25.333 70 45 110 59s82.333 21 127 21c54.667 0 106 -10.333 154 -31s89.833 -48.834 125.5 -84.501
s63.834 -77.5 84.501 -125.5s31 -99.333 31 -154v-711h-158v711c0 32.667 -6.16699 63.334 -18.5 92.001s-29.333 53.834 -51 75.501s-46.834 38.667 -75.501 51s-59.334 18.5 -92.001 18.5zM553 1027c-22 0 -40.665 7.66797 -55.998 23.001s-23 34 -23 56
s7.66699 40.667 23 56s34 23 56 23c20 0 35.333 3.5 46 10.5s18.5 17.167 23.5 30.5s7.83301 29.833 8.5 49.5s1 42.167 1 67.5c-22 0 -42.5 4.16699 -61.5 12.5s-35.667 19.666 -50 33.999s-25.666 31 -33.999 50s-12.5 39.5 -12.5 61.5s4.16699 42.5 12.5 61.5
s19.666 35.667 33.999 50s31 25.666 50 33.999s39.5 12.5 61.5 12.5s42.5 -4.16699 61.5 -12.5s35.667 -19.666 50 -33.999s25.666 -31 33.999 -50s12.5 -39.5 12.5 -61.5v-158c0 -39.333 -5 -78 -15 -116s-24.833 -71.833 -44.5 -101.5s-44.334 -53.5 -74.001 -71.5
s-64.167 -27 -103.5 -27z" />
    <glyph glyph-name="Eng" unicode="&#x14a;" 
d="M549 -474c-48 0 -93.832 8 -137.499 24s-82.667 38.167 -117 66.5s-63.5 61.666 -87.5 99.999s-40.333 80.166 -49 125.499h164c8.66699 -23.333 20.5 -44.666 35.5 -63.999s32.333 -36 52 -50s41.334 -24.833 65.001 -32.5s48.5 -11.5 74.5 -11.5
c32.667 0 63.667 6.16699 93 18.5s54.666 29.333 75.999 51s38.333 46.834 51 75.501s19 59.334 19 92.001v79h-5l-465 1050v-1050h-158v1422h165l465 -1047v1047h158v-1501c0 -54.667 -10.5 -106 -31.5 -154s-49.5 -89.833 -85.5 -125.5s-78.333 -63.834 -127 -84.501
s-100.334 -31 -155.001 -31z" />
    <glyph glyph-name="eng" unicode="&#x14b;" 
d="M316 -158v-157.999h316c39.333 0 78 9 116 27c28 13.333 54.167 30.333 78.5 51s45.5 43.667 63.5 69s32.167 52.333 42.5 81s15.5 58 15.5 88v711c0 54.667 -10.333 106 -31 154s-48.834 89.833 -84.501 125.5s-77.5 63.834 -125.5 84.501s-99.333 31 -154 31
c-44.667 0 -87 -7 -127 -21s-76.667 -33.667 -110 -59v80h-158v-1106h158v721c1.33301 31.333 8.33301 60.833 21 88.5s29.667 51.667 51 72s46.166 36.5 74.499 48.5s58.5 18 90.5 18c32.667 0 63.334 -6.16699 92.001 -18.5s53.834 -29.333 75.501 -51
s38.667 -46.834 51 -75.501s18.5 -59.334 18.5 -92.001v-632c0 -158 -79 -237 -237 -237h-237z" />
    <glyph glyph-name="Omacron" unicode="&#x14c;" 
d="M158 1027c0 54.667 10.333 106 31 154s48.834 89.833 84.501 125.5s77.5 63.834 125.5 84.501s99.333 31 154 31s106 -10.333 154 -31s89.833 -48.834 125.5 -84.501s63.834 -77.5 84.501 -125.5s31 -99.333 31 -154v-632c0 -54.667 -10.333 -106 -31 -154
s-48.834 -89.833 -84.501 -125.5s-77.5 -63.834 -125.5 -84.501s-99.333 -31 -154 -31s-106 10.333 -154 31s-89.833 48.834 -125.5 84.501s-63.834 77.5 -84.501 125.5s-31 99.333 -31 154v632zM553 1264c-32.667 0 -63.334 -6.16699 -92.001 -18.5
s-53.834 -29.333 -75.501 -51s-38.667 -46.834 -51 -75.501s-18.5 -59.334 -18.5 -92.001v-632c0 -32.667 6.16699 -63.334 18.5 -92.001s29.333 -53.834 51 -75.501s46.834 -38.667 75.501 -51s59.334 -18.5 92.001 -18.5s63.334 6.16699 92.001 18.5
s53.834 29.333 75.501 51s38.667 46.834 51 75.501s18.5 59.334 18.5 92.001v632c0 32.667 -6.16699 63.334 -18.5 92.001s-29.333 53.834 -51 75.501s-46.834 38.667 -75.501 51s-59.334 18.5 -92.001 18.5zM158 1580v158h790v-158h-790z" />
    <glyph glyph-name="omacron" unicode="&#x14d;" 
d="M158 711c0 54.667 10.333 106 31 154s48.834 89.833 84.501 125.5s77.5 63.834 125.5 84.501s99.333 31 154 31s106 -10.333 154 -31s89.833 -48.834 125.5 -84.501s63.834 -77.5 84.501 -125.5s31 -99.333 31 -154v-316c0 -54.667 -10.333 -106 -31 -154
s-48.834 -89.833 -84.501 -125.5s-77.5 -63.834 -125.5 -84.501s-99.333 -31 -154 -31s-106 10.333 -154 31s-89.833 48.834 -125.5 84.501s-63.834 77.5 -84.501 125.5s-31 99.333 -31 154v316zM316 395c0 -32.667 6.16699 -63.334 18.5 -92.001s29.333 -53.834 51 -75.501
s46.834 -38.667 75.501 -51s59.334 -18.5 92.001 -18.5s63.334 6.16699 92.001 18.5s53.834 29.333 75.501 51s38.667 46.834 51 75.501s18.5 59.334 18.5 92.001v316c0 32.667 -6.16699 63.334 -18.5 92.001s-29.333 53.834 -51 75.501s-46.834 38.667 -75.501 51
s-59.334 18.5 -92.001 18.5s-63.334 -6.16699 -92.001 -18.5s-53.834 -29.333 -75.501 -51s-38.667 -46.834 -51 -75.501s-18.5 -59.334 -18.5 -92.001v-316zM158 1265v158h790v-158h-790z" />
    <glyph glyph-name="Obreve" unicode="&#x14e;" 
d="M158 1027c0 54.667 10.333 106 31 154s48.834 89.833 84.501 125.5s77.5 63.834 125.5 84.501s99.333 31 154 31s106 -10.333 154 -31s89.833 -48.834 125.5 -84.501s63.834 -77.5 84.501 -125.5s31 -99.333 31 -154v-632c0 -54.667 -10.333 -106 -31 -154
s-48.834 -89.833 -84.501 -125.5s-77.5 -63.834 -125.5 -84.501s-99.333 -31 -154 -31s-106 10.333 -154 31s-89.833 48.834 -125.5 84.501s-63.834 77.5 -84.501 125.5s-31 99.333 -31 154v632zM553 1264c-32.667 0 -63.334 -6.16699 -92.001 -18.5
s-53.834 -29.333 -75.501 -51s-38.667 -46.834 -51 -75.501s-18.5 -59.334 -18.5 -92.001v-632c0 -32.667 6.16699 -63.334 18.5 -92.001s29.333 -53.834 51 -75.501s46.834 -38.667 75.501 -51s59.334 -18.5 92.001 -18.5s63.334 6.16699 92.001 18.5
s53.834 29.333 75.501 51s38.667 46.834 51 75.501s18.5 59.334 18.5 92.001v632c0 32.667 -6.16699 63.334 -18.5 92.001s-29.333 53.834 -51 75.501s-46.834 38.667 -75.501 51s-59.334 18.5 -92.001 18.5zM552.51 1580c-39.583 0 -74.3027 9 -104.157 27
c-29.8555 18 -54.6787 41.833 -74.4697 71.5c-19.792 29.667 -34.7197 63.5 -44.7832 101.5s-15.0957 76.667 -15.0957 116h159.003c0 -20 0.335938 -39.333 1.00684 -58s3.52246 -35.5 8.55469 -50.5s12.915 -27 23.6494 -36s26.165 -13.5 46.291 -13.5
c20.1279 0 35.5586 4.5 46.293 13.5s18.6172 21 23.6484 36c5.03223 15 7.88379 31.833 8.55469 50.5s1.00586 38 1.00586 58h159.003c0 -39.333 -5.03125 -78 -15.0947 -116s-24.9912 -71.833 -44.7832 -101.5s-44.6152 -53.5 -74.4697 -71.5s-64.5732 -27 -104.156 -27z
" />
    <glyph glyph-name="obreve" unicode="&#x14f;" 
d="M158 711c0 54.667 10.333 106 31 154s48.834 89.833 84.501 125.5s77.5 63.834 125.5 84.501s99.333 31 154 31s106 -10.333 154 -31s89.833 -48.834 125.5 -84.501s63.834 -77.5 84.501 -125.5s31 -99.333 31 -154v-316c0 -54.667 -10.333 -106 -31 -154
s-48.834 -89.833 -84.501 -125.5s-77.5 -63.834 -125.5 -84.501s-99.333 -31 -154 -31s-106 10.333 -154 31s-89.833 48.834 -125.5 84.501s-63.834 77.5 -84.501 125.5s-31 99.333 -31 154v316zM316 395c0 -32.667 6.16699 -63.334 18.5 -92.001s29.333 -53.834 51 -75.501
s46.834 -38.667 75.501 -51s59.334 -18.5 92.001 -18.5s63.334 6.16699 92.001 18.5s53.834 29.333 75.501 51s38.667 46.834 51 75.501s18.5 59.334 18.5 92.001v316c0 32.667 -6.16699 63.334 -18.5 92.001s-29.333 53.834 -51 75.501s-46.834 38.667 -75.501 51
s-59.334 18.5 -92.001 18.5s-63.334 -6.16699 -92.001 -18.5s-53.834 -29.333 -75.501 -51s-38.667 -46.834 -51 -75.501s-18.5 -59.334 -18.5 -92.001v-316zM551 1264c-39.333 0 -73.8311 9 -103.498 27s-54.334 41.833 -74.001 71.5s-34.5 63.5 -44.5 101.5
s-15 76.667 -15 116h158c0 -20 0.333008 -39.333 1 -58s3.5 -35.5 8.5 -50.5s12.833 -27 23.5 -36s26 -13.5 46 -13.5s35.333 4.5 46 13.5s18.5 21 23.5 36s7.83301 31.833 8.5 50.5s1 38 1 58h158c0 -39.333 -5 -78 -15 -116s-24.833 -71.833 -44.5 -101.5
s-44.334 -53.5 -74.001 -71.5s-64.167 -27 -103.5 -27z" />
    <glyph glyph-name="Ohungarumlaut" unicode="&#x150;" 
d="M158 1027c0 54.667 10.333 106 31 154s48.834 89.833 84.501 125.5s77.5 63.834 125.5 84.501s99.333 31 154 31s106 -10.333 154 -31s89.833 -48.834 125.5 -84.501s63.834 -77.5 84.501 -125.5s31 -99.333 31 -154v-632c0 -54.667 -10.333 -106 -31 -154
s-48.834 -89.833 -84.501 -125.5s-77.5 -63.834 -125.5 -84.501s-99.333 -31 -154 -31s-106 10.333 -154 31s-89.833 48.834 -125.5 84.501s-63.834 77.5 -84.501 125.5s-31 99.333 -31 154v632zM553 1264c-32.667 0 -63.334 -6.16699 -92.001 -18.5
s-53.834 -29.333 -75.501 -51s-38.667 -46.834 -51 -75.501s-18.5 -59.334 -18.5 -92.001v-632c0 -32.667 6.16699 -63.334 18.5 -92.001s29.333 -53.834 51 -75.501s46.834 -38.667 75.501 -51s59.334 -18.5 92.001 -18.5s63.334 6.16699 92.001 18.5
s53.834 29.333 75.501 51s38.667 46.834 51 75.501s18.5 59.334 18.5 92.001v632c0 32.667 -6.16699 63.334 -18.5 92.001s-29.333 53.834 -51 75.501s-46.834 38.667 -75.501 51s-59.334 18.5 -92.001 18.5zM225.158 1580l-65.8311 79l329.158 237l65.832 -79z
M619.158 1580l-65.8311 79l329.158 237l65.832 -79z" />
    <glyph glyph-name="ohungarumlaut" unicode="&#x151;" 
d="M158 711c0 54.667 10.333 106 31 154s48.834 89.833 84.501 125.5s77.5 63.834 125.5 84.501s99.333 31 154 31s106 -10.333 154 -31s89.833 -48.834 125.5 -84.501s63.834 -77.5 84.501 -125.5s31 -99.333 31 -154v-316c0 -54.667 -10.333 -106 -31 -154
s-48.834 -89.833 -84.501 -125.5s-77.5 -63.834 -125.5 -84.501s-99.333 -31 -154 -31s-106 10.333 -154 31s-89.833 48.834 -125.5 84.501s-63.834 77.5 -84.501 125.5s-31 99.333 -31 154v316zM316 395c0 -32.667 6.16699 -63.334 18.5 -92.001s29.333 -53.834 51 -75.501
s46.834 -38.667 75.501 -51s59.334 -18.5 92.001 -18.5s63.334 6.16699 92.001 18.5s53.834 29.333 75.501 51s38.667 46.834 51 75.501s18.5 59.334 18.5 92.001v316c0 32.667 -6.16699 63.334 -18.5 92.001s-29.333 53.834 -51 75.501s-46.834 38.667 -75.501 51
s-59.334 18.5 -92.001 18.5s-63.334 -6.16699 -92.001 -18.5s-53.834 -29.333 -75.501 -51s-38.667 -46.834 -51 -75.501s-18.5 -59.334 -18.5 -92.001v-316zM225.158 1264l-65.8311 79l329.158 237l65.832 -79zM618.339 1265.02l-65.668 79.502l328.339 238.504
l65.668 -79.502z" />
    <glyph glyph-name="OE" unicode="&#x152;" 
d="M632 790h158.001v-158h-158v-474h316v-158h-474v15c-24 -10 -50.333 -15 -79 -15c-39.333 0 -73.833 9.5 -103.5 28.5s-54.334 45.667 -74.001 80s-34.5 75.833 -44.5 124.5s-15 102.667 -15 162v632c0 59.333 5 113.333 15 162s24.833 90.167 44.5 124.5
s44.334 61 74.001 80s64.167 28.5 103.5 28.5c27.333 0 53.666 -5.33301 78.999 -16v16h474v-158h-316v-474zM395.001 1264c-20 0 -35.333 -5 -46 -15s-18.5 -24.833 -23.5 -44.5s-7.83301 -44.334 -8.5 -74.001s-1 -64.167 -1 -103.5v-632
c0 -39.333 0.333008 -73.833 1 -103.5s3.5 -54.334 8.5 -74.001s12.833 -34.5 23.5 -44.5s26 -15 46 -15c17.333 0 31.166 5 41.499 15s18.333 24.833 24 44.5s9.33398 44.334 11.001 74.001s2.5 64.167 2.5 103.5v632c0 39.333 -0.333008 73.833 -1 103.5
s-3.5 54.334 -8.5 74.001s-12.833 34.5 -23.5 44.5s-26 15 -46 15z" />
    <glyph glyph-name="oe" unicode="&#x153;" 
d="M158 711c0 59.333 4.99902 113.333 14.999 162s24.833 90.167 44.5 124.5s44.334 61 74.001 80s64.167 28.5 103.5 28.5s73.666 -9.66699 102.999 -29c20.667 -12.667 39 -29.334 55 -50.001c16 20.667 34 37.334 54 50.001c30 19.333 64.667 29 104 29
s73.833 -9.5 103.5 -28.5s54.334 -45.667 74.001 -80s34.5 -75.833 44.5 -124.5s15 -102.667 15 -162v-237h-316v-79v-22c0 -30.667 0.333008 -58 1 -82c0.666992 -29.333 3.5 -53.833 8.5 -73.5s12.833 -34.5 23.5 -44.5s26 -15 46 -15h237v-158h-237
c-39.333 -0 -74 9.33301 -104 28c-20 13.333 -38 30.333 -54 51c-16 -20.667 -34.333 -37.667 -55 -51c-29.333 -18.667 -63.666 -28 -102.999 -28s-73.833 9.5 -103.5 28.5s-54.334 45.667 -74.001 80s-34.5 75.833 -44.5 124.5s-15 102.667 -15 162v316zM315.999 395
c0 -39.333 0.333008 -73.8311 1 -103.498s3.5 -54.334 8.5 -74.001s12.833 -34.5 23.5 -44.5s26 -15 46 -15c19.333 0 34.333 5 45 15s18.5 24.833 23.5 44.5s7.83301 44.167 8.5 73.5c0.666992 24 1.33398 51.333 2.00098 82v22v316v22
c-0.666992 30.667 -1.33398 57.667 -2.00098 81c-0.666992 30 -3.5 54.833 -8.5 74.5s-12.833 34.5 -23.5 44.5s-25.667 15 -45 15c-20 0 -35.333 -5 -46 -15s-18.5 -24.833 -23.5 -44.5s-7.83301 -44.334 -8.5 -74.001s-1 -64.167 -1 -103.5v-316zM631.999 632.002
l158 -0.000976562v79c0 32.667 -0.5 63.334 -1.5 92.001s-4 53.834 -9 75.501s-12.833 38.667 -23.5 51s-25.667 18.5 -45 18.5c-20 0 -35.333 -6.16699 -46 -18.5s-18.5 -29.333 -23.5 -51s-7.83301 -46.834 -8.5 -75.501c-0.666992 -22 -1 -45.333 -1 -70v-22v-79z" />
    <glyph glyph-name="Racute" unicode="&#x154;" 
d="M643 642c208 -426 311.996 -639.999 311.996 -641.999h-181c-205.333 419.333 -308 630 -308 632h-150v-632h-158v1422h395c54.667 0 106 -10.333 154 -31s89.833 -48.834 125.5 -84.501s63.834 -77.5 84.501 -125.5s31 -99.333 31 -154c0 -46.667 -7.66699 -91 -23 -133
s-36.666 -80 -63.999 -114s-59.666 -63 -96.999 -87s-77.666 -41 -120.999 -51zM552.996 790.001c32.667 0 63.334 6.16309 92.001 18.4961s53.834 29.333 75.501 51s38.667 46.834 51 75.501s18.5 59.334 18.5 92.001s-6.16699 63.334 -18.5 92.001
s-29.333 53.834 -51 75.501s-46.834 38.667 -75.501 51s-59.334 18.5 -92.001 18.5h-237v-474h237zM394.996 1580l-79 79l395 237l79 -79z" />
    <glyph glyph-name="racute" unicode="&#x155;" 
d="M158 0l0.000976562 1106h158v-160c11.333 20.667 30 40.5 56 59.5s54.5 36 85.5 51s62.333 27 94 36s58.5 13.5 80.5 13.5c48 0 89.167 -8 123.5 -24s63.666 -38.167 87.999 -66.5s44.166 -61.833 59.499 -100.5s27.666 -80.334 36.999 -125.001h-164l-21.5 63
c-6.33301 19.333 -14.333 36 -24 50s-22 25 -37 33s-35.5 12 -61.5 12c-21.333 0 -44 -4.16699 -68 -12.5s-47.667 -20 -71 -35s-45.666 -32.667 -66.999 -53s-40.166 -42.166 -56.499 -65.499s-29.333 -47.833 -39 -73.5s-14.5 -51.5 -14.5 -77.5v-631h-158zM395.001 1264
l-79 79l395 237l79 -79z" />
    <glyph glyph-name="Rcommaaccent" unicode="&#x156;" 
d="M643 642c208 -426 311.996 -639.999 311.996 -641.999h-181c-205.333 419.333 -308 630 -308 632h-150v-632h-158v1422h395c54.667 0 106 -10.333 154 -31s89.833 -48.834 125.5 -84.501s63.834 -77.5 84.501 -125.5s31 -99.333 31 -154c0 -46.667 -7.66699 -91 -23 -133
s-36.666 -80 -63.999 -114s-59.666 -63 -96.999 -87s-77.666 -41 -120.999 -51zM552.996 790.001c32.667 0 63.334 6.16309 92.001 18.4961s53.834 29.333 75.501 51s38.667 46.834 51 75.501s18.5 59.334 18.5 92.001s-6.16699 63.334 -18.5 92.001
s-29.333 53.834 -51 75.501s-46.834 38.667 -75.501 51s-59.334 18.5 -92.001 18.5h-237v-474h237zM394.996 -631.003c-22 0 -40.665 7.66797 -55.998 23.001s-23 34 -23 56s7.66699 40.667 23 56s34 23 56 23c20 0 35.333 3.5 46 10.5s18.5 17.167 23.5 30.5
s7.83301 29.833 8.5 49.5s1 42.167 1 67.5c-22 0 -42.5 4.16699 -61.5 12.5s-35.667 19.666 -50 33.999s-25.666 31 -33.999 50s-12.5 39.5 -12.5 61.5s4.16699 42.5 12.5 61.5s19.666 35.667 33.999 50s31 25.666 50 33.999s39.5 12.5 61.5 12.5s42.5 -4.16699 61.5 -12.5
s35.667 -19.666 50 -33.999s25.666 -31 33.999 -50s12.5 -39.5 12.5 -61.5v-158c0 -39.333 -5 -78 -15 -116s-24.833 -71.833 -44.5 -101.5s-44.334 -53.5 -74.001 -71.5s-64.167 -27 -103.5 -27z" />
    <glyph glyph-name="rcommaaccent" unicode="&#x157;" 
d="M158 0l0.000976562 1106h158v-160c11.333 20.667 30 40.5 56 59.5s54.5 36 85.5 51s62.333 27 94 36s58.5 13.5 80.5 13.5c48 0 89.167 -8 123.5 -24s63.666 -38.167 87.999 -66.5s44.166 -61.833 59.499 -100.5s27.666 -80.334 36.999 -125.001h-164l-21.5 63
c-6.33301 19.333 -14.333 36 -24 50s-22 25 -37 33s-35.5 12 -61.5 12c-21.333 0 -44 -4.16699 -68 -12.5s-47.667 -20 -71 -35s-45.666 -32.667 -66.999 -53s-40.166 -42.166 -56.499 -65.499s-29.333 -47.833 -39 -73.5s-14.5 -51.5 -14.5 -77.5v-631h-158zM238.001 -631
c-22 0 -40.665 7.66797 -55.998 23.001s-23 34 -23 56s7.66699 40.667 23 56s34 23 56 23c20 0 35.333 3.5 46 10.5s18.5 17.167 23.5 30.5s7.83301 29.833 8.5 49.5s1 42.167 1 67.5c-22 0 -42.5 4.16699 -61.5 12.5s-35.667 19.666 -50 33.999s-25.666 31 -33.999 50
s-12.5 39.5 -12.5 61.5s4.16699 42.5 12.5 61.5s19.666 35.667 33.999 50s31 25.666 50 33.999s39.5 12.5 61.5 12.5s42.5 -4.16699 61.5 -12.5s35.667 -19.666 50 -33.999s25.666 -31 33.999 -50s12.5 -39.5 12.5 -61.5v-158c0 -39.333 -5 -78 -15 -116
s-24.833 -71.833 -44.5 -101.5s-44.334 -53.5 -74.001 -71.5s-64.167 -27 -103.5 -27z" />
    <glyph glyph-name="Rcaron" unicode="&#x158;" 
d="M643 642c208 -426 311.996 -639.999 311.996 -641.999h-181c-205.333 419.333 -308 630 -308 632h-150v-632h-158v1422h395c54.667 0 106 -10.333 154 -31s89.833 -48.834 125.5 -84.501s63.834 -77.5 84.501 -125.5s31 -99.333 31 -154c0 -46.667 -7.66699 -91 -23 -133
s-36.666 -80 -63.999 -114s-59.666 -63 -96.999 -87s-77.666 -41 -120.999 -51zM552.996 790.001c32.667 0 63.334 6.16309 92.001 18.4961s53.834 29.333 75.501 51s38.667 46.834 51 75.501s18.5 59.334 18.5 92.001s-6.16699 63.334 -18.5 92.001
s-29.333 53.834 -51 75.501s-46.834 38.667 -75.501 51s-59.334 18.5 -92.001 18.5h-237v-474h237zM313.996 1817l79 79l158 -158l158 158l79 -79l-237 -237z" />
    <glyph glyph-name="rcaron" unicode="&#x159;" 
d="M158 0l0.000976562 1106h158v-160c11.333 20.667 30 40.5 56 59.5s54.5 36 85.5 51s62.333 27 94 36s58.5 13.5 80.5 13.5c48 0 89.167 -8 123.5 -24s63.666 -38.167 87.999 -66.5s44.166 -61.833 59.499 -100.5s27.666 -80.334 36.999 -125.001h-164l-21.5 63
c-6.33301 19.333 -14.333 36 -24 50s-22 25 -37 33s-35.5 12 -61.5 12c-21.333 0 -44 -4.16699 -68 -12.5s-47.667 -20 -71 -35s-45.666 -32.667 -66.999 -53s-40.166 -42.166 -56.499 -65.499s-29.333 -47.833 -39 -73.5s-14.5 -51.5 -14.5 -77.5v-631h-158zM314.001 1501
l79 79l158 -158l158 158l79 -79l-237 -237z" />
    <glyph glyph-name="Sacute" unicode="&#x15a;" 
d="M316 1027c0 -32.667 6.16699 -63.334 18.5 -92.001s29.333 -53.834 51 -75.501s46.834 -38.667 75.501 -51s59.334 -18.5 92.001 -18.5c54.667 0 106 -10.333 154 -31s89.833 -48.834 125.5 -84.501s63.834 -77.5 84.501 -125.5s31 -99.333 31 -154
s-10.333 -106 -31 -154s-48.834 -89.833 -84.501 -125.5s-77.5 -63.834 -125.5 -84.501s-99.333 -31 -154 -31h-395v158h395c32.667 0 63.334 6.16699 92.001 18.5s53.834 29.333 75.501 51s38.667 46.834 51 75.501s18.5 59.334 18.5 92.001s-6.16699 63.334 -18.5 92.001
s-29.333 53.834 -51 75.501s-46.834 38.667 -75.501 51s-59.334 18.5 -92.001 18.5c-54.667 0 -106 10.333 -154 31s-89.833 48.834 -125.5 84.501s-63.834 77.5 -84.501 125.5s-31 99.333 -31 154s10.333 106 31 154s48.834 89.833 84.501 125.5s77.5 63.834 125.5 84.501
s99.333 31 154 31h395v-158h-395c-32.667 0 -63.334 -6.16699 -92.001 -18.5s-53.834 -29.333 -75.501 -51s-38.667 -46.834 -51 -75.501s-18.5 -59.334 -18.5 -92.001zM395 1580l-79 79l395 237l79 -79z" />
    <glyph glyph-name="sacute" unicode="&#x15b;" 
d="M948 1106v-158h-395c-39.333 0 -73.833 -4.5 -103.5 -13.5s-54.334 -21 -74.001 -36s-34.5 -31.833 -44.5 -50.5s-15 -38 -15 -58s5 -39.333 15 -58s24.833 -35.5 44.5 -50.5s44.334 -27 74.001 -36s64.167 -13.5 103.5 -13.5c26 0 54 -2.33301 84 -7s59.667 -12 89 -22
s57.333 -23.167 84 -39.5s50.167 -36.166 70.5 -59.499s36.666 -50.333 48.999 -81s18.5 -65.667 18.5 -105c0 -40 -9.5 -79 -28.5 -117s-45.667 -72 -80 -102s-75.833 -54 -124.5 -72s-102.667 -27 -162 -27h-395v158h395c39.333 0 73.833 4.5 103.5 13.5
s54.334 21 74.001 36s34.5 32.167 44.5 51.5s15 39 15 59c0 19.333 -5 38.333 -15 57s-24.833 35.334 -44.5 50.001s-44.334 26.5 -74.001 35.5s-64.167 13.5 -103.5 13.5c-26 0 -54 2.33301 -84 7s-59.667 12.167 -89 22.5s-57.333 23.666 -84 39.999
s-50.167 36.166 -70.5 59.499s-36.666 50.5 -48.999 81.5s-18.5 66.167 -18.5 105.5s9.5 78 28.5 116s45.667 71.833 80 101.5s75.833 53.5 124.5 71.5s102.667 27 162 27h395zM395 1264l-79 79l395 237l79 -79z" />
    <glyph glyph-name="Scircumflex" unicode="&#x15c;" 
d="M316 1027c0 -32.667 6.16699 -63.334 18.5 -92.001s29.333 -53.834 51 -75.501s46.834 -38.667 75.501 -51s59.334 -18.5 92.001 -18.5c54.667 0 106 -10.333 154 -31s89.833 -48.834 125.5 -84.501s63.834 -77.5 84.501 -125.5s31 -99.333 31 -154
s-10.333 -106 -31 -154s-48.834 -89.833 -84.501 -125.5s-77.5 -63.834 -125.5 -84.501s-99.333 -31 -154 -31h-395v158h395c32.667 0 63.334 6.16699 92.001 18.5s53.834 29.333 75.501 51s38.667 46.834 51 75.501s18.5 59.334 18.5 92.001s-6.16699 63.334 -18.5 92.001
s-29.333 53.834 -51 75.501s-46.834 38.667 -75.501 51s-59.334 18.5 -92.001 18.5c-54.667 0 -106 10.333 -154 31s-89.833 48.834 -125.5 84.501s-63.834 77.5 -84.501 125.5s-31 99.333 -31 154s10.333 106 31 154s48.834 89.833 84.501 125.5s77.5 63.834 125.5 84.501
s99.333 31 154 31h395v-158h-395c-32.667 0 -63.334 -6.16699 -92.001 -18.5s-53.834 -29.333 -75.501 -51s-38.667 -46.834 -51 -75.501s-18.5 -59.334 -18.5 -92.001zM551 1896l237 -237l-79 -79l-158 158l-158 -158l-79 79z" />
    <glyph glyph-name="scircumflex" unicode="&#x15d;" 
d="M948 1106v-158h-395c-39.333 0 -73.833 -4.5 -103.5 -13.5s-54.334 -21 -74.001 -36s-34.5 -31.833 -44.5 -50.5s-15 -38 -15 -58s5 -39.333 15 -58s24.833 -35.5 44.5 -50.5s44.334 -27 74.001 -36s64.167 -13.5 103.5 -13.5c26 0 54 -2.33301 84 -7s59.667 -12 89 -22
s57.333 -23.167 84 -39.5s50.167 -36.166 70.5 -59.499s36.666 -50.333 48.999 -81s18.5 -65.667 18.5 -105c0 -40 -9.5 -79 -28.5 -117s-45.667 -72 -80 -102s-75.833 -54 -124.5 -72s-102.667 -27 -162 -27h-395v158h395c39.333 0 73.833 4.5 103.5 13.5
s54.334 21 74.001 36s34.5 32.167 44.5 51.5s15 39 15 59c0 19.333 -5 38.333 -15 57s-24.833 35.334 -44.5 50.001s-44.334 26.5 -74.001 35.5s-64.167 13.5 -103.5 13.5c-26 0 -54 2.33301 -84 7s-59.667 12.167 -89 22.5s-57.333 23.666 -84 39.999
s-50.167 36.166 -70.5 59.499s-36.666 50.5 -48.999 81.5s-18.5 66.167 -18.5 105.5s9.5 78 28.5 116s45.667 71.833 80 101.5s75.833 53.5 124.5 71.5s102.667 27 162 27h395zM551 1580l237 -237l-79 -79l-158 158l-158 -158l-79 79z" />
    <glyph glyph-name="Scedilla" unicode="&#x15e;" 
d="M316 1027c0 -32.667 6.16602 -63.334 18.499 -92.001s29.333 -53.834 51 -75.501s46.834 -38.667 75.501 -51s59.334 -18.5 92.001 -18.5c54.667 0 106 -10.333 154 -31s89.833 -48.834 125.5 -84.501s63.834 -77.5 84.501 -125.5s31 -99.333 31 -154
s-10.333 -106 -31 -154s-48.834 -89.833 -84.501 -125.5s-77.5 -63.834 -125.5 -84.501c-24 -10.667 -49 -18.667 -75 -24l-5 -49c-3.33301 -42.667 -12.666 -82 -27.999 -118c-19.333 -48 -48.833 -86.833 -88.5 -116.5s-89.167 -48.667 -148.5 -57
s-128.333 -2.5 -207 17.5v158c59.333 -20 109.166 -30.333 149.499 -31s72.833 6.33301 97.5 21s42.334 36.5 53.001 65.5s16 63.167 16 102.5h-313v158h395c32.667 0 63.334 6.16699 92.001 18.5s53.834 29.333 75.501 51s38.667 46.834 51 75.501s18.5 59.334 18.5 92.001
s-6.16699 63.334 -18.5 92.001s-29.333 53.834 -51 75.501s-46.834 38.667 -75.501 51s-59.334 18.5 -92.001 18.5c-54.667 0 -106 10.333 -154 31s-89.833 48.834 -125.5 84.501s-63.834 77.5 -84.501 125.5s-31 99.333 -31 154s10.333 106 31 154
s48.834 89.833 84.501 125.5s77.5 63.834 125.5 84.501s99.333 31 154 31h395v-158h-395c-32.667 0 -63.334 -6.16699 -92.001 -18.5s-53.834 -29.333 -75.501 -51s-38.667 -46.834 -51 -75.501s-18.5 -59.334 -18.5 -92.001z" />
    <glyph glyph-name="scedilla" unicode="&#x15f;" 
d="M632 0c0 -59.333 -9.83301 -112.832 -29.5 -160.499s-49.5 -86.334 -89.5 -116.001s-89.833 -48.667 -149.5 -57s-129.167 -2.5 -208.5 17.5v158c60 -20 110.167 -30.333 150.5 -31s73 6.33301 98 21s42.833 36.5 53.5 65.5s16 63.167 16 102.5h-315v158h395
c39.333 0 73.833 4.5 103.5 13.5s54.334 21 74.001 36s34.5 32.167 44.5 51.5s15 39 15 59c0 19.333 -5 38.333 -15 57s-24.833 35.334 -44.5 50.001s-44.334 26.5 -74.001 35.5s-64.167 13.5 -103.5 13.5c-26 0 -54 2.33301 -84 7s-59.667 12.167 -89 22.5
s-57.333 23.666 -84 39.999s-50.167 36.166 -70.5 59.499s-36.666 50.5 -48.999 81.5s-18.5 66.167 -18.5 105.5s9.5 78 28.5 116s45.667 71.833 80 101.5s75.833 53.5 124.5 71.5s102.667 27 162 27h395v-158h-395c-39.333 0 -73.833 -4.5 -103.5 -13.5
s-54.334 -21 -74.001 -36s-34.5 -31.833 -44.5 -50.5s-15 -38 -15 -58s5 -39.333 15 -58s24.833 -35.5 44.5 -50.5s44.334 -27 74.001 -36s64.167 -13.5 103.5 -13.5c26 0 54 -2.33301 84 -7s59.667 -12 89 -22s57.333 -23.167 84 -39.5s50.167 -36.166 70.5 -59.499
s36.666 -50.333 48.999 -81s18.5 -65.667 18.5 -105c0 -40 -9.5 -79 -28.5 -117s-45.667 -72 -80 -102s-75.833 -54 -124.5 -72c-26 -10 -53.667 -17 -83 -21v-6z" />
    <glyph glyph-name="Scaron" unicode="&#x160;" 
d="M316 1027c0 -32.667 6.16699 -63.334 18.5 -92.001s29.333 -53.834 51 -75.501s46.834 -38.667 75.501 -51s59.334 -18.5 92.001 -18.5c54.667 0 106 -10.333 154 -31s89.833 -48.834 125.5 -84.501s63.834 -77.5 84.501 -125.5s31 -99.333 31 -154
s-10.333 -106 -31 -154s-48.834 -89.833 -84.501 -125.5s-77.5 -63.834 -125.5 -84.501s-99.333 -31 -154 -31h-395v158h395c32.667 0 63.334 6.16699 92.001 18.5s53.834 29.333 75.501 51s38.667 46.834 51 75.501s18.5 59.334 18.5 92.001s-6.16699 63.334 -18.5 92.001
s-29.333 53.834 -51 75.501s-46.834 38.667 -75.501 51s-59.334 18.5 -92.001 18.5c-54.667 0 -106 10.333 -154 31s-89.833 48.834 -125.5 84.501s-63.834 77.5 -84.501 125.5s-31 99.333 -31 154s10.333 106 31 154s48.834 89.833 84.501 125.5s77.5 63.834 125.5 84.501
s99.333 31 154 31h395v-158h-395c-32.667 0 -63.334 -6.16699 -92.001 -18.5s-53.834 -29.333 -75.501 -51s-38.667 -46.834 -51 -75.501s-18.5 -59.334 -18.5 -92.001zM316 1817l79 79l158 -158l158 158l79 -79l-237 -237z" />
    <glyph glyph-name="scaron" unicode="&#x161;" 
d="M948 1106v-158h-395c-39.333 0 -73.833 -4.5 -103.5 -13.5s-54.334 -21 -74.001 -36s-34.5 -31.833 -44.5 -50.5s-15 -38 -15 -58s5 -39.333 15 -58s24.833 -35.5 44.5 -50.5s44.334 -27 74.001 -36s64.167 -13.5 103.5 -13.5c26 0 54 -2.33301 84 -7s59.667 -12 89 -22
s57.333 -23.167 84 -39.5s50.167 -36.166 70.5 -59.499s36.666 -50.333 48.999 -81s18.5 -65.667 18.5 -105c0 -40 -9.5 -79 -28.5 -117s-45.667 -72 -80 -102s-75.833 -54 -124.5 -72s-102.667 -27 -162 -27h-395v158h395c39.333 0 73.833 4.5 103.5 13.5
s54.334 21 74.001 36s34.5 32.167 44.5 51.5s15 39 15 59c0 19.333 -5 38.333 -15 57s-24.833 35.334 -44.5 50.001s-44.334 26.5 -74.001 35.5s-64.167 13.5 -103.5 13.5c-26 0 -54 2.33301 -84 7s-59.667 12.167 -89 22.5s-57.333 23.666 -84 39.999
s-50.167 36.166 -70.5 59.499s-36.666 50.5 -48.999 81.5s-18.5 66.167 -18.5 105.5s9.5 78 28.5 116s45.667 71.833 80 101.5s75.833 53.5 124.5 71.5s102.667 27 162 27h395zM316 1501l79 79l158 -158l158 158l79 -79l-237 -237z" />
    <glyph glyph-name="Tcommaaccent" unicode="&#x162;" 
d="M474 1264h-316v158h790v-158h-316v-1264h-158v1264zM395 -631c-22 0 -40.665 7.66797 -55.998 23.001s-23 34 -23 56s7.66699 40.667 23 56s34 23 56 23c20 0 35.333 3.5 46 10.5s18.5 17.167 23.5 30.5s7.83301 29.833 8.5 49.5s1 42.167 1 67.5
c-22 0 -42.5 4.16699 -61.5 12.5s-35.667 19.666 -50 33.999s-25.666 31 -33.999 50s-12.5 39.5 -12.5 61.5s4.16699 42.5 12.5 61.5s19.666 35.667 33.999 50s31 25.666 50 33.999s39.5 12.5 61.5 12.5s42.5 -4.16699 61.5 -12.5s35.667 -19.666 50 -33.999
s25.666 -31 33.999 -50s12.5 -39.5 12.5 -61.5v-158c0 -39.333 -5 -78 -15 -116s-24.833 -71.833 -44.5 -101.5s-44.334 -53.5 -74.001 -71.5s-64.167 -27 -103.5 -27z" />
    <glyph glyph-name="tcommaaccent" unicode="&#x163;" 
d="M158 1106l157.999 0.000976562v316h158v-316h316v-158h-316v-553c0 -32.667 6.16699 -63.334 18.5 -92.001s29.333 -53.834 51 -75.501s46.834 -38.667 75.501 -51s59.334 -18.5 92.001 -18.5h237v-158h-237c-54.667 0 -106 10.333 -154 31s-89.833 48.834 -125.5 84.501
s-63.834 77.5 -84.501 125.5s-31 99.333 -31 154v553h-158v158zM551.507 -630.999c-22.1396 0 -40.9238 7.66797 -56.3545 23.001s-23.1465 34 -23.1465 56s7.71582 40.667 23.1465 56s34.2158 23 56.3555 23c20.126 0 35.5566 3.5 46.291 10.5s18.6172 17.167 23.6494 30.5
s7.88379 29.833 8.55469 49.5s1.00684 42.167 1.00684 67.5c-22.1396 0 -42.7695 4.16699 -61.8896 12.5s-35.8926 19.666 -50.3174 33.999s-25.8301 31 -34.2158 50s-12.5791 39.5 -12.5791 61.5s4.19336 42.5 12.5791 61.5s19.791 35.667 34.2158 50
s31.1973 25.666 50.3174 33.999s39.75 12.5 61.8896 12.5s42.7695 -4.16699 61.8896 -12.5s35.8926 -19.666 50.3174 -33.999s25.8301 -31 34.2158 -50s12.5791 -39.5 12.5791 -61.5v-158c0 -39.333 -5.03223 -78 -15.0957 -116s-24.9912 -71.833 -44.7832 -101.5
c-19.791 -29.667 -44.6143 -53.5 -74.4697 -71.5c-29.8545 -18 -64.5732 -27 -104.156 -27z" />
    <glyph glyph-name="Tcaron" unicode="&#x164;" 
d="M474 1264h-316v158h790v-158h-316v-1264h-158v1264zM314 1817l79 79l158 -158l158 158l79 -79l-237 -237z" />
    <glyph glyph-name="tcaron" unicode="&#x165;" 
d="M158 1106l157.999 0.000976562v316h158v-316h316v-158h-316v-553c0 -32.667 6.16699 -63.334 18.5 -92.001s29.333 -53.834 51 -75.501s46.834 -38.667 75.501 -51s59.334 -18.5 92.001 -18.5h237v-158h-237c-54.667 0 -106 10.333 -154 31s-89.833 48.834 -125.5 84.501
s-63.834 77.5 -84.501 125.5s-31 99.333 -31 154v553h-158v158zM710.999 1264c-22 0 -40.665 7.66797 -55.998 23.001s-23 34 -23 56s7.66699 40.667 23 56s34 23 56 23c20 0 35.333 3.5 46 10.5s18.5 17.167 23.5 30.5s7.83301 29.833 8.5 49.5s1 42.167 1 67.5
c-22 0 -42.5 4.16699 -61.5 12.5s-35.667 19.666 -50 33.999s-25.666 31 -33.999 50s-12.5 39.5 -12.5 61.5s4.16699 42.5 12.5 61.5s19.666 35.667 33.999 50s31 25.666 50 33.999s39.5 12.5 61.5 12.5s42.5 -4.16699 61.5 -12.5s35.667 -19.666 50 -33.999
s25.666 -31 33.999 -50s12.5 -39.5 12.5 -61.5v-158c0 -39.333 -5 -78 -15 -116s-24.833 -71.833 -44.5 -101.5s-44.334 -53.5 -74.001 -71.5s-64.167 -27 -103.5 -27z" />
    <glyph glyph-name="Tbar" unicode="&#x166;" 
d="M158 790v158h316v316h-316v158h790v-158h-316v-316h316v-158h-316v-790h-158v790h-316z" />
    <glyph glyph-name="tbar" unicode="&#x167;" 
d="M158 790l157.999 0.000976562v158h-158v158h158v316h158v-316h316v-158h-316v-158h316v-158h-316v-237c0 -32.667 6.16699 -63.334 18.5 -92.001s29.333 -53.834 51 -75.501s46.834 -38.667 75.501 -51s59.334 -18.5 92.001 -18.5h237v-158h-237
c-54.667 0 -106 10.333 -154 31s-89.833 48.834 -125.5 84.501s-63.834 77.5 -84.501 125.5s-31 99.333 -31 154v237h-158v158z" />
    <glyph glyph-name="Utilde" unicode="&#x168;" 
d="M158 1422h157.998v-1027c0 -32.667 6.16699 -63.334 18.5 -92.001s29.333 -53.834 51 -75.501s46.834 -38.667 75.501 -51s59.334 -18.5 92.001 -18.5s63.334 6.16699 92.001 18.5s53.834 29.333 75.501 51s38.667 46.834 51 75.501s18.5 59.334 18.5 92.001v1027h158
v-1027c0 -54.667 -10.333 -106 -31 -154s-48.834 -89.833 -84.501 -125.5s-77.5 -63.834 -125.5 -84.501s-99.333 -31 -154 -31s-106 10.333 -154 31s-89.833 48.834 -125.5 84.501s-63.834 77.5 -84.501 125.5s-31 99.333 -31 154v395v632zM945.998 1817
c-79.333 -158 -158.334 -237 -237.001 -237c-39.333 0 -70.833 3.83301 -94.5 11.5s-42.834 17.5 -57.501 29.5s-26.5 24.667 -35.5 38s-18.667 26 -29 38s-23 21.833 -38 29.5s-35.5 11.5 -61.5 11.5c-20 0 -39.333 -4.5 -58 -13.5s-35.5 -21 -50.5 -36
s-27 -31.833 -36 -50.5s-13.5 -38 -13.5 -58l-79 79c78.667 158 157.667 237 237 237c39.333 0 70.833 -3.83301 94.5 -11.5s42.834 -17.5 57.501 -29.5s26.5 -24.667 35.5 -38s18.667 -26 29 -38s22.833 -21.833 37.5 -29.5s35.334 -11.5 62.001 -11.5
c20 0 39.333 4.5 58 13.5s35.5 21 50.5 36s27 31.833 36 50.5s13.5 38 13.5 58z" />
    <glyph glyph-name="utilde" unicode="&#x169;" 
d="M316 395c0 -32.667 6.16406 -63.335 18.4971 -92.002s29.333 -53.834 51 -75.501s46.834 -38.667 75.501 -51s59.334 -18.5 92.001 -18.5c32 0 62.333 6.33301 91 19s53.834 29.834 75.501 51.501s38.834 46.834 51.501 75.501s19 59 19 91v711h158v-1106h-158v79
c-33.333 -24.667 -70 -44 -110 -58s-82.333 -21 -127 -21c-54.667 0 -106 10.333 -154 31s-89.833 48.834 -125.5 84.501s-63.834 77.5 -84.501 125.5s-31 99.333 -31 154v711h158v-711v0zM945.997 1501c-79.333 -158 -158.334 -237 -237.001 -237
c-39.333 0 -70.833 3.83301 -94.5 11.5s-42.834 17.5 -57.501 29.5s-26.5 24.667 -35.5 38s-18.667 26 -29 38s-23 21.833 -38 29.5s-35.5 11.5 -61.5 11.5c-20 0 -39.333 -4.5 -58 -13.5s-35.5 -21 -50.5 -36s-27 -31.833 -36 -50.5s-13.5 -38 -13.5 -58l-79 79
c78.667 158 157.667 237 237 237c39.333 0 70.833 -3.83301 94.5 -11.5s42.834 -17.5 57.501 -29.5s26.5 -24.667 35.5 -38s18.667 -26 29 -38s22.833 -21.833 37.5 -29.5s35.334 -11.5 62.001 -11.5c20 0 39.333 4.5 58 13.5s35.5 21 50.5 36s27 31.833 36 50.5
s13.5 38 13.5 58z" />
    <glyph glyph-name="Umacron" unicode="&#x16a;" 
d="M158 1422h157.998v-1027c0 -32.667 6.16699 -63.334 18.5 -92.001s29.333 -53.834 51 -75.501s46.834 -38.667 75.501 -51s59.334 -18.5 92.001 -18.5s63.334 6.16699 92.001 18.5s53.834 29.333 75.501 51s38.667 46.834 51 75.501s18.5 59.334 18.5 92.001v1027h158
v-1027c0 -54.667 -10.333 -106 -31 -154s-48.834 -89.833 -84.501 -125.5s-77.5 -63.834 -125.5 -84.501s-99.333 -31 -154 -31s-106 10.333 -154 31s-89.833 48.834 -125.5 84.501s-63.834 77.5 -84.501 125.5s-31 99.333 -31 154v395v632zM157.998 1579.98v163.998h790
v-163.998h-790z" />
    <glyph glyph-name="umacron" unicode="&#x16b;" 
d="M316 395c0 -32.667 6.16406 -63.335 18.4971 -92.002s29.333 -53.834 51 -75.501s46.834 -38.667 75.501 -51s59.334 -18.5 92.001 -18.5c32 0 62.333 6.33301 91 19s53.834 29.834 75.501 51.501s38.834 46.834 51.501 75.501s19 59 19 91v711h158v-1106h-158v79
c-33.333 -24.667 -70 -44 -110 -58s-82.333 -21 -127 -21c-54.667 0 -106 10.333 -154 31s-89.833 48.834 -125.5 84.501s-63.834 77.5 -84.501 125.5s-31 99.333 -31 154v711h158v-711v0zM157.997 1265v158h790v-158h-790z" />
    <glyph glyph-name="Ubreve" unicode="&#x16c;" 
d="M158 1422h157.998v-1027c0 -32.667 6.16699 -63.334 18.5 -92.001s29.333 -53.834 51 -75.501s46.834 -38.667 75.501 -51s59.334 -18.5 92.001 -18.5s63.334 6.16699 92.001 18.5s53.834 29.333 75.501 51s38.667 46.834 51 75.501s18.5 59.334 18.5 92.001v1027h158
v-1027c0 -54.667 -10.333 -106 -31 -154s-48.834 -89.833 -84.501 -125.5s-77.5 -63.834 -125.5 -84.501s-99.333 -31 -154 -31s-106 10.333 -154 31s-89.833 48.834 -125.5 84.501s-63.834 77.5 -84.501 125.5s-31 99.333 -31 154v395v632zM550.998 1580
c-39.333 0 -73.8311 9 -103.498 27s-54.334 41.833 -74.001 71.5s-34.5 63.5 -44.5 101.5s-15 76.667 -15 116h158c0 -20 0.333008 -39.333 1 -58s3.5 -35.5 8.5 -50.5s12.833 -27 23.5 -36s26 -13.5 46 -13.5s35.333 4.5 46 13.5s18.5 21 23.5 36s7.83301 31.833 8.5 50.5
s1 38 1 58h158c0 -39.333 -5 -78 -15 -116s-24.833 -71.833 -44.5 -101.5s-44.334 -53.5 -74.001 -71.5s-64.167 -27 -103.5 -27z" />
    <glyph glyph-name="ubreve" unicode="&#x16d;" 
d="M316 395c0 -32.667 6.16406 -63.335 18.4971 -92.002s29.333 -53.834 51 -75.501s46.834 -38.667 75.501 -51s59.334 -18.5 92.001 -18.5c32 0 62.333 6.33301 91 19s53.834 29.834 75.501 51.501s38.834 46.834 51.501 75.501s19 59 19 91v711h158v-1106h-158v79
c-33.333 -24.667 -70 -44 -110 -58s-82.333 -21 -127 -21c-54.667 0 -106 10.333 -154 31s-89.833 48.834 -125.5 84.501s-63.834 77.5 -84.501 125.5s-31 99.333 -31 154v711h158v-711v0zM550.997 1264c-39.333 0 -73.8311 9 -103.498 27s-54.334 41.833 -74.001 71.5
s-34.5 63.5 -44.5 101.5s-15 76.667 -15 116h158c0 -20 0.333008 -39.333 1 -58s3.5 -35.5 8.5 -50.5s12.833 -27 23.5 -36s26 -13.5 46 -13.5s35.333 4.5 46 13.5s18.5 21 23.5 36s7.83301 31.833 8.5 50.5s1 38 1 58h158c0 -39.333 -5 -78 -15 -116
s-24.833 -71.833 -44.5 -101.5s-44.334 -53.5 -74.001 -71.5s-64.167 -27 -103.5 -27z" />
    <glyph glyph-name="Uring" unicode="&#x16e;" 
d="M158 1422h157.998v-1027c0 -32.667 6.16699 -63.334 18.5 -92.001s29.333 -53.834 51 -75.501s46.834 -38.667 75.501 -51s59.334 -18.5 92.001 -18.5s63.334 6.16699 92.001 18.5s53.834 29.333 75.501 51s38.667 46.834 51 75.501s18.5 59.334 18.5 92.001v1027h158
v-1027c0 -54.667 -10.333 -106 -31 -154s-48.834 -89.833 -84.501 -125.5s-77.5 -63.834 -125.5 -84.501s-99.333 -31 -154 -31s-106 10.333 -154 31s-89.833 48.834 -125.5 84.501s-63.834 77.5 -84.501 125.5s-31 99.333 -31 154v395v632zM313.998 1817
c0 32.667 6.16699 63.334 18.5 92.001s29.333 53.834 51 75.501s46.834 38.667 75.501 51s59.334 18.5 92.001 18.5s63.334 -6.16699 92.001 -18.5s53.834 -29.333 75.501 -51s38.667 -46.834 51 -75.501s18.5 -59.334 18.5 -92.001s-6.16699 -63.334 -18.5 -92.001
s-29.333 -53.834 -51 -75.501s-46.834 -38.667 -75.501 -51s-59.334 -18.5 -92.001 -18.5s-63.334 6.16699 -92.001 18.5s-53.834 29.333 -75.501 51s-38.667 46.834 -51 75.501s-18.5 59.334 -18.5 92.001zM471.998 1817c0 -22 7.66699 -40.667 23 -56s34 -23 56 -23
s40.667 7.66699 56 23s23 34 23 56s-7.66699 40.667 -23 56s-34 23 -56 23s-40.667 -7.66699 -56 -23s-23 -34 -23 -56z" />
    <glyph glyph-name="uring" unicode="&#x16f;" 
d="M316 395c0 -32.667 6.16406 -63.335 18.4971 -92.002s29.333 -53.834 51 -75.501s46.834 -38.667 75.501 -51s59.334 -18.5 92.001 -18.5c32 0 62.333 6.33301 91 19s53.834 29.834 75.501 51.501s38.834 46.834 51.501 75.501s19 59 19 91v711h158v-1106h-158v79
c-33.333 -24.667 -70 -44 -110 -58s-82.333 -21 -127 -21c-54.667 0 -106 10.333 -154 31s-89.833 48.834 -125.5 84.501s-63.834 77.5 -84.501 125.5s-31 99.333 -31 154v711h158v-711v0zM313.997 1501c0 32.667 6.16699 63.334 18.5 92.001s29.333 53.834 51 75.501
s46.834 38.667 75.501 51s59.334 18.5 92.001 18.5s63.334 -6.16699 92.001 -18.5s53.834 -29.333 75.501 -51s38.667 -46.834 51 -75.501s18.5 -59.334 18.5 -92.001s-6.16699 -63.334 -18.5 -92.001s-29.333 -53.834 -51 -75.501s-46.834 -38.667 -75.501 -51
s-59.334 -18.5 -92.001 -18.5s-63.334 6.16699 -92.001 18.5s-53.834 29.333 -75.501 51s-38.667 46.834 -51 75.501s-18.5 59.334 -18.5 92.001zM471.997 1501c0 -22 7.66699 -40.667 23 -56s34 -23 56 -23s40.667 7.66699 56 23s23 34 23 56s-7.66699 40.667 -23 56
s-34 23 -56 23s-40.667 -7.66699 -56 -23s-23 -34 -23 -56z" />
    </font>
</defs>
</svg>
