<?xml version="1.0" standalone="no"?>
<!DOCTYPE svg PUBLIC "-//W3C//DTD SVG 1.1//EN" "http://www.w3.org/Graphics/SVG/1.1/DTD/svg11.dtd" >
<svg xmlns="http://www.w3.org/2000/svg">
<metadata></metadata>
<defs>
<font id="envy_code_rregular" horiz-adv-x="1100" >
<font-face units-per-em="2048" ascent="1638" descent="-410" />
<missing-glyph horiz-adv-x="500" />
<glyph unicode="&#xd;" />
<glyph unicode=" " />
<glyph unicode="!" d="M474 1422h158v-948h-158v948zM474 316h158v-316h-158v316z" />
<glyph unicode="&#x22;" d="M158 1422h158v-474h-158v474zM632 1422h158v-474h-158v474z" />
<glyph unicode="#" d="M474 790v-158h158v158h-158zM158 790v158h158v316h158v-316h158v316h158v-316h158v-158h-158v-158h158v-158h-158v-316h-158v316h-158v-316h-158v316h-158v158h158v158h-158z" />
<glyph unicode="$" d="M474 158h-316v158h316v316q-59 0 -116 27t-101.5 71.5t-71.5 101.5t-27 116t27 116t71.5 101.5t101.5 71.5t116 27v158h158v-158h316v-158h-316v-316q59 0 116 -27.5t101.5 -72t71.5 -101.5t27 -115q0 -60 -27 -117t-71.5 -101t-101.5 -71t-116 -27v-158h-158v158z M316 948q0 -30 13.5 -58t36 -50.5t50.5 -36t58 -13.5v316q-30 0 -58 -13.5t-50.5 -36t-36 -50.5t-13.5 -58zM790 474q0 30 -13.5 58t-36 50.5t-50.5 36t-58 13.5v-316q30 0 58 13.5t50.5 36t36 50.5t13.5 58z" />
<glyph unicode="%" d="M158 158h-158l790 1106h158zM474 395q0 49 18.5 92t51 75.5t75.5 51t92 18.5t92 -18.5t75.5 -51t51 -75.5t18.5 -92t-18.5 -92t-51 -75.5t-75.5 -51t-92 -18.5t-92 18.5t-75.5 51t-51 75.5t-18.5 92zM0 1027q0 49 18.5 92t51 75.5t75.5 51t92 18.5t92 -18.5t75.5 -51 t51 -75.5t18.5 -92t-18.5 -92t-51 -75.5t-75.5 -51t-92 -18.5t-92 18.5t-75.5 51t-51 75.5t-18.5 92zM158 1027q0 -33 23 -56t56 -23t56 23t23 56t-23 56t-56 23t-56 -23t-23 -56zM632 395q0 -33 23 -56t56 -23t56 23t23 56t-23 56t-56 23t-56 -23t-23 -56z" />
<glyph unicode="&#x26;" d="M695 107q-62 -51 -138 -79t-162 -28q-98 0 -172 37t-123.5 101.5t-74.5 151t-25 184.5q0 67 17.5 129t50 115.5t77.5 97t100 73.5q-38 45 -62.5 99.5t-24.5 117.5q0 65 25 122.5t68 100.5t100.5 68t122.5 25t123 -21.5t101.5 -60.5t68 -93.5t23.5 -119.5 q-1 -44 -19 -80.5t-47 -67t-64 -54.5t-69 -42.5t-64 -30.5t-48 -19l249 -448q9 23 19.5 55t19.5 65.5t15.5 67t7.5 59.5h158q-13 -89 -28 -152t-31 -108.5t-32 -77.5t-30 -57l121 -237h-182zM395 158q61 0 117 22.5t115 70.5l-288 508q-38 -18 -71 -47t-57.5 -66t-38.5 -81 t-14 -91q0 -65 12.5 -122.5t40.5 -100.5t73.5 -68t110.5 -25zM316 1106q0 -30 16.5 -64.5t57.5 -93.5q33 4 76 23.5t81.5 46t64.5 57t25 56.5q-1 33 -14 57.5t-35.5 41.5t-51.5 25.5t-62 8.5t-61.5 -12.5t-50 -34t-34 -50t-12.5 -61.5z" />
<glyph unicode="'" d="M474 1422h158v-474h-158v474z" />
<glyph unicode="(" d="M790 -316q-59 0 -117.5 43t-111 115t-97.5 167.5t-78 201t-51.5 214t-18.5 207.5t18.5 207.5t51.5 214t78 201t97.5 167.5t111 115t117.5 43v-158q-40 -20 -78.5 -64t-73.5 -105.5t-65 -136.5t-52 -156t-34.5 -165t-12.5 -163t12.5 -163t34.5 -165t52 -156t65 -136.5 t73.5 -105.5t78.5 -64v-158z" />
<glyph unicode=")" d="M316 -158q40 20 78.5 64t73.5 105.5t65 136.5t52 156t34.5 165t12.5 163t-12.5 163t-34.5 165t-52 156t-65 136.5t-73.5 105.5t-78.5 64v158q59 0 117.5 -43t111 -115t97.5 -167.5t78 -201t51.5 -214t18.5 -207.5t-18.5 -207.5t-51.5 -214t-78 -201t-97.5 -167.5 t-111 -115t-117.5 -43v158z" />
<glyph unicode="*" d="M237 1185l237 -79v316h158v-316l237 79l79 -158l-237 -79l158 -237l-158 -79l-158 237l-158 -237l-158 79l158 237l-237 79z" />
<glyph unicode="+" d="M474 632h-316v158h316v316h158v-316h316v-158h-316v-316h-158v316z" />
<glyph unicode="," d="M395 -316q-33 0 -56 23t-23 56t23 56t56 23q30 0 46 10.5t23.5 30.5t8.5 49.5t1 67.5q-33 0 -61.5 12.5t-50 34t-34 50t-12.5 61.5t12.5 61.5t34 50t50 34t61.5 12.5t61.5 -12.5t50 -34t34 -50t12.5 -61.5v-158q0 -59 -15 -116t-44.5 -101.5t-74 -71.5t-103.5 -27z" />
<glyph unicode="-" d="M158 790h790v-158h-790v158z" />
<glyph unicode="." d="M316 158q0 33 12.5 61.5t34 50t50 34t61.5 12.5t61.5 -12.5t50 -34t34 -50t12.5 -61.5t-12.5 -61.5t-34 -50t-50 -34t-61.5 -12.5t-61.5 12.5t-50 34t-34 50t-12.5 61.5z" />
<glyph unicode="/" d="M790 1422h158l-632 -1580h-158z" />
<glyph unicode="0" d="M158 1027q0 82 31 154t84.5 125.5t125.5 84.5t154 31t154 -31t125.5 -84.5t84.5 -125.5t31 -154v-632q0 -82 -31 -154t-84.5 -125.5t-125.5 -84.5t-154 -31t-154 31t-125.5 84.5t-84.5 125.5t-31 154v632zM553 158q49 0 92 18.5t75.5 51t51 75.5t18.5 92v415l-474 -375 v-40q0 -49 18.5 -92t51 -75.5t75.5 -51t92 -18.5zM553 1264q-49 0 -92 -18.5t-75.5 -51t-51 -75.5t-18.5 -92v-390l474 375v15q0 49 -18.5 92t-51 75.5t-75.5 51t-92 18.5z" />
<glyph unicode="1" d="M316 1264h39q25 0 46.5 9t37.5 25t25.5 37.5t9.5 46.5v40h158v-1264h158v-158h-474v158h158v948h-158v158z" />
<glyph unicode="2" d="M632 1422q65 0 122.5 -25t100.5 -68t68 -100.5t25 -122.5v-158q0 -44 -27 -87t-71.5 -84t-101.5 -80.5t-116 -78.5t-116 -77t-101.5 -75.5t-71.5 -75t-27 -74.5v-158h632v-158h-790v356q0 44 27 88t71.5 87t101.5 84.5t116 81.5t116 78t101.5 73.5t71.5 68t27 62.5v127 q0 33 -12.5 61.5t-34 50t-50 34t-61.5 12.5h-158q-33 0 -61.5 -12.5t-50 -34t-34 -50t-12.5 -61.5h-158q0 65 25 122.5t68 100.5t100.5 68t122.5 25h158z" />
<glyph unicode="3" d="M158 158h395q49 0 92 18.5t75.5 51t51 75.5t18.5 92t-18.5 92t-51 75.5t-75.5 51t-92 18.5h-237v158h237q49 0 92 18.5t75.5 51t51 75.5t18.5 92t-18.5 92t-51 75.5t-75.5 51t-92 18.5h-395v158h395q82 0 154 -31t125.5 -84.5t84.5 -125.5t31 -154q0 -98 -43.5 -180 t-115.5 -136q72 -54 115.5 -136.5t43.5 -179.5q0 -82 -31 -154t-84.5 -125.5t-125.5 -84.5t-154 -31h-395v158z" />
<glyph unicode="4" d="M632 1422h158v-948h158v-158h-158v-316h-158v316h-474v158zM632 474v632l-316 -632h316z" />
<glyph unicode="5" d="M158 158h395q49 0 92 18.5t75.5 51t51 75.5t18.5 92t-18.5 92t-51 75.5t-75.5 51t-92 18.5h-395v790h790v-158h-632v-474h237q82 0 154 -31t125.5 -84.5t84.5 -125.5t31 -154t-31 -154t-84.5 -125.5t-125.5 -84.5t-154 -31h-395v158z" />
<glyph unicode="6" d="M553 0q-82 0 -154 31t-125.5 84.5t-84.5 125.5t-31 154q0 91 4.5 170t20 153.5t46.5 149.5t83.5 158.5t130.5 180t189 215.5h158q-208 -263 -319.5 -408t-136.5 -291q48 32 103 49.5t116 17.5q82 0 154 -31t125.5 -84.5t84.5 -125.5t31 -154t-31 -154t-84.5 -125.5 t-125.5 -84.5t-154 -31zM316 395q0 -49 18.5 -92t51 -75.5t75.5 -51t92 -18.5t92 18.5t75.5 51t51 75.5t18.5 92t-18.5 92t-51 75.5t-75.5 51t-92 18.5t-92 -18.5t-75.5 -51t-51 -75.5t-18.5 -92z" />
<glyph unicode="7" d="M948 1264l-474 -1264h-157l469 1264h-628v158h790v-158z" />
<glyph unicode="8" d="M158 395q0 48 12.5 93.5t35 86t53.5 75t67 61.5q-36 27 -67 61.5t-53.5 74.5t-35 85.5t-12.5 94.5q0 82 31 154t84.5 125.5t125.5 84.5t154 31t154 -31t125.5 -84.5t84.5 -125.5t31 -154q0 -49 -13 -94.5t-35.5 -85.5t-53.5 -74.5t-67 -61.5q36 -27 67 -61.5t53.5 -75 t35.5 -86t13 -93.5q0 -82 -31 -154t-84.5 -125.5t-125.5 -84.5t-154 -31t-154 31t-125.5 84.5t-84.5 125.5t-31 154zM316 395q0 -49 18.5 -92t51 -75.5t75.5 -51t92 -18.5t92 18.5t75.5 51t51 75.5t18.5 92t-15 92t-44.5 75.5t-74 51t-103.5 18.5t-103.5 -18.5t-74 -51 t-44.5 -75.5t-15 -92zM316 1027q0 -49 15 -92t44.5 -75.5t74 -51t103.5 -18.5t103.5 18.5t74 51t44.5 75.5t15 92t-18.5 92t-51 75.5t-75.5 51t-92 18.5t-92 -18.5t-75.5 -51t-51 -75.5t-18.5 -92z" />
<glyph unicode="9" d="M553 1422q82 0 154 -31t125.5 -84.5t84.5 -125.5t31 -154q0 -91 -4.5 -170t-20 -153.5t-46.5 -149.5t-83.5 -158.5t-130.5 -180t-189 -215.5h-158q208 263 319.5 408t136.5 291q-48 -32 -103 -49.5t-116 -17.5q-82 0 -154 31t-125.5 84.5t-84.5 125.5t-31 154t31 154 t84.5 125.5t125.5 84.5t154 31zM790 1027q0 49 -18.5 92t-51 75.5t-75.5 51t-92 18.5t-92 -18.5t-75.5 -51t-51 -75.5t-18.5 -92t18.5 -92t51 -75.5t75.5 -51t92 -18.5t92 18.5t75.5 51t51 75.5t18.5 92z" />
<glyph unicode=":" d="M316 790q0 33 12.5 61.5t34 50t50 34t61.5 12.5t61.5 -12.5t50 -34t34 -50t12.5 -61.5t-12.5 -61.5t-34 -50t-50 -34t-61.5 -12.5t-61.5 12.5t-50 34t-34 50t-12.5 61.5zM316 158q0 33 12.5 61.5t34 50t50 34t61.5 12.5t61.5 -12.5t50 -34t34 -50t12.5 -61.5t-12.5 -61.5 t-34 -50t-50 -34t-61.5 -12.5t-61.5 12.5t-50 34t-34 50t-12.5 61.5z" />
<glyph unicode=";" d="M316 790q0 33 12.5 61.5t34 50t50 34t61.5 12.5t61.5 -12.5t50 -34t34 -50t12.5 -61.5t-12.5 -61.5t-34 -50t-50 -34t-61.5 -12.5t-61.5 12.5t-50 34t-34 50t-12.5 61.5zM395 -316q-33 0 -56 23t-23 56t23 56t56 23q30 0 46 10.5t23.5 30.5t8.5 49.5t1 67.5 q-33 0 -61.5 12.5t-50 34t-34 50t-12.5 61.5t12.5 61.5t34 50t50 34t61.5 12.5t61.5 -12.5t50 -34t34 -50t12.5 -61.5v-158q0 -59 -15 -116t-44.5 -101.5t-74 -71.5t-103.5 -27z" />
<glyph unicode="&#x3c;" d="M768 1264v-114l-439 -439l439 -439v-114h-114l-496 496v114l496 496h114z" />
<glyph unicode="=" d="M0 474v158h948v-158h-948zM0 790v158h948v-158h-948z" />
<glyph unicode="&#x3e;" d="M272 1264l496 -496v-114l-496 -496h-114v114l439 439l-439 439v114h114z" />
<glyph unicode="?" d="M158 1027q0 82 28.5 154t80 125.5t124.5 84.5t162 31t162 -28.5t124.5 -80t80 -124.5t28.5 -162q0 -79 -23.5 -128.5t-58.5 -84.5t-76 -63t-76 -63t-58.5 -85t-23.5 -129h-158q0 99 23.5 162t58.5 104.5t76 69.5t76 56.5t58.5 65t23.5 95.5q0 237 -237 237t-237 -237v-79 h-158v79zM474 316h158v-316h-158v316z" />
<glyph unicode="@" d="M474 -316q-89 0 -174 40.5t-152 107.5t-107.5 152t-40.5 174v790q0 89 40.5 174t107.5 152t152 107.5t174 40.5t174 -40.5t152 -107.5t107.5 -152t40.5 -174v-790h-316q-84 0 -143.5 35t-98 91.5t-56.5 127t-18 141.5q0 76 19.5 147t58.5 126t98.5 88.5t139.5 33.5h158 q0 59 -27 116t-71.5 101.5t-101.5 71.5t-116 27t-116 -27t-101.5 -71.5t-71.5 -101.5t-27 -116v-790q0 -59 27 -116t71.5 -101.5t101.5 -71.5t116 -27h316v-158h-316zM790 316v474h-158q-30 0 -58 -15t-50.5 -44.5t-36 -74t-13.5 -103.5t13.5 -103.5t36 -74t50.5 -44.5 t58 -15h158z" />
<glyph unicode="A" d="M158 1027q0 82 31 154t84.5 125.5t125.5 84.5t154 31t154 -31t125.5 -84.5t84.5 -125.5t31 -154v-1027h-158v632h-474v-632h-158v1027zM790 790v237q0 49 -18.5 92t-51 75.5t-75.5 51t-92 18.5t-92 -18.5t-75.5 -51t-51 -75.5t-18.5 -92v-237h474z" />
<glyph unicode="B" d="M158 1422h395q82 0 154 -31t125.5 -84.5t84.5 -125.5t31 -154q0 -98 -43.5 -180t-115.5 -136q72 -54 115.5 -136.5t43.5 -179.5q0 -82 -31 -154t-84.5 -125.5t-125.5 -84.5t-154 -31h-395v1422zM553 790q49 0 92 18.5t75.5 51t51 75.5t18.5 92t-18.5 92t-51 75.5 t-75.5 51t-92 18.5h-237v-474h237zM553 158q49 0 92 18.5t75.5 51t51 75.5t18.5 92t-18.5 92t-51 75.5t-75.5 51t-92 18.5h-237v-474h237z" />
<glyph unicode="C" d="M556 1264q-51 0 -95 -18.5t-76 -51t-50.5 -75.5t-18.5 -92v-632q0 -49 18.5 -92t50.5 -75.5t76 -51t95 -18.5q42 0 79 11.5t67.5 32.5t53 50t34.5 64h158q-14 -68 -49 -126t-86.5 -100t-116.5 -66t-140 -24q-84 0 -156.5 31t-126.5 84.5t-84.5 125.5t-30.5 154v632 q0 82 30.5 154t84.5 125.5t126.5 84.5t156.5 31q75 0 140.5 -24t116.5 -66.5t86 -100.5t49 -125h-158q-12 34 -34.5 63t-52.5 50t-67.5 33t-79.5 12z" />
<glyph unicode="D" d="M158 1422h395q82 0 154 -31t125.5 -84.5t84.5 -125.5t31 -154v-632q0 -82 -31 -154t-84.5 -125.5t-125.5 -84.5t-154 -31h-395v1422zM553 158q49 0 92 18.5t75.5 51t51 75.5t18.5 92v632q0 49 -18.5 92t-51 75.5t-75.5 51t-92 18.5h-237v-1106h237z" />
<glyph unicode="E" d="M158 1422h790v-158h-632v-474h474v-158h-474v-474h632v-158h-790v1422z" />
<glyph unicode="F" d="M158 1422h790v-158h-632v-474h474v-158h-474v-632h-158v1422z" />
<glyph unicode="G" d="M790 158q0 -30 -24.5 -58t-60.5 -50.5t-77.5 -36t-74.5 -13.5q-82 0 -154 31t-125.5 84.5t-84.5 125.5t-31 154v632q0 82 31 154t84.5 125.5t125.5 84.5t154 31q72 0 136 -24t115 -66.5t86.5 -100.5t49.5 -125h-164q-12 34 -34 63t-51 50t-64 33t-74 12q-49 0 -92 -18.5 t-75.5 -51t-51 -75.5t-18.5 -92v-632q0 -49 18.5 -92t51 -75.5t75.5 -51t92 -18.5q48 0 91 26t75.5 63t51.5 77.5t19 70.5v237h-158v158h316v-790h-158v158z" />
<glyph unicode="H" d="M158 1422h158v-632h474v632h158v-1422h-158v632h-474v-632h-158v1422z" />
<glyph unicode="I" d="M158 158h316v1106h-316v158h790v-158h-316v-1106h316v-158h-790v158z" />
<glyph unicode="J" d="M158 474h158v-79q0 -49 18.5 -92t51 -75.5t75.5 -51t92 -18.5t92 18.5t75.5 51t51 75.5t18.5 92v1027h158v-1027q0 -82 -31 -154t-84.5 -125.5t-125.5 -84.5t-154 -31t-154 31t-125.5 84.5t-84.5 125.5t-31 154v79z" />
<glyph unicode="K" d="M316 761l454 661h178l-474 -711l474 -711h-180l-452 666v-666h-158v1422h158v-661z" />
<glyph unicode="L" d="M158 1422h158v-1264h632v-158h-790v1422z" />
<glyph unicode="M" d="M790 1106l-237 -414l-237 414v-1106h-158v1422h158l237 -474l237 474h158v-1422h-158v1106z" />
<glyph unicode="N" d="M158 0v1422h158l474 -1052v1052h158v-1422h-158l-474 1052v-1052h-158z" />
<glyph unicode="O" d="M158 1027q0 82 31 154t84.5 125.5t125.5 84.5t154 31t154 -31t125.5 -84.5t84.5 -125.5t31 -154v-632q0 -82 -31 -154t-84.5 -125.5t-125.5 -84.5t-154 -31t-154 31t-125.5 84.5t-84.5 125.5t-31 154v632zM553 1264q-49 0 -92 -18.5t-75.5 -51t-51 -75.5t-18.5 -92v-632 q0 -49 18.5 -92t51 -75.5t75.5 -51t92 -18.5t92 18.5t75.5 51t51 75.5t18.5 92v632q0 49 -18.5 92t-51 75.5t-75.5 51t-92 18.5z" />
<glyph unicode="P" d="M316 0h-158v1422h395q82 0 154 -31t125.5 -84.5t84.5 -125.5t31 -154t-31 -154t-84.5 -125.5t-125.5 -84.5t-154 -31h-237v-632zM553 790q49 0 92 18.5t75.5 51t51 75.5t18.5 92t-18.5 92t-51 75.5t-75.5 51t-92 18.5h-237v-474h237z" />
<glyph unicode="Q" d="M692 25q-67 -25 -139 -25q-82 0 -154 31t-125.5 84.5t-84.5 125.5t-31 154v632q0 82 31 154t84.5 125.5t125.5 84.5t154 31t154 -31t125.5 -84.5t84.5 -125.5t31 -154v-632q0 -86 -34 -161t-92 -129l132 -263h-170zM553 1264q-49 0 -92 -18.5t-75.5 -51t-51 -75.5 t-18.5 -92v-632q0 -49 18.5 -92t51 -75.5t75.5 -51t92 -18.5q37 0 68 10l-153 306h170l108 -217q20 29 32 64t12 74v632q0 49 -18.5 92t-51 75.5t-75.5 51t-92 18.5z" />
<glyph unicode="R" d="M643 642q312 -639 312 -642h-181q-308 629 -308 632h-150v-632h-158v1422h395q82 0 154 -31t125.5 -84.5t84.5 -125.5t31 -154q0 -70 -23 -133t-64 -114t-97 -87t-121 -51zM553 790q49 0 92 18.5t75.5 51t51 75.5t18.5 92t-18.5 92t-51 75.5t-75.5 51t-92 18.5h-237v-474 h237z" />
<glyph unicode="S" d="M316 1027q0 -49 18.5 -92t51 -75.5t75.5 -51t92 -18.5q82 0 154 -31t125.5 -84.5t84.5 -125.5t31 -154t-31 -154t-84.5 -125.5t-125.5 -84.5t-154 -31h-395v158h395q49 0 92 18.5t75.5 51t51 75.5t18.5 92t-18.5 92t-51 75.5t-75.5 51t-92 18.5q-82 0 -154 31 t-125.5 84.5t-84.5 125.5t-31 154t31 154t84.5 125.5t125.5 84.5t154 31h395v-158h-395q-49 0 -92 -18.5t-75.5 -51t-51 -75.5t-18.5 -92z" />
<glyph unicode="T" d="M474 1264h-316v158h790v-158h-316v-1264h-158v1264z" />
<glyph unicode="U" d="M158 1422h158v-1027q0 -49 18.5 -92t51 -75.5t75.5 -51t92 -18.5t92 18.5t75.5 51t51 75.5t18.5 92v1027h158v-1027q0 -82 -31 -154t-84.5 -125.5t-125.5 -84.5t-154 -31t-154 31t-125.5 84.5t-84.5 125.5t-31 154v395v632z" />
<glyph unicode="V" d="M316 1422l237 -1040l237 1040h158l-316 -1422h-158l-316 1422h158z" />
<glyph unicode="W" d="M790 1422h158v-1422h-158l-237 474l-237 -474h-158v1422h158v-1106l237 414l237 -414v1106z" />
<glyph unicode="X" d="M553 904l230 518h166l-310 -711l310 -711h-166l-230 517l-230 -517h-165l309 711l-310 711h166z" />
<glyph unicode="Y" d="M474 472l-316 950h158l237 -711l237 711h158l-316 -948v-474h-158v472z" />
<glyph unicode="Z" d="M158 158l609 1106h-609v158h790v-158l-597 -1106h597v-158h-790v158z" />
<glyph unicode="[" d="M316 1580h474v-158h-316v-1580h316v-158h-474v1896z" />
<glyph unicode="\" d="M948 -158h-158l-632 1580h158z" />
<glyph unicode="]" d="M790 -316h-474v158h316v1580h-316v158h474v-1896z" />
<glyph unicode="^" d="M458 1422h190l307 -632h-181l-221 442l-221 -442h-182z" />
<glyph unicode="_" d="M0 -316h1106v-158h-1106v158z" />
<glyph unicode="`" d="M158 1422v158l474 -237v-158z" />
<glyph unicode="a" d="M474 0q-65 0 -122.5 25t-100.5 68t-68 100.5t-25 122.5t25 122.5t68 100.5t100.5 68t122.5 25h316v79q0 49 -18.5 92t-51 75.5t-75.5 51t-92 18.5h-237v158h237q82 0 154 -31t125.5 -84.5t84.5 -125.5t31 -154v-711h-474zM474 474q-33 0 -61.5 -12.5t-50 -34t-34 -50 t-12.5 -61.5t12.5 -61.5t34 -50t50 -34t61.5 -12.5h316v316h-316z" />
<glyph unicode="b" d="M158 1422h158v-395q38 28 83 48q72 31 154 31t154 -31t125.5 -84.5t84.5 -125.5t31 -154v-316q0 -82 -31 -154t-84.5 -125.5t-125.5 -84.5t-154 -31t-154 31q-45 19 -83 47v-78h-158v1422zM316 720v-325q0 -49 18.5 -92t51 -75.5t75.5 -51t92 -18.5t92 18.5t75.5 51 t51 75.5t18.5 92v316q0 49 -18.5 92t-51 75.5t-75.5 51t-92 18.5t-92 -18.5t-75.5 -51t-51.5 -75.5z" />
<glyph unicode="c" d="M316 395q0 -49 21 -92t55.5 -75.5t80 -51t94.5 -18.5q39 0 74 11.5t64 32.5t51 50t34 64h158q-14 -68 -49.5 -125.5t-86.5 -100t-115 -66.5t-136 -24q-82 0 -155 31t-128 84.5t-87.5 125.5t-32.5 154v316q0 82 32.5 154t87.5 125.5t128 84.5t155 31q72 0 136 -24 t115 -66.5t86.5 -100.5t49.5 -125h-158q-12 34 -34 63t-51 50t-64 33t-74 12q-49 0 -94.5 -18.5t-80 -51t-55.5 -75.5t-21 -92v-316z" />
<glyph unicode="d" d="M948 0h-158v78q-38 -28 -83 -47q-72 -31 -154 -31t-154 31t-125.5 84.5t-84.5 125.5t-31 154v316q0 82 31 154t84.5 125.5t125.5 84.5t154 31t154 -31q45 -20 83 -48v395h158v-1422zM772 803q-19 43 -51.5 75.5t-75.5 51t-92 18.5t-92 -18.5t-75.5 -51t-51 -75.5 t-18.5 -92v-316q0 -49 18.5 -92t51 -75.5t75.5 -51t92 -18.5t92 18.5t75.5 51t51 75.5t18.5 92v325z" />
<glyph unicode="e" d="M316 395q0 -49 18.5 -92t51 -75.5t75.5 -51t92 -18.5h395v-158h-395q-82 0 -154 31t-125.5 84.5t-84.5 125.5t-31 154v316q0 82 31 154t84.5 125.5t125.5 84.5t154 31t154 -31t125.5 -84.5t84.5 -125.5t31 -154v-237h-632v-79zM316 632h474v79q0 49 -18.5 92t-51 75.5 t-75.5 51t-92 18.5t-92 -18.5t-75.5 -51t-51 -75.5t-18.5 -92v-79z" />
<glyph unicode="f" d="M158 948h158v79q0 82 31 154t84.5 125.5t125.5 84.5t154 31h237v-158h-237q-49 0 -92 -18.5t-75.5 -51t-51 -75.5t-18.5 -92v-79h316v-158h-316v-790h-158v790h-158v158z" />
<glyph unicode="g" d="M316 -316h237q49 0 92 18.5t75.5 51t51 75.5t18.5 92v158q-50 -37 -110 -58t-127 -21q-82 0 -154 31t-125.5 84.5t-84.5 125.5t-31 154v316q0 82 31 154t84.5 125.5t125.5 84.5t154 31q67 0 127 -21t110 -59v80h158v-1185q0 -82 -31 -154t-84.5 -125.5t-125.5 -84.5 t-154 -31h-237v158zM316 395q0 -49 18.5 -92t51 -75.5t75.5 -51t92 -18.5q48 0 90 17.5t74 48.5t51.5 72t21.5 89v336q-2 47 -21.5 88.5t-51.5 72t-74 48.5t-90 18q-49 0 -92 -18.5t-75.5 -51t-51 -75.5t-18.5 -92v-316z" />
<glyph unicode="h" d="M790 711q0 49 -18.5 92t-51 75.5t-75.5 51t-92 18.5q-48 0 -90.5 -18t-74.5 -48.5t-51 -72t-21 -88.5v-721h-158v1422h158v-396q50 38 110 59t127 21q82 0 154 -31t125.5 -84.5t84.5 -125.5t31 -154v-711h-158v711z" />
<glyph unicode="i" d="M474 948h-158v158h316v-1106h-158v948zM474 1422h158v-158h-158v158z" />
<glyph unicode="j" d="M158 -158h237q237 0 237 237v869h-158v158h316v-1106q0 -59 -27 -116t-71.5 -101.5t-101.5 -71.5t-116 -27h-316v158zM632 1422h158v-158h-158v158z" />
<glyph unicode="k" d="M316 632h38l400 474h194l-453 -553l453 -553h-194l-400 474h-38v-474h-158v1422h158v-790z" />
<glyph unicode="l" d="M474 1264h-158v158h316v-1422h-158v1264z" />
<glyph unicode="m" d="M474 869h-1q1 79 -78 79t-78 -79h-1v-869h-158v1106h197q36 0 68 -12t57.5 -33t43.5 -50t25 -63h7q7 34 24.5 63t43 50t58 33t68.5 12q41 0 77 -15.5t63 -42t42.5 -62.5t15.5 -77v-909h-158v869q0 79 -79 79t-79 -79v-869h-158v869z" />
<glyph unicode="n" d="M553 948q-48 0 -90.5 -18t-74.5 -48.5t-51 -72t-21 -88.5v-721h-158v1106h158v-80q50 38 110 59t127 21q82 0 154 -31t125.5 -84.5t84.5 -125.5t31 -154v-711h-158v711q0 49 -18.5 92t-51 75.5t-75.5 51t-92 18.5z" />
<glyph unicode="o" d="M158 711q0 82 31 154t84.5 125.5t125.5 84.5t154 31t154 -31t125.5 -84.5t84.5 -125.5t31 -154v-316q0 -82 -31 -154t-84.5 -125.5t-125.5 -84.5t-154 -31t-154 31t-125.5 84.5t-84.5 125.5t-31 154v316zM316 395q0 -49 18.5 -92t51 -75.5t75.5 -51t92 -18.5t92 18.5 t75.5 51t51 75.5t18.5 92v316q0 49 -18.5 92t-51 75.5t-75.5 51t-92 18.5t-92 -18.5t-75.5 -51t-51 -75.5t-18.5 -92v-316z" />
<glyph unicode="p" d="M158 1106h158v-80q50 38 110 59t127 21q82 0 154 -31t125.5 -84.5t84.5 -125.5t31 -154v-316q0 -82 -31 -154t-84.5 -125.5t-125.5 -84.5t-154 -31q-67 0 -127 21t-110 58v-553h-158v1580zM553 948q-48 0 -91 -15t-75.5 -44.5t-51.5 -74t-19 -103.5v-316q0 -59 19 -103.5 t51.5 -74t75.5 -44.5t91 -15q49 0 92 18.5t75.5 51t51 75.5t18.5 92v316q0 49 -18.5 92t-51 75.5t-75.5 51t-92 18.5z" />
<glyph unicode="q" d="M790 79q-50 -37 -110 -58t-127 -21q-82 0 -154 31t-125.5 84.5t-84.5 125.5t-31 154v316q0 82 31 154t84.5 125.5t125.5 84.5t154 31q67 0 127 -21t110 -59v80h158v-1580h-158v553zM316 395q0 -49 18.5 -92t51 -75.5t75.5 -51t92 -18.5q48 0 91 15t75.5 44.5t51.5 74 t19 103.5v316q0 59 -19 103.5t-51.5 74t-75.5 44.5t-91 15q-49 0 -92 -18.5t-75.5 -51t-51 -75.5t-18.5 -92v-316z" />
<glyph unicode="r" d="M158 0v1106h158v-160q17 31 56 59.5t85.5 51t94 36t80.5 13.5q72 0 123.5 -24t88 -66.5t59.5 -100.5t37 -125h-164q-12 34 -21.5 63t-24 50t-37 33t-61.5 12q-32 0 -68 -12.5t-71 -35t-67 -53t-56.5 -65.5t-39 -73.5t-14.5 -77.5v-631h-158z" />
<glyph unicode="s" d="M948 1106v-158h-395q-59 0 -103.5 -13.5t-74 -36t-44.5 -50.5t-15 -58t15 -58t44.5 -50.5t74 -36t103.5 -13.5q39 0 84 -7t89 -22t84 -39.5t70.5 -59.5t49 -81t18.5 -105q0 -60 -28.5 -117t-80 -102t-124.5 -72t-162 -27h-395v158h395q59 0 103.5 13.5t74 36t44.5 51.5 t15 59q0 29 -15 57t-44.5 50t-74 35.5t-103.5 13.5q-39 0 -84 7t-89 22.5t-84 40t-70.5 59.5t-49 81.5t-18.5 105.5t28.5 116t80 101.5t124.5 71.5t162 27h395z" />
<glyph unicode="t" d="M158 1106h158v316h158v-316h316v-158h-316v-553q0 -49 18.5 -92t51 -75.5t75.5 -51t92 -18.5h237v-158h-237q-82 0 -154 31t-125.5 84.5t-84.5 125.5t-31 154v553h-158v158z" />
<glyph unicode="u" d="M316 395q0 -49 18.5 -92t51 -75.5t75.5 -51t92 -18.5q48 0 91 19t75.5 51.5t51.5 75.5t19 91v711h158v-1106h-158v79q-50 -37 -110 -58t-127 -21q-82 0 -154 31t-125.5 84.5t-84.5 125.5t-31 154v711h158v-711v0z" />
<glyph unicode="v" d="M948 1106l-316 -1106h-158l-316 1106h158l237 -869l237 869h158z" />
<glyph unicode="w" d="M632 237q0 -79 79 -79t79 79v869h158v-909q0 -41 -15.5 -77t-42.5 -62.5t-63 -42t-77 -15.5q-36 0 -68.5 12t-58 33t-43 50t-24.5 63h-7q-7 -34 -25 -63t-43.5 -50t-57.5 -33t-68 -12q-41 0 -77 15.5t-62.5 42t-42 62.5t-15.5 77v909h158v-869h1q-1 -79 78 -79t78 79h1 v395h158v-395z" />
<glyph unicode="x" d="M553 706l224 400h173l-311 -553l311 -553h-173l-224 398l-225 -398h-173l311 553l-311 553h173z" />
<glyph unicode="y" d="M316 395q0 -49 18.5 -92t51 -75.5t75.5 -51t92 -18.5q48 0 90 17.5t74 48.5t51.5 72t21.5 99v711h158v-1185q0 -82 -31 -154t-84.5 -125.5t-125.5 -84.5t-154 -31h-237v158h237q49 0 92 18.5t75.5 51t51 75.5t18.5 92v158q-50 -37 -110 -58t-127 -21q-82 0 -154 31 t-125.5 84.5t-84.5 125.5t-31 154v711h158v-711v0z" />
<glyph unicode="z" d="M760 948h-602v158h790v-158l-603 -790h603v-158h-790v158z" />
<glyph unicode="{" d="M516 732q0 -21 7.5 -39t20.5 -31.5t31 -21.5t38 -8q17 0 18 -33.5t-10 -87.5t-29.5 -122.5t-40 -138.5t-42.5 -136t-35 -114q0 -30 26 -58t63 -50.5t77.5 -36t70.5 -13.5h237v-158h-237q-89 0 -162 27t-124.5 71.5t-80 101.5t-28.5 116q20 118 44.5 211t46.5 163.5 t37.5 119.5t17.5 79.5t-13 44.5t-54 14h-237v158h237q39 0 49 13t1 39.5t-30 66t-43 92t-39 118.5t-17 145q0 59 28.5 116t80 101.5t124.5 71.5t162 27h237v-158h-237q-59 0 -103.5 -13.5t-74 -36t-44.5 -50.5t-15 -58q5 -23 19 -63.5t31 -88.5t34.5 -98l31.5 -90t21 -66 t2 -26q-20 0 -38 -8t-31 -21.5t-20.5 -31.5t-7.5 -39z" />
<glyph unicode="|" d="M474 1580h158v-1896h-158v1896z" />
<glyph unicode="}" d="M590 732q0 21 -7.5 39t-20.5 31.5t-31 21.5t-38 8q-5 0 2 26t21 66l31.5 90t34.5 98t31 88.5t19 63.5q0 30 -15 58t-44.5 50.5t-74 36t-103.5 13.5h-237v158h237q89 0 162 -27t124.5 -71.5t80 -101.5t28.5 -116q0 -79 -17 -145t-39 -118.5t-43 -92t-30 -66t0.5 -39.5 t49.5 -13h237v-158h-237q-40 0 -54.5 -14t-12.5 -44.5t17.5 -79.5t37.5 -119.5t46.5 -163.5t44.5 -211q0 -59 -28.5 -116t-80 -101.5t-124.5 -71.5t-162 -27h-237v158h237q30 0 70.5 13.5t77.5 36t63 50.5t26 58q-15 48 -35.5 114t-42 136t-40 138.5t-29.5 122.5t-10 87.5 t18 33.5q20 0 38 8t31 21.5t20.5 31.5t7.5 39z" />
<glyph unicode="~" d="M948 948q0 -40 -1 -90t-7.5 -103t-21 -103.5t-41 -90t-67 -63.5t-99.5 -24q-40 0 -73 20.5t-61.5 52.5t-53 70.5t-46.5 73.5t-42 62t-40 37q-18 9 -30.5 -5.5t-21.5 -43t-14 -66.5t-8 -76t-4 -71.5t-1 -53.5h-158q0 39 1 89.5t7.5 103.5t21 103.5t41 90t67 63.5t99.5 24 q39 0 72.5 -21t62 -53.5t53 -71.5t46.5 -74t42 -61.5t40 -34.5q18 -8 31 7.5t22 44t14 66t7.5 75t3.5 70.5t1 53h158z" />
<glyph unicode="&#xa0;" />
<glyph unicode="&#xa1;" d="M474 948h158v-948h-158v948zM474 1422h158v-316h-158v316z" />
<glyph unicode="&#xa2;" d="M356 52q-44 25 -80.5 61.5t-62.5 80.5t-40.5 95t-14.5 106v316q0 82 31 154t84.5 125.5t125.5 84.5t154 31q9 0 18.5 -0.5t18.5 -1.5l36 160h170l-47 -211q72 -42 123 -110t68 -153h-164q-10 28 -26.5 52t-37.5 44l-162 -728h3q39 0 74 11.5t64 32.5t51 50t34 64h164 q-14 -68 -49.5 -125.5t-86.5 -100t-115 -66.5t-136 -24q-10 0 -19 0.5t-19 1.5l-35 -160h-170zM316 395q0 -54 21 -98.5t56 -77.5l162 729h-2q-49 0 -92 -18.5t-75.5 -51t-51 -75.5t-18.5 -92v-316z" />
<glyph unicode="&#xa3;" d="M632 1422q59 0 116 -27t101.5 -71.5t71.5 -101.5t27 -116h-158q0 30 -13.5 58t-36 50.5t-51 36t-57.5 13.5q-30 0 -58 -13.5t-50.5 -36t-36 -50.5t-13.5 -58v-316h316v-158h-316v-474h474v-158h-790v158h158v474h-158v158h158v316q0 59 27 116t71.5 101.5t101.5 71.5 t116 27z" />
<glyph unicode="&#xa4;" d="M1027 1066l-141 -141q29 -48 45.5 -100.5t16.5 -112.5t-16.5 -113.5t-45.5 -99.5l141 -141l-120 -120l-141 141q-48 -30 -100.5 -46t-112.5 -16t-113.5 16t-99.5 46l-141 -141l-120 120l141 141q-30 46 -46 99.5t-16 113.5t16 112.5t46 100.5l-141 141l120 120l141 -141 q46 29 99.5 45.5t113.5 16.5t112.5 -16.5t100.5 -45.5l141 141zM316 712q0 -49 18.5 -92t51 -75.5t75.5 -51t92 -18.5t92 18.5t75.5 51t51 75.5t18.5 92t-18.5 92t-51 75.5t-75.5 51t-92 18.5t-92 -18.5t-75.5 -51t-51 -75.5t-18.5 -92z" />
<glyph unicode="&#xa5;" d="M158 316h318v158h-318v158h289l-289 790h176l219 -625l218 625h177l-290 -790h290v-158h-318v-158h318v-158h-318v-158h-154v158h-318v158z" />
<glyph unicode="&#xa6;" d="M474 474h158v-790h-158v790zM474 1580h158v-790h-158v790z" />
<glyph unicode="&#xa7;" d="M948 1422v-158h-395q-59 0 -103.5 -13.5t-74 -36t-44.5 -50.5t-15 -58t15 -58t44.5 -50.5t74 -36t103.5 -13.5q39 0 84 -7t89 -22t84 -39.5t70.5 -59.5t49 -81t18.5 -105q0 -66 -33.5 -127.5t-95.5 -107.5q28 -19 51.5 -43t40.5 -53.5t27 -65t10 -77.5q0 -60 -28.5 -117 t-80 -102t-124.5 -72t-162 -27h-395v158h395q59 0 103.5 13.5t74 36t44.5 51.5t15 59q0 29 -15 57t-44.5 50t-74 35.5t-103.5 13.5q-39 0 -84 7t-89 22.5t-84 40t-70.5 59.5t-49 81.5t-18.5 105.5q0 65 33.5 126.5t94.5 106.5q-56 38 -92 96.5t-36 144.5q0 59 28.5 116 t80 101.5t124.5 71.5t162 27h395zM316 632q0 -30 15 -58t44.5 -50.5t74 -36t103.5 -13.5t103.5 13.5t74 36t44.5 51.5t15 59q0 29 -15 57t-44.5 50t-74 35.5t-103.5 13.5h-12q-56 -2 -98.5 -16t-70.5 -36t-42 -49.5t-14 -56.5z" />
<glyph unicode="&#xa8;" d="M316 1343q0 33 23 56t56 23t56 -23t23 -56t-23 -56t-56 -23t-56 23t-23 56zM632 1343q0 33 23 56t56 23t56 -23t23 -56t-23 -56t-56 -23t-56 23t-23 56z" />
<glyph unicode="&#xa9;" d="M0 711q0 147 40.5 276.5t113.5 226t174.5 152.5t224.5 56t224.5 -56t174.5 -152.5t113.5 -226t40.5 -276.5t-40.5 -276.5t-113.5 -226t-174.5 -152.5t-224.5 -56t-224.5 56t-174.5 152.5t-113.5 226t-40.5 276.5zM158 711q0 -114 28 -215t79.5 -176t124.5 -118.5 t163 -43.5t163 43.5t124.5 118.5t79.5 176t28 215t-28 215t-79.5 176t-124.5 118.5t-163 43.5t-163 -43.5t-124.5 -118.5t-79.5 -176t-28 -215zM474 711q0 -49 3 -92t11.5 -75.5t24 -51t40.5 -18.5q19 0 30.5 11.5t19 32.5t12 50t10.5 64h159q-9 -68 -27.5 -125.5t-47 -100 t-67.5 -66.5t-89 -24q-57 0 -101.5 31t-74.5 84.5t-45.5 125.5t-15.5 154t15.5 154t45.5 125.5t74.5 84.5t101.5 31q50 0 89 -24t67.5 -66.5t47 -100.5t27.5 -125h-159q-6 34 -10.5 63t-12 50t-19 33t-30.5 12q-25 0 -40.5 -18.5t-24 -51t-11.5 -75.5t-3 -92z" />
<glyph unicode="&#xaa;" d="M237 1422h158q237 0 237 -237v-553h-237q-237 0 -237 237t237 237h79v79q0 15 -6.5 29t-17 25t-25 18t-30.5 7h-158v158zM395 948q-38 0 -58.5 -22.5t-20.5 -57.5t23 -56.5t56 -21.5h79v158h-79z" />
<glyph unicode="&#xab;" d="M474 948l79 -79l-237 -316l237 -316l-80 -79l-315 395zM869 948l79 -79l-237 -316l237 -316l-80 -79l-315 395z" />
<glyph unicode="&#xac;" d="M790 790h-632v158h790v-474h-158v316z" />
<glyph unicode="&#xad;" d="M158 790h790v-158h-790v158z" />
<glyph unicode="&#xae;" d="M0 711q0 147 40.5 276.5t113.5 226t174.5 152.5t224.5 56t224.5 -56t174.5 -152.5t113.5 -226t40.5 -276.5t-40.5 -276.5t-113.5 -226t-174.5 -152.5t-224.5 -56t-224.5 56t-174.5 152.5t-113.5 226t-40.5 276.5zM158 711q0 -114 28 -215t79.5 -176t124.5 -118.5 t163 -43.5t163 43.5t124.5 118.5t79.5 176t28 215t-28 215t-79.5 176t-124.5 118.5t-163 43.5t-163 -43.5t-124.5 -118.5t-79.5 -176t-28 -215zM474 632v-316h-158v790h237q49 0 92 -18.5t75.5 -51t51 -75.5t18.5 -92q0 -46 -13.5 -88.5t-36 -75.5t-50.5 -53t-58 -20 l158 -316h-158zM553 790q33 0 56 23t23 56t-23 56t-56 23h-79v-158h79z" />
<glyph unicode="&#xaf;" d="M158 1422v158h790v-158h-790z" />
<glyph unicode="&#xb0;" d="M158 1106q0 65 25 122.5t68 100.5t100.5 68t122.5 25t122.5 -25t100.5 -68t68 -100.5t25 -122.5t-25 -122.5t-68 -100.5t-100.5 -68t-122.5 -25t-122.5 25t-100.5 68t-68 100.5t-25 122.5zM316 1106q0 -33 12.5 -61.5t34 -50t50 -34t61.5 -12.5t61.5 12.5t50 34t34 50 t12.5 61.5t-12.5 61.5t-34 50t-50 34t-61.5 12.5t-61.5 -12.5t-50 -34t-34 -50t-12.5 -61.5z" />
<glyph unicode="&#xb1;" d="M158 474h316v316h-316v158h316v316h158v-316h316v-158h-316v-316h316v-158h-790v158z" />
<glyph unicode="&#xb2;" d="M158 948q0 20 23.5 51.5t58.5 68.5t76 77.5t76 77.5t58.5 68.5t23.5 51.5q0 30 -13.5 46t-36 23.5t-51 8.5t-57.5 1h-158v158h236q238 0 238 -237q0 -30 -27 -73.5t-71.5 -95t-101.5 -109.5t-116 -117h316v-158h-474v158z" />
<glyph unicode="&#xb3;" d="M158 948h158q30 0 58 2t50.5 10t36 24t13.5 43t-13.5 43t-36 24t-50.5 10t-58 2v158q30 0 58.5 2t51 10t36 24t13.5 43t-13.5 43t-36 24t-51 10t-58.5 2h-158v158h237q237 0 237 -237q0 -59 -18.5 -93.5t-61.5 -64.5q43 -30 61.5 -64.5t18.5 -93.5q0 -237 -237 -237h-237 v158z" />
<glyph unicode="&#xb4;" d="M395 1264l-79 79l395 237l79 -79z" />
<glyph unicode="&#xb5;" d="M790 1106h158v-711q0 -82 -31 -154t-84.5 -125.5t-125.5 -84.5t-154 -31q-67 0 -127 21t-110 59v-396h-158v1422h158v-711q0 -59 19 -103.5t51.5 -74t75.5 -44.5t91 -15q49 0 92 18.5t75.5 51t51 75.5t18.5 92v711z" />
<glyph unicode="&#xb6;" d="M474 632q-59 0 -116 27t-101.5 71.5t-71.5 101.5t-27 116v158q0 59 27 116t71.5 101.5t101.5 71.5t116 27h474v-1737h-158v1579h-158v-1580h-158v948z" />
<glyph unicode="&#xb7;" d="M316 790q0 33 12.5 61.5t34 50t50 34t61.5 12.5t61.5 -12.5t50 -34t34 -50t12.5 -61.5t-12.5 -61.5t-34 -50t-50 -34t-61.5 -12.5t-61.5 12.5t-50 34t-34 50t-12.5 61.5z" />
<glyph unicode="&#xb8;" d="M632 0q0 -89 -29.5 -160.5t-89 -116t-148.5 -57t-207 17.5v158q89 -30 149.5 -31t97.5 21t53 65.5t16 102.5h158z" />
<glyph unicode="&#xb9;" d="M316 948v474l-158 -158v158l158 158h158v-632h158v-158h-474v158h158z" />
<glyph unicode="&#xba;" d="M158 1027q0 82 31 154t84.5 125.5t125.5 84.5t154 31t154 -31t125.5 -84.5t84.5 -125.5t31 -154t-31 -154t-84.5 -125.5t-125.5 -84.5t-154 -31t-154 31t-125.5 84.5t-84.5 125.5t-31 154zM316 1027q0 -49 18.5 -92t51 -75.5t75.5 -51t92 -18.5t92 18.5t75.5 51t51 75.5 t18.5 92t-18.5 92t-51 75.5t-75.5 51t-92 18.5t-92 -18.5t-75.5 -51t-51 -75.5t-18.5 -92zM158 473h790v-157h-790v157z" />
<glyph unicode="&#xbb;" d="M632.029 948l-78.9951 -79l236.985 -316l-236.985 -316l79.9951 -79l314.98 395zM237.053 948l-78.9951 -79l236.985 -316l-236.985 -316l79.9951 -79l314.981 395z" />
<glyph unicode="&#xbc;" d="M159 948v474l-158 -158v158l158 158h158v-632h158v-158h-474v158h158zM790 1580h158l-632 -1580h-158zM632 475l316 316h158v-790h-158v158h-316v316zM948 317v237l-158 -158v-79h158z" />
<glyph unicode="&#xbd;" d="M159 948v474l-158 -158v158l158 158h158v-632h158v-158h-474v158h158zM632.337 159q0 20 23.9961 51.5t59.7354 68.5t77.6055 77.5q41.8652 40.5 77.6045 77.5t59.7354 68.5t23.9961 51.5q0 30 -13.7852 46t-36.7598 23.5q-22.9756 7.5 -52.0771 8.5t-58.7139 1h-161.337 v158h240.983q243.026 0 243.026 -237q0 -30 -27.5703 -73.5t-73.0098 -95t-103.644 -109.5t-118.449 -117h322.673v-158h-484.01v158zM790 1580h158l-632 -1580h-158z" />
<glyph unicode="&#xbe;" d="M790 1580h158l-632 -1580h-158zM632 475l316 316h158v-790h-158v158h-316v316zM948 317v237l-158 -158v-79h158zM1 948h158q30 0 58 2t50.5 10t36 24t13.5 43t-13.5 43t-36 24t-50.5 10t-58 2v158q30 0 58.5 2t51 10t36 24t13.5 43t-13.5 43t-36 24t-51 10t-58.5 2h-158 v158h237q237 0 237 -237q0 -59 -18.5 -93.5t-61.5 -64.5q43 -30 61.5 -64.5t18.5 -93.5q0 -237 -237 -237h-237v158z" />
<glyph unicode="&#xbf;" d="M948 395q0 -82 -28.5 -154t-80 -125.5t-124.5 -84.5t-162 -31t-162 28.5t-124.5 80t-80 124.5t-28.5 162q0 79 23.5 134t58.5 97t76 75t76 68.5t58.5 77.5t23.5 101h158q0 -79 -23.5 -134t-58.5 -97t-76 -75t-76 -68.5t-58.5 -77.5t-23.5 -101q0 -237 237 -237t237 237 v79h158v-79zM632 1106h-158v316h158v-316z" />
<glyph unicode="&#xc0;" d="M158 1027q0 82 31 154t84.5 125.5t125.5 84.5t154 31t154 -31t125.5 -84.5t84.5 -125.5t31 -154v-1027h-158v632h-474v-632h-158v1027zM790 790v237q0 49 -18.5 92t-51 75.5t-75.5 51t-92 18.5t-92 -18.5t-75.5 -51t-51 -75.5t-18.5 -92v-237h474zM316 1738v158l474 -237 v-158z" />
<glyph unicode="&#xc1;" d="M158 1027q0 82 31 154t84.5 125.5t125.5 84.5t154 31t154 -31t125.5 -84.5t84.5 -125.5t31 -154v-1027h-158v632h-474v-632h-158v1027zM790 790v237q0 49 -18.5 92t-51 75.5t-75.5 51t-92 18.5t-92 -18.5t-75.5 -51t-51 -75.5t-18.5 -92v-237h474zM395 1580l-79 79 l395 237l79 -79z" />
<glyph unicode="&#xc2;" d="M158 1027q0 82 31 154t84.5 125.5t125.5 84.5t154 31t154 -31t125.5 -84.5t84.5 -125.5t31 -154v-1027h-158v632h-474v-632h-158v1027zM790 790v237q0 49 -18.5 92t-51 75.5t-75.5 51t-92 18.5t-92 -18.5t-75.5 -51t-51 -75.5t-18.5 -92v-237h474zM551 1896l237 -237 l-79 -79l-158 158l-158 -158l-79 79z" />
<glyph unicode="&#xc3;" d="M158 1027q0 82 31 154t84.5 125.5t125.5 84.5t154 31t154 -31t125.5 -84.5t84.5 -125.5t31 -154v-1027h-158v632h-474v-632h-158v1027zM790 790v237q0 49 -18.5 92t-51 75.5t-75.5 51t-92 18.5t-92 -18.5t-75.5 -51t-51 -75.5t-18.5 -92v-237h474zM948 1817 q-119 -237 -237 -237q-59 0 -94.5 11.5t-57.5 29.5t-35.5 38t-29 38t-38 29.5t-61.5 11.5q-30 0 -58 -13.5t-50.5 -36t-36 -50.5t-13.5 -58l-79 79q118 237 237 237q59 0 94.5 -11.5t57.5 -29.5t35.5 -38t29 -38t37.5 -29.5t62 -11.5q30 0 58 13.5t50.5 36t36 50.5t13.5 58z " />
<glyph unicode="&#xc4;" d="M158 1027q0 82 31 154t84.5 125.5t125.5 84.5t154 31t154 -31t125.5 -84.5t84.5 -125.5t31 -154v-1027h-158v632h-474v-632h-158v1027zM790 790v237q0 49 -18.5 92t-51 75.5t-75.5 51t-92 18.5t-92 -18.5t-75.5 -51t-51 -75.5t-18.5 -92v-237h474zM316 1659q0 33 23 56 t56 23t56 -23t23 -56t-23 -56t-56 -23t-56 23t-23 56zM632 1659q0 33 23 56t56 23t56 -23t23 -56t-23 -56t-56 -23t-56 23t-23 56z" />
<glyph unicode="&#xc5;" d="M158 1027q0 82 30.5 153.5t84.5 125.5q38 38 82 63q-24 40 -31.5 82.5t-1.5 83.5t25.5 78t49.5 64.5t69.5 44t86.5 16.5q46 0 86 -17t70.5 -45.5t50.5 -66t26.5 -78.5t-2 -83t-34.5 -79q44 -25 82 -63q54 -54 85 -125.5t31 -153.5v-1027h-158v632h-474v-632h-158v1027z M790 790v237q0 49 -18.5 92t-51 75.5t-75.5 51t-92 18.5t-92 -18.5t-75.5 -51t-51 -75.5t-18.5 -92v-237h474zM632 1501q0 33 -23 56t-56 23t-56 -23t-23 -56q0 -31 21 -54t51 -25h7q33 0 56 23t23 56z" />
<glyph unicode="&#xc6;" d="M158 1106q0 59 27 116t71.5 101.5t101.5 71.5t116 27h474v-158h-316v-474h158v-158h-158v-474h316v-158h-474v632h-158v-632h-158v1106zM474 790v474q-45 0 -75 -18.5t-48.5 -44t-26.5 -52.5t-8 -43v-316h158z" />
<glyph unicode="&#xc7;" d="M560.701 1264q-51.5234 0 -95.9746 -18.5t-76.7793 -51t-51.0176 -75.5t-18.6895 -92v-632q0 -49 18.6895 -92t51.0176 -75.5t76.7793 -51t95.9746 -18.5q42.4307 0 79.8105 11.5q37.3789 11.5 68.1914 32.5t53.5439 50q22.7305 29 34.8535 64h159.62 q-14.1436 -68 -49.502 -126q-35.3594 -58 -87.3877 -100t-117.694 -66t-141.436 -24q-84.8613 0 -158.104 31t-127.798 84.5q-54.5527 53.5 -85.3662 125.5q-30.8125 72 -30.8125 154v632q0 82 30.8125 154q30.8135 72 85.3662 125.5q54.5547 53.5 127.798 84.5t158.104 31 q75.7695 0 141.94 -24q66.1719 -24 117.694 -66.5q51.5234 -42.5 86.8828 -100.5q35.3584 -58 49.502 -125h-159.62q-12.123 34 -34.8535 63q-22.7314 29 -53.0381 50q-30.3086 21 -68.1924 33q-37.8848 12 -80.3154 12zM630 0q0 -89 -29.5 -160.5t-89 -116t-148.5 -57 t-207 17.5v158q89 -30 149.5 -31t97.5 21t53 65.5t16 102.5h158z" />
<glyph unicode="&#xc8;" d="M158 1422h790v-158h-632v-474h474v-158h-474v-474h632v-158h-790v1422zM316 1738v158l474 -237v-158z" />
<glyph unicode="&#xc9;" d="M158 1422h790v-158h-632v-474h474v-158h-474v-474h632v-158h-790v1422zM395 1580l-79 79l395 237l79 -79z" />
<glyph unicode="&#xca;" d="M158 1422h790v-158h-632v-474h474v-158h-474v-474h632v-158h-790v1422zM553 1896l237 -237l-79 -79l-158 158l-158 -158l-79 79z" />
<glyph unicode="&#xcb;" d="M158 1422h790v-158h-632v-474h474v-158h-474v-474h632v-158h-790v1422zM316 1659q0 33 23 56t56 23t56 -23t23 -56t-23 -56t-56 -23t-56 23t-23 56zM632 1659q0 33 23 56t56 23t56 -23t23 -56t-23 -56t-56 -23t-56 23t-23 56z" />
<glyph unicode="&#xcc;" d="M158 158h316v1106h-316v158h790v-158h-316v-1106h316v-158h-790v158zM316 1738v158l474 -237v-158z" />
<glyph unicode="&#xcd;" d="M158 158h316v1106h-316v158h790v-158h-316v-1106h316v-158h-790v158zM395 1580l-79 79l395 237l79 -79z" />
<glyph unicode="&#xce;" d="M158 158h316v1106h-316v158h790v-158h-316v-1106h316v-158h-790v158zM553 1896l237 -237l-79 -79l-158 158l-158 -158l-79 79z" />
<glyph unicode="&#xcf;" d="M158 158h316v1106h-316v158h790v-158h-316v-1106h316v-158h-790v158zM316 1659q0 33 23 56t56 23t56 -23t23 -56t-23 -56t-56 -23t-56 23t-23 56zM632 1659q0 33 23 56t56 23t56 -23t23 -56t-23 -56t-56 -23t-56 23t-23 56z" />
<glyph unicode="&#xd0;" d="M0 790h158v632h395q82 0 154 -31t125.5 -84.5t84.5 -125.5t31 -154v-632q0 -82 -31 -154t-84.5 -125.5t-125.5 -84.5t-154 -31h-395v632h-158v158zM553 158q49 0 92 18.5t75.5 51t51 75.5t18.5 92v632q0 49 -18.5 92t-51 75.5t-75.5 51t-92 18.5h-237v-474h158v-158h-158 v-474h237z" />
<glyph unicode="&#xd1;" d="M158 0v1422h158l474 -1052v1052h158v-1422h-158l-474 1052v-1052h-158zM948 1817q-119 -237 -237 -237q-59 0 -94.5 11.5t-57.5 29.5t-35.5 38t-29 38t-38 29.5t-61.5 11.5q-30 0 -58 -13.5t-50.5 -36t-36 -50.5t-13.5 -58l-79 79q118 237 237 237q59 0 94.5 -11.5 t57.5 -29.5t35.5 -38t29 -38t37.5 -29.5t62 -11.5q30 0 58 13.5t50.5 36t36 50.5t13.5 58z" />
<glyph unicode="&#xd2;" d="M158 1027q0 82 31 154t84.5 125.5t125.5 84.5t154 31t154 -31t125.5 -84.5t84.5 -125.5t31 -154v-632q0 -82 -31 -154t-84.5 -125.5t-125.5 -84.5t-154 -31t-154 31t-125.5 84.5t-84.5 125.5t-31 154v632zM553 1264q-49 0 -92 -18.5t-75.5 -51t-51 -75.5t-18.5 -92v-632 q0 -49 18.5 -92t51 -75.5t75.5 -51t92 -18.5t92 18.5t75.5 51t51 75.5t18.5 92v632q0 49 -18.5 92t-51 75.5t-75.5 51t-92 18.5zM316 1738v158l474 -237v-158z" />
<glyph unicode="&#xd3;" d="M158 1027q0 82 31 154t84.5 125.5t125.5 84.5t154 31t154 -31t125.5 -84.5t84.5 -125.5t31 -154v-632q0 -82 -31 -154t-84.5 -125.5t-125.5 -84.5t-154 -31t-154 31t-125.5 84.5t-84.5 125.5t-31 154v632zM553 1264q-49 0 -92 -18.5t-75.5 -51t-51 -75.5t-18.5 -92v-632 q0 -49 18.5 -92t51 -75.5t75.5 -51t92 -18.5t92 18.5t75.5 51t51 75.5t18.5 92v632q0 49 -18.5 92t-51 75.5t-75.5 51t-92 18.5zM395 1580l-79 79l395 237l79 -79z" />
<glyph unicode="&#xd4;" d="M158 1027q0 82 31 154t84.5 125.5t125.5 84.5t154 31t154 -31t125.5 -84.5t84.5 -125.5t31 -154v-632q0 -82 -31 -154t-84.5 -125.5t-125.5 -84.5t-154 -31t-154 31t-125.5 84.5t-84.5 125.5t-31 154v632zM553 1264q-49 0 -92 -18.5t-75.5 -51t-51 -75.5t-18.5 -92v-632 q0 -49 18.5 -92t51 -75.5t75.5 -51t92 -18.5t92 18.5t75.5 51t51 75.5t18.5 92v632q0 49 -18.5 92t-51 75.5t-75.5 51t-92 18.5zM553 1896l237 -237l-79 -79l-158 158l-158 -158l-79 79z" />
<glyph unicode="&#xd5;" d="M158 1027q0 82 31 154t84.5 125.5t125.5 84.5t154 31t154 -31t125.5 -84.5t84.5 -125.5t31 -154v-632q0 -82 -31 -154t-84.5 -125.5t-125.5 -84.5t-154 -31t-154 31t-125.5 84.5t-84.5 125.5t-31 154v632zM553 1264q-49 0 -92 -18.5t-75.5 -51t-51 -75.5t-18.5 -92v-632 q0 -49 18.5 -92t51 -75.5t75.5 -51t92 -18.5t92 18.5t75.5 51t51 75.5t18.5 92v632q0 49 -18.5 92t-51 75.5t-75.5 51t-92 18.5zM948 1817q-119 -237 -237 -237q-59 0 -94.5 11.5t-57.5 29.5t-35.5 38t-29 38t-38 29.5t-61.5 11.5q-30 0 -58 -13.5t-50.5 -36t-36 -50.5 t-13.5 -58l-79 79q118 237 237 237q59 0 94.5 -11.5t57.5 -29.5t35.5 -38t29 -38t37.5 -29.5t62 -11.5q30 0 58 13.5t50.5 36t36 50.5t13.5 58z" />
<glyph unicode="&#xd6;" d="M158 1027q0 82 31 154t84.5 125.5t125.5 84.5t154 31t154 -31t125.5 -84.5t84.5 -125.5t31 -154v-632q0 -82 -31 -154t-84.5 -125.5t-125.5 -84.5t-154 -31t-154 31t-125.5 84.5t-84.5 125.5t-31 154v632zM553 1264q-49 0 -92 -18.5t-75.5 -51t-51 -75.5t-18.5 -92v-632 q0 -49 18.5 -92t51 -75.5t75.5 -51t92 -18.5t92 18.5t75.5 51t51 75.5t18.5 92v632q0 49 -18.5 92t-51 75.5t-75.5 51t-92 18.5zM314 1659q0 33 23 56t56 23t56 -23t23 -56t-23 -56t-56 -23t-56 23t-23 56zM630 1659q0 33 23 56t56 23t56 -23t23 -56t-23 -56t-56 -23t-56 23 t-23 56z" />
<glyph unicode="&#xd7;" d="M929 809l-256 -256l256 -256l-120 -120l-256 256l-256 -256l-120 120l256 256l-256 256l120 120l256 -256l256 256z" />
<glyph unicode="&#xd8;" d="M323 0h-165l69 172q-33 48 -51 104t-18 119v632q0 82 31 154t84.5 125.5t125.5 84.5t154 31q57 0 108 -15t96 -42l33 57h158q0 -4 -1.5 -10t-8 -23t-20.5 -49.5t-39 -89.5q32 -48 50.5 -104t18.5 -119v-632q0 -82 -31 -154t-84.5 -125.5t-125.5 -84.5t-154 -31 q-57 0 -108.5 15t-96.5 42zM790 395q0 166 -0.5 325.5t-0.5 326.5l-376 -844q29 -22 65 -33.5t75 -11.5q49 0 92 18.5t75.5 51t51 75.5t18.5 92zM553 1264q-49 0 -92 -18.5t-75.5 -51t-51 -75.5t-18.5 -92v-665l376 857q-29 21 -64.5 33t-74.5 12z" />
<glyph unicode="&#xd9;" d="M158 1422h158v-1027q0 -49 18.5 -92t51 -75.5t75.5 -51t92 -18.5t92 18.5t75.5 51t51 75.5t18.5 92v1027h158v-1027q0 -82 -31 -154t-84.5 -125.5t-125.5 -84.5t-154 -31t-154 31t-125.5 84.5t-84.5 125.5t-31 154v395v632zM316 1738v158l474 -237v-158z" />
<glyph unicode="&#xda;" d="M158 1422h158v-1027q0 -49 18.5 -92t51 -75.5t75.5 -51t92 -18.5t92 18.5t75.5 51t51 75.5t18.5 92v1027h158v-1027q0 -82 -31 -154t-84.5 -125.5t-125.5 -84.5t-154 -31t-154 31t-125.5 84.5t-84.5 125.5t-31 154v395v632zM395 1580l-79 79l395 237l79 -79z" />
<glyph unicode="&#xdb;" d="M158 1422h158v-1027q0 -49 18.5 -92t51 -75.5t75.5 -51t92 -18.5t92 18.5t75.5 51t51 75.5t18.5 92v1027h158v-1027q0 -82 -31 -154t-84.5 -125.5t-125.5 -84.5t-154 -31t-154 31t-125.5 84.5t-84.5 125.5t-31 154v395v632zM551 1896l237 -237l-79 -79l-158 158 l-158 -158l-79 79z" />
<glyph unicode="&#xdc;" d="M158 1422h158v-1027q0 -49 18.5 -92t51 -75.5t75.5 -51t92 -18.5t92 18.5t75.5 51t51 75.5t18.5 92v1027h158v-1027q0 -82 -31 -154t-84.5 -125.5t-125.5 -84.5t-154 -31t-154 31t-125.5 84.5t-84.5 125.5t-31 154v395v632zM314 1659q0 33 23 56t56 23t56 -23t23 -56 t-23 -56t-56 -23t-56 23t-23 56zM630 1659q0 33 23 56t56 23t56 -23t23 -56t-23 -56t-56 -23t-56 23t-23 56z" />
<glyph unicode="&#xdd;" d="M474 472l-316 950h158l237 -711l237 711h158l-316 -948v-474h-158v472zM395 1580l-79 79l395 237l79 -79z" />
<glyph unicode="&#xde;" d="M632 1106q59 0 116 -27t101.5 -71.5t71.5 -101.5t27 -116v-158q0 -59 -27 -116t-71.5 -101.5t-101.5 -71.5t-116 -27h-316v-316h-158v1422h158v-316h316zM790 790q0 30 -13.5 58t-36 50.5t-50.5 36t-58 13.5h-316v-474h316q30 0 58 13.5t50.5 36t36 50.5t13.5 58v158z " />
<glyph unicode="&#xdf;" d="M158 1027q0 102 34.5 176.5t90.5 123t126.5 72t143.5 23.5q82 0 154 -31t125.5 -84.5t84.5 -125.5t31 -154q0 -98 -43.5 -180t-115.5 -136q72 -54 115.5 -136.5t43.5 -179.5q0 -82 -31 -154t-84.5 -125.5t-125.5 -84.5t-154 -31h-79v158h79q49 0 92 18.5t75.5 51t51 75.5 t18.5 92t-18.5 92t-51 75.5t-75.5 51t-92 18.5h-79v158h79q49 0 92 18.5t75.5 51t51 75.5t18.5 92t-18.5 92t-51 75.5t-75.5 51t-92 18.5q-43 0 -85.5 -15t-76 -44.5t-54.5 -74t-21 -103.5v-1027h-158v1027z" />
<glyph unicode="&#xe0;" d="M474 0q-65 0 -122.5 25t-100.5 68t-68 100.5t-25 122.5t25 122.5t68 100.5t100.5 68t122.5 25h316v79q0 49 -18.5 92t-51 75.5t-75.5 51t-92 18.5h-237v158h237q82 0 154 -31t125.5 -84.5t84.5 -125.5t31 -154v-711h-474zM474 474q-33 0 -61.5 -12.5t-50 -34t-34 -50 t-12.5 -61.5t12.5 -61.5t34 -50t50 -34t61.5 -12.5h316v316h-316zM316 1422v158l474 -237v-158z" />
<glyph unicode="&#xe1;" d="M474 0q-65 0 -122.5 25t-100.5 68t-68 100.5t-25 122.5t25 122.5t68 100.5t100.5 68t122.5 25h316v79q0 49 -18.5 92t-51 75.5t-75.5 51t-92 18.5h-237v158h237q82 0 154 -31t125.5 -84.5t84.5 -125.5t31 -154v-711h-474zM474 474q-33 0 -61.5 -12.5t-50 -34t-34 -50 t-12.5 -61.5t12.5 -61.5t34 -50t50 -34t61.5 -12.5h316v316h-316zM395 1264l-79 79l395 237l79 -79z" />
<glyph unicode="&#xe2;" d="M474 0q-65 0 -122.5 25t-100.5 68t-68 100.5t-25 122.5t25 122.5t68 100.5t100.5 68t122.5 25h316v79q0 49 -18.5 92t-51 75.5t-75.5 51t-92 18.5h-237v158h237q82 0 154 -31t125.5 -84.5t84.5 -125.5t31 -154v-711h-474zM474 474q-33 0 -61.5 -12.5t-50 -34t-34 -50 t-12.5 -61.5t12.5 -61.5t34 -50t50 -34t61.5 -12.5h316v316h-316zM551 1580l237 -237l-79 -79l-158 158l-158 -158l-79 79z" />
<glyph unicode="&#xe3;" d="M474 0q-65 0 -122.5 25t-100.5 68t-68 100.5t-25 122.5t25 122.5t68 100.5t100.5 68t122.5 25h316v79q0 49 -18.5 92t-51 75.5t-75.5 51t-92 18.5h-237v158h237q82 0 154 -31t125.5 -84.5t84.5 -125.5t31 -154v-711h-474zM474 474q-33 0 -61.5 -12.5t-50 -34t-34 -50 t-12.5 -61.5t12.5 -61.5t34 -50t50 -34t61.5 -12.5h316v316h-316zM946 1501q-119 -237 -237 -237q-59 0 -94.5 11.5t-57.5 29.5t-35.5 38t-29 38t-38 29.5t-61.5 11.5q-30 0 -58 -13.5t-50.5 -36t-36 -50.5t-13.5 -58l-79 79q118 237 237 237q59 0 94.5 -11.5t57.5 -29.5 t35.5 -38t29 -38t37.5 -29.5t62 -11.5q30 0 58 13.5t50.5 36t36 50.5t13.5 58z" />
<glyph unicode="&#xe4;" d="M474 0q-65 0 -122.5 25t-100.5 68t-68 100.5t-25 122.5t25 122.5t68 100.5t100.5 68t122.5 25h316v79q0 49 -18.5 92t-51 75.5t-75.5 51t-92 18.5h-237v158h237q82 0 154 -31t125.5 -84.5t84.5 -125.5t31 -154v-711h-474zM474 474q-33 0 -61.5 -12.5t-50 -34t-34 -50 t-12.5 -61.5t12.5 -61.5t34 -50t50 -34t61.5 -12.5h316v316h-316zM314 1343q0 33 23 56t56 23t56 -23t23 -56t-23 -56t-56 -23t-56 23t-23 56zM630 1343q0 33 23 56t56 23t56 -23t23 -56t-23 -56t-56 -23t-56 23t-23 56z" />
<glyph unicode="&#xe5;" d="M474 0q-65 0 -122.5 25t-100.5 68t-68 100.5t-25 122.5t25 122.5t68 100.5t100.5 68t122.5 25h316v79q0 49 -18.5 92t-51 75.5t-75.5 51t-92 18.5h-237v158h237q82 0 154 -31t125.5 -84.5t84.5 -125.5t31 -154v-711h-474zM474 474q-33 0 -61.5 -12.5t-50 -34t-34 -50 t-12.5 -61.5t12.5 -61.5t34 -50t50 -34t61.5 -12.5h316v316h-316zM314 1501q0 49 18.5 92t51 75.5t75.5 51t92 18.5t92 -18.5t75.5 -51t51 -75.5t18.5 -92t-18.5 -92t-51 -75.5t-75.5 -51t-92 -18.5t-92 18.5t-75.5 51t-51 75.5t-18.5 92zM472 1501q0 -33 23 -56t56 -23 t56 23t23 56t-23 56t-56 23t-56 -23t-23 -56z" />
<glyph unicode="&#xe6;" d="M395 0q-59 0 -103.5 27t-74 71.5t-44.5 101.5t-15 116t15 116t44.5 101.5t74 71.5t103.5 27h79q0 118 -13.5 182.5t-36 94t-50.5 34.5t-58 5v158q16 0 40 -1t51.5 -5.5t57.5 -15t57 -29.5q23 23 51.5 37t58.5 14h79q59 0 103.5 -27t74 -71.5t44.5 -101.5t15 -116 t-15 -116t-44.5 -101.5t-74 -71.5t-103.5 -27h-79q0 -79 3 -133t8.5 -89t13 -54.5t16.5 -28t18.5 -10t19.5 -1.5q18 0 32.5 13.5t25 36t16 50.5t5.5 58h158q0 -89 -15 -149.5t-44.5 -97.5t-74 -53t-103.5 -16h-316zM395 474q-17 0 -31.5 -13.5t-25 -36t-16.5 -50.5t-6 -58 t6 -58t16.5 -50.5t25 -36t31.5 -13.5h79v316h-79zM711 632q17 0 31.5 13.5t25 36t16.5 50.5t6 58t-6 58t-16.5 50.5t-25 36t-31.5 13.5h-79v-316h79z" />
<glyph unicode="&#xe7;" d="M316 395q0 -49 21 -92t55.5 -75.5t80 -51t94.5 -18.5q39 0 74 11.5t64 32.5t51 50t34 64h158q-14 -68 -49.5 -125.5t-86.5 -100t-115 -66.5t-136 -24q-82 0 -155 31t-128 84.5t-87.5 125.5t-32.5 154v316q0 82 32.5 154t87.5 125.5t128 84.5t155 31q72 0 136 -24 t115 -66.5t86.5 -100.5t49.5 -125h-158q-12 34 -34 63t-51 50t-64 33t-74 12q-49 0 -94.5 -18.5t-80 -51t-55.5 -75.5t-21 -92v-316zM632 0q0 -89 -29.5 -160.5t-89 -116t-148.5 -57t-207 17.5v158q89 -30 149.5 -31t97.5 21t53 65.5t16 102.5h158z" />
<glyph unicode="&#xe8;" d="M316 395q0 -49 18.5 -92t51 -75.5t75.5 -51t92 -18.5h395v-158h-395q-82 0 -154 31t-125.5 84.5t-84.5 125.5t-31 154v316q0 82 31 154t84.5 125.5t125.5 84.5t154 31t154 -31t125.5 -84.5t84.5 -125.5t31 -154v-237h-632v-79zM316 632h474v79q0 49 -18.5 92t-51 75.5 t-75.5 51t-92 18.5t-92 -18.5t-75.5 -51t-51 -75.5t-18.5 -92v-79zM316 1422v158l474 -237v-158z" />
<glyph unicode="&#xe9;" d="M316 395q0 -49 18.5 -92t51 -75.5t75.5 -51t92 -18.5h395v-158h-395q-82 0 -154 31t-125.5 84.5t-84.5 125.5t-31 154v316q0 82 31 154t84.5 125.5t125.5 84.5t154 31t154 -31t125.5 -84.5t84.5 -125.5t31 -154v-237h-632v-79zM316 632h474v79q0 49 -18.5 92t-51 75.5 t-75.5 51t-92 18.5t-92 -18.5t-75.5 -51t-51 -75.5t-18.5 -92v-79zM395 1264l-79 79l395 237l79 -79z" />
<glyph unicode="&#xea;" d="M316 395q0 -49 18.5 -92t51 -75.5t75.5 -51t92 -18.5h395v-158h-395q-82 0 -154 31t-125.5 84.5t-84.5 125.5t-31 154v316q0 82 31 154t84.5 125.5t125.5 84.5t154 31t154 -31t125.5 -84.5t84.5 -125.5t31 -154v-237h-632v-79zM316 632h474v79q0 49 -18.5 92t-51 75.5 t-75.5 51t-92 18.5t-92 -18.5t-75.5 -51t-51 -75.5t-18.5 -92v-79zM551 1580l237 -237l-79 -79l-158 158l-158 -158l-79 79z" />
<glyph unicode="&#xeb;" d="M316 395q0 -49 18.5 -92t51 -75.5t75.5 -51t92 -18.5h395v-158h-395q-82 0 -154 31t-125.5 84.5t-84.5 125.5t-31 154v316q0 82 31 154t84.5 125.5t125.5 84.5t154 31t154 -31t125.5 -84.5t84.5 -125.5t31 -154v-237h-632v-79zM316 632h474v79q0 49 -18.5 92t-51 75.5 t-75.5 51t-92 18.5t-92 -18.5t-75.5 -51t-51 -75.5t-18.5 -92v-79zM314 1343q0 33 23 56t56 23t56 -23t23 -56t-23 -56t-56 -23t-56 23t-23 56zM630 1343q0 33 23 56t56 23t56 -23t23 -56t-23 -56t-56 -23t-56 23t-23 56z" />
<glyph unicode="&#xec;" d="M474 948h-158v158h316v-1106h-158v948zM316 1501l79 79l237 -237l-79 -79z" />
<glyph unicode="&#xed;" d="M474 948h-158v158h316v-1106h-158v948zM395 1264l-79 79l237 237l79 -79z" />
<glyph unicode="&#xee;" d="M474 948h-158v158h316v-1106h-158v948zM550 1580l237 -237l-79 -79l-158 158l-158 -158l-79 79z" />
<glyph unicode="&#xef;" d="M474 948h-158v158h316v-1106h-158v948zM316 1422h158v-158h-158v158zM632 1422h158v-158h-158v158z" />
<glyph unicode="&#xf0;" d="M711 1422v-158l-51 -51q73 -75 141 -186l147 -237v-474q0 -59 -27 -116t-71.5 -101.5t-101.5 -71.5t-116 -27h-158q-59 0 -116 27t-101.5 71.5t-71.5 101.5t-27 116v158q0 59 27 116t71.5 101.5t101.5 71.5t116 27h316l-158 237q-34 50 -68 90l-169 -169v158l90 90 q-85 68 -169 68v158l169 -79q47 -21 92 -55zM553 158q237 0 237 237v237h-237q-237 0 -237 -237t237 -237z" />
<glyph unicode="&#xf1;" d="M553 948q-48 0 -90.5 -18t-74.5 -48.5t-51 -72t-21 -88.5v-721h-158v1106h158v-80q50 38 110 59t127 21q82 0 154 -31t125.5 -84.5t84.5 -125.5t31 -154v-711h-158v711q0 49 -18.5 92t-51 75.5t-75.5 51t-92 18.5zM946 1501q-119 -237 -237 -237q-59 0 -94.5 11.5 t-57.5 29.5t-35.5 38t-29 38t-38 29.5t-61.5 11.5q-30 0 -58 -13.5t-50.5 -36t-36 -50.5t-13.5 -58l-79 79q118 237 237 237q59 0 94.5 -11.5t57.5 -29.5t35.5 -38t29 -38t37.5 -29.5t62 -11.5q30 0 58 13.5t50.5 36t36 50.5t13.5 58z" />
<glyph unicode="&#xf2;" d="M158 711q0 82 31 154t84.5 125.5t125.5 84.5t154 31t154 -31t125.5 -84.5t84.5 -125.5t31 -154v-316q0 -82 -31 -154t-84.5 -125.5t-125.5 -84.5t-154 -31t-154 31t-125.5 84.5t-84.5 125.5t-31 154v316zM316 395q0 -49 18.5 -92t51 -75.5t75.5 -51t92 -18.5t92 18.5 t75.5 51t51 75.5t18.5 92v316q0 49 -18.5 92t-51 75.5t-75.5 51t-92 18.5t-92 -18.5t-75.5 -51t-51 -75.5t-18.5 -92v-316zM316 1422v158l474 -237v-158z" />
<glyph unicode="&#xf3;" d="M158 711q0 82 31 154t84.5 125.5t125.5 84.5t154 31t154 -31t125.5 -84.5t84.5 -125.5t31 -154v-316q0 -82 -31 -154t-84.5 -125.5t-125.5 -84.5t-154 -31t-154 31t-125.5 84.5t-84.5 125.5t-31 154v316zM316 395q0 -49 18.5 -92t51 -75.5t75.5 -51t92 -18.5t92 18.5 t75.5 51t51 75.5t18.5 92v316q0 49 -18.5 92t-51 75.5t-75.5 51t-92 18.5t-92 -18.5t-75.5 -51t-51 -75.5t-18.5 -92v-316zM394.844 1264l-79.1689 79l395.844 237l79.1689 -79z" />
<glyph unicode="&#xf4;" d="M158 711q0 82 31 154t84.5 125.5t125.5 84.5t154 31t154 -31t125.5 -84.5t84.5 -125.5t31 -154v-316q0 -82 -31 -154t-84.5 -125.5t-125.5 -84.5t-154 -31t-154 31t-125.5 84.5t-84.5 125.5t-31 154v316zM316 395q0 -49 18.5 -92t51 -75.5t75.5 -51t92 -18.5t92 18.5 t75.5 51t51 75.5t18.5 92v316q0 49 -18.5 92t-51 75.5t-75.5 51t-92 18.5t-92 -18.5t-75.5 -51t-51 -75.5t-18.5 -92v-316zM551 1580l237 -237l-79 -79l-158 158l-158 -158l-79 79z" />
<glyph unicode="&#xf5;" d="M158 711q0 82 31 154t84.5 125.5t125.5 84.5t154 31t154 -31t125.5 -84.5t84.5 -125.5t31 -154v-316q0 -82 -31 -154t-84.5 -125.5t-125.5 -84.5t-154 -31t-154 31t-125.5 84.5t-84.5 125.5t-31 154v316zM316 395q0 -49 18.5 -92t51 -75.5t75.5 -51t92 -18.5t92 18.5 t75.5 51t51 75.5t18.5 92v316q0 49 -18.5 92t-51 75.5t-75.5 51t-92 18.5t-92 -18.5t-75.5 -51t-51 -75.5t-18.5 -92v-316zM946 1501q-119 -237 -237 -237q-59 0 -94.5 11.5t-57.5 29.5t-35.5 38t-29 38t-38 29.5t-61.5 11.5q-30 0 -58 -13.5t-50.5 -36t-36 -50.5t-13.5 -58 l-79 79q118 237 237 237q59 0 94.5 -11.5t57.5 -29.5t35.5 -38t29 -38t37.5 -29.5t62 -11.5q30 0 58 13.5t50.5 36t36 50.5t13.5 58z" />
<glyph unicode="&#xf6;" d="M158 711q0 82 31 154t84.5 125.5t125.5 84.5t154 31t154 -31t125.5 -84.5t84.5 -125.5t31 -154v-316q0 -82 -31 -154t-84.5 -125.5t-125.5 -84.5t-154 -31t-154 31t-125.5 84.5t-84.5 125.5t-31 154v316zM316 395q0 -49 18.5 -92t51 -75.5t75.5 -51t92 -18.5t92 18.5 t75.5 51t51 75.5t18.5 92v316q0 49 -18.5 92t-51 75.5t-75.5 51t-92 18.5t-92 -18.5t-75.5 -51t-51 -75.5t-18.5 -92v-316zM314 1343q0 33 23 56t56 23t56 -23t23 -56t-23 -56t-56 -23t-56 23t-23 56zM630 1343q0 33 23 56t56 23t56 -23t23 -56t-23 -56t-56 -23t-56 23 t-23 56z" />
<glyph unicode="&#xf7;" d="M0 790h948v-158h-948v158zM316 1106q0 33 12.5 61.5t34 50t50 34t61.5 12.5t61.5 -12.5t50 -34t34 -50t12.5 -61.5t-12.5 -61.5t-34 -50t-50 -34t-61.5 -12.5t-61.5 12.5t-50 34t-34 50t-12.5 61.5zM316 316q0 33 12.5 61.5t34 50t50 34t61.5 12.5t61.5 -12.5t50 -34 t34 -50t12.5 -61.5t-12.5 -61.5t-34 -50t-50 -34t-61.5 -12.5t-61.5 12.5t-50 34t-34 50t-12.5 61.5z" />
<glyph unicode="&#xf8;" d="M335 0h-185q0 5 2 12t10 23.5t24.5 47t46.5 81.5q-35 49 -55 107.5t-20 123.5v316q0 82 31 154t84.5 125.5t125.5 84.5t154 31q52 0 99.5 -13t90.5 -36l28 49h185q0 -5 -2 -12.5t-10.5 -24t-25 -46.5t-45.5 -81q35 -49 55 -107.5t20 -123.5v-316q0 -82 -31 -154 t-84.5 -125.5t-125.5 -84.5t-154 -31q-52 0 -100 13t-90 36zM790 711q0 17 -2.5 34t-7.5 33l-339 -592q51 -28 112 -28q49 0 92 18.5t75.5 51t51 75.5t18.5 92v316zM316 395q0 -38 10 -68l338 593q-25 13 -53 20.5t-58 7.5q-49 0 -92 -18.5t-75.5 -51t-51 -75.5t-18.5 -92 v-316z" />
<glyph unicode="&#xf9;" d="M316 395q0 -49 18.5 -92t51 -75.5t75.5 -51t92 -18.5q48 0 91 19t75.5 51.5t51.5 75.5t19 91v711h158v-1106h-158v79q-50 -37 -110 -58t-127 -21q-82 0 -154 31t-125.5 84.5t-84.5 125.5t-31 154v711h158v-711v0zM316 1422v158l474 -237v-158z" />
<glyph unicode="&#xfa;" d="M316 395q0 -49 18.5 -92t51 -75.5t75.5 -51t92 -18.5q48 0 91 19t75.5 51.5t51.5 75.5t19 91v711h158v-1106h-158v79q-50 -37 -110 -58t-127 -21q-82 0 -154 31t-125.5 84.5t-84.5 125.5t-31 154v711h158v-711v0zM395 1264l-79 79l395 237l79 -79z" />
<glyph unicode="&#xfb;" d="M316 395q0 -49 18.5 -92t51 -75.5t75.5 -51t92 -18.5q48 0 91 19t75.5 51.5t51.5 75.5t19 91v711h158v-1106h-158v79q-50 -37 -110 -58t-127 -21q-82 0 -154 31t-125.5 84.5t-84.5 125.5t-31 154v711h158v-711v0zM551 1580l237 -237l-79 -79l-158 158l-158 -158l-79 79z " />
<glyph unicode="&#xfc;" d="M316 395q0 -49 18.5 -92t51 -75.5t75.5 -51t92 -18.5q48 0 91 19t75.5 51.5t51.5 75.5t19 91v711h158v-1106h-158v79q-50 -37 -110 -58t-127 -21q-82 0 -154 31t-125.5 84.5t-84.5 125.5t-31 154v711h158v-711v0zM314 1343q0 33 23 56t56 23t56 -23t23 -56t-23 -56 t-56 -23t-56 23t-23 56zM630 1343q0 33 23 56t56 23t56 -23t23 -56t-23 -56t-56 -23t-56 23t-23 56z" />
<glyph unicode="&#xfd;" d="M316 395q0 -49 18.5 -92t51 -75.5t75.5 -51t92 -18.5q48 0 90 17.5t74 48.5t51.5 72t21.5 99v711h158v-1185q0 -82 -31 -154t-84.5 -125.5t-125.5 -84.5t-154 -31h-237v158h237q49 0 92 18.5t75.5 51t51 75.5t18.5 92v158q-50 -37 -110 -58t-127 -21q-82 0 -154 31 t-125.5 84.5t-84.5 125.5t-31 154v711h158v-711v0zM395 1264l-79 79l395 237l79 -79z" />
<glyph unicode="&#xfe;" d="M948 474q0 -119 -42 -207.5t-116 -148t-175.5 -89t-219.5 -29.5h-80v-473h-157v1895h158v-474h79q118 0 219.5 -29.5t175.5 -89t116 -148.5t42 -207zM315 158h159q20 0 51 7t66 22.5t70.5 40t64 59.5t46.5 81.5t18 105.5t-18 105.5t-46.5 81.5t-64 59.5t-70.5 40 t-66 22.5t-51 7h-158z" />
<glyph unicode="&#xff;" d="M316 395q0 -49 18.5 -92t51 -75.5t75.5 -51t92 -18.5q48 0 90 17.5t74 48.5t51.5 72t21.5 99v711h158v-1185q0 -82 -31 -154t-84.5 -125.5t-125.5 -84.5t-154 -31h-237v158h237q49 0 92 18.5t75.5 51t51 75.5t18.5 92v158q-50 -37 -110 -58t-127 -21q-82 0 -154 31 t-125.5 84.5t-84.5 125.5t-31 154v711h158v-711v0zM314 1343q0 33 23 56t56 23t56 -23t23 -56t-23 -56t-56 -23t-56 23t-23 56zM630 1343q0 33 23 56t56 23t56 -23t23 -56t-23 -56t-56 -23t-56 23t-23 56z" />
<glyph unicode="&#x100;" d="M158 1027q0 82 31 154t84.5 125.5t125.5 84.5t154 31t154 -31t125.5 -84.5t84.5 -125.5t31 -154v-1027h-158v632h-474v-632h-158v1027zM790 790v237q0 49 -18.5 92t-51 75.5t-75.5 51t-92 18.5t-92 -18.5t-75.5 -51t-51 -75.5t-18.5 -92v-237h474zM158 1580v158h790v-158 h-790z" />
<glyph unicode="&#x101;" d="M474 0q-65 0 -122.5 25t-100.5 68t-68 100.5t-25 122.5t25 122.5t68 100.5t100.5 68t122.5 25h316v79q0 49 -18.5 92t-51 75.5t-75.5 51t-92 18.5h-237v158h237q82 0 154 -31t125.5 -84.5t84.5 -125.5t31 -154v-711h-474zM474 474q-33 0 -61.5 -12.5t-50 -34t-34 -50 t-12.5 -61.5t12.5 -61.5t34 -50t50 -34t61.5 -12.5h316v316h-316zM158 1265v158h790v-158h-790z" />
<glyph unicode="&#x102;" d="M158 1027q0 82 31 154t84.5 125.5t125.5 84.5t154 31t154 -31t125.5 -84.5t84.5 -125.5t31 -154v-1027h-158v632h-474v-632h-158v1027zM790 790v237q0 49 -18.5 92t-51 75.5t-75.5 51t-92 18.5t-92 -18.5t-75.5 -51t-51 -75.5t-18.5 -92v-237h474zM551 1580 q-59 0 -103.5 27t-74 71.5t-44.5 101.5t-15 116h158q0 -30 1 -58t8.5 -50.5t23.5 -36t46 -13.5t46 13.5t23.5 36t8.5 50.5t1 58h158q0 -59 -15 -116t-44.5 -101.5t-74 -71.5t-103.5 -27z" />
<glyph unicode="&#x103;" d="M474 0q-65 0 -122.5 25t-100.5 68t-68 100.5t-25 122.5t25 122.5t68 100.5t100.5 68t122.5 25h316v79q0 49 -18.5 92t-51 75.5t-75.5 51t-92 18.5h-237v158h237q82 0 154 -31t125.5 -84.5t84.5 -125.5t31 -154v-711h-474zM474 474q-33 0 -61.5 -12.5t-50 -34t-34 -50 t-12.5 -61.5t12.5 -61.5t34 -50t50 -34t61.5 -12.5h316v316h-316zM551 1264q-59 0 -103.5 27t-74 71.5t-44.5 101.5t-15 116h158q0 -30 1 -58t8.5 -50.5t23.5 -36t46 -13.5t46 13.5t23.5 36t8.5 50.5t1 58h158q0 -59 -15 -116t-44.5 -101.5t-74 -71.5t-103.5 -27z" />
<glyph unicode="&#x104;" d="M1 1027q0 82 31 154t84.5 125.5t125.5 84.5t154 31t154 -31t125.5 -84.5t84.5 -125.5t31 -154v-1027h-158v632h-474v-632h-158v1027zM633 790v237q0 49 -18.5 92t-51 75.5t-75.5 51t-92 18.5t-92 -18.5t-75.5 -51t-51 -75.5t-18.5 -92v-237h474zM789.996 0 q0 -59 16.0674 -102.5t53.2236 -65.5q37.1553 -22 97.9102 -21t150.13 31v-158q-118.497 -30 -207.872 -17.5t-149.125 57q-59.751 44.5 -89.375 116t-29.624 160.5h158.665z" />
<glyph unicode="&#x105;" d="M474 0q-65 0 -122.5 25t-100.5 68t-68 100.5t-25 122.5t25 122.5t68 100.5t100.5 68t122.5 25h316v79q0 49 -18.5 92t-51 75.5t-75.5 51t-92 18.5h-237v158h237q82 0 154 -31t125.5 -84.5t84.5 -125.5t31 -154v-711h-474zM474 474q-33 0 -61.5 -12.5t-50 -34t-34 -50 t-12.5 -61.5t12.5 -61.5t34 -50t50 -34t61.5 -12.5h316v316h-316zM632 0q0 -59 16 -102.5t53 -65.5t97.5 -21t149.5 31v-158q-118 -30 -207 -17.5t-148.5 57t-89 116t-29.5 160.5h158z" />
<glyph unicode="&#x106;" d="M560.701 1264q-51.5234 0 -95.9746 -18.5t-76.7793 -51t-51.0176 -75.5t-18.6895 -92v-632q0 -49 18.6895 -92t51.0176 -75.5t76.7793 -51t95.9746 -18.5q42.4307 0 79.8105 11.5q37.3789 11.5 68.1914 32.5t53.5439 50q22.7305 29 34.8535 64h159.62 q-14.1436 -68 -49.502 -126q-35.3594 -58 -87.3877 -100t-117.694 -66t-141.436 -24q-84.8613 0 -158.104 31t-127.798 84.5q-54.5527 53.5 -85.3662 125.5q-30.8125 72 -30.8125 154v632q0 82 30.8125 154q30.8135 72 85.3662 125.5q54.5547 53.5 127.798 84.5t158.104 31 q75.7695 0 141.94 -24q66.1719 -24 117.694 -66.5q51.5234 -42.5 86.8828 -100.5q35.3584 -58 49.502 -125h-159.62q-12.123 34 -34.8535 63q-22.7314 29 -53.0381 50q-30.3086 21 -68.1924 33q-37.8848 12 -80.3154 12zM395 1580l-79 79l395 237l79 -79z" />
<glyph unicode="&#x107;" d="M316 395q0 -49 21 -92t55.5 -75.5t80 -51t94.5 -18.5q39 0 74 11.5t64 32.5t51 50t34 64h158q-14 -68 -49.5 -125.5t-86.5 -100t-115 -66.5t-136 -24q-82 0 -155 31t-128 84.5t-87.5 125.5t-32.5 154v316q0 82 32.5 154t87.5 125.5t128 84.5t155 31q72 0 136 -24 t115 -66.5t86.5 -100.5t49.5 -125h-158q-12 34 -34 63t-51 50t-64 33t-74 12q-49 0 -94.5 -18.5t-80 -51t-55.5 -75.5t-21 -92v-316zM395 1264l-79 79l395 237l79 -79z" />
<glyph unicode="&#x108;" d="M560.701 1264q-51.5234 0 -95.9746 -18.5t-76.7793 -51t-51.0176 -75.5t-18.6895 -92v-632q0 -49 18.6895 -92t51.0176 -75.5t76.7793 -51t95.9746 -18.5q42.4307 0 79.8105 11.5q37.3789 11.5 68.1914 32.5t53.5439 50q22.7305 29 34.8535 64h159.62 q-14.1436 -68 -49.502 -126q-35.3594 -58 -87.3877 -100t-117.694 -66t-141.436 -24q-84.8613 0 -158.104 31t-127.798 84.5q-54.5527 53.5 -85.3662 125.5q-30.8125 72 -30.8125 154v632q0 82 30.8125 154q30.8135 72 85.3662 125.5q54.5547 53.5 127.798 84.5t158.104 31 q75.7695 0 141.94 -24q66.1719 -24 117.694 -66.5q51.5234 -42.5 86.8828 -100.5q35.3584 -58 49.502 -125h-159.62q-12.123 34 -34.8535 63q-22.7314 29 -53.0381 50q-30.3086 21 -68.1924 33q-37.8848 12 -80.3154 12zM553 1896l237 -237l-79 -79l-158 158l-158 -158 l-79 79z" />
<glyph unicode="&#x109;" d="M316 395q0 -49 21 -92t55.5 -75.5t80 -51t94.5 -18.5q39 0 74 11.5t64 32.5t51 50t34 64h158q-14 -68 -49.5 -125.5t-86.5 -100t-115 -66.5t-136 -24q-82 0 -155 31t-128 84.5t-87.5 125.5t-32.5 154v316q0 82 32.5 154t87.5 125.5t128 84.5t155 31q72 0 136 -24 t115 -66.5t86.5 -100.5t49.5 -125h-158q-12 34 -34 63t-51 50t-64 33t-74 12q-49 0 -94.5 -18.5t-80 -51t-55.5 -75.5t-21 -92v-316zM551 1580l237 -237l-79 -79l-158 158l-158 -158l-79 79z" />
<glyph unicode="&#x10a;" d="M560.701 1264q-51.5234 0 -95.9746 -18.5t-76.7793 -51t-51.0176 -75.5t-18.6895 -92v-632q0 -49 18.6895 -92t51.0176 -75.5t76.7793 -51t95.9746 -18.5q42.4307 0 79.8105 11.5q37.3789 11.5 68.1914 32.5t53.5439 50q22.7305 29 34.8535 64h159.62 q-14.1436 -68 -49.502 -126q-35.3594 -58 -87.3877 -100t-117.694 -66t-141.436 -24q-84.8613 0 -158.104 31t-127.798 84.5q-54.5527 53.5 -85.3662 125.5q-30.8125 72 -30.8125 154v632q0 82 30.8125 154q30.8135 72 85.3662 125.5q54.5547 53.5 127.798 84.5t158.104 31 q75.7695 0 141.94 -24q66.1719 -24 117.694 -66.5q51.5234 -42.5 86.8828 -100.5q35.3584 -58 49.502 -125h-159.62q-12.123 34 -34.8535 63q-22.7314 29 -53.0381 50q-30.3086 21 -68.1924 33q-37.8848 12 -80.3154 12zM474 1659q0 33 23 56t56 23t56 -23t23 -56t-23 -56 t-56 -23t-56 23t-23 56z" />
<glyph unicode="&#x10b;" d="M316 395q0 -49 21 -92t55.5 -75.5t80 -51t94.5 -18.5q39 0 74 11.5t64 32.5t51 50t34 64h158q-14 -68 -49.5 -125.5t-86.5 -100t-115 -66.5t-136 -24q-82 0 -155 31t-128 84.5t-87.5 125.5t-32.5 154v316q0 82 32.5 154t87.5 125.5t128 84.5t155 31q72 0 136 -24 t115 -66.5t86.5 -100.5t49.5 -125h-158q-12 34 -34 63t-51 50t-64 33t-74 12q-49 0 -94.5 -18.5t-80 -51t-55.5 -75.5t-21 -92v-316zM471 1343q0 33 23 56t56 23t56 -23t23 -56t-23 -56t-56 -23t-56 23t-23 56z" />
<glyph unicode="&#x10c;" d="M560.701 1264q-51.5234 0 -95.9746 -18.5t-76.7793 -51t-51.0176 -75.5t-18.6895 -92v-632q0 -49 18.6895 -92t51.0176 -75.5t76.7793 -51t95.9746 -18.5q42.4307 0 79.8105 11.5q37.3789 11.5 68.1914 32.5t53.5439 50q22.7305 29 34.8535 64h159.62 q-14.1436 -68 -49.502 -126q-35.3594 -58 -87.3877 -100t-117.694 -66t-141.436 -24q-84.8613 0 -158.104 31t-127.798 84.5q-54.5527 53.5 -85.3662 125.5q-30.8125 72 -30.8125 154v632q0 82 30.8125 154q30.8135 72 85.3662 125.5q54.5547 53.5 127.798 84.5t158.104 31 q75.7695 0 141.94 -24q66.1719 -24 117.694 -66.5q51.5234 -42.5 86.8828 -100.5q35.3584 -58 49.502 -125h-159.62q-12.123 34 -34.8535 63q-22.7314 29 -53.0381 50q-30.3086 21 -68.1924 33q-37.8848 12 -80.3154 12zM316 1817l79 79l158 -158l158 158l79 -79l-237 -237z " />
<glyph unicode="&#x10d;" d="M316 395q0 -49 21 -92t55.5 -75.5t80 -51t94.5 -18.5q39 0 74 11.5t64 32.5t51 50t34 64h158q-14 -68 -49.5 -125.5t-86.5 -100t-115 -66.5t-136 -24q-82 0 -155 31t-128 84.5t-87.5 125.5t-32.5 154v316q0 82 32.5 154t87.5 125.5t128 84.5t155 31q72 0 136 -24 t115 -66.5t86.5 -100.5t49.5 -125h-158q-12 34 -34 63t-51 50t-64 33t-74 12q-49 0 -94.5 -18.5t-80 -51t-55.5 -75.5t-21 -92v-316zM314 1501l79 79l158 -158l158 158l79 -79l-237 -237z" />
<glyph unicode="&#x10e;" d="M158 1422h395q82 0 154 -31t125.5 -84.5t84.5 -125.5t31 -154v-632q0 -82 -31 -154t-84.5 -125.5t-125.5 -84.5t-154 -31h-395v1422zM553 158q49 0 92 18.5t75.5 51t51 75.5t18.5 92v632q0 49 -18.5 92t-51 75.5t-75.5 51t-92 18.5h-237v-1106h237zM316 1817l79 79 l158 -158l158 158l79 -79l-237 -237z" />
<glyph unicode="&#x10f;" d="M791 0h-158v78q-38 -28 -83 -47q-72 -31 -154 -31t-154 31t-125.5 84.5t-84.5 125.5t-31 154v316q0 82 31 154t84.5 125.5t125.5 84.5t154 31t154 -31q45 -20 83 -48v395h158v-1422zM615 803q-19 43 -51.5 75.5t-75.5 51t-92 18.5t-92 -18.5t-75.5 -51t-51 -75.5 t-18.5 -92v-316q0 -49 18.5 -92t51 -75.5t75.5 -51t92 -18.5t92 18.5t75.5 51t51 75.5t18.5 92v325zM474 1659l79 79l158 -158l158 158l79 -79l-237 -237z" />
<glyph unicode="&#x110;" d="M0 948h474v-158h-474v158zM158 1422h395q82 0 154 -31t125.5 -84.5t84.5 -125.5t31 -154v-632q0 -82 -31 -154t-84.5 -125.5t-125.5 -84.5t-154 -31h-395v1422zM553 158q49 0 92 18.5t75.5 51t51 75.5t18.5 92v632q0 49 -18.5 92t-51 75.5t-75.5 51t-92 18.5h-237v-1106 h237z" />
<glyph unicode="&#x111;" d="M948 0h-158v78q-38 -28 -83 -47q-72 -31 -154 -31t-154 31t-125.5 84.5t-84.5 125.5t-31 154v316q0 82 31 154t84.5 125.5t125.5 84.5t154 31t154 -31q45 -20 83 -48v395h158v-1422zM772 803q-19 43 -51.5 75.5t-75.5 51t-92 18.5t-92 -18.5t-75.5 -51t-51 -75.5 t-18.5 -92v-316q0 -49 18.5 -92t51 -75.5t75.5 -51t92 -18.5t92 18.5t75.5 51t51 75.5t18.5 92v325zM416.796 1264h473.981v-158h-473.981v158z" />
<glyph unicode="&#x112;" d="M158 1422h790v-158h-632v-474h474v-158h-474v-474h632v-158h-790v1422zM158 1580v158h790v-158h-790z" />
<glyph unicode="&#x113;" d="M316 395q0 -49 18.5 -92t51 -75.5t75.5 -51t92 -18.5h395v-158h-395q-82 0 -154 31t-125.5 84.5t-84.5 125.5t-31 154v316q0 82 31 154t84.5 125.5t125.5 84.5t154 31t154 -31t125.5 -84.5t84.5 -125.5t31 -154v-237h-632v-79zM316 632h474v79q0 49 -18.5 92t-51 75.5 t-75.5 51t-92 18.5t-92 -18.5t-75.5 -51t-51 -75.5t-18.5 -92v-79zM158 1265v158h790v-158h-790z" />
<glyph unicode="&#x114;" d="M158 1422h790v-158h-632v-474h474v-158h-474v-474h632v-158h-790v1422zM553 1580q-59 0 -103.5 27t-74 71.5t-44.5 101.5t-15 116h158q0 -30 1 -58t8.5 -50.5t23.5 -36t46 -13.5t46 13.5t23.5 36t8.5 50.5t1 58h158q0 -59 -15 -116t-44.5 -101.5t-74 -71.5t-103.5 -27z " />
<glyph unicode="&#x115;" d="M316 395q0 -49 18.5 -92t51 -75.5t75.5 -51t92 -18.5h395v-158h-395q-82 0 -154 31t-125.5 84.5t-84.5 125.5t-31 154v316q0 82 31 154t84.5 125.5t125.5 84.5t154 31t154 -31t125.5 -84.5t84.5 -125.5t31 -154v-237h-632v-79zM316 632h474v79q0 49 -18.5 92t-51 75.5 t-75.5 51t-92 18.5t-92 -18.5t-75.5 -51t-51 -75.5t-18.5 -92v-79zM551 1264q-59 0 -103.5 27t-74 71.5t-44.5 101.5t-15 116h158q0 -30 1 -58t8.5 -50.5t23.5 -36t46 -13.5t46 13.5t23.5 36t8.5 50.5t1 58h158q0 -59 -15 -116t-44.5 -101.5t-74 -71.5t-103.5 -27z" />
<glyph unicode="&#x116;" d="M158 1422h790v-158h-632v-474h474v-158h-474v-474h632v-158h-790v1422zM471 1659q0 33 23 56t56 23t56 -23t23 -56t-23 -56t-56 -23t-56 23t-23 56z" />
<glyph unicode="&#x117;" d="M316 395q0 -49 18.5 -92t51 -75.5t75.5 -51t92 -18.5h395v-158h-395q-82 0 -154 31t-125.5 84.5t-84.5 125.5t-31 154v316q0 82 31 154t84.5 125.5t125.5 84.5t154 31t154 -31t125.5 -84.5t84.5 -125.5t31 -154v-237h-632v-79zM316 632h474v79q0 49 -18.5 92t-51 75.5 t-75.5 51t-92 18.5t-92 -18.5t-75.5 -51t-51 -75.5t-18.5 -92v-79zM471 1343q0 33 23 56t56 23t56 -23t23 -56t-23 -56t-56 -23t-56 23t-23 56z" />
<glyph unicode="&#x118;" d="M158 1422h790v-158h-632v-474h474v-158h-474v-474h632v-158h-790v1422zM632 0q0 -59 16 -102.5t53 -65.5t97.5 -21t149.5 31v-158q-118 -30 -207 -17.5t-148.5 57t-89 116t-29.5 160.5h158z" />
<glyph unicode="&#x119;" d="M316 395q0 -49 18.5 -92t51 -75.5t75.5 -51t92 -18.5h395v-158h-395q-82 0 -154 31t-125.5 84.5t-84.5 125.5t-31 154v316q0 82 31 154t84.5 125.5t125.5 84.5t154 31t154 -31t125.5 -84.5t84.5 -125.5t31 -154v-237h-632v-79zM316 632h474v79q0 49 -18.5 92t-51 75.5 t-75.5 51t-92 18.5t-92 -18.5t-75.5 -51t-51 -75.5t-18.5 -92v-79zM632 0q0 -59 16 -102.5t53 -65.5t97.5 -21t149.5 31v-158q-118 -30 -207 -17.5t-148.5 57t-89 116t-29.5 160.5h158z" />
<glyph unicode="&#x11a;" d="M158 1422h790v-158h-632v-474h474v-158h-474v-474h632v-158h-790v1422zM316 1817l79 79l158 -158l158 158l79 -79l-237 -237z" />
<glyph unicode="&#x11b;" d="M316 395q0 -49 18.5 -92t51 -75.5t75.5 -51t92 -18.5h395v-158h-395q-82 0 -154 31t-125.5 84.5t-84.5 125.5t-31 154v316q0 82 31 154t84.5 125.5t125.5 84.5t154 31t154 -31t125.5 -84.5t84.5 -125.5t31 -154v-237h-632v-79zM316 632h474v79q0 49 -18.5 92t-51 75.5 t-75.5 51t-92 18.5t-92 -18.5t-75.5 -51t-51 -75.5t-18.5 -92v-79zM314 1501l79 79l158 -158l158 158l79 -79l-237 -237z" />
<glyph unicode="&#x11c;" d="M790 158q0 -30 -24.5 -58t-60.5 -50.5t-77.5 -36t-74.5 -13.5q-82 0 -154 31t-125.5 84.5t-84.5 125.5t-31 154v632q0 82 31 154t84.5 125.5t125.5 84.5t154 31q72 0 136 -24t115 -66.5t86.5 -100.5t49.5 -125h-164q-12 34 -34 63t-51 50t-64 33t-74 12q-49 0 -92 -18.5 t-75.5 -51t-51 -75.5t-18.5 -92v-632q0 -49 18.5 -92t51 -75.5t75.5 -51t92 -18.5q48 0 91 26t75.5 63t51.5 77.5t19 70.5v237h-158v158h316v-790h-158v158zM553 1896l237 -237l-79 -79l-158 158l-158 -158l-79 79z" />
<glyph unicode="&#x11d;" d="M316 -316h237q49 0 92 18.5t75.5 51t51 75.5t18.5 92v158q-50 -37 -110 -58t-127 -21q-82 0 -154 31t-125.5 84.5t-84.5 125.5t-31 154v316q0 82 31 154t84.5 125.5t125.5 84.5t154 31q67 0 127 -21t110 -59v80h158v-1185q0 -82 -31 -154t-84.5 -125.5t-125.5 -84.5 t-154 -31h-237v158zM316 395q0 -49 18.5 -92t51 -75.5t75.5 -51t92 -18.5q48 0 90 17.5t74 48.5t51.5 72t21.5 89v336q-2 47 -21.5 88.5t-51.5 72t-74 48.5t-90 18q-49 0 -92 -18.5t-75.5 -51t-51 -75.5t-18.5 -92v-316zM551 1580l237 -237l-79 -79l-158 158l-158 -158 l-79 79z" />
<glyph unicode="&#x11e;" d="M790 158q0 -30 -24.5 -58t-60.5 -50.5t-77.5 -36t-74.5 -13.5q-82 0 -154 31t-125.5 84.5t-84.5 125.5t-31 154v632q0 82 31 154t84.5 125.5t125.5 84.5t154 31q72 0 136 -24t115 -66.5t86.5 -100.5t49.5 -125h-164q-12 34 -34 63t-51 50t-64 33t-74 12q-49 0 -92 -18.5 t-75.5 -51t-51 -75.5t-18.5 -92v-632q0 -49 18.5 -92t51 -75.5t75.5 -51t92 -18.5q48 0 91 26t75.5 63t51.5 77.5t19 70.5v237h-158v158h316v-790h-158v158zM551 1580q-59 0 -103.5 27t-74 71.5t-44.5 101.5t-15 116h158q0 -30 1 -58t8.5 -50.5t23.5 -36t46 -13.5t46 13.5 t23.5 36t8.5 50.5t1 58h158q0 -59 -15 -116t-44.5 -101.5t-74 -71.5t-103.5 -27z" />
<glyph unicode="&#x11f;" d="M316 -316h237q49 0 92 18.5t75.5 51t51 75.5t18.5 92v158q-50 -37 -110 -58t-127 -21q-82 0 -154 31t-125.5 84.5t-84.5 125.5t-31 154v316q0 82 31 154t84.5 125.5t125.5 84.5t154 31q67 0 127 -21t110 -59v80h158v-1185q0 -82 -31 -154t-84.5 -125.5t-125.5 -84.5 t-154 -31h-237v158zM316 395q0 -49 18.5 -92t51 -75.5t75.5 -51t92 -18.5q48 0 90 17.5t74 48.5t51.5 72t21.5 89v336q-2 47 -21.5 88.5t-51.5 72t-74 48.5t-90 18q-49 0 -92 -18.5t-75.5 -51t-51 -75.5t-18.5 -92v-316zM551 1264q-59 0 -103.5 27t-74 71.5t-44.5 101.5 t-15 116h158q0 -30 1 -58t8.5 -50.5t23.5 -36t46 -13.5t46 13.5t23.5 36t8.5 50.5t1 58h158q0 -59 -15 -116t-44.5 -101.5t-74 -71.5t-103.5 -27z" />
<glyph unicode="&#x120;" d="M790 158q0 -30 -24.5 -58t-60.5 -50.5t-77.5 -36t-74.5 -13.5q-82 0 -154 31t-125.5 84.5t-84.5 125.5t-31 154v632q0 82 31 154t84.5 125.5t125.5 84.5t154 31q72 0 136 -24t115 -66.5t86.5 -100.5t49.5 -125h-164q-12 34 -34 63t-51 50t-64 33t-74 12q-49 0 -92 -18.5 t-75.5 -51t-51 -75.5t-18.5 -92v-632q0 -49 18.5 -92t51 -75.5t75.5 -51t92 -18.5q48 0 91 26t75.5 63t51.5 77.5t19 70.5v237h-158v158h316v-790h-158v158zM471 1659q0 33 23 56t56 23t56 -23t23 -56t-23 -56t-56 -23t-56 23t-23 56z" />
<glyph unicode="&#x121;" d="M316 -316h237q49 0 92 18.5t75.5 51t51 75.5t18.5 92v158q-50 -37 -110 -58t-127 -21q-82 0 -154 31t-125.5 84.5t-84.5 125.5t-31 154v316q0 82 31 154t84.5 125.5t125.5 84.5t154 31q67 0 127 -21t110 -59v80h158v-1185q0 -82 -31 -154t-84.5 -125.5t-125.5 -84.5 t-154 -31h-237v158zM316 395q0 -49 18.5 -92t51 -75.5t75.5 -51t92 -18.5q48 0 90 17.5t74 48.5t51.5 72t21.5 89v336q-2 47 -21.5 88.5t-51.5 72t-74 48.5t-90 18q-49 0 -92 -18.5t-75.5 -51t-51 -75.5t-18.5 -92v-316zM471 1343q0 33 23 56t56 23t56 -23t23 -56t-23 -56 t-56 -23t-56 23t-23 56z" />
<glyph unicode="&#x122;" d="M790 158q0 -30 -24.5 -58t-60.5 -50.5t-77.5 -36t-74.5 -13.5q-82 0 -154 31t-125.5 84.5t-84.5 125.5t-31 154v632q0 82 31 154t84.5 125.5t125.5 84.5t154 31q72 0 136 -24t115 -66.5t86.5 -100.5t49.5 -125h-164q-12 34 -34 63t-51 50t-64 33t-74 12q-49 0 -92 -18.5 t-75.5 -51t-51 -75.5t-18.5 -92v-632q0 -49 18.5 -92t51 -75.5t75.5 -51t92 -18.5q48 0 91 26t75.5 63t51.5 77.5t19 70.5v237h-158v158h316v-790h-158v158zM395 -631q-33 0 -56 23t-23 56t23 56t56 23q30 0 46 10.5t23.5 30.5t8.5 49.5t1 67.5q-33 0 -61.5 12.5t-50 34 t-34 50t-12.5 61.5t12.5 61.5t34 50t50 34t61.5 12.5t61.5 -12.5t50 -34t34 -50t12.5 -61.5v-158q0 -59 -15 -116t-44.5 -101.5t-74 -71.5t-103.5 -27z" />
<glyph unicode="&#x123;" d="M316 -316h237q49 0 92 18.5t75.5 51t51 75.5t18.5 92v158q-50 -37 -110 -58t-127 -21q-82 0 -154 31t-125.5 84.5t-84.5 125.5t-31 154v316q0 82 31 154t84.5 125.5t125.5 84.5t154 31q67 0 127 -21t110 -59v80h158v-1185q0 -82 -31 -154t-84.5 -125.5t-125.5 -84.5 t-154 -31h-237v158zM316 395q0 -49 18.5 -92t51 -75.5t75.5 -51t92 -18.5q48 0 90 17.5t74 48.5t51.5 72t21.5 89v336q-2 47 -21.5 88.5t-51.5 72t-74 48.5t-90 18q-49 0 -92 -18.5t-75.5 -51t-51 -75.5t-18.5 -92v-316zM629 1896q33 0 56 -23t23 -56t-23 -56t-56 -23 q-30 0 -46 -10.5t-23.5 -30.5t-8.5 -49.5t-1 -67.5q33 0 61.5 -12.5t50 -34t34 -50t12.5 -61.5t-12.5 -61.5t-34 -50t-50 -34t-61.5 -12.5t-61.5 12.5t-50 34t-34 50t-12.5 61.5v158q0 59 15 116t44.5 101.5t74 71.5t103.5 27z" />
<glyph unicode="&#x124;" d="M158 1422h158v-632h474v632h158v-1422h-158v632h-474v-632h-158v1422zM553 1896l237 -237l-79 -79l-158 158l-158 -158l-79 79z" />
<glyph unicode="&#x125;" d="M790 711q0 49 -18.5 92t-51 75.5t-75.5 51t-92 18.5q-48 0 -90.5 -18t-74.5 -48.5t-51 -72t-21 -88.5v-721h-158v1422h158v-396q50 38 110 59t127 21q82 0 154 -31t125.5 -84.5t84.5 -125.5t31 -154v-711h-158v711zM551 1580l237 -237l-79 -79l-158 158l-158 -158l-79 79 z" />
<glyph unicode="&#x126;" d="M158 1422h158v-632h474v632h158v-1422h-158v632h-474v-632h-158v1422zM158 1004.97v136.996h790v-136.996h-790z" />
<glyph unicode="&#x127;" d="M0 1264h158v158h158v-158h158v-158h-158v-80q50 38 110 59t127 21q82 0 154 -31t125.5 -84.5t84.5 -125.5t31 -154v-711h-158v711q0 49 -18.5 92t-51 75.5t-75.5 51t-92 18.5q-48 0 -90.5 -18t-74.5 -48.5t-51 -72t-21 -88.5v-721h-158v1106h-158v158z" />
<glyph unicode="&#x128;" d="M158 158h316v1106h-316v158h790v-158h-316v-1106h316v-158h-790v158zM948 1817q-119 -237 -237 -237q-59 0 -94.5 11.5t-57.5 29.5t-35.5 38t-29 38t-38 29.5t-61.5 11.5q-30 0 -58 -13.5t-50.5 -36t-36 -50.5t-13.5 -58l-79 79q118 237 237 237q59 0 94.5 -11.5 t57.5 -29.5t35.5 -38t29 -38t37.5 -29.5t62 -11.5q30 0 58 13.5t50.5 36t36 50.5t13.5 58z" />
<glyph unicode="&#x129;" d="M946 1501q-119 -237 -237 -237q-59 0 -94.5 11.5t-57.5 29.5t-35.5 38t-29 38t-38 29.5t-61.5 11.5q-30 0 -58 -13.5t-50.5 -36t-36 -50.5t-13.5 -58l-79 79q118 237 237 237q59 0 94.5 -11.5t57.5 -29.5t35.5 -38t29 -38t37.5 -29.5t62 -11.5q30 0 58 13.5t50.5 36 t36 50.5t13.5 58zM474 948h-158v158h316v-1106h-158v948z" />
<glyph unicode="&#x12a;" d="M158 158h316v1106h-316v158h790v-158h-316v-1106h316v-158h-790v158zM158 1580v158h790v-158h-790z" />
<glyph unicode="&#x12b;" d="M158.798 1265v158h788.987v-158h-788.987zM474 948h-158v158h316v-1106h-158v948z" />
<glyph unicode="&#x12c;" d="M158 158h316v1106h-316v158h790v-158h-316v-1106h316v-158h-790v158zM553 1580q-59 0 -103.5 27t-74 71.5t-44.5 101.5t-15 116h158q0 -30 1 -58t8.5 -50.5t23.5 -36t46 -13.5t46 13.5t23.5 36t8.5 50.5t1 58h158q0 -59 -15 -116t-44.5 -101.5t-74 -71.5t-103.5 -27z" />
<glyph unicode="&#x12d;" d="M551 1264q-59 0 -103.5 27t-74 71.5t-44.5 101.5t-15 116h158q0 -30 1 -58t8.5 -50.5t23.5 -36t46 -13.5t46 13.5t23.5 36t8.5 50.5t1 58h158q0 -59 -15 -116t-44.5 -101.5t-74 -71.5t-103.5 -27zM474 948h-158v158h316v-1106h-158v948z" />
<glyph unicode="&#x12e;" d="M158 158h316v1106h-316v158h790v-158h-316v-1106h316v-158h-790v158zM632 0q0 -59 16 -102.5t53 -65.5t97.5 -21t149.5 31v-158q-118 -30 -207 -17.5t-148.5 57t-89 116t-29.5 160.5h158z" />
<glyph unicode="&#x12f;" d="M474 948h-158v158h316v-1106h-158v948zM474 1422h158v-158h-158v158zM631 0q0 -59 16 -102.5t53 -65.5t97.5 -21t149.5 31v-158q-118 -30 -207 -17.5t-148.5 57t-89 116t-29.5 160.5h158z" />
<glyph unicode="&#x130;" d="M158 158h316v1106h-316v158h790v-158h-316v-1106h316v-158h-790v158zM474 1659q0 33 23 56t56 23t56 -23t23 -56t-23 -56t-56 -23t-56 23t-23 56z" />
<glyph unicode="&#x131;" d="M474 948h-158v158h316v-1106h-158v948z" />
<glyph unicode="&#x132;" d="M0 158h158v1106h-158v158h474v-158h-158v-1106h158v-158h-474v158zM711 0q-59 0 -103.5 16t-74 53t-44.5 97.5t-15 149.5h163q-2 -30 -1.5 -58t7 -50.5t22.5 -36t46 -13.5t46 13.5t23.5 36t8.5 50.5t1 58v1106h158v-1106q0 -89 -15 -149.5t-44.5 -97.5t-74 -53 t-103.5 -16z" />
<glyph unicode="&#x133;" d="M317 948h-158v158h316v-1106h-158v948zM317 1422h158v-158h-158v158zM316 -158h237q237 0 237 237v869h-158v158h316v-1106q0 -59 -27 -116t-71.5 -101.5t-101.5 -71.5t-116 -27h-316v158zM790 1422h158v-158h-158v158z" />
<glyph unicode="&#x134;" d="M158 474h158v-79q0 -49 18.5 -92t51 -75.5t75.5 -51t92 -18.5t92 18.5t75.5 51t51 75.5t18.5 92v1027h158v-1027q0 -82 -31 -154t-84.5 -125.5t-125.5 -84.5t-154 -31t-154 31t-125.5 84.5t-84.5 125.5t-31 154v79zM553 1896l237 -237l-79 -79l-158 158l-158 -158l-79 79 z" />
<glyph unicode="&#x135;" d="M158 -158h237q237 0 237 237v869h-158v158h316v-1106q0 -59 -27 -116t-71.5 -101.5t-101.5 -71.5t-116 -27h-316v158zM550 1580l237 -237l-79 -79l-158 158l-158 -158l-79 79z" />
<glyph unicode="&#x136;" d="M316 761l454 661h178l-474 -711l474 -711h-180l-452 666v-666h-158v1422h158v-661zM395 -631q-33 0 -56 23t-23 56t23 56t56 23q30 0 46 10.5t23.5 30.5t8.5 49.5t1 67.5q-33 0 -61.5 12.5t-50 34t-34 50t-12.5 61.5t12.5 61.5t34 50t50 34t61.5 12.5t61.5 -12.5t50 -34 t34 -50t12.5 -61.5v-158q0 -59 -15 -116t-44.5 -101.5t-74 -71.5t-103.5 -27z" />
<glyph unicode="&#x137;" d="M316 632h38l400 474h194l-453 -553l453 -553h-194l-400 474h-38v-474h-158v1422h158v-790zM395 -631q-33 0 -56 23t-23 56t23 56t56 23q30 0 46 10.5t23.5 30.5t8.5 49.5t1 67.5q-33 0 -61.5 12.5t-50 34t-34 50t-12.5 61.5t12.5 61.5t34 50t50 34t61.5 12.5t61.5 -12.5 t50 -34t34 -50t12.5 -61.5v-158q0 -59 -15 -116t-44.5 -101.5t-74 -71.5t-103.5 -27z" />
<glyph unicode="&#x138;" d="M316 600l439 506h193l-474 -553l474 -553h-195l-437 509v-509h-158v1106h158v-506z" />
<glyph unicode="&#x139;" d="M158 1422h158v-1264h632v-158h-790v1422zM395 1580l-79 79l395 237l79 -79z" />
<glyph unicode="&#x13a;" d="M474 1264h-158v158h316v-1422h-158v1264zM395 1580l-79 79l395 237l79 -79z" />
<glyph unicode="&#x13b;" d="M158 1422h158v-1264h632v-158h-790v1422zM394.746 -626.496q-32.8945 0 -55.8223 22.8906q-22.9268 22.8906 -22.9268 55.7334t22.9268 55.7334q22.9277 22.8906 55.8223 22.8906q29.9053 0 45.8545 10.4502t23.4248 30.3545q7.47656 19.9053 8.47363 49.2646 t0.99707 67.1787q-32.8955 0 -61.3057 12.4404q-28.4092 12.4404 -49.8408 33.8379t-33.8926 49.7627q-12.46 28.3643 -12.46 61.207t12.46 61.207q12.4609 28.3643 33.8926 49.7617t49.8408 33.8379q28.4102 12.4414 61.3057 12.4414q32.8945 0 61.3047 -12.4414 q28.4092 -12.4404 49.8408 -33.8379t33.8926 -49.7617q12.46 -28.3643 12.46 -61.207v-157.248q0 -58.7188 -14.9521 -115.447q-14.9521 -56.7295 -44.3594 -101.018q-29.4062 -44.2881 -73.7646 -71.1592q-44.3594 -26.8721 -103.172 -26.8721z" />
<glyph unicode="&#x13c;" d="M474 1264h-158v158h316v-1422h-158v1264zM395 -631q-33 0 -56 23t-23 56t23 56t56 23q30 0 46 10.5t23.5 30.5t8.5 49.5t1 67.5q-33 0 -61.5 12.5t-50 34t-34 50t-12.5 61.5t12.5 61.5t34 50t50 34t61.5 12.5t61.5 -12.5t50 -34t34 -50t12.5 -61.5v-158q0 -59 -15 -116 t-44.5 -101.5t-74 -71.5t-103.5 -27z" />
<glyph unicode="&#x13d;" d="M158 1422h158v-1264h632v-158h-790v1422zM471 1262q-33 0 -56 23t-23 56t23 56t56 23q30 0 46 10.5t23.5 30.5t8.5 49.5t1 67.5q-33 0 -61.5 12.5t-50 34t-34 50t-12.5 61.5t12.5 61.5t34 50t50 34t61.5 12.5t61.5 -12.5t50 -34t34 -50t12.5 -61.5v-158q0 -59 -15 -116 t-44.5 -101.5t-74 -71.5t-103.5 -27z" />
<glyph unicode="&#x13e;" d="M316 1264h-158v158h316v-1422h-158v1264zM711 1264q-33 0 -56 23t-23 56t23 56t56 23q30 0 46 10.5t23.5 30.5t8.5 49.5t1 67.5q-33 0 -61.5 12.5t-50 34t-34 50t-12.5 61.5t12.5 61.5t34 50t50 34t61.5 12.5t61.5 -12.5t50 -34t34 -50t12.5 -61.5v-158q0 -59 -15 -116 t-44.5 -101.5t-74 -71.5t-103.5 -27z" />
<glyph unicode="&#x13f;" d="M158 1422h158v-1264h632v-158h-790v1422zM632 790q0 33 12.5 61.5t34 50t50 34t61.5 12.5t61.5 -12.5t50 -34t34 -50t12.5 -61.5t-12.5 -61.5t-34 -50t-50 -34t-61.5 -12.5t-61.5 12.5t-50 34t-34 50t-12.5 61.5z" />
<glyph unicode="&#x140;" d="M316 1264h-158v158h316v-1422h-158v1264zM632 790q0 33 12.5 61.5t34 50t50 34t61.5 12.5t61.5 -12.5t50 -34t34 -50t12.5 -61.5t-12.5 -61.5t-34 -50t-50 -34t-61.5 -12.5t-61.5 12.5t-50 34t-34 50t-12.5 61.5z" />
<glyph unicode="&#x141;" d="M19 455l553 553l120 -120l-553 -553zM158 1422h158v-1264h632v-158h-790v1422z" />
<glyph unicode="&#x142;" d="M269 466l205 136v662h-158v158h316v-714l111 74l94 -142l-205 -137v-503h-158v398l-111 -74z" />
<glyph unicode="&#x143;" d="M158 0v1422h158l474 -1052v1052h158v-1422h-158l-474 1052v-1052h-158zM395 1580l-79 79l395 237l79 -79z" />
<glyph unicode="&#x144;" d="M553 948q-48 0 -90.5 -18t-74.5 -48.5t-51 -72t-21 -88.5v-721h-158v1106h158v-80q50 38 110 59t127 21q82 0 154 -31t125.5 -84.5t84.5 -125.5t31 -154v-711h-158v711q0 49 -18.5 92t-51 75.5t-75.5 51t-92 18.5zM395 1265.02l-79 79.502l395 238.504l79 -79.502z" />
<glyph unicode="&#x145;" d="M158 0v1422h158l474 -1052v1052h158v-1422h-158l-474 1052v-1052h-158zM395 -631q-33 0 -56 23t-23 56t23 56t56 23q30 0 46 10.5t23.5 30.5t8.5 49.5t1 67.5q-33 0 -61.5 12.5t-50 34t-34 50t-12.5 61.5t12.5 61.5t34 50t50 34t61.5 12.5t61.5 -12.5t50 -34t34 -50 t12.5 -61.5v-158q0 -59 -15 -116t-44.5 -101.5t-74 -71.5t-103.5 -27z" />
<glyph unicode="&#x146;" d="M553 948q-48 0 -90.5 -18t-74.5 -48.5t-51 -72t-21 -88.5v-721h-158v1106h158v-80q50 38 110 59t127 21q82 0 154 -31t125.5 -84.5t84.5 -125.5t31 -154v-711h-158v711q0 49 -18.5 92t-51 75.5t-75.5 51t-92 18.5zM395 -631q-33 0 -56 23t-23 56t23 56t56 23 q30 0 46 10.5t23.5 30.5t8.5 49.5t1 67.5q-33 0 -61.5 12.5t-50 34t-34 50t-12.5 61.5t12.5 61.5t34 50t50 34t61.5 12.5t61.5 -12.5t50 -34t34 -50t12.5 -61.5v-158q0 -59 -15 -116t-44.5 -101.5t-74 -71.5t-103.5 -27z" />
<glyph unicode="&#x147;" d="M158 0v1422h158l474 -1052v1052h158v-1422h-158l-474 1052v-1052h-158zM316 1817l79 79l158 -158l158 158l79 -79l-237 -237z" />
<glyph unicode="&#x148;" d="M553 948q-48 0 -90.5 -18t-74.5 -48.5t-51 -72t-21 -88.5v-721h-158v1106h158v-80q50 38 110 59t127 21q82 0 154 -31t125.5 -84.5t84.5 -125.5t31 -154v-711h-158v711q0 49 -18.5 92t-51 75.5t-75.5 51t-92 18.5zM314 1501l79 79l158 -158l158 158l79 -79l-237 -237z " />
<glyph unicode="&#x149;" d="M553 948q-48 0 -90.5 -18t-74.5 -48.5t-51 -72t-21 -88.5v-721h-158v1106h158v-80q50 38 110 59t127 21q82 0 154 -31t125.5 -84.5t84.5 -125.5t31 -154v-711h-158v711q0 49 -18.5 92t-51 75.5t-75.5 51t-92 18.5zM553 1027q-33 0 -56 23t-23 56t23 56t56 23 q30 0 46 10.5t23.5 30.5t8.5 49.5t1 67.5q-33 0 -61.5 12.5t-50 34t-34 50t-12.5 61.5t12.5 61.5t34 50t50 34t61.5 12.5t61.5 -12.5t50 -34t34 -50t12.5 -61.5v-158q0 -59 -15 -116t-44.5 -101.5t-74 -71.5t-103.5 -27z" />
<glyph unicode="&#x14a;" d="M549 -474q-72 0 -137.5 24t-117 66.5t-87.5 100t-49 125.5h164q13 -35 35.5 -64t52 -50t65 -32.5t74.5 -11.5q49 0 93 18.5t76 51t51 75.5t19 92v79h-5l-465 1050v-1050h-158v1422h165l465 -1047v1047h158v-1501q0 -82 -31.5 -154t-85.5 -125.5t-127 -84.5t-155 -31z" />
<glyph unicode="&#x14b;" d="M316 -158v-158h316q59 0 116 27q42 20 78.5 51t63.5 69t42.5 81t15.5 88v711q0 82 -31 154t-84.5 125.5t-125.5 84.5t-154 31q-67 0 -127 -21t-110 -59v80h-158v-1106h158v721q2 47 21 88.5t51 72t74.5 48.5t90.5 18q49 0 92 -18.5t75.5 -51t51 -75.5t18.5 -92v-632 q0 -237 -237 -237h-237z" />
<glyph unicode="&#x14c;" d="M158 1027q0 82 31 154t84.5 125.5t125.5 84.5t154 31t154 -31t125.5 -84.5t84.5 -125.5t31 -154v-632q0 -82 -31 -154t-84.5 -125.5t-125.5 -84.5t-154 -31t-154 31t-125.5 84.5t-84.5 125.5t-31 154v632zM553 1264q-49 0 -92 -18.5t-75.5 -51t-51 -75.5t-18.5 -92v-632 q0 -49 18.5 -92t51 -75.5t75.5 -51t92 -18.5t92 18.5t75.5 51t51 75.5t18.5 92v632q0 49 -18.5 92t-51 75.5t-75.5 51t-92 18.5zM158 1580v158h790v-158h-790z" />
<glyph unicode="&#x14d;" d="M158 711q0 82 31 154t84.5 125.5t125.5 84.5t154 31t154 -31t125.5 -84.5t84.5 -125.5t31 -154v-316q0 -82 -31 -154t-84.5 -125.5t-125.5 -84.5t-154 -31t-154 31t-125.5 84.5t-84.5 125.5t-31 154v316zM316 395q0 -49 18.5 -92t51 -75.5t75.5 -51t92 -18.5t92 18.5 t75.5 51t51 75.5t18.5 92v316q0 49 -18.5 92t-51 75.5t-75.5 51t-92 18.5t-92 -18.5t-75.5 -51t-51 -75.5t-18.5 -92v-316zM158 1265v158h790v-158h-790z" />
<glyph unicode="&#x14e;" d="M158 1027q0 82 31 154t84.5 125.5t125.5 84.5t154 31t154 -31t125.5 -84.5t84.5 -125.5t31 -154v-632q0 -82 -31 -154t-84.5 -125.5t-125.5 -84.5t-154 -31t-154 31t-125.5 84.5t-84.5 125.5t-31 154v632zM553 1264q-49 0 -92 -18.5t-75.5 -51t-51 -75.5t-18.5 -92v-632 q0 -49 18.5 -92t51 -75.5t75.5 -51t92 -18.5t92 18.5t75.5 51t51 75.5t18.5 92v632q0 49 -18.5 92t-51 75.5t-75.5 51t-92 18.5zM552.51 1580q-59.374 0 -104.156 27q-44.7832 27 -74.4697 71.5q-29.6875 44.5 -44.7822 101.5q-15.0957 57 -15.0957 116h159.003 q0 -30 1.00684 -58q1.00586 -28 8.55371 -50.5t23.6494 -36t46.291 -13.5q30.1914 0 46.293 13.5t23.6484 36q7.54785 22.5 8.55469 50.5q1.00586 28 1.00586 58h159.003q0 -59 -15.0947 -116q-15.0957 -57 -44.7832 -101.5t-74.4697 -71.5t-104.157 -27z" />
<glyph unicode="&#x14f;" d="M158 711q0 82 31 154t84.5 125.5t125.5 84.5t154 31t154 -31t125.5 -84.5t84.5 -125.5t31 -154v-316q0 -82 -31 -154t-84.5 -125.5t-125.5 -84.5t-154 -31t-154 31t-125.5 84.5t-84.5 125.5t-31 154v316zM316 395q0 -49 18.5 -92t51 -75.5t75.5 -51t92 -18.5t92 18.5 t75.5 51t51 75.5t18.5 92v316q0 49 -18.5 92t-51 75.5t-75.5 51t-92 18.5t-92 -18.5t-75.5 -51t-51 -75.5t-18.5 -92v-316zM551 1264q-59 0 -103.5 27t-74 71.5t-44.5 101.5t-15 116h158q0 -30 1 -58t8.5 -50.5t23.5 -36t46 -13.5t46 13.5t23.5 36t8.5 50.5t1 58h158 q0 -59 -15 -116t-44.5 -101.5t-74 -71.5t-103.5 -27z" />
<glyph unicode="&#x150;" d="M158 1027q0 82 31 154t84.5 125.5t125.5 84.5t154 31t154 -31t125.5 -84.5t84.5 -125.5t31 -154v-632q0 -82 -31 -154t-84.5 -125.5t-125.5 -84.5t-154 -31t-154 31t-125.5 84.5t-84.5 125.5t-31 154v632zM553 1264q-49 0 -92 -18.5t-75.5 -51t-51 -75.5t-18.5 -92v-632 q0 -49 18.5 -92t51 -75.5t75.5 -51t92 -18.5t92 18.5t75.5 51t51 75.5t18.5 92v632q0 49 -18.5 92t-51 75.5t-75.5 51t-92 18.5zM242.158 1580l-65.8311 79l329.158 237l65.832 -79zM571.158 1580l-65.8311 79l329.158 237l65.832 -79z" />
<glyph unicode="&#x151;" d="M158 711q0 82 31 154t84.5 125.5t125.5 84.5t154 31t154 -31t125.5 -84.5t84.5 -125.5t31 -154v-316q0 -82 -31 -154t-84.5 -125.5t-125.5 -84.5t-154 -31t-154 31t-125.5 84.5t-84.5 125.5t-31 154v316zM316 395q0 -49 18.5 -92t51 -75.5t75.5 -51t92 -18.5t92 18.5 t75.5 51t51 75.5t18.5 92v316q0 49 -18.5 92t-51 75.5t-75.5 51t-92 18.5t-92 -18.5t-75.5 -51t-51 -75.5t-18.5 -92v-316zM242.158 1264l-65.8311 79l329.158 237l65.832 -79zM569.339 1265.02l-65.668 79.502l328.339 238.504l65.668 -79.502z" />
<glyph unicode="&#x152;" d="M632 790h158v-158h-158v-474h316v-158h-474v15q-36 -15 -79 -15q-59 0 -103.5 28.5t-74 80t-44.5 124.5t-15 162v632q0 89 15 162t44.5 124.5t74 80t103.5 28.5q41 0 79 -16v16h474v-158h-316v-474zM395 1264q-30 0 -46 -15t-23.5 -44.5t-8.5 -74t-1 -103.5v-632 q0 -59 1 -103.5t8.5 -74t23.5 -44.5t46 -15q26 0 41.5 15t24 44.5t11 74t2.5 103.5v632q0 59 -1 103.5t-8.5 74t-23.5 44.5t-46 15z" />
<glyph unicode="&#x153;" d="M158 711q0 89 15 162t44.5 124.5t74 80t103.5 28.5t103 -29q31 -19 55 -50q24 31 54 50q45 29 104 29t103.5 -28.5t74 -80t44.5 -124.5t15 -162v-237h-316v-79v-22q0 -46 1 -82q1 -44 8.5 -73.5t23.5 -44.5t46 -15h237v-158h-237q-59 0 -104 28q-30 20 -54 51 q-24 -31 -55 -51q-44 -28 -103 -28t-103.5 28.5t-74 80t-44.5 124.5t-15 162v316zM316 395q0 -59 1 -103.5t8.5 -74t23.5 -44.5t46 -15q29 0 45 15t23.5 44.5t8.5 73.5q1 36 2 82v22v316v22q-1 46 -2 81q-1 45 -8.5 74.5t-23.5 44.5t-45 15q-30 0 -46 -15t-23.5 -44.5 t-8.5 -74t-1 -103.5v-316zM632 632h158v79q0 49 -1.5 92t-9 75.5t-23.5 51t-45 18.5q-30 0 -46 -18.5t-23.5 -51t-8.5 -75.5q-1 -33 -1 -70v-22v-79z" />
<glyph unicode="&#x154;" d="M643 642q312 -639 312 -642h-181q-308 629 -308 632h-150v-632h-158v1422h395q82 0 154 -31t125.5 -84.5t84.5 -125.5t31 -154q0 -70 -23 -133t-64 -114t-97 -87t-121 -51zM553 790q49 0 92 18.5t75.5 51t51 75.5t18.5 92t-18.5 92t-51 75.5t-75.5 51t-92 18.5h-237v-474 h237zM395 1580l-79 79l395 237l79 -79z" />
<glyph unicode="&#x155;" d="M158 0v1106h158v-160q17 31 56 59.5t85.5 51t94 36t80.5 13.5q72 0 123.5 -24t88 -66.5t59.5 -100.5t37 -125h-164q-12 34 -21.5 63t-24 50t-37 33t-61.5 12q-32 0 -68 -12.5t-71 -35t-67 -53t-56.5 -65.5t-39 -73.5t-14.5 -77.5v-631h-158zM395 1264l-79 79l395 237 l79 -79z" />
<glyph unicode="&#x156;" d="M643 642q312 -639 312 -642h-181q-308 629 -308 632h-150v-632h-158v1422h395q82 0 154 -31t125.5 -84.5t84.5 -125.5t31 -154q0 -70 -23 -133t-64 -114t-97 -87t-121 -51zM553 790q49 0 92 18.5t75.5 51t51 75.5t18.5 92t-18.5 92t-51 75.5t-75.5 51t-92 18.5h-237v-474 h237zM395 -631q-33 0 -56 23t-23 56t23 56t56 23q30 0 46 10.5t23.5 30.5t8.5 49.5t1 67.5q-33 0 -61.5 12.5t-50 34t-34 50t-12.5 61.5t12.5 61.5t34 50t50 34t61.5 12.5t61.5 -12.5t50 -34t34 -50t12.5 -61.5v-158q0 -59 -15 -116t-44.5 -101.5t-74 -71.5t-103.5 -27z" />
<glyph unicode="&#x157;" d="M158 0v1106h158v-160q17 31 56 59.5t85.5 51t94 36t80.5 13.5q72 0 123.5 -24t88 -66.5t59.5 -100.5t37 -125h-164q-12 34 -21.5 63t-24 50t-37 33t-61.5 12q-32 0 -68 -12.5t-71 -35t-67 -53t-56.5 -65.5t-39 -73.5t-14.5 -77.5v-631h-158zM238 -631q-33 0 -56 23 t-23 56t23 56t56 23q30 0 46 10.5t23.5 30.5t8.5 49.5t1 67.5q-33 0 -61.5 12.5t-50 34t-34 50t-12.5 61.5t12.5 61.5t34 50t50 34t61.5 12.5t61.5 -12.5t50 -34t34 -50t12.5 -61.5v-158q0 -59 -15 -116t-44.5 -101.5t-74 -71.5t-103.5 -27z" />
<glyph unicode="&#x158;" d="M643 642q312 -639 312 -642h-181q-308 629 -308 632h-150v-632h-158v1422h395q82 0 154 -31t125.5 -84.5t84.5 -125.5t31 -154q0 -70 -23 -133t-64 -114t-97 -87t-121 -51zM553 790q49 0 92 18.5t75.5 51t51 75.5t18.5 92t-18.5 92t-51 75.5t-75.5 51t-92 18.5h-237v-474 h237zM314 1817l79 79l158 -158l158 158l79 -79l-237 -237z" />
<glyph unicode="&#x159;" d="M158 0v1106h158v-160q17 31 56 59.5t85.5 51t94 36t80.5 13.5q72 0 123.5 -24t88 -66.5t59.5 -100.5t37 -125h-164q-12 34 -21.5 63t-24 50t-37 33t-61.5 12q-32 0 -68 -12.5t-71 -35t-67 -53t-56.5 -65.5t-39 -73.5t-14.5 -77.5v-631h-158zM314 1501l79 79l158 -158 l158 158l79 -79l-237 -237z" />
<glyph unicode="&#x15a;" d="M316 1027q0 -49 18.5 -92t51 -75.5t75.5 -51t92 -18.5q82 0 154 -31t125.5 -84.5t84.5 -125.5t31 -154t-31 -154t-84.5 -125.5t-125.5 -84.5t-154 -31h-395v158h395q49 0 92 18.5t75.5 51t51 75.5t18.5 92t-18.5 92t-51 75.5t-75.5 51t-92 18.5q-82 0 -154 31 t-125.5 84.5t-84.5 125.5t-31 154t31 154t84.5 125.5t125.5 84.5t154 31h395v-158h-395q-49 0 -92 -18.5t-75.5 -51t-51 -75.5t-18.5 -92zM395 1580l-79 79l395 237l79 -79z" />
<glyph unicode="&#x15b;" d="M948 1106v-158h-395q-59 0 -103.5 -13.5t-74 -36t-44.5 -50.5t-15 -58t15 -58t44.5 -50.5t74 -36t103.5 -13.5q39 0 84 -7t89 -22t84 -39.5t70.5 -59.5t49 -81t18.5 -105q0 -60 -28.5 -117t-80 -102t-124.5 -72t-162 -27h-395v158h395q59 0 103.5 13.5t74 36t44.5 51.5 t15 59q0 29 -15 57t-44.5 50t-74 35.5t-103.5 13.5q-39 0 -84 7t-89 22.5t-84 40t-70.5 59.5t-49 81.5t-18.5 105.5t28.5 116t80 101.5t124.5 71.5t162 27h395zM395 1264l-79 79l395 237l79 -79z" />
<glyph unicode="&#x15c;" d="M316 1027q0 -49 18.5 -92t51 -75.5t75.5 -51t92 -18.5q82 0 154 -31t125.5 -84.5t84.5 -125.5t31 -154t-31 -154t-84.5 -125.5t-125.5 -84.5t-154 -31h-395v158h395q49 0 92 18.5t75.5 51t51 75.5t18.5 92t-18.5 92t-51 75.5t-75.5 51t-92 18.5q-82 0 -154 31 t-125.5 84.5t-84.5 125.5t-31 154t31 154t84.5 125.5t125.5 84.5t154 31h395v-158h-395q-49 0 -92 -18.5t-75.5 -51t-51 -75.5t-18.5 -92zM551 1896l237 -237l-79 -79l-158 158l-158 -158l-79 79z" />
<glyph unicode="&#x15d;" d="M948 1106v-158h-395q-59 0 -103.5 -13.5t-74 -36t-44.5 -50.5t-15 -58t15 -58t44.5 -50.5t74 -36t103.5 -13.5q39 0 84 -7t89 -22t84 -39.5t70.5 -59.5t49 -81t18.5 -105q0 -60 -28.5 -117t-80 -102t-124.5 -72t-162 -27h-395v158h395q59 0 103.5 13.5t74 36t44.5 51.5 t15 59q0 29 -15 57t-44.5 50t-74 35.5t-103.5 13.5q-39 0 -84 7t-89 22.5t-84 40t-70.5 59.5t-49 81.5t-18.5 105.5t28.5 116t80 101.5t124.5 71.5t162 27h395zM551 1580l237 -237l-79 -79l-158 158l-158 -158l-79 79z" />
<glyph unicode="&#x15e;" d="M316 1027q0 -49 18.5 -92t51 -75.5t75.5 -51t92 -18.5q82 0 154 -31t125.5 -84.5t84.5 -125.5t31 -154t-31 -154t-84.5 -125.5t-125.5 -84.5q-36 -16 -75 -24l-5 -49q-5 -64 -28 -118q-29 -72 -88.5 -116.5t-148.5 -57t-207 17.5v158q89 -30 149.5 -31t97.5 21t53 65.5 t16 102.5h-313v158h395q49 0 92 18.5t75.5 51t51 75.5t18.5 92t-18.5 92t-51 75.5t-75.5 51t-92 18.5q-82 0 -154 31t-125.5 84.5t-84.5 125.5t-31 154t31 154t84.5 125.5t125.5 84.5t154 31h395v-158h-395q-49 0 -92 -18.5t-75.5 -51t-51 -75.5t-18.5 -92z" />
<glyph unicode="&#x15f;" d="M632 0q0 -89 -29.5 -160.5t-89.5 -116t-149.5 -57t-208.5 17.5v158q90 -30 150.5 -31t98 21t53.5 65.5t16 102.5h-315v158h395q59 0 103.5 13.5t74 36t44.5 51.5t15 59q0 29 -15 57t-44.5 50t-74 35.5t-103.5 13.5q-39 0 -84 7t-89 22.5t-84 40t-70.5 59.5t-49 81.5 t-18.5 105.5t28.5 116t80 101.5t124.5 71.5t162 27h395v-158h-395q-59 0 -103.5 -13.5t-74 -36t-44.5 -50.5t-15 -58t15 -58t44.5 -50.5t74 -36t103.5 -13.5q39 0 84 -7t89 -22t84 -39.5t70.5 -59.5t49 -81t18.5 -105q0 -60 -28.5 -117t-80 -102t-124.5 -72q-39 -15 -83 -21 v-6z" />
<glyph unicode="&#x160;" d="M316 1027q0 -49 18.5 -92t51 -75.5t75.5 -51t92 -18.5q82 0 154 -31t125.5 -84.5t84.5 -125.5t31 -154t-31 -154t-84.5 -125.5t-125.5 -84.5t-154 -31h-395v158h395q49 0 92 18.5t75.5 51t51 75.5t18.5 92t-18.5 92t-51 75.5t-75.5 51t-92 18.5q-82 0 -154 31 t-125.5 84.5t-84.5 125.5t-31 154t31 154t84.5 125.5t125.5 84.5t154 31h395v-158h-395q-49 0 -92 -18.5t-75.5 -51t-51 -75.5t-18.5 -92zM316 1817l79 79l158 -158l158 158l79 -79l-237 -237z" />
<glyph unicode="&#x161;" d="M948 1106v-158h-395q-59 0 -103.5 -13.5t-74 -36t-44.5 -50.5t-15 -58t15 -58t44.5 -50.5t74 -36t103.5 -13.5q39 0 84 -7t89 -22t84 -39.5t70.5 -59.5t49 -81t18.5 -105q0 -60 -28.5 -117t-80 -102t-124.5 -72t-162 -27h-395v158h395q59 0 103.5 13.5t74 36t44.5 51.5 t15 59q0 29 -15 57t-44.5 50t-74 35.5t-103.5 13.5q-39 0 -84 7t-89 22.5t-84 40t-70.5 59.5t-49 81.5t-18.5 105.5t28.5 116t80 101.5t124.5 71.5t162 27h395zM316 1501l79 79l158 -158l158 158l79 -79l-237 -237z" />
<glyph unicode="&#x162;" d="M474 1264h-316v158h790v-158h-316v-1264h-158v1264zM395 -631q-33 0 -56 23t-23 56t23 56t56 23q30 0 46 10.5t23.5 30.5t8.5 49.5t1 67.5q-33 0 -61.5 12.5t-50 34t-34 50t-12.5 61.5t12.5 61.5t34 50t50 34t61.5 12.5t61.5 -12.5t50 -34t34 -50t12.5 -61.5v-158 q0 -59 -15 -116t-44.5 -101.5t-74 -71.5t-103.5 -27z" />
<glyph unicode="&#x163;" d="M158 1106h158v316h158v-316h316v-158h-316v-553q0 -49 18.5 -92t51 -75.5t75.5 -51t92 -18.5h237v-158h-237q-82 0 -154 31t-125.5 84.5t-84.5 125.5t-31 154v553h-158v158zM552.508 -631q-33.21 0 -56.3555 23q-23.1465 23 -23.1465 56t23.1465 56 q23.1455 23 56.3555 23q30.1895 0 46.291 10.5t23.6494 30.5t8.55371 49.5q1.00684 29.5 1.00684 67.5q-33.21 0 -61.8906 12.5t-50.3174 34t-34.2158 50t-12.5791 61.5t12.5791 61.5t34.2158 50t50.3174 34t61.8906 12.5t61.8906 -12.5t50.3174 -34t34.2158 -50 t12.5791 -61.5v-158q0 -59 -15.0957 -116q-15.0947 -57 -44.7822 -101.5q-29.6865 -44.5 -74.4697 -71.5q-44.7822 -27 -104.156 -27z" />
<glyph unicode="&#x164;" d="M474 1264h-316v158h790v-158h-316v-1264h-158v1264zM314 1817l79 79l158 -158l158 158l79 -79l-237 -237z" />
<glyph unicode="&#x165;" d="M158 1106h158v316h158v-316h316v-158h-316v-553q0 -49 18.5 -92t51 -75.5t75.5 -51t92 -18.5h237v-158h-237q-82 0 -154 31t-125.5 84.5t-84.5 125.5t-31 154v553h-158v158zM711 1264q-33 0 -56 23t-23 56t23 56t56 23q30 0 46 10.5t23.5 30.5t8.5 49.5t1 67.5 q-33 0 -61.5 12.5t-50 34t-34 50t-12.5 61.5t12.5 61.5t34 50t50 34t61.5 12.5t61.5 -12.5t50 -34t34 -50t12.5 -61.5v-158q0 -59 -15 -116t-44.5 -101.5t-74 -71.5t-103.5 -27z" />
<glyph unicode="&#x166;" d="M158 790v158h316v316h-316v158h790v-158h-316v-316h316v-158h-316v-790h-158v790h-316z" />
<glyph unicode="&#x167;" d="M158 790h158v158h-158v158h158v316h158v-316h316v-158h-316v-158h316v-158h-316v-237q0 -49 18.5 -92t51 -75.5t75.5 -51t92 -18.5h237v-158h-237q-82 0 -154 31t-125.5 84.5t-84.5 125.5t-31 154v237h-158v158z" />
<glyph unicode="&#x168;" d="M158 1422h158v-1027q0 -49 18.5 -92t51 -75.5t75.5 -51t92 -18.5t92 18.5t75.5 51t51 75.5t18.5 92v1027h158v-1027q0 -82 -31 -154t-84.5 -125.5t-125.5 -84.5t-154 -31t-154 31t-125.5 84.5t-84.5 125.5t-31 154v395v632zM946 1817q-119 -237 -237 -237 q-59 0 -94.5 11.5t-57.5 29.5t-35.5 38t-29 38t-38 29.5t-61.5 11.5q-30 0 -58 -13.5t-50.5 -36t-36 -50.5t-13.5 -58l-79 79q118 237 237 237q59 0 94.5 -11.5t57.5 -29.5t35.5 -38t29 -38t37.5 -29.5t62 -11.5q30 0 58 13.5t50.5 36t36 50.5t13.5 58z" />
<glyph unicode="&#x169;" d="M316 395q0 -49 18.5 -92t51 -75.5t75.5 -51t92 -18.5q48 0 91 19t75.5 51.5t51.5 75.5t19 91v711h158v-1106h-158v79q-50 -37 -110 -58t-127 -21q-82 0 -154 31t-125.5 84.5t-84.5 125.5t-31 154v711h158v-711v0zM946 1501q-119 -237 -237 -237q-59 0 -94.5 11.5 t-57.5 29.5t-35.5 38t-29 38t-38 29.5t-61.5 11.5q-30 0 -58 -13.5t-50.5 -36t-36 -50.5t-13.5 -58l-79 79q118 237 237 237q59 0 94.5 -11.5t57.5 -29.5t35.5 -38t29 -38t37.5 -29.5t62 -11.5q30 0 58 13.5t50.5 36t36 50.5t13.5 58z" />
<glyph unicode="&#x16a;" d="M158 1422h158v-1027q0 -49 18.5 -92t51 -75.5t75.5 -51t92 -18.5t92 18.5t75.5 51t51 75.5t18.5 92v1027h158v-1027q0 -82 -31 -154t-84.5 -125.5t-125.5 -84.5t-154 -31t-154 31t-125.5 84.5t-84.5 125.5t-31 154v395v632zM158 1583.98v163.998h790v-163.998h-790z" />
<glyph unicode="&#x16b;" d="M316 395q0 -49 18.5 -92t51 -75.5t75.5 -51t92 -18.5q48 0 91 19t75.5 51.5t51.5 75.5t19 91v711h158v-1106h-158v79q-50 -37 -110 -58t-127 -21q-82 0 -154 31t-125.5 84.5t-84.5 125.5t-31 154v711h158v-711v0zM158 1265v158h790v-158h-790z" />
<glyph unicode="&#x16c;" d="M158 1422h158v-1027q0 -49 18.5 -92t51 -75.5t75.5 -51t92 -18.5t92 18.5t75.5 51t51 75.5t18.5 92v1027h158v-1027q0 -82 -31 -154t-84.5 -125.5t-125.5 -84.5t-154 -31t-154 31t-125.5 84.5t-84.5 125.5t-31 154v395v632zM551 1580q-59 0 -103.5 27t-74 71.5 t-44.5 101.5t-15 116h158q0 -30 1 -58t8.5 -50.5t23.5 -36t46 -13.5t46 13.5t23.5 36t8.5 50.5t1 58h158q0 -59 -15 -116t-44.5 -101.5t-74 -71.5t-103.5 -27z" />
<glyph unicode="&#x16d;" d="M316 395q0 -49 18.5 -92t51 -75.5t75.5 -51t92 -18.5q48 0 91 19t75.5 51.5t51.5 75.5t19 91v711h158v-1106h-158v79q-50 -37 -110 -58t-127 -21q-82 0 -154 31t-125.5 84.5t-84.5 125.5t-31 154v711h158v-711v0zM551 1264q-59 0 -103.5 27t-74 71.5t-44.5 101.5t-15 116 h158q0 -30 1 -58t8.5 -50.5t23.5 -36t46 -13.5t46 13.5t23.5 36t8.5 50.5t1 58h158q0 -59 -15 -116t-44.5 -101.5t-74 -71.5t-103.5 -27z" />
<glyph unicode="&#x16e;" d="M158 1422h158v-1027q0 -49 18.5 -92t51 -75.5t75.5 -51t92 -18.5t92 18.5t75.5 51t51 75.5t18.5 92v1027h158v-1027q0 -82 -31 -154t-84.5 -125.5t-125.5 -84.5t-154 -31t-154 31t-125.5 84.5t-84.5 125.5t-31 154v395v632zM314 1817q0 49 18.5 92t51 75.5t75.5 51 t92 18.5t92 -18.5t75.5 -51t51 -75.5t18.5 -92t-18.5 -92t-51 -75.5t-75.5 -51t-92 -18.5t-92 18.5t-75.5 51t-51 75.5t-18.5 92zM472 1817q0 -33 23 -56t56 -23t56 23t23 56t-23 56t-56 23t-56 -23t-23 -56z" />
<glyph unicode="&#x16f;" d="M316 395q0 -49 18.5 -92t51 -75.5t75.5 -51t92 -18.5q48 0 91 19t75.5 51.5t51.5 75.5t19 91v711h158v-1106h-158v79q-50 -37 -110 -58t-127 -21q-82 0 -154 31t-125.5 84.5t-84.5 125.5t-31 154v711h158v-711v0zM314 1501q0 49 18.5 92t51 75.5t75.5 51t92 18.5 t92 -18.5t75.5 -51t51 -75.5t18.5 -92t-18.5 -92t-51 -75.5t-75.5 -51t-92 -18.5t-92 18.5t-75.5 51t-51 75.5t-18.5 92zM472 1501q0 -33 23 -56t56 -23t56 23t23 56t-23 56t-56 23t-56 -23t-23 -56z" />
<glyph unicode="&#x170;" d="M158 1422h158v-1027q0 -49 18.5 -92t51 -75.5t75.5 -51t92 -18.5t92 18.5t75.5 51t51 75.5t18.5 92v1027h158v-1027q0 -82 -31 -154t-84.5 -125.5t-125.5 -84.5t-154 -31t-154 31t-125.5 84.5t-84.5 125.5t-31 154v395v632zM242.158 1580l-65.8311 79l329.158 237 l65.832 -79zM571.158 1580l-65.8311 79l329.158 237l65.832 -79z" />
<glyph unicode="&#x171;" d="M316 395q0 -49 18.5 -92t51 -75.5t75.5 -51t92 -18.5q48 0 91 19t75.5 51.5t51.5 75.5t19 91v711h158v-1106h-158v79q-50 -37 -110 -58t-127 -21q-82 0 -154 31t-125.5 84.5t-84.5 125.5t-31 154v711h158v-711v0zM242.158 1264l-65.8311 79l329.158 237l65.832 -79z M571.158 1264l-65.8311 79l329.158 237l65.832 -79z" />
<glyph unicode="&#x172;" d="M158 1422h158v-1027q0 -49 18.5 -92t51 -75.5t75.5 -51t92 -18.5t92 18.5t75.5 51t51 75.5t18.5 92v1027h158v-1027q0 -82 -31 -154t-84.5 -125.5t-125.5 -84.5t-154 -31t-154 31t-125.5 84.5t-84.5 125.5t-31 154v395v632zM474.039 0q0 -89 29.498 -160.5t88.9941 -116 t148.491 -57q88.9941 -12.5 206.987 17.5v158q-88.9951 -30 -149.491 -31t-97.4941 21q-36.9971 22 -52.9961 65.5t-15.999 102.5h-157.99z" />
<glyph unicode="&#x173;" d="M316 395q0 -49 18.5 -92t51 -75.5t75.5 -51t92 -18.5q48 0 91 19t75.5 51.5t51.5 75.5t19 91v711h158v-1106h-158v79q-50 -37 -110 -58t-127 -21q-82 0 -154 31t-125.5 84.5t-84.5 125.5t-31 154v711h158v-711v0zM474.039 0q0 -89 29.498 -160.5t88.9941 -116 t148.491 -57q88.9941 -12.5 206.987 17.5v158q-88.9951 -30 -149.491 -31t-97.4941 21q-36.9971 22 -52.9961 65.5t-15.999 102.5h-157.99z" />
<glyph unicode="&#x174;" d="M790 1422h158v-1422h-158l-237 474l-237 -474h-158v1422h158v-1106l237 414l237 -414v1106zM551 1896l237 -237l-79 -79l-158 158l-158 -158l-79 79z" />
<glyph unicode="&#x175;" d="M632 237q0 -79 79 -79t79 79v869h158v-909q0 -41 -15.5 -77t-42.5 -62.5t-63 -42t-77 -15.5q-36 0 -68.5 12t-58 33t-43 50t-24.5 63h-7q-7 -34 -25 -63t-43.5 -50t-57.5 -33t-68 -12q-41 0 -77 15.5t-62.5 42t-42 62.5t-15.5 77v909h158v-869h1q-1 -79 78 -79t78 79h1 v395h158v-395zM551 1580l237 -237l-79 -79l-158 158l-158 -158l-79 79z" />
<glyph unicode="&#x176;" d="M474 472l-316 950h158l237 -711l237 711h158l-316 -948v-474h-158v472zM551 1896l237 -237l-79 -79l-158 158l-158 -158l-79 79z" />
<glyph unicode="&#x177;" d="M316 395q0 -49 18.5 -92t51 -75.5t75.5 -51t92 -18.5q48 0 90 17.5t74 48.5t51.5 72t21.5 99v711h158v-1185q0 -82 -31 -154t-84.5 -125.5t-125.5 -84.5t-154 -31h-237v158h237q49 0 92 18.5t75.5 51t51 75.5t18.5 92v158q-50 -37 -110 -58t-127 -21q-82 0 -154 31 t-125.5 84.5t-84.5 125.5t-31 154v711h158v-711v0zM551 1580l237 -237l-79 -79l-158 158l-158 -158l-79 79z" />
<glyph unicode="&#x178;" d="M474 472l-316 950h158l237 -711l237 711h158l-316 -948v-474h-158v472zM314 1659q0 33 23 56t56 23t56 -23t23 -56t-23 -56t-56 -23t-56 23t-23 56zM630 1659q0 33 23 56t56 23t56 -23t23 -56t-23 -56t-56 -23t-56 23t-23 56z" />
<glyph unicode="&#x179;" d="M158 158l609 1106h-609v158h790v-158l-597 -1106h597v-158h-790v158zM395 1580l-79 79l395 237l79 -79z" />
<glyph unicode="&#x17a;" d="M760 948h-602v158h790v-158l-603 -790h603v-158h-790v158zM395 1264l-79 79l395 237l79 -79z" />
<glyph unicode="&#x17b;" d="M158 158l609 1106h-609v158h790v-158l-597 -1106h597v-158h-790v158zM471 1659q0 33 23 56t56 23t56 -23t23 -56t-23 -56t-56 -23t-56 23t-23 56z" />
<glyph unicode="&#x17c;" d="M760 948h-602v158h790v-158l-603 -790h603v-158h-790v158zM471 1343q0 33 23 56t56 23t56 -23t23 -56t-23 -56t-56 -23t-56 23t-23 56z" />
<glyph unicode="&#x17d;" d="M158 158l609 1106h-609v158h790v-158l-597 -1106h597v-158h-790v158zM314 1817l79 79l158 -158l158 158l79 -79l-237 -237z" />
<glyph unicode="&#x17e;" d="M760 948h-602v158h790v-158l-603 -790h603v-158h-790v158zM314 1501l79 79l158 -158l158 158l79 -79l-237 -237z" />
<glyph unicode="&#x17f;" d="M158 948h158v79q0 82 31 154t84.5 125.5t125.5 84.5t154 31h237v-158h-237q-49 0 -92 -18.5t-75.5 -51t-51 -75.5t-18.5 -92v-1027h-158v790h-158v158z" />
<glyph unicode="&#x191;" d="M316 1422h790v-158h-632v-474h474v-158h-474v-711q0 -82 -31 -154t-84.5 -125.5t-125.5 -84.5t-154 -31h-79v158h79q49 0 92 18.5t75.5 51t51 75.5t18.5 92v1501z" />
<glyph unicode="&#x192;" d="M869 1264q-49 0 -92 -18.5t-75.5 -51t-51 -75.5t-18.5 -92v-79h316v-158h-316v-869q0 -82 -31 -154t-84.5 -125.5t-125.5 -84.5t-154 -31h-79v158h79q49 0 92 18.5t75.5 51t51 75.5t18.5 92v869h-158v158h158v79q0 82 31 154t84.5 125.5t125.5 84.5t154 31h79v-158h-79v0 z" />
<glyph unicode="&#x1cf;" d="M158 158h316v1106h-316v158h790v-158h-316v-1106h316v-158h-790v158zM314 1817l79 79l158 -158l158 158l79 -79l-237 -237z" />
<glyph unicode="&#x1d0;" d="M314 1501l79 79l158 -158l158 158l79 -79l-237 -237zM474 948h-158v158h316v-1106h-158v948z" />
<glyph unicode="&#x1d1;" d="M158 1027q0 82 31 154t84.5 125.5t125.5 84.5t154 31t154 -31t125.5 -84.5t84.5 -125.5t31 -154v-632q0 -82 -31 -154t-84.5 -125.5t-125.5 -84.5t-154 -31t-154 31t-125.5 84.5t-84.5 125.5t-31 154v632zM553 1264q-49 0 -92 -18.5t-75.5 -51t-51 -75.5t-18.5 -92v-632 q0 -49 18.5 -92t51 -75.5t75.5 -51t92 -18.5t92 18.5t75.5 51t51 75.5t18.5 92v632q0 49 -18.5 92t-51 75.5t-75.5 51t-92 18.5zM314 1817l79 79l158 -158l158 158l79 -79l-237 -237z" />
<glyph unicode="&#x1d2;" d="M158 711q0 82 31 154t84.5 125.5t125.5 84.5t154 31t154 -31t125.5 -84.5t84.5 -125.5t31 -154v-316q0 -82 -31 -154t-84.5 -125.5t-125.5 -84.5t-154 -31t-154 31t-125.5 84.5t-84.5 125.5t-31 154v316zM316 395q0 -49 18.5 -92t51 -75.5t75.5 -51t92 -18.5t92 18.5 t75.5 51t51 75.5t18.5 92v316q0 49 -18.5 92t-51 75.5t-75.5 51t-92 18.5t-92 -18.5t-75.5 -51t-51 -75.5t-18.5 -92v-316zM314 1501l79 79l158 -158l158 158l79 -79l-237 -237z" />
<glyph unicode="&#x1d3;" d="M158 1422h158v-1027q0 -49 18.5 -92t51 -75.5t75.5 -51t92 -18.5t92 18.5t75.5 51t51 75.5t18.5 92v1027h158v-1027q0 -82 -31 -154t-84.5 -125.5t-125.5 -84.5t-154 -31t-154 31t-125.5 84.5t-84.5 125.5t-31 154v395v632zM314 1817l79 79l158 -158l158 158l79 -79 l-237 -237z" />
<glyph unicode="&#x1d4;" d="M316 395q0 -49 18.5 -92t51 -75.5t75.5 -51t92 -18.5q48 0 91 19t75.5 51.5t51.5 75.5t19 91v711h158v-1106h-158v79q-50 -37 -110 -58t-127 -21q-82 0 -154 31t-125.5 84.5t-84.5 125.5t-31 154v711h158v-711v0zM314 1501l79 79l158 -158l158 158l79 -79l-237 -237z" />
<glyph unicode="&#x1e6;" d="M790 158q0 -30 -24.5 -58t-60.5 -50.5t-77.5 -36t-74.5 -13.5q-82 0 -154 31t-125.5 84.5t-84.5 125.5t-31 154v632q0 82 31 154t84.5 125.5t125.5 84.5t154 31q72 0 136 -24t115 -66.5t86.5 -100.5t49.5 -125h-164q-12 34 -34 63t-51 50t-64 33t-74 12q-49 0 -92 -18.5 t-75.5 -51t-51 -75.5t-18.5 -92v-632q0 -49 18.5 -92t51 -75.5t75.5 -51t92 -18.5q48 0 91 26t75.5 63t51.5 77.5t19 70.5v237h-158v158h316v-790h-158v158zM316 1817l79 79l158 -158l158 158l79 -79l-237 -237z" />
<glyph unicode="&#x1e7;" d="M316 -316h237q49 0 92 18.5t75.5 51t51 75.5t18.5 92v158q-50 -37 -110 -58t-127 -21q-82 0 -154 31t-125.5 84.5t-84.5 125.5t-31 154v316q0 82 31 154t84.5 125.5t125.5 84.5t154 31q67 0 127 -21t110 -59v80h158v-1185q0 -82 -31 -154t-84.5 -125.5t-125.5 -84.5 t-154 -31h-237v158zM316 395q0 -49 18.5 -92t51 -75.5t75.5 -51t92 -18.5q48 0 90 17.5t74 48.5t51.5 72t21.5 89v336q-2 47 -21.5 88.5t-51.5 72t-74 48.5t-90 18q-49 0 -92 -18.5t-75.5 -51t-51 -75.5t-18.5 -92v-316zM316 1501l79 79l158 -158l158 158l79 -79l-237 -237z " />
<glyph unicode="&#x1e8;" d="M316 761l454 661h178l-474 -711l474 -711h-180l-452 666v-666h-158v1422h158v-661zM314 1817l79 79l158 -158l158 158l79 -79l-237 -237z" />
<glyph unicode="&#x1e9;" d="M316 632h38l400 474h194l-453 -553l453 -553h-194l-400 474h-38v-474h-158v1422h158v-790zM314 1501l79 79l158 -158l158 158l79 -79l-237 -237z" />
<glyph unicode="&#x1f8;" d="M158 0v1422h158l474 -1052v1052h158v-1422h-158l-474 1052v-1052h-158zM313 1738v158l474 -237v-158z" />
<glyph unicode="&#x1f9;" d="M553 948q-48 0 -90.5 -18t-74.5 -48.5t-51 -72t-21 -88.5v-721h-158v1106h158v-80q50 38 110 59t127 21q82 0 154 -31t125.5 -84.5t84.5 -125.5t31 -154v-711h-158v711q0 49 -18.5 92t-51 75.5t-75.5 51t-92 18.5zM313 1422v158l474 -237v-158z" />
<glyph unicode="&#x1fc;" d="M158 1106q0 59 27 116t71.5 101.5t101.5 71.5t116 27h474v-158h-316v-474h158v-158h-158v-474h316v-158h-474v632h-158v-632h-158v1106zM474 790v474q-45 0 -75 -18.5t-48.5 -44t-26.5 -52.5t-8 -43v-316h158zM395 1580l-79 79l395 237l79 -79z" />
<glyph unicode="&#x1fd;" d="M395 0q-59 0 -103.5 27t-74 71.5t-44.5 101.5t-15 116t15 116t44.5 101.5t74 71.5t103.5 27h79q0 118 -13.5 182.5t-36 94t-50.5 34.5t-58 5v158q16 0 40 -1t51.5 -5.5t57.5 -15t57 -29.5q23 23 51.5 37t58.5 14h79q59 0 103.5 -27t74 -71.5t44.5 -101.5t15 -116 t-15 -116t-44.5 -101.5t-74 -71.5t-103.5 -27h-79q0 -79 3 -133t8.5 -89t13 -54.5t16.5 -28t18.5 -10t19.5 -1.5q18 0 32.5 13.5t25 36t16 50.5t5.5 58h158q0 -89 -15 -149.5t-44.5 -97.5t-74 -53t-103.5 -16h-316zM395 474q-17 0 -31.5 -13.5t-25 -36t-16.5 -50.5t-6 -58 t6 -58t16.5 -50.5t25 -36t31.5 -13.5h79v316h-79zM711 632q17 0 31.5 13.5t25 36t16.5 50.5t6 58t-6 58t-16.5 50.5t-25 36t-31.5 13.5h-79v-316h79zM395 1263.98l-79 78.498l395 235.496l79 -78.498z" />
<glyph unicode="&#x1fe;" d="M395 1580l-79 79l395 237l79 -79zM339.354 0h-181.33q0 6.42871 1.95996 15.4287q1.96094 9 9.80176 30.2139q7.8418 21.2139 24.0146 60.4277q16.1729 39.2148 45.5771 104.785q-34.3057 63 -53.9092 138.214q-19.6025 75.2139 -19.6025 158.784v406.283 q0 105.428 30.3848 197.999q30.3848 92.5703 82.8242 161.355q52.4385 68.7852 123.01 108.643q70.5723 39.8564 150.945 39.8564q50.9688 0 97.5264 -16.7139t88.7051 -46.2852l27.4443 62.999h181.33q0 -6.42871 -1.95996 -16.0713q-1.96094 -9.64258 -10.292 -30.8564 q-8.33105 -21.2148 -24.5039 -59.7861q-16.1729 -38.5703 -44.5977 -104.142q34.3057 -63 53.9092 -138.214t19.6035 -158.784v-406.283q0 -105.428 -30.3857 -197.998q-30.3848 -92.5713 -82.8232 -161.356t-123.011 -108.643q-70.5713 -39.8564 -150.945 -39.8564 q-50.9688 0 -98.0166 16.7139q-47.0479 16.7148 -88.2139 46.2861zM785.329 914.137q0 21.8574 -2.4502 43.7139q-2.4502 21.8574 -7.35156 42.4287l-332.275 -761.138q49.9883 -36 109.778 -36q48.0283 0 90.1748 23.7852q42.1475 23.7861 74.0029 65.5713t49.9883 97.0703 q18.1328 55.2861 18.1328 118.285v406.283zM320.731 507.854q0 -48.8564 9.80176 -87.4277l331.295 762.424q-24.5039 16.7139 -51.9482 26.3564t-56.8496 9.64258q-48.0283 0 -90.1748 -23.7852q-42.1475 -23.7861 -74.002 -65.5713q-31.8555 -41.7852 -49.9893 -97.0703 q-18.1328 -55.2852 -18.1328 -118.285v-406.283z" />
<glyph unicode="&#x1ff;" d="M395 1263.99l-79 78.749l395 236.248l79 -78.749zM335 0h-185q0 5 2 12t10 23.5t24.5 47t46.5 81.5q-35 49 -55 107.5t-20 123.5v316q0 82 31 154t84.5 125.5t125.5 84.5t154 31q52 0 99.5 -13t90.5 -36l28 49h185q0 -5 -2 -12.5t-10.5 -24t-25 -46.5t-45.5 -81 q35 -49 55 -107.5t20 -123.5v-316q0 -82 -31 -154t-84.5 -125.5t-125.5 -84.5t-154 -31q-52 0 -100 13t-90 36zM790 711q0 17 -2.5 34t-7.5 33l-339 -592q51 -28 112 -28q49 0 92 18.5t75.5 51t51 75.5t18.5 92v316zM316 395q0 -38 10 -68l338 593q-25 13 -53 20.5t-58 7.5 q-49 0 -92 -18.5t-75.5 -51t-51 -75.5t-18.5 -92v-316z" />
<glyph unicode="&#x218;" d="M316 1027q0 -49 18.5 -92t51 -75.5t75.5 -51t92 -18.5q82 0 154 -31t125.5 -84.5t84.5 -125.5t31 -154t-31 -154t-84.5 -125.5t-125.5 -84.5t-154 -31h-395v158h395q49 0 92 18.5t75.5 51t51 75.5t18.5 92t-18.5 92t-51 75.5t-75.5 51t-92 18.5q-82 0 -154 31 t-125.5 84.5t-84.5 125.5t-31 154t31 154t84.5 125.5t125.5 84.5t154 31h395v-158h-395q-49 0 -92 -18.5t-75.5 -51t-51 -75.5t-18.5 -92zM395 -631q-33 0 -56 23t-23 56t23 56t56 23q30 0 46 10.5t23.5 30.5t8.5 49.5t1 67.5q-33 0 -61.5 12.5t-50 34t-34 50t-12.5 61.5 t12.5 61.5t34 50t50 34t61.5 12.5t61.5 -12.5t50 -34t34 -50t12.5 -61.5v-158q0 -59 -15 -116t-44.5 -101.5t-74 -71.5t-103.5 -27z" />
<glyph unicode="&#x219;" d="M948 1106v-158h-395q-59 0 -103.5 -13.5t-74 -36t-44.5 -50.5t-15 -58t15 -58t44.5 -50.5t74 -36t103.5 -13.5q39 0 84 -7t89 -22t84 -39.5t70.5 -59.5t49 -81t18.5 -105q0 -60 -28.5 -117t-80 -102t-124.5 -72t-162 -27h-395v158h395q59 0 103.5 13.5t74 36t44.5 51.5 t15 59q0 29 -15 57t-44.5 50t-74 35.5t-103.5 13.5q-39 0 -84 7t-89 22.5t-84 40t-70.5 59.5t-49 81.5t-18.5 105.5t28.5 116t80 101.5t124.5 71.5t162 27h395zM395.746 -631q-32.8945 0 -55.8223 23q-22.9268 23 -22.9268 56t22.9268 56q22.9277 23 55.8223 23 q29.9053 0 45.8545 10.5t23.4248 30.5q7.47656 20 8.47363 49.5t0.99707 67.5q-32.8955 0 -61.3057 12.5q-28.4092 12.5 -49.8408 34t-33.8926 50q-12.46 28.5 -12.46 61.5t12.46 61.5q12.4609 28.5 33.8926 50t49.8408 34q28.4102 12.5 61.3057 12.5 q32.8945 0 61.3047 -12.5q28.4092 -12.5 49.8408 -34t33.8926 -50q12.46 -28.5 12.46 -61.5v-158q0 -59 -14.9521 -116t-44.3594 -101.5q-29.4062 -44.5 -73.7646 -71.5q-44.3594 -27 -103.172 -27z" />
<glyph unicode="&#x21a;" d="M474 1264h-316v158h790v-158h-316v-1264h-158v1264zM395 -631q-33 0 -56 23t-23 56t23 56t56 23q30 0 46 10.5t23.5 30.5t8.5 49.5t1 67.5q-33 0 -61.5 12.5t-50 34t-34 50t-12.5 61.5t12.5 61.5t34 50t50 34t61.5 12.5t61.5 -12.5t50 -34t34 -50t12.5 -61.5v-158 q0 -59 -15 -116t-44.5 -101.5t-74 -71.5t-103.5 -27z" />
<glyph unicode="&#x21b;" d="M158 1106h158v316h158v-316h316v-158h-316v-553q0 -49 18.5 -92t51 -75.5t75.5 -51t92 -18.5h237v-158h-237q-82 0 -154 31t-125.5 84.5t-84.5 125.5t-31 154v553h-158v158zM553 -631q-33 0 -56 23t-23 56t23 56t56 23q30 0 46 10.5t23.5 30.5t8.5 49.5t1 67.5 q-33 0 -61.5 12.5t-50 34t-34 50t-12.5 61.5t12.5 61.5t34 50t50 34t61.5 12.5t61.5 -12.5t50 -34t34 -50t12.5 -61.5v-158q0 -59 -15 -116t-44.5 -101.5t-74 -71.5t-103.5 -27z" />
<glyph unicode="&#x226;" d="M158 1027q0 82 31 154t84.5 125.5t125.5 84.5t154 31t154 -31t125.5 -84.5t84.5 -125.5t31 -154v-1027h-158v632h-474v-632h-158v1027zM790 790v237q0 49 -18.5 92t-51 75.5t-75.5 51t-92 18.5t-92 -18.5t-75.5 -51t-51 -75.5t-18.5 -92v-237h474zM471 1659q0 33 23 56 t56 23t56 -23t23 -56t-23 -56t-56 -23t-56 23t-23 56z" />
<glyph unicode="&#x227;" d="M474 0q-65 0 -122.5 25t-100.5 68t-68 100.5t-25 122.5t25 122.5t68 100.5t100.5 68t122.5 25h316v79q0 49 -18.5 92t-51 75.5t-75.5 51t-92 18.5h-237v158h237q82 0 154 -31t125.5 -84.5t84.5 -125.5t31 -154v-711h-474zM474 474q-33 0 -61.5 -12.5t-50 -34t-34 -50 t-12.5 -61.5t12.5 -61.5t34 -50t50 -34t61.5 -12.5h316v316h-316zM471 1343q0 33 23 56t56 23t56 -23t23 -56t-23 -56t-56 -23t-56 23t-23 56z" />
<glyph unicode="&#x232;" d="M474 472l-316 950h158l237 -711l237 711h158l-316 -948v-474h-158v472zM156 1738v158h790v-158h-790z" />
<glyph unicode="&#x233;" d="M316 395q0 -49 18.5 -92t51 -75.5t75.5 -51t92 -18.5q48 0 90 17.5t74 48.5t51.5 72t21.5 99v711h158v-1185q0 -82 -31 -154t-84.5 -125.5t-125.5 -84.5t-154 -31h-237v158h237q49 0 92 18.5t75.5 51t51 75.5t18.5 92v158q-50 -37 -110 -58t-127 -21q-82 0 -154 31 t-125.5 84.5t-84.5 125.5t-31 154v711h158v-711v0zM156 1422v158h790v-158h-790z" />
<glyph unicode="&#x2c6;" d="M553 1580l237 -237l-79 -79l-158 158l-158 -158l-79 79z" />
<glyph unicode="&#x2c7;" d="M316 1501l79 79l158 -158l158 158l79 -79l-237 -237z" />
<glyph unicode="&#x2d8;" d="M553 1264q-59 0 -103.5 27t-74 71.5t-44.5 101.5t-15 116h158q0 -30 1 -58t8.5 -50.5t23.5 -36t46 -13.5t46 13.5t23.5 36t8.5 50.5t1 58h158q0 -59 -15 -116t-44.5 -101.5t-74 -71.5t-103.5 -27z" />
<glyph unicode="&#x2d9;" d="M316 1343q0 33 23 56t56 23t56 -23t23 -56t-23 -56t-56 -23t-56 23t-23 56z" />
<glyph unicode="&#x2da;" d="M316 1501q0 49 18.5 92t51 75.5t75.5 51t92 18.5t92 -18.5t75.5 -51t51 -75.5t18.5 -92t-18.5 -92t-51 -75.5t-75.5 -51t-92 -18.5t-92 18.5t-75.5 51t-51 75.5t-18.5 92zM474 1501q0 -33 23 -56t56 -23t56 23t23 56t-23 56t-56 23t-56 -23t-23 -56z" />
<glyph unicode="&#x2db;" d="M474 0q0 -59 16 -102.5t53 -65.5t97.5 -21t149.5 31v-158q-118 -30 -207 -17.5t-148.5 57t-89 116t-29.5 160.5h158z" />
<glyph unicode="&#x2dc;" d="M948 1501q-119 -237 -237 -237q-59 0 -94.5 11.5t-57.5 29.5t-35.5 38t-29 38t-38 29.5t-61.5 11.5q-30 0 -58 -13.5t-50.5 -36t-36 -50.5t-13.5 -58l-79 79q118 237 237 237q59 0 94.5 -11.5t57.5 -29.5t35.5 -38t29 -38t37.5 -29.5t62 -11.5q30 0 58 13.5t50.5 36 t36 50.5t13.5 58z" />
<glyph unicode="&#x2dd;" d="M571.158 1264l-65.8311 79l329.158 237l65.832 -79zM242.158 1264l-65.8311 79l329.158 237l65.832 -79z" />
<glyph unicode="&#x37e;" d="M316 790q0 33 12.5 61.5t34 50t50 34t61.5 12.5t61.5 -12.5t50 -34t34 -50t12.5 -61.5t-12.5 -61.5t-34 -50t-50 -34t-61.5 -12.5t-61.5 12.5t-50 34t-34 50t-12.5 61.5zM395 -316q-33 0 -56 23t-23 56t23 56t56 23q30 0 46 10.5t23.5 30.5t8.5 49.5t1 67.5 q-33 0 -61.5 12.5t-50 34t-34 50t-12.5 61.5t12.5 61.5t34 50t50 34t61.5 12.5t61.5 -12.5t50 -34t34 -50t12.5 -61.5v-158q0 -59 -15 -116t-44.5 -101.5t-74 -71.5t-103.5 -27z" />
<glyph unicode="&#x391;" d="M158 1027q0 82 31 154t84.5 125.5t125.5 84.5t154 31t154 -31t125.5 -84.5t84.5 -125.5t31 -154v-1027h-158v632h-474v-632h-158v1027zM790 790v237q0 49 -18.5 92t-51 75.5t-75.5 51t-92 18.5t-92 -18.5t-75.5 -51t-51 -75.5t-18.5 -92v-237h474z" />
<glyph unicode="&#x392;" d="M158 1422h395q82 0 154 -31t125.5 -84.5t84.5 -125.5t31 -154q0 -98 -43.5 -180t-115.5 -136q72 -54 115.5 -136.5t43.5 -179.5q0 -82 -31 -154t-84.5 -125.5t-125.5 -84.5t-154 -31h-395v1422zM553 790q49 0 92 18.5t75.5 51t51 75.5t18.5 92t-18.5 92t-51 75.5 t-75.5 51t-92 18.5h-237v-474h237zM553 158q49 0 92 18.5t75.5 51t51 75.5t18.5 92t-18.5 92t-51 75.5t-75.5 51t-92 18.5h-237v-474h237z" />
<glyph unicode="&#x393;" d="M158 1422h790v-158h-632v-1264h-158v1422z" />
<glyph unicode="&#x394;" d="M948 0h-790v158l316 1264h158l316 -1264v-158zM277 158h486l-234 995z" />
<glyph unicode="&#x395;" d="M158 1422h790v-158h-632v-474h474v-158h-474v-474h632v-158h-790v1422z" />
<glyph unicode="&#x396;" d="M158 158l609 1106h-609v158h790v-158l-597 -1106h597v-158h-790v158z" />
<glyph unicode="&#x397;" d="M158 1422h158v-632h474v632h158v-1422h-158v632h-474v-632h-158v1422z" />
<glyph unicode="&#x398;" d="M158 1027q0 82 31 154t84.5 125.5t125.5 84.5t154 31t154 -31t125.5 -84.5t84.5 -125.5t31 -154v-632q0 -82 -31 -154t-84.5 -125.5t-125.5 -84.5t-154 -31t-154 31t-125.5 84.5t-84.5 125.5t-31 154v632zM553 1264q-49 0 -92 -18.5t-75.5 -51t-51 -75.5t-18.5 -92v-632 q0 -49 18.5 -92t51 -75.5t75.5 -51t92 -18.5t92 18.5t75.5 51t51 75.5t18.5 92v632q0 49 -18.5 92t-51 75.5t-75.5 51t-92 18.5zM474 790h158v-158h-158v158z" />
<glyph unicode="&#x399;" d="M158 158h316v1106h-316v158h790v-158h-316v-1106h316v-158h-790v158z" />
<glyph unicode="&#x39a;" d="M314.837 761l449.456 661h176.218l-469.255 -711l469.255 -711h-178.198l-447.476 666v-666h-156.419v1422h156.419v-661z" />
<glyph unicode="&#x39b;" d="M319.274 0.0869141l233.456 1039.94l233.456 -1039.94h155.638l-311.275 1421.91h-155.637l-311.274 -1421.91h155.637z" />
<glyph unicode="&#x39c;" d="M789.987 1106l-236.696 -414l-236.696 414v-1106h-157.797v1422h157.797l236.696 -474l236.696 474h157.798v-1422h-157.798v1106z" />
<glyph unicode="&#x39d;" d="M158 0v1422h158l474 -1052v1052h158v-1422h-158l-474 1052v-1052h-158z" />
<glyph unicode="&#x39e;" d="M158 1422h790v-158h-790v158zM158 158h790v-158h-790v158zM316 790h474v-158h-474v158z" />
<glyph unicode="&#x39f;" d="M158 1027q0 82 31 154t84.5 125.5t125.5 84.5t154 31t154 -31t125.5 -84.5t84.5 -125.5t31 -154v-632q0 -82 -31 -154t-84.5 -125.5t-125.5 -84.5t-154 -31t-154 31t-125.5 84.5t-84.5 125.5t-31 154v632zM553 1264q-49 0 -92 -18.5t-75.5 -51t-51 -75.5t-18.5 -92v-632 q0 -49 18.5 -92t51 -75.5t75.5 -51t92 -18.5t92 18.5t75.5 51t51 75.5t18.5 92v632q0 49 -18.5 92t-51 75.5t-75.5 51t-92 18.5z" />
<glyph unicode="&#x3a0;" d="M158 1422h790v-1422h-158v1264h-474v-1264h-158v1422z" />
<glyph unicode="&#x3a1;" d="M316 0h-158v1422h395q82 0 154 -31t125.5 -84.5t84.5 -125.5t31 -154t-31 -154t-84.5 -125.5t-125.5 -84.5t-154 -31h-237v-632zM553 790q49 0 92 18.5t75.5 51t51 75.5t18.5 92t-18.5 92t-51 75.5t-75.5 51t-92 18.5h-237v-474h237z" />
<glyph unicode="&#x3a3;" d="M948 1264h-632l316 -553l-316 -553h632v-158h-790v158l316 553l-316 553v158h790v-158z" />
<glyph unicode="&#x3a4;" d="M474 1264h-316v158h790v-158h-316v-1264h-158v1264z" />
<glyph unicode="&#x3a5;" d="M475.598 472l-309.731 950h154.865l232.299 -711l232.299 711h154.866l-309.732 -948v-474h-154.865v472z" />
<glyph unicode="&#x3a6;" d="M474 316h-79q-82 0 -154 31t-125.5 84.5t-84.5 125.5t-31 154t31 154t84.5 125.5t125.5 84.5t154 31h79v316h158v-316h79q82 0 154 -31t125.5 -84.5t84.5 -125.5t31 -154t-31 -154t-84.5 -125.5t-125.5 -84.5t-154 -31h-79v-316h-158v316zM632 948v-474h79q49 0 92 18.5 t75.5 51t51 75.5t18.5 92t-18.5 92t-51 75.5t-75.5 51t-92 18.5h-79zM158 711q0 -49 18.5 -92t51 -75.5t75.5 -51t92 -18.5h79v474h-79q-49 0 -92 -18.5t-75.5 -51t-51 -75.5t-18.5 -92z" />
<glyph unicode="&#x3a7;" d="M552.616 904l229.425 518h165.584l-309.224 -711l309.224 -711h-165.584l-229.425 517l-229.425 -517h-164.587l308.227 711l-309.224 711h165.584z" />
<glyph unicode="&#x3a9;" d="M632 169q68 19 126 68.5t100 121t66 161.5t24 191q0 114 -31 215t-84.5 176t-125.5 118.5t-154 43.5t-154 -43.5t-125.5 -118.5t-84.5 -176t-31 -215q0 -101 24 -191t66 -161.5t100 -121t126 -68.5v-169h-474v158h206q-47 49 -85 110t-65 131.5t-41.5 149t-14.5 162.5 q0 147 43.5 276.5t118.5 226t176 152.5t215 56t215 -56t176 -152.5t118.5 -226t43.5 -276.5q0 -84 -14.5 -162.5t-41.5 -149t-65 -131.5t-85 -110h206v-158h-474v169z" />
<glyph unicode="&#x3aa;" d="M158 158h316v1106h-316v158h790v-158h-316v-1106h316v-158h-790v158zM316 1659q0 33 23 56t56 23t56 -23t23 -56t-23 -56t-56 -23t-56 23t-23 56zM632 1659q0 33 23 56t56 23t56 -23t23 -56t-23 -56t-56 -23t-56 23t-23 56z" />
<glyph unicode="&#x3ab;" d="M474 472l-316 950h158l237 -711l237 711h158l-316 -948v-474h-158v472zM316 1659q0 33 23 56t56 23t56 -23t23 -56t-23 -56t-56 -23t-56 23t-23 56zM632 1659q0 33 23 56t56 23t56 -23t23 -56t-23 -56t-56 -23t-56 23t-23 56z" />
<glyph unicode="&#x3ac;" d="M711 237q-60 -119 -142.5 -178t-173.5 -59q-82 0 -154 31t-125.5 84.5t-84.5 125.5t-31 154v316q0 82 31 154t84.5 125.5t125.5 84.5t154 31q94 0 175 -59t141 -178l79 237h158q-253 -553 0 -1106h-158zM158 395q0 -49 18.5 -92t51 -75.5t75.5 -51t92 -18.5 q66 0 115.5 34t82 89.5t49 126.5t16.5 145t-16.5 145t-49 126.5t-82 89.5t-115.5 34q-49 0 -92 -18.5t-75.5 -51t-51 -75.5t-18.5 -92v-316zM393 1264l-79 79l395 237l79 -79z" />
<glyph unicode="&#x3ad;" d="M935 237q-17 -51 -52.5 -94.5t-86 -75t-112.5 -49.5t-131 -18q-82 0 -154 25t-125.5 68t-84.5 100.5t-31 122.5q0 35 13 68.5t35 63.5t50.5 56.5t59.5 48.5q-31 22 -59.5 48.5t-50.5 56.5t-35 63.5t-13 68.5q0 65 31 122.5t84.5 100.5t125.5 68t154 25q69 0 131 -18 t112.5 -49.5t86 -75t52.5 -94.5l-145 -79q0 33 -18.5 61.5t-51 50t-75.5 34t-92 12.5t-92 -12.5t-75.5 -34t-51 -50t-18.5 -61.5t16 -61.5t53 -50t97.5 -34t149.5 -12.5v-158q-89 0 -149.5 -11t-97.5 -31.5t-53 -49.5t-16 -66t18.5 -66t51 -49.5t75.5 -31.5t92 -11 q46 0 86.5 12t72 33.5t51.5 50.5t25 62zM393 1264l-79 79l395 237l79 -79z" />
<glyph unicode="&#x3ae;" d="M553 948q-48 0 -90.5 -18t-74.5 -48.5t-51 -72t-21 -88.5v-721h-158v1106h158v-80q50 38 110 59t127 21q82 0 154 -31t125.5 -84.5t84.5 -125.5t31 -154v-1027h-158v1027q0 49 -18.5 92t-51 75.5t-75.5 51t-92 18.5zM393 1264l-79 79l395 237l79 -79z" />
<glyph unicode="&#x3b1;" d="M711 237q-60 -119 -142.5 -178t-173.5 -59q-82 0 -154 31t-125.5 84.5t-84.5 125.5t-31 154v316q0 82 31 154t84.5 125.5t125.5 84.5t154 31q94 0 175 -59t141 -178l79 237h158q-253 -553 0 -1106h-158zM158 395q0 -49 18.5 -92t51 -75.5t75.5 -51t92 -18.5 q66 0 115.5 34t82 89.5t49 126.5t16.5 145t-16.5 145t-49 126.5t-82 89.5t-115.5 34q-49 0 -92 -18.5t-75.5 -51t-51 -75.5t-18.5 -92v-316z" />
<glyph unicode="&#x3b2;" d="M158 1027q0 102 34.5 176.5t90.5 123t126.5 72t143.5 23.5q82 0 154 -31t125.5 -84.5t84.5 -125.5t31 -154q0 -98 -43.5 -180t-115.5 -136q72 -54 115.5 -136.5t43.5 -179.5q0 -82 -31 -154t-84.5 -125.5t-125.5 -84.5t-154 -31q-67 0 -127 21t-110 58v-237h-158v1185z M553 158q49 0 92 18.5t75.5 51t51 75.5t18.5 92t-18.5 92t-51 75.5t-75.5 51t-92 18.5h-79v158h79q49 0 92 18.5t75.5 51t51 75.5t18.5 92t-18.5 92t-51 75.5t-75.5 51t-92 18.5q-43 0 -85.5 -15t-76 -44.5t-54.5 -74t-21 -103.5v-642q0 -56 19 -98t51.5 -71t75.5 -43.5 t91 -14.5z" />
<glyph unicode="&#x3b4;" d="M158 1580h632v-158h-395l435 -430q57 -56 89 -133q17 -51 23 -84t6 -64v-316q0 -82 -40.5 -154t-107.5 -125.5t-152 -84.5t-174 -31t-174 31t-152 84.5t-107.5 125.5t-40.5 154v316q0 82 40.5 154t107.5 125.5t152 84.5t174 31q2 0 4.5 -0.5t4.5 -0.5l-325 317v158z M158 395q0 -49 27 -92t71.5 -75.5t101.5 -51t116 -18.5t116 18.5t101.5 51t71.5 75.5t27 92v316q-20 71 -50.5 117t-70 72.5t-88.5 37t-107 10.5q-59 0 -116 -18.5t-101.5 -51t-71.5 -75.5t-27 -92v-316z" />
<glyph unicode="&#x3b5;" d="M935 237q-17 -51 -52.5 -94.5t-86 -75t-112.5 -49.5t-131 -18q-82 0 -154 25t-125.5 68t-84.5 100.5t-31 122.5q0 35 13 68.5t35 63.5t50.5 56.5t59.5 48.5q-31 22 -59.5 48.5t-50.5 56.5t-35 63.5t-13 68.5q0 65 31 122.5t84.5 100.5t125.5 68t154 25q69 0 131 -18 t112.5 -49.5t86 -75t52.5 -94.5l-145 -79q0 33 -18.5 61.5t-51 50t-75.5 34t-92 12.5t-92 -12.5t-75.5 -34t-51 -50t-18.5 -61.5t16 -61.5t53 -50t97.5 -34t149.5 -12.5v-158q-89 0 -149.5 -11t-97.5 -31.5t-53 -49.5t-16 -66t18.5 -66t51 -49.5t75.5 -31.5t92 -11 q46 0 86.5 12t72 33.5t51.5 50.5t25 62z" />
<glyph unicode="&#x3b7;" d="M553 948q-48 0 -90.5 -18t-74.5 -48.5t-51 -72t-21 -88.5v-721h-158v1106h158v-80q50 38 110 59t127 21q82 0 154 -31t125.5 -84.5t84.5 -125.5t31 -154v-1027h-158v1027q0 49 -18.5 92t-51 75.5t-75.5 51t-92 18.5z" />
<glyph unicode="&#x3bf;" d="M158 711q0 82 31 154t84.5 125.5t125.5 84.5t154 31t154 -31t125.5 -84.5t84.5 -125.5t31 -154v-316q0 -82 -31 -154t-84.5 -125.5t-125.5 -84.5t-154 -31t-154 31t-125.5 84.5t-84.5 125.5t-31 154v316zM316 395q0 -49 18.5 -92t51 -75.5t75.5 -51t92 -18.5t92 18.5 t75.5 51t51 75.5t18.5 92v316q0 49 -18.5 92t-51 75.5t-75.5 51t-92 18.5t-92 -18.5t-75.5 -51t-51 -75.5t-18.5 -92v-316z" />
<glyph unicode="&#x3c0;" d="M632 948h-316v-948h-158v948h-158v158h948v-158h-158v-632q0 -59 13.5 -91t36 -47t50.5 -17.5t58 -2.5v-158q-89 0 -149.5 26t-97.5 63t-53 77.5t-16 70.5v711z" />
<glyph unicode="&#x3c3;" d="M710 948q38 -50 59 -110t21 -127v-316q0 -82 -31 -154t-84.5 -125.5t-125.5 -84.5t-154 -31t-154 31t-125.5 84.5t-84.5 125.5t-31 154v316q0 82 31 154t84.5 125.5t125.5 84.5t154 31h553v-158h-238zM395 948q-49 0 -92 -18.5t-75.5 -51t-51 -75.5t-18.5 -92v-316 q0 -49 18.5 -92t51 -75.5t75.5 -51t92 -18.5t92 18.5t75.5 51t51 75.5t18.5 92v316q0 48 -18 90t-48.5 74t-72 51.5t-88.5 21.5h-10z" />
<glyph unicode="&#x3c4;" d="M790 0q-119 0 -207.5 27t-148 71.5t-89 101.5t-29.5 116v632h-316v158h948v-158h-474v-632q0 -30 16 -58t53 -50.5t97.5 -36t149.5 -13.5v-158z" />
<glyph unicode="&#x3c6;" d="M474 869q-1 77 33.5 129t87 78t114.5 26t115 -26t88.5 -77.5t35.5 -129.5v-474q0 -72 -24 -136t-66.5 -115.5t-100.5 -87t-125 -48.5v-324h-158v324q-68 13 -125.5 48.5t-100 87t-66.5 115.5t-24 136v711h158v-711q0 -39 11.5 -74t32.5 -64.5t50 -51.5t64 -34v698z M790 763q0 89 -24.5 133.5t-54.5 44.5t-54.5 -44.5t-24.5 -133.5v-592q34 12 63 34t50 51.5t33 64.5t12 74v368z" />
<glyph unicode="&#x1e02;" d="M158 1422h395q82 0 154 -31t125.5 -84.5t84.5 -125.5t31 -154q0 -98 -43.5 -180t-115.5 -136q72 -54 115.5 -136.5t43.5 -179.5q0 -82 -31 -154t-84.5 -125.5t-125.5 -84.5t-154 -31h-395v1422zM553 790q49 0 92 18.5t75.5 51t51 75.5t18.5 92t-18.5 92t-51 75.5 t-75.5 51t-92 18.5h-237v-474h237zM553 158q49 0 92 18.5t75.5 51t51 75.5t18.5 92t-18.5 92t-51 75.5t-75.5 51t-92 18.5h-237v-474h237zM474 1659q0 33 23 56t56 23t56 -23t23 -56t-23 -56t-56 -23t-56 23t-23 56z" />
<glyph unicode="&#x1e03;" d="M158 1422h158v-395q38 28 83 48q72 31 154 31t154 -31t125.5 -84.5t84.5 -125.5t31 -154v-316q0 -82 -31 -154t-84.5 -125.5t-125.5 -84.5t-154 -31t-154 31q-45 19 -83 47v-78h-158v1422zM316 720v-325q0 -49 18.5 -92t51 -75.5t75.5 -51t92 -18.5t92 18.5t75.5 51 t51 75.5t18.5 92v316q0 49 -18.5 92t-51 75.5t-75.5 51t-92 18.5t-92 -18.5t-75.5 -51t-51.5 -75.5zM471 1343q0 33 23 56t56 23t56 -23t23 -56t-23 -56t-56 -23t-56 23t-23 56z" />
<glyph unicode="&#x1e08;" d="M555 1264q-51 0 -95 -18.5t-76 -51t-50.5 -75.5t-18.5 -92v-632q0 -49 18.5 -92t50.5 -75.5t76 -51t95 -18.5q42 0 79 11.5t67.5 32.5t53 50t34.5 64h158q-14 -68 -49 -126t-86.5 -100t-116.5 -66t-140 -24q-84 0 -156.5 31t-126.5 84.5t-84.5 125.5t-30.5 154v632 q0 82 30.5 154t84.5 125.5t126.5 84.5t156.5 31q75 0 140.5 -24t116.5 -66.5t86 -100.5t49 -125h-158q-12 34 -34.5 63t-52.5 50t-67.5 33t-79.5 12zM630 0q0 -89 -29.5 -160.5t-89 -116t-148.5 -57t-207 17.5v158q89 -30 149.5 -31t97.5 21t53 65.5t16 102.5h158zM393 1580 l-79 79l395 237l79 -79z" />
<glyph unicode="&#x1e09;" d="M316 395q0 -49 21 -92t55.5 -75.5t80 -51t94.5 -18.5q39 0 74 11.5t64 32.5t51 50t34 64h158q-14 -68 -49.5 -125.5t-86.5 -100t-115 -66.5t-136 -24q-82 0 -155 31t-128 84.5t-87.5 125.5t-32.5 154v316q0 82 32.5 154t87.5 125.5t128 84.5t155 31q72 0 136 -24 t115 -66.5t86.5 -100.5t49.5 -125h-158q-12 34 -34 63t-51 50t-64 33t-74 12q-49 0 -94.5 -18.5t-80 -51t-55.5 -75.5t-21 -92v-316zM632 0q0 -89 -29.5 -160.5t-89 -116t-148.5 -57t-207 17.5v158q89 -30 149.5 -31t97.5 21t53 65.5t16 102.5h158zM393 1264l-79 79l395 237 l79 -79z" />
<glyph unicode="&#x1e0a;" d="M158 1422h395q82 0 154 -31t125.5 -84.5t84.5 -125.5t31 -154v-632q0 -82 -31 -154t-84.5 -125.5t-125.5 -84.5t-154 -31h-395v1422zM553 158q49 0 92 18.5t75.5 51t51 75.5t18.5 92v632q0 49 -18.5 92t-51 75.5t-75.5 51t-92 18.5h-237v-1106h237zM316 1659q0 33 23 56 t56 23t56 -23t23 -56t-23 -56t-56 -23t-56 23t-23 56z" />
<glyph unicode="&#x1e0b;" d="M948 0h-158v78q-38 -28 -83 -47q-72 -31 -154 -31t-154 31t-125.5 84.5t-84.5 125.5t-31 154v316q0 82 31 154t84.5 125.5t125.5 84.5t154 31t154 -31q45 -20 83 -48v395h158v-1422zM772 803q-19 43 -51.5 75.5t-75.5 51t-92 18.5t-92 -18.5t-75.5 -51t-51 -75.5 t-18.5 -92v-316q0 -49 18.5 -92t51 -75.5t75.5 -51t92 -18.5t92 18.5t75.5 51t51 75.5t18.5 92v325zM474 1343q0 33 23 56t56 23t56 -23t23 -56t-23 -56t-56 -23t-56 23t-23 56z" />
<glyph unicode="&#x1e1e;" d="M158 1422h790v-158h-632v-474h474v-158h-474v-632h-158v1422zM471 1659q0 33 23 56t56 23t56 -23t23 -56t-23 -56t-56 -23t-56 23t-23 56z" />
<glyph unicode="&#x1e1f;" d="M158 948h158v79q0 82 31 154t84.5 125.5t125.5 84.5t154 31h237v-158h-237q-49 0 -92 -18.5t-75.5 -51t-51 -75.5t-18.5 -92v-79h316v-158h-316v-790h-158v790h-158v158zM474 1659q0 33 23 56t56 23t56 -23t23 -56t-23 -56t-56 -23t-56 23t-23 56z" />
<glyph unicode="&#x1e22;" d="M158 1422h158v-632h474v632h158v-1422h-158v632h-474v-632h-158v1422zM471 1659q0 33 23 56t56 23t56 -23t23 -56t-23 -56t-56 -23t-56 23t-23 56z" />
<glyph unicode="&#x1e23;" d="M790 711q0 49 -18.5 92t-51 75.5t-75.5 51t-92 18.5q-48 0 -90.5 -18t-74.5 -48.5t-51 -72t-21 -88.5v-721h-158v1422h158v-396q50 38 110 59t127 21q82 0 154 -31t125.5 -84.5t84.5 -125.5t31 -154v-711h-158v711zM471 1343q0 33 23 56t56 23t56 -23t23 -56t-23 -56 t-56 -23t-56 23t-23 56z" />
<glyph unicode="&#x1e26;" d="M158 1422h158v-632h474v632h158v-1422h-158v632h-474v-632h-158v1422zM314 1659q0 33 23 56t56 23t56 -23t23 -56t-23 -56t-56 -23t-56 23t-23 56zM630 1659q0 33 23 56t56 23t56 -23t23 -56t-23 -56t-56 -23t-56 23t-23 56z" />
<glyph unicode="&#x1e27;" d="M790 711q0 49 -18.5 92t-51 75.5t-75.5 51t-92 18.5q-48 0 -90.5 -18t-74.5 -48.5t-51 -72t-21 -88.5v-721h-158v1422h158v-396q50 38 110 59t127 21q82 0 154 -31t125.5 -84.5t84.5 -125.5t31 -154v-711h-158v711zM474 1501q0 33 23 56t56 23t56 -23t23 -56t-23 -56 t-56 -23t-56 23t-23 56zM790 1501q0 33 23 56t56 23t56 -23t23 -56t-23 -56t-56 -23t-56 23t-23 56z" />
<glyph unicode="&#x1e30;" d="M316 761l454 661h178l-474 -711l474 -711h-180l-452 666v-666h-158v1422h158v-661zM393 1580l-79 79l395 237l79 -79z" />
<glyph unicode="&#x1e31;" d="M316 632h38l400 474h194l-453 -553l453 -553h-194l-400 474h-38v-474h-158v1422h158v-790zM393 1264l-79 79l395 237l79 -79z" />
<glyph unicode="&#x1e3e;" d="M790 1106l-237 -414l-237 414v-1106h-158v1422h158l237 -474l237 474h158v-1422h-158v1106zM393 1580l-79 79l395 237l79 -79z" />
<glyph unicode="&#x1e3f;" d="M474 869h-1q1 79 -78 79t-78 -79h-1v-869h-158v1106h197q36 0 68 -12t57.5 -33t43.5 -50t25 -63h7q7 34 24.5 63t43 50t58 33t68.5 12q41 0 77 -15.5t63 -42t42.5 -62.5t15.5 -77v-909h-158v869q0 79 -79 79t-79 -79v-869h-158v869zM393 1264l-79 79l395 237l79 -79z" />
<glyph unicode="&#x1e40;" d="M790 1106l-237 -414l-237 414v-1106h-158v1422h158l237 -474l237 474h158v-1422h-158v1106zM474 1659q0 33 23 56t56 23t56 -23t23 -56t-23 -56t-56 -23t-56 23t-23 56z" />
<glyph unicode="&#x1e41;" d="M474 869h-1q1 79 -78 79t-78 -79h-1v-869h-158v1106h197q36 0 68 -12t57.5 -33t43.5 -50t25 -63h7q7 34 24.5 63t43 50t58 33t68.5 12q41 0 77 -15.5t63 -42t42.5 -62.5t15.5 -77v-909h-158v869q0 79 -79 79t-79 -79v-869h-158v869zM474 1343q0 33 23 56t56 23t56 -23 t23 -56t-23 -56t-56 -23t-56 23t-23 56z" />
<glyph unicode="&#x1e44;" d="M158 0v1422h158l474 -1052v1052h158v-1422h-158l-474 1052v-1052h-158zM471 1659q0 33 23 56t56 23t56 -23t23 -56t-23 -56t-56 -23t-56 23t-23 56z" />
<glyph unicode="&#x1e45;" d="M553 948q-48 0 -90.5 -18t-74.5 -48.5t-51 -72t-21 -88.5v-721h-158v1106h158v-80q50 38 110 59t127 21q82 0 154 -31t125.5 -84.5t84.5 -125.5t31 -154v-711h-158v711q0 49 -18.5 92t-51 75.5t-75.5 51t-92 18.5zM471 1343q0 33 23 56t56 23t56 -23t23 -56t-23 -56 t-56 -23t-56 23t-23 56z" />
<glyph unicode="&#x1e54;" d="M316 0h-158v1422h395q82 0 154 -31t125.5 -84.5t84.5 -125.5t31 -154t-31 -154t-84.5 -125.5t-125.5 -84.5t-154 -31h-237v-632zM553 790q49 0 92 18.5t75.5 51t51 75.5t18.5 92t-18.5 92t-51 75.5t-75.5 51t-92 18.5h-237v-474h237zM393 1580l-79 79l395 237l79 -79z " />
<glyph unicode="&#x1e55;" d="M158 1106h158v-80q50 38 110 59t127 21q82 0 154 -31t125.5 -84.5t84.5 -125.5t31 -154v-316q0 -82 -31 -154t-84.5 -125.5t-125.5 -84.5t-154 -31q-67 0 -127 21t-110 58v-553h-158v1580zM553 948q-48 0 -91 -15t-75.5 -44.5t-51.5 -74t-19 -103.5v-316q0 -59 19 -103.5 t51.5 -74t75.5 -44.5t91 -15q49 0 92 18.5t75.5 51t51 75.5t18.5 92v316q0 49 -18.5 92t-51 75.5t-75.5 51t-92 18.5zM393 1264l-79 79l395 237l79 -79z" />
<glyph unicode="&#x1e56;" d="M316 0h-158v1422h395q82 0 154 -31t125.5 -84.5t84.5 -125.5t31 -154t-31 -154t-84.5 -125.5t-125.5 -84.5t-154 -31h-237v-632zM553 790q49 0 92 18.5t75.5 51t51 75.5t18.5 92t-18.5 92t-51 75.5t-75.5 51t-92 18.5h-237v-474h237zM474 1659q0 33 23 56t56 23t56 -23 t23 -56t-23 -56t-56 -23t-56 23t-23 56z" />
<glyph unicode="&#x1e57;" d="M158 1106h158v-80q50 38 110 59t127 21q82 0 154 -31t125.5 -84.5t84.5 -125.5t31 -154v-316q0 -82 -31 -154t-84.5 -125.5t-125.5 -84.5t-154 -31q-67 0 -127 21t-110 58v-553h-158v1580zM553 948q-48 0 -91 -15t-75.5 -44.5t-51.5 -74t-19 -103.5v-316q0 -59 19 -103.5 t51.5 -74t75.5 -44.5t91 -15q49 0 92 18.5t75.5 51t51 75.5t18.5 92v316q0 49 -18.5 92t-51 75.5t-75.5 51t-92 18.5zM474 1343q0 33 23 56t56 23t56 -23t23 -56t-23 -56t-56 -23t-56 23t-23 56z" />
<glyph unicode="&#x1e60;" d="M316 1027q0 -49 18.5 -92t51 -75.5t75.5 -51t92 -18.5q82 0 154 -31t125.5 -84.5t84.5 -125.5t31 -154t-31 -154t-84.5 -125.5t-125.5 -84.5t-154 -31h-395v158h395q49 0 92 18.5t75.5 51t51 75.5t18.5 92t-18.5 92t-51 75.5t-75.5 51t-92 18.5q-82 0 -154 31 t-125.5 84.5t-84.5 125.5t-31 154t31 154t84.5 125.5t125.5 84.5t154 31h395v-158h-395q-49 0 -92 -18.5t-75.5 -51t-51 -75.5t-18.5 -92zM473.998 1659q0 33 23.4365 56t57.0635 23q33.626 0 57.0625 -23t23.4365 -56t-23.4365 -56t-57.0625 -23q-33.627 0 -57.0635 23 t-23.4365 56z" />
<glyph unicode="&#x1e61;" d="M948 1106v-158h-395q-59 0 -103.5 -13.5t-74 -36t-44.5 -50.5t-15 -58t15 -58t44.5 -50.5t74 -36t103.5 -13.5q39 0 84 -7t89 -22t84 -39.5t70.5 -59.5t49 -81t18.5 -105q0 -60 -28.5 -117t-80 -102t-124.5 -72t-162 -27h-395v158h395q59 0 103.5 13.5t74 36t44.5 51.5 t15 59q0 29 -15 57t-44.5 50t-74 35.5t-103.5 13.5q-39 0 -84 7t-89 22.5t-84 40t-70.5 59.5t-49 81.5t-18.5 105.5t28.5 116t80 101.5t124.5 71.5t162 27h395zM474 1343q0 33 23 56t56 23t56 -23t23 -56t-23 -56t-56 -23t-56 23t-23 56z" />
<glyph unicode="&#x1e6a;" d="M474 1264h-316v158h790v-158h-316v-1264h-158v1264zM471 1659q0 33 23 56t56 23t56 -23t23 -56t-23 -56t-56 -23t-56 23t-23 56z" />
<glyph unicode="&#x1e6b;" d="M158 1106h158v316h158v-316h316v-158h-316v-553q0 -49 18.5 -92t51 -75.5t75.5 -51t92 -18.5h237v-158h-237q-82 0 -154 31t-125.5 84.5t-84.5 125.5t-31 154v553h-158v158zM316 1659q0 33 23 56t56 23t56 -23t23 -56t-23 -56t-56 -23t-56 23t-23 56z" />
<glyph unicode="&#x1e80;" d="M790 1422h158v-1422h-158l-237 474l-237 -474h-158v1422h158v-1106l237 414l237 -414v1106zM316 1738v158l474 -237v-158z" />
<glyph unicode="&#x1e81;" d="M632 237q0 -79 79 -79t79 79v869h158v-909q0 -41 -15.5 -77t-42.5 -62.5t-63 -42t-77 -15.5q-36 0 -68.5 12t-58 33t-43 50t-24.5 63h-7q-7 -34 -25 -63t-43.5 -50t-57.5 -33t-68 -12q-41 0 -77 15.5t-62.5 42t-42 62.5t-15.5 77v909h158v-869h1q-1 -79 78 -79t78 79h1 v395h158v-395zM234 1422v158l474 -237v-158z" />
<glyph unicode="&#x1e82;" d="M790 1422h158v-1422h-158l-237 474l-237 -474h-158v1422h158v-1106l237 414l237 -414v1106zM395 1580l-79 79l395 237l79 -79z" />
<glyph unicode="&#x1e83;" d="M632 237q0 -79 79 -79t79 79v869h158v-909q0 -41 -15.5 -77t-42.5 -62.5t-63 -42t-77 -15.5q-36 0 -68.5 12t-58 33t-43 50t-24.5 63h-7q-7 -34 -25 -63t-43.5 -50t-57.5 -33t-68 -12q-41 0 -77 15.5t-62.5 42t-42 62.5t-15.5 77v909h158v-869h1q-1 -79 78 -79t78 79h1 v395h158v-395zM395 1264l-79 79l395 237l79 -79z" />
<glyph unicode="&#x1e84;" d="M790 1422h158v-1422h-158l-237 474l-237 -474h-158v1422h158v-1106l237 414l237 -414v1106zM314 1659q0 33 23 56t56 23t56 -23t23 -56t-23 -56t-56 -23t-56 23t-23 56zM630 1659q0 33 23 56t56 23t56 -23t23 -56t-23 -56t-56 -23t-56 23t-23 56z" />
<glyph unicode="&#x1e85;" d="M632 237q0 -79 79 -79t79 79v869h158v-909q0 -41 -15.5 -77t-42.5 -62.5t-63 -42t-77 -15.5q-36 0 -68.5 12t-58 33t-43 50t-24.5 63h-7q-7 -34 -25 -63t-43.5 -50t-57.5 -33t-68 -12q-41 0 -77 15.5t-62.5 42t-42 62.5t-15.5 77v909h158v-869h1q-1 -79 78 -79t78 79h1 v395h158v-395zM314 1343q0 33 23 56t56 23t56 -23t23 -56t-23 -56t-56 -23t-56 23t-23 56zM630 1343q0 33 23 56t56 23t56 -23t23 -56t-23 -56t-56 -23t-56 23t-23 56z" />
<glyph unicode="&#x1e86;" d="M790 1422h158v-1422h-158l-237 474l-237 -474h-158v1422h158v-1106l237 414l237 -414v1106zM471 1659q0 33 23 56t56 23t56 -23t23 -56t-23 -56t-56 -23t-56 23t-23 56z" />
<glyph unicode="&#x1e87;" d="M632 237q0 -79 79 -79t79 79v869h158v-909q0 -41 -15.5 -77t-42.5 -62.5t-63 -42t-77 -15.5q-36 0 -68.5 12t-58 33t-43 50t-24.5 63h-7q-7 -34 -25 -63t-43.5 -50t-57.5 -33t-68 -12q-41 0 -77 15.5t-62.5 42t-42 62.5t-15.5 77v909h158v-869h1q-1 -79 78 -79t78 79h1 v395h158v-395zM471 1343q0 33 23 56t56 23t56 -23t23 -56t-23 -56t-56 -23t-56 23t-23 56z" />
<glyph unicode="&#x1e8a;" d="M553 904l230 518h166l-310 -711l310 -711h-166l-230 517l-230 -517h-165l309 711l-310 711h166zM471 1659q0 33 23 56t56 23t56 -23t23 -56t-23 -56t-56 -23t-56 23t-23 56z" />
<glyph unicode="&#x1e8b;" d="M553 706l224 400h173l-311 -553l311 -553h-173l-224 398l-225 -398h-173l311 553l-311 553h173zM471 1343q0 33 23 56t56 23t56 -23t23 -56t-23 -56t-56 -23t-56 23t-23 56z" />
<glyph unicode="&#x1e8c;" d="M553 904l230 518h166l-310 -711l310 -711h-166l-230 517l-230 -517h-165l309 711l-310 711h166zM314 1659q0 33 23 56t56 23t56 -23t23 -56t-23 -56t-56 -23t-56 23t-23 56zM630 1659q0 33 23 56t56 23t56 -23t23 -56t-23 -56t-56 -23t-56 23t-23 56z" />
<glyph unicode="&#x1e8d;" d="M553 706l224 400h173l-311 -553l311 -553h-173l-224 398l-225 -398h-173l311 553l-311 553h173zM314 1343q0 33 23 56t56 23t56 -23t23 -56t-23 -56t-56 -23t-56 23t-23 56zM630 1343q0 33 23 56t56 23t56 -23t23 -56t-23 -56t-56 -23t-56 23t-23 56z" />
<glyph unicode="&#x1e8e;" d="M474 472l-316 950h158l237 -711l237 711h158l-316 -948v-474h-158v472zM471 1659q0 33 23 56t56 23t56 -23t23 -56t-23 -56t-56 -23t-56 23t-23 56z" />
<glyph unicode="&#x1e8f;" d="M316 395q0 -49 18.5 -92t51 -75.5t75.5 -51t92 -18.5q48 0 90 17.5t74 48.5t51.5 72t21.5 99v711h158v-1185q0 -82 -31 -154t-84.5 -125.5t-125.5 -84.5t-154 -31h-237v158h237q49 0 92 18.5t75.5 51t51 75.5t18.5 92v158q-50 -37 -110 -58t-127 -21q-82 0 -154 31 t-125.5 84.5t-84.5 125.5t-31 154v711h158v-711v0zM471 1343q0 33 23 56t56 23t56 -23t23 -56t-23 -56t-56 -23t-56 23t-23 56z" />
<glyph unicode="&#x1ebc;" d="M158 1422h790v-158h-632v-474h474v-158h-474v-474h632v-158h-790v1422zM946 1817q-119 -237 -237 -237q-59 0 -94.5 11.5t-57.5 29.5t-35.5 38t-29 38t-38 29.5t-61.5 11.5q-30 0 -58 -13.5t-50.5 -36t-36 -50.5t-13.5 -58l-79 79q118 237 237 237q59 0 94.5 -11.5 t57.5 -29.5t35.5 -38t29 -38t37.5 -29.5t62 -11.5q30 0 58 13.5t50.5 36t36 50.5t13.5 58z" />
<glyph unicode="&#x1ebd;" d="M316 395q0 -49 18.5 -92t51 -75.5t75.5 -51t92 -18.5h395v-158h-395q-82 0 -154 31t-125.5 84.5t-84.5 125.5t-31 154v316q0 82 31 154t84.5 125.5t125.5 84.5t154 31t154 -31t125.5 -84.5t84.5 -125.5t31 -154v-237h-632v-79zM316 632h474v79q0 49 -18.5 92t-51 75.5 t-75.5 51t-92 18.5t-92 -18.5t-75.5 -51t-51 -75.5t-18.5 -92v-79zM946 1501q-119 -237 -237 -237q-59 0 -94.5 11.5t-57.5 29.5t-35.5 38t-29 38t-38 29.5t-61.5 11.5q-30 0 -58 -13.5t-50.5 -36t-36 -50.5t-13.5 -58l-79 79q118 237 237 237q59 0 94.5 -11.5t57.5 -29.5 t35.5 -38t29 -38t37.5 -29.5t62 -11.5q30 0 58 13.5t50.5 36t36 50.5t13.5 58z" />
<glyph unicode="&#x1ef2;" d="M474 472l-316 950h158l237 -711l237 711h158l-316 -948v-474h-158v472zM315.662 1738v158l472.988 -237v-158z" />
<glyph unicode="&#x1ef3;" d="M316 395q0 -49 18.5 -92t51 -75.5t75.5 -51t92 -18.5q48 0 90 17.5t74 48.5t51.5 72t21.5 99v711h158v-1185q0 -82 -31 -154t-84.5 -125.5t-125.5 -84.5t-154 -31h-237v158h237q49 0 92 18.5t75.5 51t51 75.5t18.5 92v158q-50 -37 -110 -58t-127 -21q-82 0 -154 31 t-125.5 84.5t-84.5 125.5t-31 154v711h158v-711v0zM316 1422v158l474 -237v-158z" />
<glyph unicode="&#x1ef8;" d="M474 472l-316 950h158l237 -711l237 711h158l-316 -948v-474h-158v472zM946 1817q-119 -237 -237 -237q-59 0 -94.5 11.5t-57.5 29.5t-35.5 38t-29 38t-38 29.5t-61.5 11.5q-30 0 -58 -13.5t-50.5 -36t-36 -50.5t-13.5 -58l-79 79q118 237 237 237q59 0 94.5 -11.5 t57.5 -29.5t35.5 -38t29 -38t37.5 -29.5t62 -11.5q30 0 58 13.5t50.5 36t36 50.5t13.5 58z" />
<glyph unicode="&#x1ef9;" d="M316 395q0 -49 18.5 -92t51 -75.5t75.5 -51t92 -18.5q48 0 90 17.5t74 48.5t51.5 72t21.5 99v711h158v-1185q0 -82 -31 -154t-84.5 -125.5t-125.5 -84.5t-154 -31h-237v158h237q49 0 92 18.5t75.5 51t51 75.5t18.5 92v158q-50 -37 -110 -58t-127 -21q-82 0 -154 31 t-125.5 84.5t-84.5 125.5t-31 154v711h158v-711v0zM946 1501q-119 -237 -237 -237q-59 0 -94.5 11.5t-57.5 29.5t-35.5 38t-29 38t-38 29.5t-61.5 11.5q-30 0 -58 -13.5t-50.5 -36t-36 -50.5t-13.5 -58l-79 79q118 237 237 237q59 0 94.5 -11.5t57.5 -29.5t35.5 -38t29 -38 t37.5 -29.5t62 -11.5q30 0 58 13.5t50.5 36t36 50.5t13.5 58z" />
<glyph unicode="&#x2000;" horiz-adv-x="1027" />
<glyph unicode="&#x2001;" horiz-adv-x="2054" />
<glyph unicode="&#x2002;" horiz-adv-x="1027" />
<glyph unicode="&#x2003;" horiz-adv-x="2054" />
<glyph unicode="&#x2004;" horiz-adv-x="684" />
<glyph unicode="&#x2005;" horiz-adv-x="513" />
<glyph unicode="&#x2006;" horiz-adv-x="342" />
<glyph unicode="&#x2007;" horiz-adv-x="342" />
<glyph unicode="&#x2008;" horiz-adv-x="256" />
<glyph unicode="&#x2009;" horiz-adv-x="410" />
<glyph unicode="&#x200a;" horiz-adv-x="114" />
<glyph unicode="&#x2010;" d="M158 790h790v-158h-790v158z" />
<glyph unicode="&#x2011;" d="M158 790h790v-158h-790v158z" />
<glyph unicode="&#x2012;" d="M158 790h790v-158h-790v158z" />
<glyph unicode="&#x2013;" d="M158 473v157h788v-157h-788z" />
<glyph unicode="&#x2014;" d="M0 475v156h1106v-156h-315h-791z" />
<glyph unicode="&#x2015;" d="M0 475v156h1106v-156h-315h-791z" />
<glyph unicode="&#x2016;" d="M316 1422h158v-1422h-158v1422zM632 1422h158v-1422h-158v1422z" />
<glyph unicode="&#x2017;" d="M0 0h1106v-158h-1106v158zM0 -316h1106v-158h-1106v158z" />
<glyph unicode="&#x2018;" d="M553 1580q33 0 56 -23t23 -56t-23 -56t-56 -23q-30 0 -46 -10.5t-23.5 -30.5t-8.5 -49.5t-1 -67.5q33 0 61.5 -12.5t50 -34t34 -50t12.5 -61.5t-12.5 -61.5t-34 -50t-50 -34t-61.5 -12.5t-61.5 12.5t-50 34t-34 50t-12.5 61.5v158q0 59 15 116t44.5 101.5t74 71.5 t103.5 27z" />
<glyph unicode="&#x2019;" d="M395 951.994q-33 0 -56 23.1465q-23 23.1455 -23 56.3555q0 33.209 23 56.3555q23 23.1455 56 23.1455q30 0 46 10.5664q16 10.5674 23.5 30.6943t8.5 49.8135q1 29.6875 1 67.9287q-33 0 -61.5 12.5791t-50 34.2158t-34 50.3174t-12.5 61.8906t12.5 61.8906t34 50.3174 t50 34.2158t61.5 12.5791t61.5 -12.5791t50 -34.2158t34 -50.3174t12.5 -61.8906v-159.003q0 -59.375 -15 -116.736t-44.5 -102.145q-29.5 -44.7822 -74 -71.9531q-44.5 -27.1719 -103.5 -27.1719z" />
<glyph unicode="&#x201a;" d="M395 -316q-33 0 -56 23t-23 56t23 56t56 23q30 0 46 10.5t23.5 30.5t8.5 49.5t1 67.5q-33 0 -61.5 12.5t-50 34t-34 50t-12.5 61.5t12.5 61.5t34 50t50 34t61.5 12.5t61.5 -12.5t50 -34t34 -50t12.5 -61.5v-158q0 -59 -15 -116t-44.5 -101.5t-74 -71.5t-103.5 -27z" />
<glyph unicode="&#x201c;" d="M395 1580q33 0 56 -23t23 -56t-23 -56t-56 -23q-30 0 -46 -10.5t-23.5 -30.5t-8.5 -49.5t-1 -67.5q33 0 61.5 -12.5t50 -34t34 -50t12.5 -61.5t-12.5 -61.5t-34 -50t-50 -34t-61.5 -12.5t-61.5 12.5t-50 34t-34 50t-12.5 61.5v158q0 59 15 116t44.5 101.5t74 71.5 t103.5 27zM868 1580q33 0 56 -23t23 -56t-23 -56t-56 -23q-30 0 -46 -10.5t-23.5 -30.5t-8.5 -49.5t-1 -67.5q33 0 61.5 -12.5t50 -34t34 -50t12.5 -61.5t-12.5 -61.5t-34 -50t-50 -34t-61.5 -12.5q-32 0 -60.5 12.5t-50 34t-34 50t-12.5 61.5v158q0 59 15 116t44.5 101.5 t73.5 71.5t103 27z" />
<glyph unicode="&#x201d;" d="M238 948q-33 0 -56 23t-23 56t23 56t56 23q30 0 46 10.5t23.5 30.5t8 49.5t0.5 67.5q-32 0 -60.5 12.5t-50 34t-34 50t-12.5 61.5t12.5 61.5t34 50t50 34t60.5 12.5q33 0 61.5 -12.5t50 -34t34 -50t12.5 -61.5v-158q0 -59 -15 -116t-44.5 -101.5t-73.5 -71.5t-103 -27z M712 948q-33 0 -56 23t-23 56t23 56t56 23q30 0 46 10.5t23.5 30.5t8 49.5t0.5 67.5q-32 0 -60.5 12.5t-50 34t-34 50t-12.5 61.5t12.5 61.5t34 50t50 34t60.5 12.5q33 0 61.5 -12.5t50 -34t34 -50t12.5 -61.5v-158q0 -59 -15 -116t-44.5 -101.5t-73.5 -71.5t-103 -27z" />
<glyph unicode="&#x201e;" d="M237 -316q-33 0 -56 23t-23 56t23 56t56 23q30 0 46 10.5t23.5 30.5t8.5 49.5t1 67.5q-33 0 -61.5 12.5t-50 34t-34 50t-12.5 61.5t12.5 61.5t34 50t50 34t61.5 12.5t61.5 -12.5t50 -34t34 -50t12.5 -61.5v-158q0 -59 -15 -116t-44.5 -101.5t-74 -71.5t-103.5 -27z M711 -316q-33 0 -56 23t-23 56t23 56t56 23q30 0 46 10.5t23.5 30.5t8.5 49.5t1 67.5q-33 0 -61.5 12.5t-50 34t-34 50t-12.5 61.5t12.5 61.5t34 50t50 34t61.5 12.5t61.5 -12.5t50 -34t34 -50t12.5 -61.5v-158q0 -59 -15 -116t-44.5 -101.5t-74 -71.5t-103.5 -27z" />
<glyph unicode="&#x2020;" d="M474 948h-316v158h316v316h158v-316h316v-158h-316v-632h-158v632z" />
<glyph unicode="&#x2021;" d="M474 316h-316v158h316v474h-316v158h316v316h158v-316h316v-158h-316v-474h316v-158h-316v-316h-158v316z" />
<glyph unicode="&#x2022;" d="M316 711q0 49 18.5 92t51 75.5t75.5 51t92 18.5t92 -18.5t75.5 -51t51 -75.5t18.5 -92t-18.5 -92t-51 -75.5t-75.5 -51t-92 -18.5t-92 18.5t-75.5 51t-51 75.5t-18.5 92z" />
<glyph unicode="&#x2024;" d="M316 158q0 33 12.5 61.5t34 50t50 34t61.5 12.5t61.5 -12.5t50 -34t34 -50t12.5 -61.5t-12.5 -61.5t-34 -50t-50 -34t-61.5 -12.5t-61.5 12.5t-50 34t-34 50t-12.5 61.5z" />
<glyph unicode="&#x2026;" d="M158 316h158v-316h-158v316zM474 316h158v-316h-158v316zM790 316h158v-316h-158v316z" />
<glyph unicode="&#x202f;" horiz-adv-x="410" />
<glyph unicode="&#x2030;" d="M188 158h-188l760 1106h188l-437 -636q20 4 42 4q48 0 90 -19q38 -16 67 -43q29 27 66 43q43 19 91 19t90.5 -18.5t74 -51t50 -75.5t18.5 -92t-18.5 -92t-50 -75.5t-74 -51t-90.5 -18.5t-91 18q-37 17 -66 44q-29 -27 -67 -44q-42 -18 -90 -18t-90.5 18.5t-74 51 t-50.5 75.5q-10 25 -15 51zM8 1027q0 49 18.5 92t50 75.5t74 51t90.5 18.5t90.5 -18.5t74 -51t50 -75.5t18.5 -92t-18.5 -92t-50 -75.5t-74 -51t-90.5 -18.5t-90.5 18.5t-74 51t-50 75.5t-18.5 92zM163 1027q0 -33 23 -56t55 -23t55 23t23 56t-23 56t-55 23t-55 -23t-23 -56 zM790 395q0 -33 22.5 -56t54.5 -23t55 23t23 56t-23 56t-55 23t-54.5 -23t-22.5 -56zM476 395q0 -33 22.5 -56t54.5 -23t55 23t23 56t-23 56t-55 23t-54.5 -23t-22.5 -56z" />
<glyph unicode="&#x2039;" d="M632 948l79 -79l-237 -316l237 -316l-80 -79l-315 395z" />
<glyph unicode="&#x203a;" d="M395.039 948l-78.9961 -79l236.986 -316l-236.986 -316l79.9951 -79l314.981 395z" />
<glyph unicode="&#x203c;" d="M316 1422h158v-948h-158v948zM316 316h158v-316h-158v316zM632 1422h158v-948h-158v948zM632 316h158v-316h-158v316z" />
<glyph unicode="&#x203e;" d="M0 1424v156h1106v-156h-1106z" />
<glyph unicode="&#x2044;" d="M790 1580h158l-632 -1580h-158z" />
<glyph unicode="&#x205f;" horiz-adv-x="513" />
<glyph unicode="&#x2070;" d="M158 1185q0 82 18.5 154t51 125.5t75.5 84.5t92 31t92 -31t75.5 -84.5t51 -125.5t18.5 -154t-18.5 -154t-51 -125.5t-75.5 -84.5t-92 -31t-92 31t-75.5 84.5t-51 125.5t-18.5 154zM316 1185q0 -49 6 -92t17 -75.5t25 -51t31 -18.5q16 0 30.5 18.5t25.5 51t17 75.5t6 92 t-6 92t-17 75.5t-25.5 51t-30.5 18.5q-17 0 -31 -18.5t-25 -51t-17 -75.5t-6 -92z" />
<glyph unicode="&#x2074;" d="M158 1264l316 316h158v-790h-158v158h-316v316zM474 1106v237l-158 -158v-79h158z" />
<glyph unicode="&#x2075;" d="M158 948q59 0 116 1t101.5 8.5t71.5 23.5t27 46t-27 46t-71.5 23.5t-101.5 8.5t-116 1v474h474v-158h-316v-158q89 0 149.5 -15t97.5 -44.5t53 -74t16 -103.5t-16 -103.5t-53 -74t-97.5 -44.5t-149.5 -15h-158v158z" />
<glyph unicode="&#x2076;" d="M158 1027q0 40 1 68.5t7.5 57t21 62t41 81.5t67 116.5t99.5 167.5h158l-200 -320l42 4q49 0 92 -18.5t75.5 -51t51 -75.5t18.5 -92t-18.5 -92t-51 -75.5t-75.5 -51t-92 -18.5t-92 18.5t-75.5 51t-51 75.5t-18.5 92zM316 1027q0 -33 23 -56t56 -23t56 23t23 56t-23 56 t-56 23t-56 -23t-23 -56z" />
<glyph unicode="&#x2077;" d="M632 1422l-158 -632h-158l158 632h-316v158h474v-158z" />
<glyph unicode="&#x2078;" d="M158 1027q0 45 15.5 85.5t44.5 72.5q-29 32 -44.5 72t-15.5 86q0 49 18.5 92t51 75.5t75.5 51t92 18.5t92 -18.5t75.5 -51t51 -75.5t18.5 -92q0 -46 -16 -86t-44 -72q28 -32 44 -72.5t16 -85.5q0 -49 -18.5 -92t-51 -75.5t-75.5 -51t-92 -18.5t-92 18.5t-75.5 51 t-51 75.5t-18.5 92zM316 1027q0 -33 23 -56t56 -23t56 23t23 56t-23 56t-56 23t-56 -23t-23 -56zM316 1343q0 -33 23 -56t56 -23t56 23t23 56t-23 56t-56 23t-56 -23t-23 -56z" />
<glyph unicode="&#x2079;" d="M632 1343q0 -39 -1 -68t-7.5 -57.5t-21 -62t-41 -81.5t-67 -116.5t-99.5 -167.5h-158l200 320l-42 -4q-49 0 -92 18.5t-75.5 51t-51 75.5t-18.5 92t18.5 92t51 75.5t75.5 51t92 18.5t92 -18.5t75.5 -51t51 -75.5t18.5 -92zM474 1343q0 33 -23 56t-56 23t-56 -23t-23 -56 t23 -56t56 -23t56 23t23 56z" />
<glyph unicode="&#x207a;" d="M158 1264h158v158h158v-158h158v-158h-158v-158h-158v158h-158v158z" />
<glyph unicode="&#x207b;" d="M158 1264h474v-158h-474v158z" />
<glyph unicode="&#x207c;" d="M158 1422h474v-158h-474v158zM158 1106h474v-158h-474v158z" />
<glyph unicode="&#x207d;" d="M632 790q-89 0 -149.5 28.5t-97.5 80t-53 124.5t-16 162t16 162t53 124.5t97.5 80t149.5 28.5v-158q-40 0 -67 -12t-44.5 -32t-27 -45t-14 -51.5t-5 -51.5t-0.5 -45t0.5 -45t5 -51.5t14 -51.5t27 -45t44.5 -32t67 -12v-158z" />
<glyph unicode="&#x207e;" d="M316 948q39 0 66.5 12t45 32t27 45t14 51.5t5 51.5t0.5 45t-0.5 45t-5 51.5t-14 51.5t-27 45t-45 32t-66.5 12v158q89 0 149.5 -28.5t97.5 -80t53 -124.5t16 -162t-16 -162t-53 -124.5t-97.5 -80t-149.5 -28.5v158z" />
<glyph unicode="&#x207f;" d="M395 1422q-30 0 -46 -13.5t-23.5 -36t-8.5 -50.5t-1 -58v-474h-158v790h158v-57q14 21 26.5 33t25.5 17t27.5 6t32.5 1q47 0 84.5 -16t64 -53t41 -97.5t14.5 -149.5v-474h-158v474q0 30 -1 58t-8.5 50.5t-23.5 36t-46 13.5z" />
<glyph unicode="&#x2080;" d="M158 233q0 82 18.5 154t51 125.5t75.5 84.5t92 31t92 -31t75.5 -84.5t51 -125.5t18.5 -154t-18.5 -154t-51 -125.5t-75.5 -84.5t-92 -31t-92 31t-75.5 84.5t-51 125.5t-18.5 154zM316 233q0 -49 6 -92t17 -75.5t25 -51t31 -18.5q16 0 30.5 18.5t25.5 51t17 75.5t6 92 t-6 92t-17 75.5t-25.5 51t-30.5 18.5q-17 0 -31 -18.5t-25 -51t-17 -75.5t-6 -92z" />
<glyph unicode="&#x2081;" d="M316 1v474l-158 -158v158l158 158h158v-632h158v-158h-474v158h158z" />
<glyph unicode="&#x2082;" d="M158.672 1q0 20 23.4512 51.5t58.3789 68.5t75.8418 77.5q40.915 40.5 75.8428 77.5t58.3789 68.5t23.4512 51.5q0 30 -13.4727 46q-13.4717 16 -35.9248 23.5t-50.8945 8.5q-28.4404 1 -57.3809 1h-157.672v158h235.511q237.506 0 237.506 -237q0 -30 -26.9443 -73.5 q-26.9434 -43.5 -71.3516 -95q-44.4072 -51.5 -101.289 -109.5t-115.76 -117h315.345v-158h-473.017v158z" />
<glyph unicode="&#x2083;" d="M158.338 1h158.337q30.0645 0 58.124 2t50.6084 10q22.5479 8 36.0762 24q13.5293 16 13.5293 43t-13.5293 43q-13.5283 16 -36.0762 24q-22.5488 8 -50.6084 10t-58.124 2v158q30.0645 0 58.625 2q28.5615 2 51.1094 10t36.0771 24q13.5283 16 13.5283 43t-13.5283 43 q-13.5293 16 -36.0771 24t-51.1094 10q-28.5605 2 -58.625 2h-158.337v158h237.506q237.506 0 237.506 -237q0 -59 -18.5391 -93.5t-61.6309 -64.5q43.0918 -30 61.6309 -64.5t18.5391 -93.5q0 -237 -237.506 -237h-237.506v158z" />
<glyph unicode="&#x2084;" d="M158 317l316 316h158v-790h-158v158h-316v316zM474 159v237l-158 -158v-79h158z" />
<glyph unicode="&#x2085;" d="M158 1q59 0 116 1t101.5 8.5t71.5 23.5t27 46t-27 46t-71.5 23.5t-101.5 8.5t-116 1v474h474v-158h-316v-158q89 0 149.5 -15t97.5 -44.5t53 -74t16 -103.5t-16 -103.5t-53 -74t-97.5 -44.5t-149.5 -15h-158v158z" />
<glyph unicode="&#x2086;" d="M158 80q0 40 1 68.5t7.5 57t21 62t41 81.5t67 116.5t99.5 167.5h158l-200 -320l42 4q49 0 92 -18.5t75.5 -51t51 -75.5t18.5 -92t-18.5 -92t-51 -75.5t-75.5 -51t-92 -18.5t-92 18.5t-75.5 51t-51 75.5t-18.5 92zM316 80q0 -33 23 -56t56 -23t56 23t23 56t-23 56t-56 23 t-56 -23t-23 -56z" />
<glyph unicode="&#x2087;" d="M632 475l-158 -632h-158l158 632h-316v158h474v-158z" />
<glyph unicode="&#x2088;" d="M158 80q0 45 15.5 85.5t44.5 72.5q-29 32 -44.5 72t-15.5 86q0 49 18.5 92t51 75.5t75.5 51t92 18.5t92 -18.5t75.5 -51t51 -75.5t18.5 -92q0 -46 -16 -86t-44 -72q28 -32 44 -72.5t16 -85.5q0 -49 -18.5 -92t-51 -75.5t-75.5 -51t-92 -18.5t-92 18.5t-75.5 51t-51 75.5 t-18.5 92zM316 80q0 -33 23 -56t56 -23t56 23t23 56t-23 56t-56 23t-56 -23t-23 -56zM316 396q0 -33 23 -56t56 -23t56 23t23 56t-23 56t-56 23t-56 -23t-23 -56z" />
<glyph unicode="&#x2089;" d="M632 396q0 -39 -1 -68t-7.5 -57.5t-21 -62t-41 -81.5t-67 -116.5t-99.5 -167.5h-158l200 320l-42 -4q-49 0 -92 18.5t-75.5 51t-51 75.5t-18.5 92t18.5 92t51 75.5t75.5 51t92 18.5t92 -18.5t75.5 -51t51 -75.5t18.5 -92zM474 396q0 33 -23 56t-56 23t-56 -23t-23 -56 t23 -56t56 -23t56 23t23 56z" />
<glyph unicode="&#x208a;" d="M158 316h158v158h158v-158h158v-158h-158v-158h-158v158h-158v158z" />
<glyph unicode="&#x208b;" d="M158 316h474v-158h-474v158z" />
<glyph unicode="&#x208c;" d="M158 474h474v-158h-474v158zM158 158h474v-158h-474v158z" />
<glyph unicode="&#x208d;" d="M632 -158q-89 0 -149.5 28.5t-97.5 80t-53 124.5t-16 162t16 162t53 124.5t97.5 80t149.5 28.5v-158q-40 0 -67 -12t-44.5 -32t-27 -45t-14 -51.5t-5 -51.5t-0.5 -45t0.5 -45t5 -51.5t14 -51.5t27 -45t44.5 -32t67 -12v-158z" />
<glyph unicode="&#x208e;" d="M316 0q39 0 66.5 12t45 32t27 45t14 51.5t5 51.5t0.5 45t-0.5 45t-5 51.5t-14 51.5t-27 45t-45 32t-66.5 12v158q89 0 149.5 -28.5t97.5 -80t53 -124.5t16 -162t-16 -162t-53 -124.5t-97.5 -80t-149.5 -28.5v158z" />
<glyph unicode="&#x20a3;" d="M0 316h158v1106h790v-158h-632v-474h474v-158h-474v-316h158v-158h-158v-158h-158v158h-158v158z" />
<glyph unicode="&#x20a4;" d="M158 632h158v158h-158v158h158v158q0 59 27 116t71.5 101.5t101.5 71.5t116 27t116 -27t101.5 -71.5t71.5 -101.5t27 -116h-158q0 30 -13.5 58t-36 50.5t-51 36t-57.5 13.5q-30 0 -58 -13.5t-50.5 -36t-36 -50.5t-13.5 -58v-158h316v-158h-316v-158h316v-158h-316v-316 h474v-158h-790v158h158v316h-158v158z" />
<glyph unicode="&#x20a7;" d="M948 632q-30 0 -58 -1t-50.5 -8.5t-36 -23.5t-13.5 -46q0 -28 23.5 -45t58.5 -30.5t76 -25.5t76 -29t58.5 -42.5t23.5 -64.5v-158q0 -30 -15 -58t-44.5 -50.5t-74 -36t-103.5 -13.5h-158q-59 0 -103.5 16t-74 53t-44.5 97.5t-15 149.5v632q0 -59 -15 -116t-44.5 -101.5 t-74 -71.5t-103.5 -27h-79v-632h-158v1422h237q59 0 103.5 -16t74 -53t44.5 -97.5t15 -149.5v316h158v-316h158v-158h-158v-310q1 31 16 59t44.5 48.5t73.5 32.5t103 12h237v-158h-158zM316 1106q0 30 -3 58t-11 50.5t-24 36t-41 13.5h-79v-474h86q27 0 41.5 13.5t21.5 36 t8 50.5t1 58v158zM632 316q0 -30 1 -58t8.5 -50.5t23.5 -36t46 -13.5h79q59 0 91 6.5t47 18t17.5 25.5t2.5 29q0 30 -23.5 48t-58.5 31t-76 24.5t-76 28t-58.5 41t-23.5 64.5v-158z" />
<glyph unicode="&#x20ac;" d="M79 948h108q27 103 75.5 190t116 150t151.5 98.5t181 35.5q121 0 221.5 -54.5t173.5 -149.5l-111 -112q-51 73 -123 115.5t-161 42.5q-65 0 -121 -23t-102 -65t-81 -100t-57 -128h361l-79 -158h-313q-6 -79 0 -158h392l-79 -158h-282q22 -70 57 -128t81 -100t102 -65 t121 -23q89 0 161 42t123 116l111 -113q-73 -95 -173.5 -149t-221.5 -54q-97 0 -181 35t-151.5 98t-116 150t-75.5 191h-187l79 158h82q-6 79 0 158h-161z" />
<glyph unicode="&#x2105;" d="M632 395q0 82 18.5 154t51 125.5t75.5 84.5t92 31t92 -31t75.5 -84.5t51 -125.5t18.5 -154t-18.5 -154t-51 -125.5t-75.5 -84.5t-92 -31t-92 31t-75.5 84.5t-51 125.5t-18.5 154zM790 1580h158l-632 -1580h-158zM158 1185q0 -49 6 -92t17 -75.5t25 -51t31 -18.5 q13 0 24.5 11.5t21 32.5t17 50t11.5 64h158q-8 -68 -29.5 -125.5t-52 -100t-69 -66.5t-81.5 -24q-49 0 -92 31t-75.5 84.5t-51 125.5t-18.5 154t18.5 154t51 125.5t75.5 84.5t92 31q43 0 81.5 -24t69 -66.5t52 -100.5t29.5 -125h-158q-4 34 -11.5 63t-17 50t-21 33t-24.5 12 q-17 0 -31 -18.5t-25 -51t-17 -75.5t-6 -92zM790 395q0 -49 6 -92t17 -75.5t25 -51t31 -18.5q16 0 30.5 18.5t25.5 51t17 75.5t6 92t-6 92t-17 75.5t-25.5 51t-30.5 18.5q-17 0 -31 -18.5t-25 -51t-17 -75.5t-6 -92z" />
<glyph unicode="&#x2106;" d="M790 395q0 -49 6 -92t17 -75.5t25 -51t31 -18.5q16 0 30.5 18.5t25.5 51t17 75.5t6 92v395h158v-382v-13q0 -82 -18.5 -154t-51 -125.5t-75.5 -84.5t-92 -31t-92 31t-75.5 84.5t-51 125.5t-18.5 154v395l-316 -790h-158l632 1580h158l-316 -790h158v-395zM158 1185 q0 -49 6 -92t17 -75.5t25 -51t31 -18.5q13 0 24.5 11.5t21 32.5t17 50t11.5 64h158q-8 -68 -29.5 -125.5t-52 -100t-69 -66.5t-81.5 -24q-49 0 -92 31t-75.5 84.5t-51 125.5t-18.5 154t18.5 154t51 125.5t75.5 84.5t92 31q43 0 81.5 -24t69 -66.5t52 -100.5t29.5 -125h-158 q-4 34 -11.5 63t-17 50t-21 33t-24.5 12q-17 0 -31 -18.5t-25 -51t-17 -75.5t-6 -92z" />
<glyph unicode="&#x2122;" d="M474 1264h-158v-474h-158v474h-158v158h632l79 -158l79 158h158v-632h-158v395l-79 -158l-79 158v-395h-159z" />
<glyph unicode="&#x2126;" d="M632 167q73 18 131.5 67.5t99.5 121.5t63 163t22 192q0 114 -28 215t-79.5 176t-124.5 118.5t-163 43.5t-163.5 -43.5t-126 -118.5t-81 -176t-28.5 -215q0 -101 22.5 -192t64.5 -163t101 -121.5t132 -67.5v-167h-474v158h194q-94 98 -146 241t-52 312q0 147 41 276.5 t115 226t176 152.5t225 56t224.5 -56t174.5 -152.5t113.5 -226t40.5 -276.5q0 -169 -51.5 -312t-145.5 -241h197v-158h-474v167z" />
<glyph unicode="&#x212e;" d="M771 303q3 6 5 13h164q-8 -39 -23 -75q-31 -72 -84.5 -125.5t-125.5 -84.5t-154 -31t-154 31t-125.5 84.5t-84.5 125.5t-31 154v316q0 82 31 154t84.5 125.5t125.5 84.5t154 31t154 -31t125.5 -84.5t84.5 -125.5t31 -154v-237h-632v-79q0 -49 18.5 -92t51 -75.5t75.5 -51 t92 -18.5t92 18.5t75.5 51t50.5 75.5zM316 632h474v79q0 49 -18.5 92t-51 75.5t-75.5 51t-92 18.5t-92 -18.5t-75.5 -51t-51 -75.5t-18.5 -92v-79z" />
<glyph unicode="&#x2141;" d="M316.048 1264.01q0 29.998 24.499 57.9961q24.498 27.998 60.4961 50.4971t77.4951 35.998q41.498 13.499 74.4961 13.499q81.9941 0 153.99 -30.998q71.9951 -30.998 125.492 -84.4951q53.4971 -53.4961 84.4951 -125.492q30.998 -71.9951 30.998 -153.99v-631.962 q0 -81.9951 -30.998 -153.99q-30.998 -71.9961 -84.4951 -125.492q-53.4971 -53.4971 -125.492 -84.4951q-71.9961 -30.998 -153.99 -30.998q-71.9961 0 -135.992 23.998q-63.9961 23.999 -114.993 66.4961q-50.9971 42.498 -86.4941 100.494 q-35.498 57.9961 -49.4971 124.992h163.989q12 -33.998 33.998 -62.9961q21.999 -28.998 50.9971 -49.9971q28.998 -20.998 63.9961 -32.998q34.998 -11.999 73.9961 -11.999q48.9971 0 91.9941 18.499t75.4951 50.9971t50.9971 75.4951t18.499 91.9941v631.962 q0 48.9971 -18.499 91.9941t-50.9971 75.4951t-75.4951 50.9971t-91.9941 18.499q-47.9971 0 -90.9951 -25.998q-42.9971 -25.999 -75.4951 -62.9971q-32.498 -36.9971 -51.4971 -77.4951q-18.999 -40.4971 -18.999 -70.4951v-236.985h157.991v-157.991h-315.981v789.952 h157.99v-157.99z" />
<glyph unicode="&#x2153;" d="M159 948v474l-158 -158v158l158 158h158v-632h158v-158h-474v158h158zM790 1580h158l-632 -1580h-158zM631.996 159h159.996q30.3789 0 58.7334 2q28.3535 2 51.1377 10t36.4551 24q13.6699 16 13.6699 43t-13.6699 43q-13.6709 16 -36.4551 24t-51.1377 10 q-28.3545 2 -58.7334 2v158q30.3789 0 59.2393 2t51.6445 10t36.4551 24q13.6699 16 13.6699 43t-13.6699 43q-13.6709 16 -36.4551 24t-51.6445 10t-59.2393 2h-159.996v158h239.994q239.994 0 239.994 -237q0 -59 -18.7334 -93.5t-62.2764 -64.5q43.543 -30 62.2764 -64.5 t18.7334 -93.5q0 -237 -239.994 -237h-239.994v158z" />
<glyph unicode="&#x2154;" d="M790 1580h158l-632 -1580h-158zM632 159h158q30 0 58 2t50.5 10t36 24t13.5 43t-13.5 43t-36 24t-50.5 10t-58 2v158q30 0 58.5 2t51 10t36 24t13.5 43t-13.5 43t-36 24t-51 10t-58.5 2h-158v158h237q237 0 237 -237q0 -59 -18.5 -93.5t-61.5 -64.5q43 -30 61.5 -64.5 t18.5 -93.5q0 -237 -237 -237h-237v158zM1.66211 948q0 20 23.4502 51.5t58.375 68.5t75.8379 77.5q40.9121 40.5 75.8369 77.5q34.9258 37 58.376 68.5q23.4492 31.5 23.4492 51.5q0 30 -13.4707 46q-13.4717 16 -35.9238 23.5q-22.4512 7.5 -50.8906 8.5t-57.377 1 h-157.663v158h235.496q237.492 0 237.492 -237q0 -30 -26.9424 -73.5t-71.3477 -95t-101.283 -109.5t-115.752 -117h315.325v-158h-472.988v158z" />
<glyph unicode="&#x2155;" d="M158 948v474l-158 -158v158l158 158h158v-632h158v-158h-474v158h158zM790 1580h158l-632 -1580h-158zM632 159q59 0 116 1t101.5 8.5t71.5 23.5t27 46t-27 46t-71.5 23.5t-101.5 8.5t-116 1v474h474v-158h-316v-158q89 0 149.5 -15t97.5 -44.5t53 -74t16 -103.5 t-16 -103.5t-53 -74t-97.5 -44.5t-149.5 -15h-158v158z" />
<glyph unicode="&#x2156;" d="M790 1580h158l-632 -1580h-158zM1 948q0 20 23.5 51.5t58.5 68.5t76 77.5t76 77.5t58.5 68.5t23.5 51.5q0 30 -13.5 46t-36 23.5t-51 8.5t-57.5 1h-158v158h236q238 0 238 -237q0 -30 -27 -73.5t-71.5 -95t-101.5 -109.5t-116 -117h316v-158h-474v158zM632 159 q59 0 116 1t101.5 8.5t71.5 23.5t27 46t-27 46t-71.5 23.5t-101.5 8.5t-116 1v474h474v-158h-316v-158q89 0 149.5 -15t97.5 -44.5t53 -74t16 -103.5t-16 -103.5t-53 -74t-97.5 -44.5t-149.5 -15h-158v158z" />
<glyph unicode="&#x2157;" d="M790 1580h158l-632 -1580h-158zM1 948h158q30 0 58 2t50.5 10t36 24t13.5 43t-13.5 43t-36 24t-50.5 10t-58 2v158q30 0 58.5 2t51 10t36 24t13.5 43t-13.5 43t-36 24t-51 10t-58.5 2h-158v158h237q237 0 237 -237q0 -59 -18.5 -93.5t-61.5 -64.5q43 -30 61.5 -64.5 t18.5 -93.5q0 -237 -237 -237h-237v158zM632 159q59 0 116 1t101.5 8.5t71.5 23.5t27 46t-27 46t-71.5 23.5t-101.5 8.5t-116 1v474h474v-158h-316v-158q89 0 149.5 -15t97.5 -44.5t53 -74t16 -103.5t-16 -103.5t-53 -74t-97.5 -44.5t-149.5 -15h-158v158z" />
<glyph unicode="&#x2158;" d="M790 1580h158l-632 -1580h-158zM1 1264l316 316h158v-790h-158v158h-316v316zM317 1106v237l-158 -158v-79h158zM632 159q59 0 116 1t101.5 8.5t71.5 23.5t27 46t-27 46t-71.5 23.5t-101.5 8.5t-116 1v474h474v-158h-316v-158q89 0 149.5 -15t97.5 -44.5t53 -74 t16 -103.5t-16 -103.5t-53 -74t-97.5 -44.5t-149.5 -15h-158v158z" />
<glyph unicode="&#x2159;" d="M158 948v474l-158 -158v158l158 158h158v-632h158v-158h-474v158h158zM790 1580h158l-632 -1580h-158zM632 238q0 40 1 68.5t7.5 57t21 62t41 81.5t67 116.5t99.5 167.5h158l-200 -320l42 4q49 0 92 -18.5t75.5 -51t51 -75.5t18.5 -92t-18.5 -92t-51 -75.5t-75.5 -51 t-92 -18.5t-92 18.5t-75.5 51t-51 75.5t-18.5 92zM790 238q0 -33 23 -56t56 -23t56 23t23 56t-23 56t-56 23t-56 -23t-23 -56z" />
<glyph unicode="&#x215a;" d="M790 1580h158l-632 -1580h-158zM4.33496 948q58.751 0 115.511 1q56.7607 1 101.073 8.5t71.1982 23.5q26.8867 16 26.8867 46t-26.8867 46q-26.8857 16 -71.1982 23.5t-101.073 8.5q-56.7598 1 -115.511 1v474h472.003v-158h-314.669v-158q88.625 0 148.871 -15 q60.2451 -15 97.0889 -44.5t52.7773 -74q15.9316 -44.5 15.9316 -103.5t-15.9316 -103.5q-15.9336 -44.5 -52.7773 -74t-97.0889 -44.5q-60.2461 -15 -148.871 -15h-157.334v158zM630 224q0 40 1 68.5t7.5 57t21 62t41 81.5t67 116.5t99.5 167.5h158l-200 -320l42 4 q49 0 92 -18.5t75.5 -51t51 -75.5t18.5 -92t-18.5 -92t-51 -75.5t-75.5 -51t-92 -18.5t-92 18.5t-75.5 51t-51 75.5t-18.5 92zM788 224q0 -33 23 -56t56 -23t56 23t23 56t-23 56t-56 23t-56 -23t-23 -56z" />
<glyph unicode="&#x215b;" d="M159 948v474l-158 -158v158l158 158h158v-632h158v-158h-474v158h158zM790 1580h158l-632 -1580h-158zM632 238q0 45 15.5 85.5t44.5 72.5q-29 32 -44.5 72t-15.5 86q0 49 18.5 92t51 75.5t75.5 51t92 18.5t92 -18.5t75.5 -51t51 -75.5t18.5 -92q0 -46 -16 -86t-44 -72 q28 -32 44 -72.5t16 -85.5q0 -49 -18.5 -92t-51 -75.5t-75.5 -51t-92 -18.5t-92 18.5t-75.5 51t-51 75.5t-18.5 92zM790 238q0 -33 23 -56t56 -23t56 23t23 56t-23 56t-56 23t-56 -23t-23 -56zM790 554q0 -33 23 -56t56 -23t56 23t23 56t-23 56t-56 23t-56 -23t-23 -56z" />
<glyph unicode="&#x215c;" d="M790 1580h158l-632 -1580h-158zM1 948h158q30 0 58 2t50.5 10t36 24t13.5 43t-13.5 43t-36 24t-50.5 10t-58 2v158q30 0 58.5 2t51 10t36 24t13.5 43t-13.5 43t-36 24t-51 10t-58.5 2h-158v158h237q237 0 237 -237q0 -59 -18.5 -93.5t-61.5 -64.5q43 -30 61.5 -64.5 t18.5 -93.5q0 -237 -237 -237h-237v158zM632 238q0 45 15.5 85.5t44.5 72.5q-29 32 -44.5 72t-15.5 86q0 49 18.5 92t51 75.5t75.5 51t92 18.5t92 -18.5t75.5 -51t51 -75.5t18.5 -92q0 -46 -16 -86t-44 -72q28 -32 44 -72.5t16 -85.5q0 -49 -18.5 -92t-51 -75.5t-75.5 -51 t-92 -18.5t-92 18.5t-75.5 51t-51 75.5t-18.5 92zM790 238q0 -33 23 -56t56 -23t56 23t23 56t-23 56t-56 23t-56 -23t-23 -56zM790 554q0 -33 23 -56t56 -23t56 23t23 56t-23 56t-56 23t-56 -23t-23 -56z" />
<glyph unicode="&#x215d;" d="M790 1580h158l-632 -1580h-158zM632 238q0 45 15.5 85.5t44.5 72.5q-29 32 -44.5 72t-15.5 86q0 49 18.5 92t51 75.5t75.5 51t92 18.5t92 -18.5t75.5 -51t51 -75.5t18.5 -92q0 -46 -16 -86t-44 -72q28 -32 44 -72.5t16 -85.5q0 -49 -18.5 -92t-51 -75.5t-75.5 -51 t-92 -18.5t-92 18.5t-75.5 51t-51 75.5t-18.5 92zM790 238q0 -33 23 -56t56 -23t56 23t23 56t-23 56t-56 23t-56 -23t-23 -56zM790 554q0 -33 23 -56t56 -23t56 23t23 56t-23 56t-56 23t-56 -23t-23 -56zM1 949.588q59 0 116 1.00293q57 1.00391 101.5 8.53223t71.5 23.5889 t27 46.1748q0 30.1133 -27 46.1738t-71.5 23.5889t-101.5 8.53223t-116 1.00391v475.793h474v-158.598h-316v-158.598q89 0 149.5 -15.0566t97.5 -44.6689q37 -29.6113 53 -74.2793q16 -44.6689 16 -103.892q0 -59.2236 -16 -103.892q-16 -44.6689 -53 -74.2803 t-97.5 -44.6689q-60.5 -15.0566 -149.5 -15.0566h-158v158.599z" />
<glyph unicode="&#x215e;" d="M790 1580h158l-632 -1580h-158zM632 238q0 45 15.5 85.5t44.5 72.5q-29 32 -44.5 72t-15.5 86q0 49 18.5 92t51 75.5t75.5 51t92 18.5t92 -18.5t75.5 -51t51 -75.5t18.5 -92q0 -46 -16 -86t-44 -72q28 -32 44 -72.5t16 -85.5q0 -49 -18.5 -92t-51 -75.5t-75.5 -51 t-92 -18.5t-92 18.5t-75.5 51t-51 75.5t-18.5 92zM790 238q0 -33 23 -56t56 -23t56 23t23 56t-23 56t-56 23t-56 -23t-23 -56zM790 554q0 -33 23 -56t56 -23t56 23t23 56t-23 56t-56 23t-56 -23t-23 -56zM475.35 1422l-158.337 -632h-158.338l158.338 632h-316.675v158 h475.012v-158z" />
<glyph unicode="&#x215f;" d="M158 948v474l-158 -158v158l158 158h158v-632h158v-158h-474v158h158zM790 1580h158l-632 -1580h-158z" />
<glyph unicode="&#x2190;" d="M0 711l395 395h79v-316h632v-158h-632v-316h-79z" />
<glyph unicode="&#x2191;" d="M553 1422l395 -395v-79h-316v-632h-158v632h-316v79z" />
<glyph unicode="&#x2192;" d="M1106 711l-394.976 395h-78.9951v-316h-631.962v-158h631.962v-316h78.9951z" />
<glyph unicode="&#x2193;" d="M553 0.0869141l395 394.976v78.9951h-316v631.962h-158v-631.962h-316v-78.9951z" />
<glyph unicode="&#x2194;" d="M395 1106h79v-316h158v316h79l395 -395l-395 -395h-79v316h-158v-316h-79l-395 395z" />
<glyph unicode="&#x2195;" d="M948 1027v-79h-316v-474h316v-79l-395 -395l-395 395v79h316v474h-316v79l395 395z" />
<glyph unicode="&#x21a4;" d="M948 632h-474v-316h-79l-395 395l395 395h79v-316h474v316h158v-790h-158v316z" />
<glyph unicode="&#x21a5;" d="M158 158h316v790h-316v79l395 395l395 -395v-79h-316v-790h316v-158h-790v158z" />
<glyph unicode="&#x21a6;" d="M158.058 632h473.972v-316h78.9951l394.976 395l-394.976 395h-78.9951v-316h-473.972v316h-157.99v-790h157.99v316z" />
<glyph unicode="&#x21a7;" d="M158 1264.01h316v-789.952h-316v-78.9951l395 -394.976l395 394.976v78.9951h-316v789.952h316v157.99h-790v-157.99z" />
<glyph unicode="&#x21a8;" d="M158 0h790v-158h-790v158zM948 1027v-79h-316v-474h316v-79l-395 -395l-395 395v79h316v474h-316v79l395 395z" />
<glyph unicode="&#x21b0;" d="M790 632h-316v-316h-79l-395 395l395 395h79v-316h474v-790h-158v632z" />
<glyph unicode="&#x21b1;" d="M316.048 632h315.981v-316h78.9951l394.976 395l-394.976 395h-78.9951v-316h-473.972v-790h157.99v632z" />
<glyph unicode="&#x21b2;" d="M790 790.039h-316v315.98h-79l-395 -394.977l395 -394.976h79v315.98h474v789.952h-158v-631.961z" />
<glyph unicode="&#x21b3;" d="M316.048 790.039h315.981v315.98h78.9951l394.976 -394.977l-394.976 -394.976h-78.9951v315.98h-473.972v789.952h157.99v-631.961z" />
<glyph unicode="&#x21b4;" d="M0 1106h632v-632h316v-79l-395 -395l-395 395v79h316v474h-474v158z" />
<glyph unicode="&#x21be;" d="M474 1422h79l395 -395v-79h-316v-632h-158v1106z" />
<glyph unicode="&#x21bf;" d="M632.029 1422h-78.9951l-394.977 -395v-79h315.981v-632h157.99v1106z" />
<glyph unicode="&#x21c2;" d="M474 0.0869141h79l395 394.976v78.9951h-316v631.962h-158v-1105.93z" />
<glyph unicode="&#x21c3;" d="M630.029 0.0869141h-78.9951l-394.977 394.976v78.9951h315.981v631.962h157.99v-1105.93z" />
<glyph unicode="&#x21c5;" d="M395 1580l395 -395v-79h-316v-632h-158v632h-316v79zM711 -158l395 395v79h-316v632h-158v-632h-316v-79z" />
<glyph unicode="&#x21c8;" d="M395 1422l158 -158l158 158l395 -395v-79h-316v-948h-158v948h-158v-948h-158v948h-316v79z" />
<glyph unicode="&#x2202;" d="M1083 1027q-25 -193 -55 -339t-64 -254.5t-71 -182.5t-77 -122.5t-82 -74.5t-85.5 -38t-88.5 -14t-90 -2q-58 0 -104 18.5t-80.5 49t-59 70.5t-39.5 84t-22 88.5t-7 84.5q0 148 43.5 253t112 171.5t152.5 97.5t166 31q74 0 139.5 -25t116.5 -70l37 174q10 49 1 92 t-34.5 75.5t-65 51t-88.5 18.5q1 0 -3 11.5t-9.5 29.5t-9 38t-0.5 38t16 29.5t40 11.5q82 0 147 -31t107.5 -84.5t58 -125.5t-1.5 -154zM356 553q-10 -20 -16 -57t-6 -80.5t7 -89.5t23.5 -83t43 -61t66.5 -24q49 0 105.5 18t107.5 67t90.5 135.5t56.5 223.5 q-1 40 -16.5 74.5t-42.5 59.5t-63.5 39.5t-79.5 14.5q-49 0 -94.5 -18.5t-82.5 -51t-63 -75.5t-36 -92z" />
<glyph unicode="&#x2206;" d="M948 0h-790v158l316 1264h158l316 -1264v-158zM277 158h486l-234 995z" />
<glyph unicode="&#x2207;" d="M158.058 1422h789.952v-157.99l-315.98 -1263.92h-157.99l-315.981 1263.92v157.99zM829.017 1264.01h-485.97l233.985 -994.939z" />
<glyph unicode="&#x220f;" d="M158 1422h790v-1896h-158v1738h-474v-1738h-158v1896z" />
<glyph unicode="&#x2211;" d="M790 1264h-474l316 -553l-316 -553h474v158h158v-316h-790v158l316 553l-316 553v158h790v-316h-158v158z" />
<glyph unicode="&#x2212;" d="M158 790h790v-158h-790v158z" />
<glyph unicode="&#x2215;" d="M790 1580h158l-632 -1580h-158z" />
<glyph unicode="&#x2219;" d="M316 790q0 33 12.5 61.5t34 50t50 34t61.5 12.5t61.5 -12.5t50 -34t34 -50t12.5 -61.5t-12.5 -61.5t-34 -50t-50 -34t-61.5 -12.5t-61.5 12.5t-50 34t-34 50t-12.5 61.5z" />
<glyph unicode="&#x221a;" d="M316 0l-316 553l158 79l237 -395l553 1106l158 -79l-632 -1264h-158z" />
<glyph unicode="&#x221e;" d="M0 632q0 65 25 122.5t68 100.5t100.5 68t122.5 25q30 0 70.5 -15t77.5 -44.5t63 -74t26 -103.5q0 59 26 103.5t63 74t77.5 44.5t70.5 15q65 0 122.5 -25t100.5 -68t68 -100.5t25 -122.5t-25 -122.5t-68 -100.5t-100.5 -68t-122.5 -25q-30 0 -70.5 15t-77.5 44.5t-63 74 t-26 103.5q0 -59 -26 -103.5t-63 -74t-77.5 -44.5t-70.5 -15q-65 0 -122.5 25t-100.5 68t-68 100.5t-25 122.5zM632 632q0 -33 12.5 -61.5t34 -50t50 -34t61.5 -12.5t61.5 12.5t50 34t34 50t12.5 61.5t-12.5 61.5t-34 50t-50 34t-61.5 12.5t-61.5 -12.5t-50 -34t-34 -50 t-12.5 -61.5zM158 632q0 -33 12.5 -61.5t34 -50t50 -34t61.5 -12.5t61.5 12.5t50 34t34 50t12.5 61.5t-12.5 61.5t-34 50t-50 34t-61.5 12.5t-61.5 -12.5t-50 -34t-34 -50t-12.5 -61.5z" />
<glyph unicode="&#x2229;" d="M158 711q0 82 31 154t84.5 125.5t125.5 84.5t154 31t154 -31t125.5 -84.5t84.5 -125.5t31 -154v-711h-158v711q0 49 -18.5 92t-51 75.5t-75.5 51t-92 18.5t-92 -18.5t-75.5 -51t-51 -75.5t-18.5 -92v-711h-158v711z" />
<glyph unicode="&#x222a;" d="M158 1106h158v-711q0 -49 18.5 -92t51 -75.5t75.5 -51t92 -18.5t92 18.5t75.5 51t51 75.5t18.5 92v711h158v-711q0 -82 -31 -154t-84.5 -125.5t-125.5 -84.5t-154 -31t-154 31t-125.5 84.5t-84.5 125.5t-31 154v711z" />
<glyph unicode="&#x222b;" d="M790 1343q0 33 -23 56t-56 23t-56 -23t-23 -56v-1264q0 -49 -18.5 -92t-51 -75.5t-75.5 -51t-92 -18.5t-92 18.5t-75.5 51t-51 75.5t-18.5 92v79h158v-79q0 -33 23 -56t56 -23t56 23t23 56q1 227 1.5 400.5t0.5 302.5v371q0 61 -0.5 96.5t-1 54.5t-0.5 26v13 q0 49 18.5 92t51 75.5t75.5 51t92 18.5t92 -18.5t75.5 -51t51 -75.5t18.5 -92v-79h-158v79z" />
<glyph unicode="&#x2234;" d="M158 395q0 33 23 56t56 23t56 -23t23 -56t-23 -56t-56 -23t-56 23t-23 56zM474 1027q0 33 23 56t56 23t56 -23t23 -56t-23 -56t-56 -23t-56 23t-23 56zM790 395q0 33 23 56t56 23t56 -23t23 -56t-23 -56t-56 -23t-56 23t-23 56z" />
<glyph unicode="&#x2235;" d="M158 1027.02q0 -32.998 23 -55.9971q23 -22.998 56 -22.998t56 22.998q23 22.999 23 55.9971t-23 55.9961q-23 22.999 -56 22.999t-56 -22.999q-23 -22.998 -23 -55.9961zM474 395.062q0 -32.998 23 -55.9961q23 -22.999 56 -22.999t56 22.999q23 22.998 23 55.9961 t-23 55.9971q-23 22.998 -56 22.998t-56 -22.998q-23 -22.999 -23 -55.9971zM790 1027.02q0 -32.998 23 -55.9971q23 -22.998 56 -22.998t56 22.998q23 22.999 23 55.9971t-23 55.9961q-23 22.999 -56 22.999t-56 -22.999q-23 -22.998 -23 -55.9961z" />
<glyph unicode="&#x2236;" d="M474 1027q0 33 23 56t56 23t56 -23t23 -56t-23 -56t-56 -23t-56 23t-23 56zM474 395q0 33 23 56t56 23t56 -23t23 -56t-23 -56t-56 -23t-56 23t-23 56z" />
<glyph unicode="&#x2237;" d="M158 395q0 33 23 56t56 23t56 -23t23 -56t-23 -56t-56 -23t-56 23t-23 56zM158 1027q0 33 23 56t56 23t56 -23t23 -56t-23 -56t-56 -23t-56 23t-23 56zM790 395q0 33 23 56t56 23t56 -23t23 -56t-23 -56t-56 -23t-56 23t-23 56zM790 1027q0 33 23 56t56 23t56 -23t23 -56 t-23 -56t-56 -23t-56 23t-23 56z" />
<glyph unicode="&#x2248;" d="M0 948q63 51 117.5 71t105.5 20q46 0 88 -13.5t82.5 -33.5t80.5 -44t80.5 -44t82.5 -33.5t88 -13.5q50 0 105 20t118 71v-158q-63 -51 -118 -71t-105 -20q-46 0 -88 13.5t-82.5 33.5t-80.5 44t-80.5 44t-82.5 33.5t-88 13.5q-51 0 -105.5 -20t-117.5 -71v158zM0 632 q63 51 117.5 71t105.5 20q46 0 88 -13.5t82.5 -33.5t80.5 -44t80.5 -44t82.5 -33.5t88 -13.5q50 0 105 20t118 71v-158q-63 -51 -118 -71t-105 -20q-46 0 -88 13.5t-82.5 33.5t-80.5 44t-80.5 44t-82.5 33.5t-88 13.5q-51 0 -105.5 -20t-117.5 -71v158z" />
<glyph unicode="&#x2260;" d="M0 474v158h948v-158h-948zM0 790v158h948v-158h-948zM717 1406.83h158l-632 -1422.04h-158z" />
<glyph unicode="&#x2261;" d="M0 632v158h948v-158h-948zM0 948v158h948v-158h-948zM0 316v158h948v-158h-948z" />
<glyph unicode="&#x2264;" d="M158 158h790v-158h-790v158zM755 1343v-114l-439 -439l439 -439v-114h-114l-496 496v114l496 496h114z" />
<glyph unicode="&#x2265;" d="M935 158h-790v-158h790v158zM452 1343l496 -496v-114l-496 -496h-114v114l439 439l-439 439v114h114z" />
<glyph unicode="&#x2302;" d="M553 1106l395 -632v-316h-790v316zM316 395v-79h474v79l-237 395z" />
<glyph unicode="&#x2310;" d="M316 474h-158v474h790v-158h-632v-316z" />
<glyph unicode="&#x2318;" d="M237 790q-49 0 -92 18.5t-75.5 51t-51 75.5t-18.5 92t18.5 92t51 75.5t75.5 51t92 18.5t92 -18.5t75.5 -51t51 -75.5t18.5 -92v-79h158v79q0 49 18.5 92t51 75.5t75.5 51t92 18.5t92 -18.5t75.5 -51t51 -75.5t18.5 -92t-18.5 -92t-51 -75.5t-75.5 -51t-92 -18.5h-79v-158 h79q49 0 92 -18.5t75.5 -51t51 -75.5t18.5 -92t-18.5 -92t-51 -75.5t-75.5 -51t-92 -18.5t-92 18.5t-75.5 51t-51 75.5t-18.5 92v79h-158v-79q0 -49 -18.5 -92t-51 -75.5t-75.5 -51t-92 -18.5t-92 18.5t-75.5 51t-51 75.5t-18.5 92t18.5 92t51 75.5t75.5 51t92 18.5h79v158 h-79zM632 632v158h-158v-158h158zM237 474q-33 0 -56 -23t-23 -56t23 -56t56 -23t56 23t23 56v79h-79zM158 1027q0 -33 23 -56t56 -23h79v79q0 33 -23 56t-56 23t-56 -23t-23 -56zM948 395q0 33 -23 56t-56 23h-79v-79q0 -33 23 -56t56 -23t56 23t23 56zM790 948h79 q33 0 56 23t23 56t-23 56t-56 23t-56 -23t-23 -56v-79z" />
<glyph unicode="&#x2320;" d="M632 -632h-158v2133q0 49 18.5 92t51 75.5t75.5 51t92 18.5h79q33 0 61.5 -12.5t50 -34t34 -50t12.5 -61.5t-12.5 -61.5t-34 -50t-50 -34t-61.5 -12.5q-45 0 -81 22t-56 57q-21 -35 -21 -79v-2054z" />
<glyph unicode="&#x2321;" d="M474 1975h158v-2212q0 -49 -18.5 -92t-51 -75.5t-75.5 -51t-92 -18.5h-79q-33 0 -61.5 12.5t-50 34t-34 50t-12.5 61.5t12.5 61.5t34 50t50 34t61.5 12.5q45 0 81 -22t56 -57q11 17 16 37.5t5 41.5v2133z" />
<glyph unicode="&#x2500;" d="M0 790h1106v-158h-1106v158z" />
<glyph unicode="&#x2502;" d="M474 1975h158v-2607h-158v2607z" />
<glyph unicode="&#x250c;" d="M474 -632v1422h632v-158h-474v-1264h-158z" />
<glyph unicode="&#x2510;" d="M0 790h632v-1422h-158v1264h-474v158z" />
<glyph unicode="&#x2514;" d="M474 1975h158v-1185h474v-158h-632v1343z" />
<glyph unicode="&#x2518;" d="M0 790h474v1185h158v-1343h-632v158z" />
<glyph unicode="&#x251c;" d="M474 1975h158v-1185h474v-158h-474v-1264h-158v2607z" />
<glyph unicode="&#x2524;" d="M0 790h474v1185h158v-2607h-158v1264h-474v158z" />
<glyph unicode="&#x252c;" d="M0 790h1106v-158h-474v-1264h-158v1264h-474v158z" />
<glyph unicode="&#x2534;" d="M0 790h474v1185h158v-1185h474v-158h-1106v158z" />
<glyph unicode="&#x253c;" d="M0 790h474v1185h158v-1185h474v-158h-474v-1264h-158v1264h-474v158z" />
<glyph unicode="&#x2550;" d="M0 948h1106v-158h-1106v158zM0 632h1106v-158h-1106v158z" />
<glyph unicode="&#x2551;" d="M632 -632v2607h158v-2607h-158zM474 -632h-158v2607h158v-2607z" />
<glyph unicode="&#x2552;" d="M632 790v-158h474v-158h-474v-1106h-158v1580h632v-158h-474z" />
<glyph unicode="&#x2553;" d="M790 632v-1264h-158v1264h-158v-1264h-158v1422h790v-158h-316z" />
<glyph unicode="&#x2554;" d="M1106 948v-158h-632v-1422h-158v1580h790zM632 632h474v-158h-316v-1106h-158v1264z" />
<glyph unicode="&#x2555;" d="M632 -632h-158v1106h-474v158h474v158h-474v158h632v-1580z" />
<glyph unicode="&#x2556;" d="M790 -632h-158v1264h-158v-1264h-158v1264h-316v158h790v-1422z" />
<glyph unicode="&#x2557;" d="M0 948h790v-1580h-158v1422h-632v158zM0 474v158h474v-1264h-158v1106h-316z" />
<glyph unicode="&#x2558;" d="M632 790v-158h474v-158h-632v1501h158v-1027h474v-158h-474z" />
<glyph unicode="&#x2559;" d="M316 632v1343h158v-1185h158v1185h158v-1185h316v-158h-790z" />
<glyph unicode="&#x255a;" d="M316 1975h158v-1343h632v-158h-790v1501zM632 790v1185h158v-1027h316v-158h-474z" />
<glyph unicode="&#x255b;" d="M632 474h-632v158h474v158h-474v158h474v1027h158v-1501z" />
<glyph unicode="&#x255c;" d="M790 632h-790v158h316v1185h158v-1185h158v1185h158v-1343z" />
<glyph unicode="&#x255d;" d="M0 632h632v1343h158v-1501h-790v158zM474 790h-474v158h316v1027h158v-1185z" />
<glyph unicode="&#x255e;" d="M632 -632h-158v2607h158v-1027h474v-158h-474v-158h474v-158h-474v-1106z" />
<glyph unicode="&#x255f;" d="M1106 790v-158h-316v-1264h-158v2607h158v-1185h316zM474 -632h-158v2607h158v-2607z" />
<glyph unicode="&#x2560;" d="M474 -632h-158v2607h158v-2607zM632 632h474v-158h-316v-1106h-158v1264zM632 790v1185h158v-1027h316v-158h-474z" />
<glyph unicode="&#x2561;" d="M632 -632h-158v1106h-474v158h474v158h-474v158h474v1027h158v-2607z" />
<glyph unicode="&#x2562;" d="M474 -632h-158v1264h-316v158h316v1185h158v-2607zM632 -632v2607h158v-2607h-158z" />
<glyph unicode="&#x2563;" d="M632 -632v2607h158v-2607h-158zM0 474v158h474v-1264h-158v1106h-316zM474 790h-474v158h316v1027h158v-1185z" />
<glyph unicode="&#x2564;" d="M1106 632v-158h-474v-1106h-158v1106h-474v158h1106zM0 790v158h1106v-158h-1106z" />
<glyph unicode="&#x2565;" d="M790 632v-1264h-158v1264h-158v-1264h-158v1264h-316v158h1106v-158h-316z" />
<glyph unicode="&#x2566;" d="M0 474v158h474v-1264h-158v1106h-316zM632 632h474v-158h-316v-1106h-158v1264zM0 948h1106v-158h-1106v158z" />
<glyph unicode="&#x2567;" d="M0 948h474v1027h158v-1027h474v-158h-1106v158zM0 632h1106v-158h-1106v158z" />
<glyph unicode="&#x2568;" d="M0 632v158h316v1185h158v-1185h158v1185h158v-1185h316v-158h-1106z" />
<glyph unicode="&#x2569;" d="M474 790h-474v158h316v1027h158v-1185zM632 790v1185h158v-1027h316v-158h-474zM0 632h1106v-158h-1106v158z" />
<glyph unicode="&#x256a;" d="M632 790v-158h474v-158h-474v-1106h-158v1106h-474v158h474v158h-474v158h474v1027h158v-1027h474v-158h-474z" />
<glyph unicode="&#x256b;" d="M790 632v-1264h-158v1264h-158v-1264h-158v1264h-316v158h316v1185h158v-1185h158v1185h158v-1185h316v-158h-316z" />
<glyph unicode="&#x256c;" d="M0 474v158h474v-1264h-158v1106h-316zM632 632h474v-158h-316v-1106h-158v1264zM474 790h-474v158h316v1027h158v-1185zM632 790v1185h158v-1027h316v-158h-474z" />
<glyph unicode="&#x2580;" d="M0 1975h1106v-1343h-1106v1343z" />
<glyph unicode="&#x2584;" d="M0 632h1106v-1264h-1106v1264z" />
<glyph unicode="&#x2588;" d="M0 1975h1106v-2607h-1106v2607z" />
<glyph unicode="&#x258c;" d="M0 1975h632v-2607h-632v2607z" />
<glyph unicode="&#x2590;" d="M632 1975h474v-2607h-474v2607z" />
<glyph unicode="&#x2591;" d="M790 1580v158h158v-158h-158zM474 1580v158h158v-158h-158zM158 1580v158h158v-158h-158zM632 1264v158h158v-158h-158zM316 1264v158h158v-158h-158zM0 1264v158h158v-158h-158zM790 948v158h158v-158h-158zM474 948v158h158v-158h-158zM158 948v158h158v-158h-158z M632 632v158h158v-158h-158zM316 632v158h158v-158h-158zM0 632v158h158v-158h-158zM790 316v158h158v-158h-158zM474 316v158h158v-158h-158zM158 316v158h158v-158h-158zM632 0v158h158v-158h-158zM316 0v158h158v-158h-158zM0 0v158h158v-158h-158zM790 -316v158h158 v-158h-158zM474 -316v158h158v-158h-158zM158 -316v158h158v-158h-158zM632 -632v158h158v-158h-158zM316 -632v158h158v-158h-158zM0 -632v158h158v-158h-158z" />
<glyph unicode="&#x2592;" d="M0 -632v158h158v158h-158v158h158v158h-158v158h158v158h-158v158h158v158h-158v158h158v158h-158v158h158v158h-158v158h158v158h-158v158h158v158h158v-158h158v158h158v-158h158v158h158v-158h158v-158h-158v-158h158v-158h-158v-158h158v-158h-158v-158h158v-158 h-158v-158h158v-158h-158v-158h158v-158h-158v-158h158v-158h-158v-158h158v-158h-158v158h-158v-158h-158v158h-158v-158h-158v158h-158v-158h-158zM790 316h-158v-158h158v158zM474 -316h-158v-158h158v158zM474 316h-158v-158h158v158zM632 -158h-158v-158h158v158z M790 -316h-158v-158h158v158zM316 -158h-158v-158h158v158zM632 1106h-158v-158h158v158zM948 -158h-158v-158h158v158zM790 632h-158v-158h158v158zM474 1264h-158v-158h158v158zM474 632h-158v-158h158v158zM632 790h-158v-158h158v158zM474 1580h-158v-158h158v158z M948 1738h-158v-158h158v158zM316 474h-158v-158h158v158zM948 790h-158v-158h158v158zM316 1738h-158v-158h158v158zM948 158h-158v-158h158v158zM790 948h-158v-158h158v158zM632 1422h-158v-158h158v158zM474 0h-158v-158h158v158zM790 1264h-158v-158h158v158zM948 474 h-158v-158h158v158zM790 1580h-158v-158h158v158zM474 948h-158v-158h158v158zM948 948v158h-158v-158h158zM474 316h158v158h-158v-158zM158 1264h158v158h-158v-158zM316 790h-158v-158h158v158zM474 1580h158v158h-158v-158zM948 1422h-158v-158h158v158zM790 0h-158 v-158h158v158zM632 158h-158v-158h158v158zM316 1106h-158v-158h158v158zM316 158h-158v-158h158v158z" />
<glyph unicode="&#x2593;" d="M0 0h158v158h-158v474h158v158h-158v474h158v158h-158v474h1106v-2528h-316v158h-158v-158h-158v158h-158v-158h-158v158h-158v474zM158 1738v-158h158v158h-158zM158 474v-158h158v158h-158zM474 1580h158v158h-158v-158zM632 0h158v158h-158v-158zM790 -316h158v158 h-158v-158zM474 316h158v158h-158v-158zM316 0h158v158h-158v-158zM474 948h158v158h-158v-158zM790 1580h158v158h-158v-158zM632 1264h158v158h-158v-158zM790 948h158v158h-158v-158zM316 1264h158v158h-158v-158zM316 632h158v158h-158v-158zM632 632h158v158h-158v-158 zM790 316h158v158h-158v-158zM158 1106v-158h158v158h-158zM474 -316h158v158h-158v-158zM158 -158v-158h158v158h-158z" />
<glyph unicode="&#x25a0;" d="M158 1106h790v-790h-790v790z" />
<glyph unicode="&#x25b2;" d="M553 1106l395 -790h-790z" />
<glyph unicode="&#x25ba;" d="M948 711l-790 -395v790z" />
<glyph unicode="&#x25bc;" d="M553 316.067l395 789.952h-790z" />
<glyph unicode="&#x25c4;" d="M158.058 711l789.952 -395v790z" />
<glyph unicode="&#x25ca;" d="M158 711l395 711l395 -711l-395 -711zM553 237l237 474l-237 474l-237 -474z" />
<glyph unicode="&#x25cb;" d="M316 711q0 49 18.5 92t51 75.5t75.5 51t92 18.5t92 -18.5t75.5 -51t51 -75.5t18.5 -92t-18.5 -92t-51 -75.5t-75.5 -51t-92 -18.5t-92 18.5t-75.5 51t-51 75.5t-18.5 92z" />
<glyph unicode="&#x25cf;" d="M316 711q0 49 18.5 92t51 75.5t75.5 51t92 18.5t92 -18.5t75.5 -51t51 -75.5t18.5 -92t-18.5 -92t-51 -75.5t-75.5 -51t-92 -18.5t-92 18.5t-75.5 51t-51 75.5t-18.5 92z" />
<glyph unicode="&#x25d8;" d="M158 1106h790v-790h-790v790zM316 711q0 -49 18.5 -92t51 -75.5t75.5 -51t92 -18.5t92 18.5t75.5 51t51 75.5t18.5 92t-18.5 92t-51 75.5t-75.5 51t-92 18.5t-92 -18.5t-75.5 -51t-51 -75.5t-18.5 -92z" />
<glyph unicode="&#x25d9;" d="M158 1106h790v-790h-790v790zM316 711q0 -49 18.5 -92t51 -75.5t75.5 -51t92 -18.5t92 18.5t75.5 51t51 75.5t18.5 92t-18.5 92t-51 75.5t-75.5 51t-92 18.5t-92 -18.5t-75.5 -51t-51 -75.5t-18.5 -92zM474 711q0 33 23 56t56 23t56 -23t23 -56t-23 -56t-56 -23t-56 23 t-23 56z" />
<glyph unicode="&#x2639;" d="M0 711q0 114 43.5 215t118.5 176t176 118.5t215 43.5t215 -43.5t176 -118.5t118.5 -176t43.5 -215t-43.5 -215t-118.5 -176t-176 -118.5t-215 -43.5t-215 43.5t-176 118.5t-118.5 176t-43.5 215zM158 711q0 -82 31 -154t84.5 -125.5t125.5 -84.5t154 -31t154 31 t125.5 84.5t84.5 125.5t31 154t-31 154t-84.5 125.5t-125.5 84.5t-154 31t-154 -31t-125.5 -84.5t-84.5 -125.5t-31 -154zM553 710q237 1 237 -236h-79q0 30 -2.5 58t-17.5 50.5t-47 35.5t-91 13t-91 -14t-47 -36.5t-17.5 -50.5t-2.5 -58h-79q0 236 237 238zM632 869 q0 33 23 56t56 23t56 -23t23 -56t-23 -56t-56 -23t-56 23t-23 56zM316 869q0 33 23 56t56 23t56 -23t23 -56t-23 -56t-56 -23t-56 23t-23 56z" />
<glyph unicode="&#x263a;" d="M0 711q0 114 43.5 215t118.5 176t176 118.5t215 43.5t215 -43.5t176 -118.5t118.5 -176t43.5 -215t-43.5 -215t-118.5 -176t-176 -118.5t-215 -43.5t-215 43.5t-176 118.5t-118.5 176t-43.5 215zM158 711q0 -82 31 -154t84.5 -125.5t125.5 -84.5t154 -31t154 31 t125.5 84.5t84.5 125.5t31 154t-31 154t-84.5 125.5t-125.5 84.5t-154 31t-154 -31t-125.5 -84.5t-84.5 -125.5t-31 -154zM553 474q-237 0 -237 237h79q0 -30 2.5 -58t17.5 -50.5t47 -36t91 -13.5t91 13.5t47 36t17.5 50.5t2.5 58h79q0 -237 -237 -237zM632 869q0 33 23 56 t56 23t56 -23t23 -56t-23 -56t-56 -23t-56 23t-23 56zM316 869q0 33 23 56t56 23t56 -23t23 -56t-23 -56t-56 -23t-56 23t-23 56z" />
<glyph unicode="&#x263b;" d="M0 711q0 114 43.5 215t118.5 176t176 118.5t215 43.5t215 -43.5t176 -118.5t118.5 -176t43.5 -215t-43.5 -215t-118.5 -176t-176 -118.5t-215 -43.5t-215 43.5t-176 118.5t-118.5 176t-43.5 215zM316 869q0 -33 23 -56t56 -23t56 23t23 56t-23 56t-56 23t-56 -23t-23 -56 zM632 869q0 -33 23 -56t56 -23t56 23t23 56t-23 56t-56 23t-56 -23t-23 -56zM553 474q237 0 237 237h-79q0 -30 -2.5 -58t-17.5 -50.5t-47 -36t-91 -13.5t-91 13.5t-47 36t-17.5 50.5t-2.5 58h-79q0 -237 237 -237z" />
<glyph unicode="&#x263c;" d="M474 324q-37 7 -70.5 20.5t-63.5 33.5l-122 -122l-120 120l122 122q-20 30 -33.5 63.5t-20.5 70.5h-166v158h166q7 36 20.5 69.5t33.5 63.5l-122 123l120 120l122 -123q62 40 134 55v166h158v-166q71 -15 133 -55l123 123l120 -120l-123 -123q40 -62 55 -133h166v-158 h-166q-15 -72 -55 -134l123 -122l-120 -120l-123 122q-30 -20 -63.5 -33.5t-69.5 -20.5v-166h-158v166zM316 711q0 -49 18.5 -92t51 -75.5t75.5 -51t92 -18.5t92 18.5t75.5 51t51 75.5t18.5 92t-18.5 92t-51 75.5t-75.5 51t-92 18.5t-92 -18.5t-75.5 -51t-51 -75.5 t-18.5 -92z" />
<glyph unicode="&#x2640;" d="M158 1027q0 82 31 154t84.5 125.5t125.5 84.5t154 31t154 -31t125.5 -84.5t84.5 -125.5t31 -154q0 -72 -24 -136t-66.5 -115.5t-100.5 -87t-125 -48.5v-166h158v-158h-158v-158h-158v158h-158v158h158v166q-68 13 -125.5 48.5t-100 87t-66.5 115.5t-24 136zM316 1027 q0 -49 18.5 -92t51 -75.5t75.5 -51t92 -18.5t92 18.5t75.5 51t51 75.5t18.5 92t-18.5 92t-51 75.5t-75.5 51t-92 18.5t-92 -18.5t-75.5 -51t-51 -75.5t-18.5 -92z" />
<glyph unicode="&#x2642;" d="M632 1106h474v-474h-158v202l-223 -223q31 -47 48 -101.5t17 -114.5q0 -82 -31 -154t-84.5 -125.5t-125.5 -84.5t-154 -31t-154 31t-125.5 84.5t-84.5 125.5t-31 154t31 154t84.5 125.5t125.5 84.5t154 31q60 0 114.5 -17t101.5 -48l223 223h-202v158zM158 395 q0 -49 18.5 -92t51 -75.5t75.5 -51t92 -18.5t92 18.5t75.5 51t51 75.5t18.5 92t-18.5 92t-51 75.5t-75.5 51t-92 18.5t-92 -18.5t-75.5 -51t-51 -75.5t-18.5 -92z" />
<glyph unicode="&#x2660;" d="M316 158h158v180q-35 -17 -69.5 -19.5t-50.5 -2.5q-44 0 -80 13.5t-62 36t-40 50.5t-14 58q0 39 13 74t37 72.5t58.5 81t78.5 100.5t96.5 131t111.5 173q59 -99 111.5 -173t96.5 -131t78.5 -100.5t58.5 -81t37 -72.5t13 -74q0 -30 -14 -58t-40.5 -50.5t-63 -36 t-81.5 -13.5q-8 0 -20.5 0.5t-28.5 2.5t-33.5 6.5t-34.5 12.5v-180h158v-158h-474v158z" />
<glyph unicode="&#x2663;" d="M79 474q0 49 18.5 92t51 75.5t75.5 51t92 18.5q35 0 71 -11q-33 32 -52 75t-19 94q0 49 18.5 92t51 75.5t75.5 51t92 18.5h6q48 -2 90 -21t73.5 -51t49.5 -74.5t18 -90.5q0 -51 -19 -94t-52 -75q35 11 71 11q49 0 92 -18.5t75.5 -51t51 -75.5t18.5 -92t-18.5 -92 t-51 -75.5t-75.5 -51t-92 -18.5q-46 0 -86 15.5t-72 44.5v-139h158v-158h-474v158h158v139q-32 -29 -72.5 -44.5t-85.5 -15.5q-49 0 -92 18.5t-75.5 51t-51 75.5t-18.5 92z" />
<glyph unicode="&#x2665;" d="M0 869q0 59 26 103.5t63 74t77.5 44.5t70.5 15t70.5 -15t77.5 -44.5t63 -74t26 -103.5q0 59 26 103.5t63 74t77.5 44.5t70.5 15t70.5 -15t77.5 -44.5t63 -74t26 -103.5q0 -89 -40.5 -180.5t-107.5 -195t-152 -224.5t-174 -269q-89 148 -174 269t-152 224.5t-107.5 195 t-40.5 180.5z" />
<glyph unicode="&#x2666;" d="M158 553l395 553l395 -553l-395 -553z" />
<glyph unicode="&#x2669;" d="M158 237q0 49 18.5 92t51 75.5t75.5 51t92 18.5q40 0 79 -14v962h158v-1185q0 -49 -18.5 -92t-51 -75.5t-75.5 -51t-92 -18.5t-92 18.5t-75.5 51t-51 75.5t-18.5 92z" />
<glyph unicode="&#x266a;" d="M158 237q0 49 18.5 92t51 75.5t75.5 51t92 18.5q40 0 79 -14v962h158l316 -395l-79 -79l-237 275v-986q0 -49 -18.5 -92t-51 -75.5t-75.5 -51t-92 -18.5t-92 18.5t-75.5 51t-51 75.5t-18.5 92z" />
<glyph unicode="&#x266b;" d="M632 395q0 49 18.5 92t51 75.5t75.5 51t92 18.5q40 0 79 -14v590l-474 -237v-892q0 -49 -18.5 -92t-51 -75.5t-75.5 -51t-92 -18.5t-92 18.5t-75.5 51t-51 75.5t-18.5 92t18.5 92t51 75.5t75.5 51t92 18.5q40 0 79 -14v777l675 343h115v-1027q0 -49 -18.5 -92t-51 -75.5 t-75.5 -51t-92 -18.5t-92 18.5t-75.5 51t-51 75.5t-18.5 92z" />
<glyph unicode="&#x2680;" d="M0 790q0 59 27 116t71.5 101.5t101.5 71.5t116 27h474q59 0 116 -27t101.5 -71.5t71.5 -101.5t27 -116v-474q0 -59 -27 -116t-71.5 -101.5t-101.5 -71.5t-116 -27h-474q-59 0 -116 27t-101.5 71.5t-71.5 101.5t-27 116v474zM474 553q0 -33 23 -56t56 -23t56 23t23 56 t-23 56t-56 23t-56 -23t-23 -56z" />
<glyph unicode="&#x2681;" d="M0 790q0 59 27 116t71.5 101.5t101.5 71.5t116 27h474q59 0 116 -27t101.5 -71.5t71.5 -101.5t27 -116v-474q0 -59 -27 -116t-71.5 -101.5t-101.5 -71.5t-116 -27h-474q-59 0 -116 27t-101.5 71.5t-71.5 101.5t-27 116v474zM158 869q0 -33 23 -56t56 -23t56 23t23 56 t-23 56t-56 23t-56 -23t-23 -56zM790 237q0 -33 23 -56t56 -23t56 23t23 56t-23 56t-56 23t-56 -23t-23 -56z" />
<glyph unicode="&#x2682;" d="M0 790q0 59 27 116t71.5 101.5t101.5 71.5t116 27h474q59 0 116 -27t101.5 -71.5t71.5 -101.5t27 -116v-474q0 -59 -27 -116t-71.5 -101.5t-101.5 -71.5t-116 -27h-474q-59 0 -116 27t-101.5 71.5t-71.5 101.5t-27 116v474zM158 869q0 -33 23 -56t56 -23t56 23t23 56 t-23 56t-56 23t-56 -23t-23 -56zM474 553q0 -33 23 -56t56 -23t56 23t23 56t-23 56t-56 23t-56 -23t-23 -56zM790 237q0 -33 23 -56t56 -23t56 23t23 56t-23 56t-56 23t-56 -23t-23 -56z" />
<glyph unicode="&#x2683;" d="M0 790q0 59 27 116t71.5 101.5t101.5 71.5t116 27h474q59 0 116 -27t101.5 -71.5t71.5 -101.5t27 -116v-474q0 -59 -27 -116t-71.5 -101.5t-101.5 -71.5t-116 -27h-474q-59 0 -116 27t-101.5 71.5t-71.5 101.5t-27 116v474zM158 869q0 -33 23 -56t56 -23t56 23t23 56 t-23 56t-56 23t-56 -23t-23 -56zM790 869q0 -33 23 -56t56 -23t56 23t23 56t-23 56t-56 23t-56 -23t-23 -56zM158 237q0 -33 23 -56t56 -23t56 23t23 56t-23 56t-56 23t-56 -23t-23 -56zM790 237q0 -33 23 -56t56 -23t56 23t23 56t-23 56t-56 23t-56 -23t-23 -56z" />
<glyph unicode="&#x2684;" d="M0 790q0 59 27 116t71.5 101.5t101.5 71.5t116 27h474q59 0 116 -27t101.5 -71.5t71.5 -101.5t27 -116v-474q0 -59 -27 -116t-71.5 -101.5t-101.5 -71.5t-116 -27h-474q-59 0 -116 27t-101.5 71.5t-71.5 101.5t-27 116v474zM158 869q0 -33 23 -56t56 -23t56 23t23 56 t-23 56t-56 23t-56 -23t-23 -56zM790 869q0 -33 23 -56t56 -23t56 23t23 56t-23 56t-56 23t-56 -23t-23 -56zM158 237q0 -33 23 -56t56 -23t56 23t23 56t-23 56t-56 23t-56 -23t-23 -56zM474 553q0 -33 23 -56t56 -23t56 23t23 56t-23 56t-56 23t-56 -23t-23 -56zM790 237 q0 -33 23 -56t56 -23t56 23t23 56t-23 56t-56 23t-56 -23t-23 -56z" />
<glyph unicode="&#x2685;" d="M0 790q0 59 27 116t71.5 101.5t101.5 71.5t116 27h474q59 0 116 -27t101.5 -71.5t71.5 -101.5t27 -116v-474q0 -59 -27 -116t-71.5 -101.5t-101.5 -71.5t-116 -27h-474q-59 0 -116 27t-101.5 71.5t-71.5 101.5t-27 116v474zM158 869q0 -33 23 -56t56 -23t56 23t23 56 t-23 56t-56 23t-56 -23t-23 -56zM790 869q0 -33 23 -56t56 -23t56 23t23 56t-23 56t-56 23t-56 -23t-23 -56zM158 237q0 -33 23 -56t56 -23t56 23t23 56t-23 56t-56 23t-56 -23t-23 -56zM158 553q0 -33 23 -56t56 -23t56 23t23 56t-23 56t-56 23t-56 -23t-23 -56zM790 237 q0 -33 23 -56t56 -23t56 23t23 56t-23 56t-56 23t-56 -23t-23 -56zM790 553q0 -33 23 -56t56 -23t56 23t23 56t-23 56t-56 23t-56 -23t-23 -56z" />
<glyph unicode="&#xe000;" horiz-adv-x="1105" d="M0 1105h1105v-1105h-1105v1105z" />
<glyph unicode="&#xfb00;" d="M474 948h158v79q0 82 31 154t84.5 125.5t125.5 84.5t154 31h79v-158h-79q-49 0 -92 -18.5t-75.5 -51t-51 -75.5t-18.5 -92v-79h316v-158h-316v-790h-158v790h-316v-790h-158v790h-158v158h158v79q0 82 31 154t84.5 125.5t125.5 84.5t154 31h79v-158h-79q-49 0 -92 -18.5 t-75.5 -51t-51 -75.5t-18.5 -92v-79h158z" />
<glyph unicode="&#xfb01;" d="M158 948h158v79q0 82 31 154t84.5 125.5t125.5 84.5t154 31h237v-158h-237q-49 0 -92 -18.5t-75.5 -51t-51 -75.5t-18.5 -92v-79h474v-948h-158v790h-316v-790h-158v790h-158v158z" />
<glyph unicode="&#xfb02;" d="M158 948h158v79q0 82 31 154t84.5 125.5t125.5 84.5t154 31h237v-1422h-158v790h-316v-790h-158v790h-158v158zM474 948h316v316h-79q-49 0 -92 -18.5t-75.5 -51t-51 -75.5t-18.5 -92v-79z" />
<glyph unicode="&#xfb03;" d="M1106 0h-158v790h-237v-790h-158v790h-237v-790h-158v790h-158v158h158v79q0 82 31 154t84.5 125.5t125.5 84.5t154 31v-158q-49 0 -92 -18.5t-75.5 -51t-51 -75.5t-18.5 -92v-79h237v79q0 82 31 154t84.5 125.5t125.5 84.5t154 31v-76q1 32 24 54t55 22q33 0 56 -23 t23 -56t-23 -56t-56 -23q-32 0 -55 21.5t-24 53.5v-75q-49 0 -92 -18.5t-75.5 -51t-51 -75.5t-18.5 -92v-79h395v-948z" />
<glyph unicode="&#xfb04;" d="M948 790h-237v-790h-158v790h-237v-790h-158v790h-158v158h158v79q0 82 31 154t84.5 125.5t125.5 84.5t154 31v-158q-49 0 -92 -18.5t-75.5 -51t-51 -75.5t-18.5 -92v-79h237v79q0 82 31 154t84.5 125.5t125.5 84.5t154 31h158v-1422h-158v790zM948 1264q-49 0 -92 -18.5 t-75.5 -51t-51 -75.5t-18.5 -92v-79h237v316z" />
<glyph unicode="&#xfb06;" d="M790 474q0 -59 2.5 -116t17.5 -101.5t47 -71.5t91 -27h158v-158h-158q-89 0 -149.5 29.5t-97.5 89t-53 148t-16 207.5v474h-316q-30 0 -58 -13.5t-50.5 -36t-36 -50.5t-13.5 -58t1 -58t8.5 -50.5t23.5 -36t46 -13.5q59 0 103.5 -27t74 -71.5t44.5 -101t15 -114.5 q0 -60 -27 -117t-71.5 -102t-101.5 -72t-116 -27h-158v158h158q30 0 58 13.5t50.5 36t36 50.5t13.5 58q0 29 -1 57t-8.5 50.5t-23.5 36.5t-46 14q-59 0 -103.5 16t-74 53t-44.5 97.5t-15 149.5q0 59 27 116t71.5 101.5t101.5 71.5t116 27h316v316h158v-316h316v-158h-316 v-474z" />
</font>
</defs>
</svg>
